%TF.GenerationSoftware,KiCad,Pcbnew,(6.0.10)*%
%TF.CreationDate,2023-02-17T01:50:08+01:00*%
%TF.ProjectId,haut,68617574-2e6b-4696-9361-645f70636258,rev?*%
%TF.SameCoordinates,Original*%
%TF.FileFunction,Paste,Top*%
%TF.FilePolarity,Positive*%
%FSLAX46Y46*%
G04 Gerber Fmt 4.6, Leading zero omitted, Abs format (unit mm)*
G04 Created by KiCad (PCBNEW (6.0.10)) date 2023-02-17 01:50:08*
%MOMM*%
%LPD*%
G01*
G04 APERTURE LIST*
G04 Aperture macros list*
%AMRoundRect*
0 Rectangle with rounded corners*
0 $1 Rounding radius*
0 $2 $3 $4 $5 $6 $7 $8 $9 X,Y pos of 4 corners*
0 Add a 4 corners polygon primitive as box body*
4,1,4,$2,$3,$4,$5,$6,$7,$8,$9,$2,$3,0*
0 Add four circle primitives for the rounded corners*
1,1,$1+$1,$2,$3*
1,1,$1+$1,$4,$5*
1,1,$1+$1,$6,$7*
1,1,$1+$1,$8,$9*
0 Add four rect primitives between the rounded corners*
20,1,$1+$1,$2,$3,$4,$5,0*
20,1,$1+$1,$4,$5,$6,$7,0*
20,1,$1+$1,$6,$7,$8,$9,0*
20,1,$1+$1,$8,$9,$2,$3,0*%
G04 Aperture macros list end*
%ADD10R,1.250000X0.500000*%
%ADD11RoundRect,0.200000X-0.200000X-0.275000X0.200000X-0.275000X0.200000X0.275000X-0.200000X0.275000X0*%
%ADD12R,0.475000X0.250000*%
%ADD13R,0.250000X0.475000*%
%ADD14RoundRect,0.250000X-0.262500X-0.450000X0.262500X-0.450000X0.262500X0.450000X-0.262500X0.450000X0*%
%ADD15R,2.000000X1.600000*%
%ADD16R,0.500000X1.750000*%
%ADD17RoundRect,0.250000X-0.375000X-0.625000X0.375000X-0.625000X0.375000X0.625000X-0.375000X0.625000X0*%
G04 APERTURE END LIST*
D10*
%TO.C,C1*%
X100500000Y-86750000D03*
X100500000Y-88250000D03*
%TD*%
%TO.C,C2*%
X103000000Y-87000000D03*
X103000000Y-88500000D03*
%TD*%
D11*
%TO.C,R1*%
X93850000Y-86500000D03*
X95500000Y-86500000D03*
%TD*%
D12*
%TO.C,U1*%
X99837500Y-84250000D03*
X99837500Y-84750000D03*
X99837500Y-85250000D03*
X99837500Y-85750000D03*
D13*
X100500000Y-85912500D03*
X101000000Y-85912500D03*
X101500000Y-85912500D03*
D12*
X102162500Y-85750000D03*
X102162500Y-85250000D03*
X102162500Y-84750000D03*
X102162500Y-84250000D03*
D13*
X101500000Y-84087500D03*
X101000000Y-84087500D03*
X100500000Y-84087500D03*
%TD*%
D14*
%TO.C,R2*%
X91000000Y-88500000D03*
X92825000Y-88500000D03*
%TD*%
D15*
%TO.C,J1*%
X110000000Y-79195000D03*
X92200000Y-79195000D03*
D16*
X94600000Y-81070000D03*
X95600000Y-77320000D03*
X96600000Y-81070000D03*
X97600000Y-77320000D03*
X98600000Y-81070000D03*
X99600000Y-77320000D03*
X100600000Y-81070000D03*
X101600000Y-77320000D03*
X102600000Y-81070000D03*
X103600000Y-77320000D03*
X104600000Y-81070000D03*
X105600000Y-77320000D03*
X106600000Y-81070000D03*
X107600000Y-77320000D03*
%TD*%
D17*
%TO.C,D1*%
X92800000Y-91200000D03*
X95600000Y-91200000D03*
%TD*%
M02*
