%TF.GenerationSoftware,KiCad,Pcbnew,(6.0.10)*%
%TF.CreationDate,2023-02-17T01:50:08+01:00*%
%TF.ProjectId,haut,68617574-2e6b-4696-9361-645f70636258,rev?*%
%TF.SameCoordinates,Original*%
%TF.FileFunction,Legend,Top*%
%TF.FilePolarity,Positive*%
%FSLAX46Y46*%
G04 Gerber Fmt 4.6, Leading zero omitted, Abs format (unit mm)*
G04 Created by KiCad (PCBNEW (6.0.10)) date 2023-02-17 01:50:08*
%MOMM*%
%LPD*%
G01*
G04 APERTURE LIST*
G04 Aperture macros list*
%AMRoundRect*
0 Rectangle with rounded corners*
0 $1 Rounding radius*
0 $2 $3 $4 $5 $6 $7 $8 $9 X,Y pos of 4 corners*
0 Add a 4 corners polygon primitive as box body*
4,1,4,$2,$3,$4,$5,$6,$7,$8,$9,$2,$3,0*
0 Add four circle primitives for the rounded corners*
1,1,$1+$1,$2,$3*
1,1,$1+$1,$4,$5*
1,1,$1+$1,$6,$7*
1,1,$1+$1,$8,$9*
0 Add four rect primitives between the rounded corners*
20,1,$1+$1,$2,$3,$4,$5,0*
20,1,$1+$1,$4,$5,$6,$7,0*
20,1,$1+$1,$6,$7,$8,$9,0*
20,1,$1+$1,$8,$9,$2,$3,0*%
%AMFreePoly0*
4,1,22,0.500000,-0.750000,0.000000,-0.750000,0.000000,-0.745033,-0.079941,-0.743568,-0.215256,-0.701293,-0.333266,-0.622738,-0.424486,-0.514219,-0.481581,-0.384460,-0.499164,-0.250000,-0.500000,-0.250000,-0.500000,0.250000,-0.499164,0.250000,-0.499963,0.256109,-0.478152,0.396186,-0.417904,0.524511,-0.324060,0.630769,-0.204165,0.706417,-0.067858,0.745374,0.000000,0.744959,0.000000,0.750000,
0.500000,0.750000,0.500000,-0.750000,0.500000,-0.750000,$1*%
%AMFreePoly1*
4,1,20,0.000000,0.744959,0.073905,0.744508,0.209726,0.703889,0.328688,0.626782,0.421226,0.519385,0.479903,0.390333,0.500000,0.250000,0.500000,-0.250000,0.499851,-0.262216,0.476331,-0.402017,0.414519,-0.529596,0.319384,-0.634700,0.198574,-0.708877,0.061801,-0.746166,0.000000,-0.745033,0.000000,-0.750000,-0.500000,-0.750000,-0.500000,0.750000,0.000000,0.750000,0.000000,0.744959,
0.000000,0.744959,$1*%
%AMFreePoly2*
4,1,22,0.550000,-0.750000,0.000000,-0.750000,0.000000,-0.745033,-0.079941,-0.743568,-0.215256,-0.701293,-0.333266,-0.622738,-0.424486,-0.514219,-0.481581,-0.384460,-0.499164,-0.250000,-0.500000,-0.250000,-0.500000,0.250000,-0.499164,0.250000,-0.499963,0.256109,-0.478152,0.396186,-0.417904,0.524511,-0.324060,0.630769,-0.204165,0.706417,-0.067858,0.745374,0.000000,0.744959,0.000000,0.750000,
0.550000,0.750000,0.550000,-0.750000,0.550000,-0.750000,$1*%
%AMFreePoly3*
4,1,20,0.000000,0.744959,0.073905,0.744508,0.209726,0.703889,0.328688,0.626782,0.421226,0.519385,0.479903,0.390333,0.500000,0.250000,0.500000,-0.250000,0.499851,-0.262216,0.476331,-0.402017,0.414519,-0.529596,0.319384,-0.634700,0.198574,-0.708877,0.061801,-0.746166,0.000000,-0.745033,0.000000,-0.750000,-0.550000,-0.750000,-0.550000,0.750000,0.000000,0.750000,0.000000,0.744959,
0.000000,0.744959,$1*%
G04 Aperture macros list end*
%ADD10C,0.150000*%
%ADD11C,0.254000*%
%ADD12C,0.120000*%
%ADD13C,0.200000*%
%ADD14FreePoly0,180.000000*%
%ADD15FreePoly1,180.000000*%
%ADD16R,1.250000X0.500000*%
%ADD17R,1.700000X1.700000*%
%ADD18O,1.700000X1.700000*%
%ADD19RoundRect,0.200000X-0.200000X-0.275000X0.200000X-0.275000X0.200000X0.275000X-0.200000X0.275000X0*%
%ADD20FreePoly2,0.000000*%
%ADD21R,1.000000X1.500000*%
%ADD22FreePoly3,0.000000*%
%ADD23C,3.000000*%
%ADD24R,0.475000X0.250000*%
%ADD25R,0.250000X0.475000*%
%ADD26RoundRect,0.250000X-0.262500X-0.450000X0.262500X-0.450000X0.262500X0.450000X-0.262500X0.450000X0*%
%ADD27R,2.000000X1.600000*%
%ADD28R,0.500000X1.750000*%
%ADD29RoundRect,0.250000X-0.375000X-0.625000X0.375000X-0.625000X0.375000X0.625000X-0.375000X0.625000X0*%
G04 APERTURE END LIST*
D10*
%TO.C,JP2*%
X92666666Y-82952380D02*
X92666666Y-83666666D01*
X92619047Y-83809523D01*
X92523809Y-83904761D01*
X92380952Y-83952380D01*
X92285714Y-83952380D01*
X93142857Y-83952380D02*
X93142857Y-82952380D01*
X93523809Y-82952380D01*
X93619047Y-83000000D01*
X93666666Y-83047619D01*
X93714285Y-83142857D01*
X93714285Y-83285714D01*
X93666666Y-83380952D01*
X93619047Y-83428571D01*
X93523809Y-83476190D01*
X93142857Y-83476190D01*
X94095238Y-83047619D02*
X94142857Y-83000000D01*
X94238095Y-82952380D01*
X94476190Y-82952380D01*
X94571428Y-83000000D01*
X94619047Y-83047619D01*
X94666666Y-83142857D01*
X94666666Y-83238095D01*
X94619047Y-83380952D01*
X94047619Y-83952380D01*
X94666666Y-83952380D01*
%TO.C,C1*%
X100333333Y-89857142D02*
X100285714Y-89904761D01*
X100142857Y-89952380D01*
X100047619Y-89952380D01*
X99904761Y-89904761D01*
X99809523Y-89809523D01*
X99761904Y-89714285D01*
X99714285Y-89523809D01*
X99714285Y-89380952D01*
X99761904Y-89190476D01*
X99809523Y-89095238D01*
X99904761Y-89000000D01*
X100047619Y-88952380D01*
X100142857Y-88952380D01*
X100285714Y-89000000D01*
X100333333Y-89047619D01*
X101285714Y-89952380D02*
X100714285Y-89952380D01*
X101000000Y-89952380D02*
X101000000Y-88952380D01*
X100904761Y-89095238D01*
X100809523Y-89190476D01*
X100714285Y-89238095D01*
%TO.C,C2*%
X102833333Y-90357142D02*
X102785714Y-90404761D01*
X102642857Y-90452380D01*
X102547619Y-90452380D01*
X102404761Y-90404761D01*
X102309523Y-90309523D01*
X102261904Y-90214285D01*
X102214285Y-90023809D01*
X102214285Y-89880952D01*
X102261904Y-89690476D01*
X102309523Y-89595238D01*
X102404761Y-89500000D01*
X102547619Y-89452380D01*
X102642857Y-89452380D01*
X102785714Y-89500000D01*
X102833333Y-89547619D01*
X103214285Y-89547619D02*
X103261904Y-89500000D01*
X103357142Y-89452380D01*
X103595238Y-89452380D01*
X103690476Y-89500000D01*
X103738095Y-89547619D01*
X103785714Y-89642857D01*
X103785714Y-89738095D01*
X103738095Y-89880952D01*
X103166666Y-90452380D01*
X103785714Y-90452380D01*
%TO.C,J2*%
X92357380Y-73808333D02*
X93071666Y-73808333D01*
X93214523Y-73855952D01*
X93309761Y-73951190D01*
X93357380Y-74094047D01*
X93357380Y-74189285D01*
X92452619Y-73379761D02*
X92405000Y-73332142D01*
X92357380Y-73236904D01*
X92357380Y-72998809D01*
X92405000Y-72903571D01*
X92452619Y-72855952D01*
X92547857Y-72808333D01*
X92643095Y-72808333D01*
X92785952Y-72855952D01*
X93357380Y-73427380D01*
X93357380Y-72808333D01*
%TO.C,R1*%
X94508333Y-85522380D02*
X94175000Y-85046190D01*
X93936904Y-85522380D02*
X93936904Y-84522380D01*
X94317857Y-84522380D01*
X94413095Y-84570000D01*
X94460714Y-84617619D01*
X94508333Y-84712857D01*
X94508333Y-84855714D01*
X94460714Y-84950952D01*
X94413095Y-84998571D01*
X94317857Y-85046190D01*
X93936904Y-85046190D01*
X95460714Y-85522380D02*
X94889285Y-85522380D01*
X95175000Y-85522380D02*
X95175000Y-84522380D01*
X95079761Y-84665238D01*
X94984523Y-84760476D01*
X94889285Y-84808095D01*
%TO.C,JP1*%
X105666666Y-83652380D02*
X105666666Y-84366666D01*
X105619047Y-84509523D01*
X105523809Y-84604761D01*
X105380952Y-84652380D01*
X105285714Y-84652380D01*
X106142857Y-84652380D02*
X106142857Y-83652380D01*
X106523809Y-83652380D01*
X106619047Y-83700000D01*
X106666666Y-83747619D01*
X106714285Y-83842857D01*
X106714285Y-83985714D01*
X106666666Y-84080952D01*
X106619047Y-84128571D01*
X106523809Y-84176190D01*
X106142857Y-84176190D01*
X107666666Y-84652380D02*
X107095238Y-84652380D01*
X107380952Y-84652380D02*
X107380952Y-83652380D01*
X107285714Y-83795238D01*
X107190476Y-83890476D01*
X107095238Y-83938095D01*
D11*
%TO.C,U1*%
X97032380Y-87304523D02*
X97032380Y-88332619D01*
X97092857Y-88453571D01*
X97153333Y-88514047D01*
X97274285Y-88574523D01*
X97516190Y-88574523D01*
X97637142Y-88514047D01*
X97697619Y-88453571D01*
X97758095Y-88332619D01*
X97758095Y-87304523D01*
X99028095Y-88574523D02*
X98302380Y-88574523D01*
X98665238Y-88574523D02*
X98665238Y-87304523D01*
X98544285Y-87485952D01*
X98423333Y-87606904D01*
X98302380Y-87667380D01*
D10*
%TO.C,R2*%
X91745833Y-87302380D02*
X91412500Y-86826190D01*
X91174404Y-87302380D02*
X91174404Y-86302380D01*
X91555357Y-86302380D01*
X91650595Y-86350000D01*
X91698214Y-86397619D01*
X91745833Y-86492857D01*
X91745833Y-86635714D01*
X91698214Y-86730952D01*
X91650595Y-86778571D01*
X91555357Y-86826190D01*
X91174404Y-86826190D01*
X92126785Y-86397619D02*
X92174404Y-86350000D01*
X92269642Y-86302380D01*
X92507738Y-86302380D01*
X92602976Y-86350000D01*
X92650595Y-86397619D01*
X92698214Y-86492857D01*
X92698214Y-86588095D01*
X92650595Y-86730952D01*
X92079166Y-87302380D01*
X92698214Y-87302380D01*
%TO.C,J1*%
X89666666Y-80952380D02*
X89666666Y-81666666D01*
X89619047Y-81809523D01*
X89523809Y-81904761D01*
X89380952Y-81952380D01*
X89285714Y-81952380D01*
X90666666Y-81952380D02*
X90095238Y-81952380D01*
X90380952Y-81952380D02*
X90380952Y-80952380D01*
X90285714Y-81095238D01*
X90190476Y-81190476D01*
X90095238Y-81238095D01*
%TO.C,D1*%
X93461904Y-89832380D02*
X93461904Y-88832380D01*
X93700000Y-88832380D01*
X93842857Y-88880000D01*
X93938095Y-88975238D01*
X93985714Y-89070476D01*
X94033333Y-89260952D01*
X94033333Y-89403809D01*
X93985714Y-89594285D01*
X93938095Y-89689523D01*
X93842857Y-89784761D01*
X93700000Y-89832380D01*
X93461904Y-89832380D01*
X94985714Y-89832380D02*
X94414285Y-89832380D01*
X94700000Y-89832380D02*
X94700000Y-88832380D01*
X94604761Y-88975238D01*
X94509523Y-89070476D01*
X94414285Y-89118095D01*
D12*
%TO.C,JP2*%
X96150000Y-83000000D02*
X97550000Y-83000000D01*
X97550000Y-85000000D02*
X96150000Y-85000000D01*
X98250000Y-83700000D02*
X98250000Y-84300000D01*
X95450000Y-84300000D02*
X95450000Y-83700000D01*
X96150000Y-83000000D02*
G75*
G03*
X95450000Y-83700000I0J-700000D01*
G01*
X95450000Y-84300000D02*
G75*
G03*
X96150000Y-85000000I700000J0D01*
G01*
X98250000Y-83700000D02*
G75*
G03*
X97550000Y-83000000I-699999J1D01*
G01*
X97550000Y-85000000D02*
G75*
G03*
X98250000Y-84300000I1J699999D01*
G01*
%TO.C,C1*%
X100900000Y-87650000D02*
X100100000Y-87650000D01*
X100900000Y-87350000D02*
X100100000Y-87350000D01*
X100500000Y-87650000D02*
X100500000Y-87850000D01*
X100500000Y-87150000D02*
X100500000Y-87350000D01*
%TO.C,C2*%
X103000000Y-87400000D02*
X103000000Y-87600000D01*
X103000000Y-87900000D02*
X103000000Y-88100000D01*
X103400000Y-87600000D02*
X102600000Y-87600000D01*
X103400000Y-87900000D02*
X102600000Y-87900000D01*
%TO.C,J2*%
X109705000Y-74805000D02*
X109705000Y-72145000D01*
X96945000Y-72145000D02*
X109705000Y-72145000D01*
X94345000Y-73475000D02*
X94345000Y-72145000D01*
X96945000Y-74805000D02*
X96945000Y-72145000D01*
X94345000Y-72145000D02*
X95675000Y-72145000D01*
X96945000Y-74805000D02*
X109705000Y-74805000D01*
%TO.C,R1*%
X94437742Y-87022500D02*
X94912258Y-87022500D01*
X94437742Y-85977500D02*
X94912258Y-85977500D01*
%TO.C,JP1*%
X108550000Y-85700000D02*
X108550000Y-86300000D01*
X105300000Y-87200000D02*
X105600000Y-87500000D01*
X104450000Y-86300000D02*
X104450000Y-85700000D01*
X105100000Y-85000000D02*
X107900000Y-85000000D01*
X105300000Y-87200000D02*
X105000000Y-87500000D01*
X107900000Y-87000000D02*
X105100000Y-87000000D01*
X105000000Y-87500000D02*
X105600000Y-87500000D01*
X104450000Y-86300000D02*
G75*
G03*
X105150000Y-87000000I699999J-1D01*
G01*
X107850000Y-87000000D02*
G75*
G03*
X108550000Y-86300000I0J700000D01*
G01*
X108550000Y-85700000D02*
G75*
G03*
X107850000Y-85000000I-700000J0D01*
G01*
X105150000Y-85000000D02*
G75*
G03*
X104450000Y-85700000I-1J-699999D01*
G01*
D13*
%TO.C,U1*%
X99122000Y-84020000D02*
G75*
G03*
X99122000Y-84020000I-27000J0D01*
G01*
D12*
%TO.C,R2*%
X91685436Y-89235000D02*
X92139564Y-89235000D01*
X91685436Y-87765000D02*
X92139564Y-87765000D01*
%TO.C,J1*%
X108500000Y-79595000D02*
X108500000Y-78795000D01*
X93800000Y-78795000D02*
X93800000Y-79595000D01*
X93800000Y-79595000D02*
X108500000Y-79595000D01*
X93400000Y-78495000D02*
X108800000Y-78495000D01*
X108800000Y-78495000D02*
X108800000Y-79895000D01*
X108800000Y-79895000D02*
X93400000Y-79895000D01*
X93400000Y-79895000D02*
X93400000Y-78495000D01*
G36*
X93753460Y-81142924D02*
G01*
X93253460Y-81442924D01*
X93253460Y-80842924D01*
X93753460Y-81142924D01*
G37*
X93753460Y-81142924D02*
X93253460Y-81442924D01*
X93253460Y-80842924D01*
X93753460Y-81142924D01*
%TO.C,D1*%
X91915000Y-90065000D02*
X91915000Y-92335000D01*
X91915000Y-92335000D02*
X95800000Y-92335000D01*
X95800000Y-90065000D02*
X91915000Y-90065000D01*
%TD*%
%LPC*%
D14*
%TO.C,JP2*%
X97500000Y-84000000D03*
D15*
X96200000Y-84000000D03*
%TD*%
D16*
%TO.C,C1*%
X100500000Y-86750000D03*
X100500000Y-88250000D03*
%TD*%
%TO.C,C2*%
X103000000Y-87000000D03*
X103000000Y-88500000D03*
%TD*%
D17*
%TO.C,J2*%
X95675000Y-73475000D03*
D18*
X98215000Y-73475000D03*
X100755000Y-73475000D03*
X103295000Y-73475000D03*
X105835000Y-73475000D03*
X108375000Y-73475000D03*
%TD*%
D19*
%TO.C,R1*%
X93850000Y-86500000D03*
X95500000Y-86500000D03*
%TD*%
D20*
%TO.C,JP1*%
X105200000Y-86000000D03*
D21*
X106500000Y-86000000D03*
D22*
X107800000Y-86000000D03*
%TD*%
D23*
%TO.C,REF\u002A\u002A*%
X116000000Y-77000000D03*
%TD*%
D24*
%TO.C,U1*%
X99837500Y-84250000D03*
X99837500Y-84750000D03*
X99837500Y-85250000D03*
X99837500Y-85750000D03*
D25*
X100500000Y-85912500D03*
X101000000Y-85912500D03*
X101500000Y-85912500D03*
D24*
X102162500Y-85750000D03*
X102162500Y-85250000D03*
X102162500Y-84750000D03*
X102162500Y-84250000D03*
D25*
X101500000Y-84087500D03*
X101000000Y-84087500D03*
X100500000Y-84087500D03*
%TD*%
D26*
%TO.C,R2*%
X91000000Y-88500000D03*
X92825000Y-88500000D03*
%TD*%
D23*
%TO.C,REF\u002A\u002A*%
X86000000Y-90000000D03*
%TD*%
D27*
%TO.C,J1*%
X110000000Y-79195000D03*
X92200000Y-79195000D03*
D28*
X94600000Y-81070000D03*
X95600000Y-77320000D03*
X96600000Y-81070000D03*
X97600000Y-77320000D03*
X98600000Y-81070000D03*
X99600000Y-77320000D03*
X100600000Y-81070000D03*
X101600000Y-77320000D03*
X102600000Y-81070000D03*
X103600000Y-77320000D03*
X104600000Y-81070000D03*
X105600000Y-77320000D03*
X106600000Y-81070000D03*
X107600000Y-77320000D03*
%TD*%
D29*
%TO.C,D1*%
X92800000Y-91200000D03*
X95600000Y-91200000D03*
%TD*%
D23*
%TO.C,REF\u002A\u002A*%
X86000000Y-77000000D03*
%TD*%
%TO.C,REF\u002A\u002A*%
X116000000Y-90000000D03*
%TD*%
M02*
