%TF.GenerationSoftware,KiCad,Pcbnew,(6.0.10)*%
%TF.CreationDate,2023-02-17T01:50:08+01:00*%
%TF.ProjectId,haut,68617574-2e6b-4696-9361-645f70636258,rev?*%
%TF.SameCoordinates,Original*%
%TF.FileFunction,Soldermask,Top*%
%TF.FilePolarity,Negative*%
%FSLAX46Y46*%
G04 Gerber Fmt 4.6, Leading zero omitted, Abs format (unit mm)*
G04 Created by KiCad (PCBNEW (6.0.10)) date 2023-02-17 01:50:08*
%MOMM*%
%LPD*%
G01*
G04 APERTURE LIST*
G04 Aperture macros list*
%AMRoundRect*
0 Rectangle with rounded corners*
0 $1 Rounding radius*
0 $2 $3 $4 $5 $6 $7 $8 $9 X,Y pos of 4 corners*
0 Add a 4 corners polygon primitive as box body*
4,1,4,$2,$3,$4,$5,$6,$7,$8,$9,$2,$3,0*
0 Add four circle primitives for the rounded corners*
1,1,$1+$1,$2,$3*
1,1,$1+$1,$4,$5*
1,1,$1+$1,$6,$7*
1,1,$1+$1,$8,$9*
0 Add four rect primitives between the rounded corners*
20,1,$1+$1,$2,$3,$4,$5,0*
20,1,$1+$1,$4,$5,$6,$7,0*
20,1,$1+$1,$6,$7,$8,$9,0*
20,1,$1+$1,$8,$9,$2,$3,0*%
%AMFreePoly0*
4,1,22,0.500000,-0.750000,0.000000,-0.750000,0.000000,-0.745033,-0.079941,-0.743568,-0.215256,-0.701293,-0.333266,-0.622738,-0.424486,-0.514219,-0.481581,-0.384460,-0.499164,-0.250000,-0.500000,-0.250000,-0.500000,0.250000,-0.499164,0.250000,-0.499963,0.256109,-0.478152,0.396186,-0.417904,0.524511,-0.324060,0.630769,-0.204165,0.706417,-0.067858,0.745374,0.000000,0.744959,0.000000,0.750000,
0.500000,0.750000,0.500000,-0.750000,0.500000,-0.750000,$1*%
%AMFreePoly1*
4,1,20,0.000000,0.744959,0.073905,0.744508,0.209726,0.703889,0.328688,0.626782,0.421226,0.519385,0.479903,0.390333,0.500000,0.250000,0.500000,-0.250000,0.499851,-0.262216,0.476331,-0.402017,0.414519,-0.529596,0.319384,-0.634700,0.198574,-0.708877,0.061801,-0.746166,0.000000,-0.745033,0.000000,-0.750000,-0.500000,-0.750000,-0.500000,0.750000,0.000000,0.750000,0.000000,0.744959,
0.000000,0.744959,$1*%
%AMFreePoly2*
4,1,22,0.550000,-0.750000,0.000000,-0.750000,0.000000,-0.745033,-0.079941,-0.743568,-0.215256,-0.701293,-0.333266,-0.622738,-0.424486,-0.514219,-0.481581,-0.384460,-0.499164,-0.250000,-0.500000,-0.250000,-0.500000,0.250000,-0.499164,0.250000,-0.499963,0.256109,-0.478152,0.396186,-0.417904,0.524511,-0.324060,0.630769,-0.204165,0.706417,-0.067858,0.745374,0.000000,0.744959,0.000000,0.750000,
0.550000,0.750000,0.550000,-0.750000,0.550000,-0.750000,$1*%
%AMFreePoly3*
4,1,20,0.000000,0.744959,0.073905,0.744508,0.209726,0.703889,0.328688,0.626782,0.421226,0.519385,0.479903,0.390333,0.500000,0.250000,0.500000,-0.250000,0.499851,-0.262216,0.476331,-0.402017,0.414519,-0.529596,0.319384,-0.634700,0.198574,-0.708877,0.061801,-0.746166,0.000000,-0.745033,0.000000,-0.750000,-0.550000,-0.750000,-0.550000,0.750000,0.000000,0.750000,0.000000,0.744959,
0.000000,0.744959,$1*%
G04 Aperture macros list end*
%ADD10FreePoly0,180.000000*%
%ADD11FreePoly1,180.000000*%
%ADD12R,1.250000X0.500000*%
%ADD13R,1.700000X1.700000*%
%ADD14O,1.700000X1.700000*%
%ADD15RoundRect,0.200000X-0.200000X-0.275000X0.200000X-0.275000X0.200000X0.275000X-0.200000X0.275000X0*%
%ADD16FreePoly2,0.000000*%
%ADD17R,1.000000X1.500000*%
%ADD18FreePoly3,0.000000*%
%ADD19C,3.000000*%
%ADD20R,0.475000X0.250000*%
%ADD21R,0.250000X0.475000*%
%ADD22RoundRect,0.250000X-0.262500X-0.450000X0.262500X-0.450000X0.262500X0.450000X-0.262500X0.450000X0*%
%ADD23R,2.000000X1.600000*%
%ADD24R,0.500000X1.750000*%
%ADD25RoundRect,0.250000X-0.375000X-0.625000X0.375000X-0.625000X0.375000X0.625000X-0.375000X0.625000X0*%
G04 APERTURE END LIST*
D10*
%TO.C,JP2*%
X97500000Y-84000000D03*
D11*
X96200000Y-84000000D03*
%TD*%
D12*
%TO.C,C1*%
X100500000Y-86750000D03*
X100500000Y-88250000D03*
%TD*%
%TO.C,C2*%
X103000000Y-87000000D03*
X103000000Y-88500000D03*
%TD*%
D13*
%TO.C,J2*%
X95675000Y-73475000D03*
D14*
X98215000Y-73475000D03*
X100755000Y-73475000D03*
X103295000Y-73475000D03*
X105835000Y-73475000D03*
X108375000Y-73475000D03*
%TD*%
D15*
%TO.C,R1*%
X93850000Y-86500000D03*
X95500000Y-86500000D03*
%TD*%
D16*
%TO.C,JP1*%
X105200000Y-86000000D03*
D17*
X106500000Y-86000000D03*
D18*
X107800000Y-86000000D03*
%TD*%
D19*
%TO.C,REF\u002A\u002A*%
X116000000Y-77000000D03*
%TD*%
D20*
%TO.C,U1*%
X99837500Y-84250000D03*
X99837500Y-84750000D03*
X99837500Y-85250000D03*
X99837500Y-85750000D03*
D21*
X100500000Y-85912500D03*
X101000000Y-85912500D03*
X101500000Y-85912500D03*
D20*
X102162500Y-85750000D03*
X102162500Y-85250000D03*
X102162500Y-84750000D03*
X102162500Y-84250000D03*
D21*
X101500000Y-84087500D03*
X101000000Y-84087500D03*
X100500000Y-84087500D03*
%TD*%
D22*
%TO.C,R2*%
X91000000Y-88500000D03*
X92825000Y-88500000D03*
%TD*%
D19*
%TO.C,REF\u002A\u002A*%
X86000000Y-90000000D03*
%TD*%
D23*
%TO.C,J1*%
X110000000Y-79195000D03*
X92200000Y-79195000D03*
D24*
X94600000Y-81070000D03*
X95600000Y-77320000D03*
X96600000Y-81070000D03*
X97600000Y-77320000D03*
X98600000Y-81070000D03*
X99600000Y-77320000D03*
X100600000Y-81070000D03*
X101600000Y-77320000D03*
X102600000Y-81070000D03*
X103600000Y-77320000D03*
X104600000Y-81070000D03*
X105600000Y-77320000D03*
X106600000Y-81070000D03*
X107600000Y-77320000D03*
%TD*%
D25*
%TO.C,D1*%
X92800000Y-91200000D03*
X95600000Y-91200000D03*
%TD*%
D19*
%TO.C,REF\u002A\u002A*%
X86000000Y-77000000D03*
%TD*%
%TO.C,REF\u002A\u002A*%
X116000000Y-90000000D03*
%TD*%
M02*
