%TF.GenerationSoftware,KiCad,Pcbnew,(6.0.10)*%
%TF.CreationDate,2023-02-17T01:50:23+01:00*%
%TF.ProjectId,base,62617365-2e6b-4696-9361-645f70636258,rev?*%
%TF.SameCoordinates,Original*%
%TF.FileFunction,Legend,Bot*%
%TF.FilePolarity,Positive*%
%FSLAX46Y46*%
G04 Gerber Fmt 4.6, Leading zero omitted, Abs format (unit mm)*
G04 Created by KiCad (PCBNEW (6.0.10)) date 2023-02-17 01:50:23*
%MOMM*%
%LPD*%
G01*
G04 APERTURE LIST*
%ADD10C,0.150000*%
%ADD11C,0.010000*%
%ADD12C,3.000000*%
%ADD13R,1.700000X1.700000*%
%ADD14C,1.700000*%
%ADD15C,3.500000*%
%ADD16R,6.600000X3.300000*%
%ADD17O,6.600000X3.300000*%
%ADD18R,2.000000X4.600000*%
%ADD19O,2.000000X4.200000*%
%ADD20O,4.200000X2.000000*%
%ADD21O,1.700000X1.700000*%
G04 APERTURE END LIST*
D10*
X133333333Y-79952380D02*
X132714285Y-79952380D01*
X133047619Y-80333333D01*
X132904761Y-80333333D01*
X132809523Y-80380952D01*
X132761904Y-80428571D01*
X132714285Y-80523809D01*
X132714285Y-80761904D01*
X132761904Y-80857142D01*
X132809523Y-80904761D01*
X132904761Y-80952380D01*
X133190476Y-80952380D01*
X133285714Y-80904761D01*
X133333333Y-80857142D01*
X132285714Y-80571428D02*
X131523809Y-80571428D01*
X130523809Y-80952380D02*
X131095238Y-80952380D01*
X130809523Y-80952380D02*
X130809523Y-79952380D01*
X130904761Y-80095238D01*
X131000000Y-80190476D01*
X131095238Y-80238095D01*
X130142857Y-80047619D02*
X130095238Y-80000000D01*
X130000000Y-79952380D01*
X129761904Y-79952380D01*
X129666666Y-80000000D01*
X129619047Y-80047619D01*
X129571428Y-80142857D01*
X129571428Y-80238095D01*
X129619047Y-80380952D01*
X130190476Y-80952380D01*
X129571428Y-80952380D01*
X129285714Y-79952380D02*
X128952380Y-80952380D01*
X128619047Y-79952380D01*
X151880952Y-85452380D02*
X151880952Y-84452380D01*
X151452380Y-85452380D02*
X151452380Y-84928571D01*
X151500000Y-84833333D01*
X151595238Y-84785714D01*
X151738095Y-84785714D01*
X151833333Y-84833333D01*
X151880952Y-84880952D01*
X151119047Y-84785714D02*
X150738095Y-84785714D01*
X150976190Y-84452380D02*
X150976190Y-85309523D01*
X150928571Y-85404761D01*
X150833333Y-85452380D01*
X150738095Y-85452380D01*
X150547619Y-84785714D02*
X150166666Y-84785714D01*
X150404761Y-84452380D02*
X150404761Y-85309523D01*
X150357142Y-85404761D01*
X150261904Y-85452380D01*
X150166666Y-85452380D01*
X149833333Y-84785714D02*
X149833333Y-85785714D01*
X149833333Y-84833333D02*
X149738095Y-84785714D01*
X149547619Y-84785714D01*
X149452380Y-84833333D01*
X149404761Y-84880952D01*
X149357142Y-84976190D01*
X149357142Y-85261904D01*
X149404761Y-85357142D01*
X149452380Y-85404761D01*
X149547619Y-85452380D01*
X149738095Y-85452380D01*
X149833333Y-85404761D01*
X148976190Y-85404761D02*
X148880952Y-85452380D01*
X148690476Y-85452380D01*
X148595238Y-85404761D01*
X148547619Y-85309523D01*
X148547619Y-85261904D01*
X148595238Y-85166666D01*
X148690476Y-85119047D01*
X148833333Y-85119047D01*
X148928571Y-85071428D01*
X148976190Y-84976190D01*
X148976190Y-84928571D01*
X148928571Y-84833333D01*
X148833333Y-84785714D01*
X148690476Y-84785714D01*
X148595238Y-84833333D01*
X148119047Y-85357142D02*
X148071428Y-85404761D01*
X148119047Y-85452380D01*
X148166666Y-85404761D01*
X148119047Y-85357142D01*
X148119047Y-85452380D01*
X148119047Y-84833333D02*
X148071428Y-84880952D01*
X148119047Y-84928571D01*
X148166666Y-84880952D01*
X148119047Y-84833333D01*
X148119047Y-84928571D01*
X146928571Y-84404761D02*
X147785714Y-85690476D01*
X145880952Y-84404761D02*
X146738095Y-85690476D01*
X145119047Y-84785714D02*
X145119047Y-85595238D01*
X145166666Y-85690476D01*
X145214285Y-85738095D01*
X145309523Y-85785714D01*
X145452380Y-85785714D01*
X145547619Y-85738095D01*
X145119047Y-85404761D02*
X145214285Y-85452380D01*
X145404761Y-85452380D01*
X145500000Y-85404761D01*
X145547619Y-85357142D01*
X145595238Y-85261904D01*
X145595238Y-84976190D01*
X145547619Y-84880952D01*
X145500000Y-84833333D01*
X145404761Y-84785714D01*
X145214285Y-84785714D01*
X145119047Y-84833333D01*
X144642857Y-85452380D02*
X144642857Y-84785714D01*
X144642857Y-84452380D02*
X144690476Y-84500000D01*
X144642857Y-84547619D01*
X144595238Y-84500000D01*
X144642857Y-84452380D01*
X144642857Y-84547619D01*
X144309523Y-84785714D02*
X143928571Y-84785714D01*
X144166666Y-84452380D02*
X144166666Y-85309523D01*
X144119047Y-85404761D01*
X144023809Y-85452380D01*
X143928571Y-85452380D01*
X143595238Y-85452380D02*
X143595238Y-84452380D01*
X143166666Y-85452380D02*
X143166666Y-84928571D01*
X143214285Y-84833333D01*
X143309523Y-84785714D01*
X143452380Y-84785714D01*
X143547619Y-84833333D01*
X143595238Y-84880952D01*
X142261904Y-84785714D02*
X142261904Y-85452380D01*
X142690476Y-84785714D02*
X142690476Y-85309523D01*
X142642857Y-85404761D01*
X142547619Y-85452380D01*
X142404761Y-85452380D01*
X142309523Y-85404761D01*
X142261904Y-85357142D01*
X141785714Y-85452380D02*
X141785714Y-84452380D01*
X141785714Y-84833333D02*
X141690476Y-84785714D01*
X141500000Y-84785714D01*
X141404761Y-84833333D01*
X141357142Y-84880952D01*
X141309523Y-84976190D01*
X141309523Y-85261904D01*
X141357142Y-85357142D01*
X141404761Y-85404761D01*
X141500000Y-85452380D01*
X141690476Y-85452380D01*
X141785714Y-85404761D01*
X140880952Y-85357142D02*
X140833333Y-85404761D01*
X140880952Y-85452380D01*
X140928571Y-85404761D01*
X140880952Y-85357142D01*
X140880952Y-85452380D01*
X139976190Y-85404761D02*
X140071428Y-85452380D01*
X140261904Y-85452380D01*
X140357142Y-85404761D01*
X140404761Y-85357142D01*
X140452380Y-85261904D01*
X140452380Y-84976190D01*
X140404761Y-84880952D01*
X140357142Y-84833333D01*
X140261904Y-84785714D01*
X140071428Y-84785714D01*
X139976190Y-84833333D01*
X139404761Y-85452380D02*
X139500000Y-85404761D01*
X139547619Y-85357142D01*
X139595238Y-85261904D01*
X139595238Y-84976190D01*
X139547619Y-84880952D01*
X139500000Y-84833333D01*
X139404761Y-84785714D01*
X139261904Y-84785714D01*
X139166666Y-84833333D01*
X139119047Y-84880952D01*
X139071428Y-84976190D01*
X139071428Y-85261904D01*
X139119047Y-85357142D01*
X139166666Y-85404761D01*
X139261904Y-85452380D01*
X139404761Y-85452380D01*
X138642857Y-85452380D02*
X138642857Y-84785714D01*
X138642857Y-84880952D02*
X138595238Y-84833333D01*
X138500000Y-84785714D01*
X138357142Y-84785714D01*
X138261904Y-84833333D01*
X138214285Y-84928571D01*
X138214285Y-85452380D01*
X138214285Y-84928571D02*
X138166666Y-84833333D01*
X138071428Y-84785714D01*
X137928571Y-84785714D01*
X137833333Y-84833333D01*
X137785714Y-84928571D01*
X137785714Y-85452380D01*
X136595238Y-84404761D02*
X137452380Y-85690476D01*
X136261904Y-85452380D02*
X136261904Y-84452380D01*
X136023809Y-84452380D01*
X135880952Y-84500000D01*
X135785714Y-84595238D01*
X135738095Y-84690476D01*
X135690476Y-84880952D01*
X135690476Y-85023809D01*
X135738095Y-85214285D01*
X135785714Y-85309523D01*
X135880952Y-85404761D01*
X136023809Y-85452380D01*
X136261904Y-85452380D01*
X135119047Y-85452380D02*
X135214285Y-85404761D01*
X135261904Y-85357142D01*
X135309523Y-85261904D01*
X135309523Y-84976190D01*
X135261904Y-84880952D01*
X135214285Y-84833333D01*
X135119047Y-84785714D01*
X134976190Y-84785714D01*
X134880952Y-84833333D01*
X134833333Y-84880952D01*
X134785714Y-84976190D01*
X134785714Y-85261904D01*
X134833333Y-85357142D01*
X134880952Y-85404761D01*
X134976190Y-85452380D01*
X135119047Y-85452380D01*
X133928571Y-85404761D02*
X134023809Y-85452380D01*
X134214285Y-85452380D01*
X134309523Y-85404761D01*
X134357142Y-85357142D01*
X134404761Y-85261904D01*
X134404761Y-84976190D01*
X134357142Y-84880952D01*
X134309523Y-84833333D01*
X134214285Y-84785714D01*
X134023809Y-84785714D01*
X133928571Y-84833333D01*
X133500000Y-85452380D02*
X133500000Y-84785714D01*
X133500000Y-84976190D02*
X133452380Y-84880952D01*
X133404761Y-84833333D01*
X133309523Y-84785714D01*
X133214285Y-84785714D01*
X132500000Y-85404761D02*
X132595238Y-85452380D01*
X132785714Y-85452380D01*
X132880952Y-85404761D01*
X132928571Y-85309523D01*
X132928571Y-84928571D01*
X132880952Y-84833333D01*
X132785714Y-84785714D01*
X132595238Y-84785714D01*
X132500000Y-84833333D01*
X132452380Y-84928571D01*
X132452380Y-85023809D01*
X132928571Y-85119047D01*
X131595238Y-85452380D02*
X131595238Y-84452380D01*
X131595238Y-85404761D02*
X131690476Y-85452380D01*
X131880952Y-85452380D01*
X131976190Y-85404761D01*
X132023809Y-85357142D01*
X132071428Y-85261904D01*
X132071428Y-84976190D01*
X132023809Y-84880952D01*
X131976190Y-84833333D01*
X131880952Y-84785714D01*
X131690476Y-84785714D01*
X131595238Y-84833333D01*
X131166666Y-85404761D02*
X131071428Y-85452380D01*
X130880952Y-85452380D01*
X130785714Y-85404761D01*
X130738095Y-85309523D01*
X130738095Y-85261904D01*
X130785714Y-85166666D01*
X130880952Y-85119047D01*
X131023809Y-85119047D01*
X131119047Y-85071428D01*
X131166666Y-84976190D01*
X131166666Y-84928571D01*
X131119047Y-84833333D01*
X131023809Y-84785714D01*
X130880952Y-84785714D01*
X130785714Y-84833333D01*
X130452380Y-84785714D02*
X130071428Y-84785714D01*
X130309523Y-84452380D02*
X130309523Y-85309523D01*
X130261904Y-85404761D01*
X130166666Y-85452380D01*
X130071428Y-85452380D01*
X129357142Y-85404761D02*
X129452380Y-85452380D01*
X129642857Y-85452380D01*
X129738095Y-85404761D01*
X129785714Y-85309523D01*
X129785714Y-84928571D01*
X129738095Y-84833333D01*
X129642857Y-84785714D01*
X129452380Y-84785714D01*
X129357142Y-84833333D01*
X129309523Y-84928571D01*
X129309523Y-85023809D01*
X129785714Y-85119047D01*
X128880952Y-85452380D02*
X128880952Y-84785714D01*
X128880952Y-84452380D02*
X128928571Y-84500000D01*
X128880952Y-84547619D01*
X128833333Y-84500000D01*
X128880952Y-84452380D01*
X128880952Y-84547619D01*
X128404761Y-84785714D02*
X128404761Y-85452380D01*
X128404761Y-84880952D02*
X128357142Y-84833333D01*
X128261904Y-84785714D01*
X128119047Y-84785714D01*
X128023809Y-84833333D01*
X127976190Y-84928571D01*
X127976190Y-85452380D01*
X126785714Y-84404761D02*
X127642857Y-85690476D01*
X126595238Y-84452380D02*
X126023809Y-84452380D01*
X126309523Y-85452380D02*
X126309523Y-84452380D01*
X125690476Y-85452380D02*
X125690476Y-84452380D01*
X125214285Y-85452380D02*
X125214285Y-84452380D01*
X124833333Y-84452380D01*
X124738095Y-84500000D01*
X124690476Y-84547619D01*
X124642857Y-84642857D01*
X124642857Y-84785714D01*
X124690476Y-84880952D01*
X124738095Y-84928571D01*
X124833333Y-84976190D01*
X125214285Y-84976190D01*
X124214285Y-84928571D02*
X123880952Y-84928571D01*
X123738095Y-85452380D02*
X124214285Y-85452380D01*
X124214285Y-84452380D01*
X123738095Y-84452380D01*
X123547619Y-85547619D02*
X122785714Y-85547619D01*
X122690476Y-84452380D02*
X122119047Y-84452380D01*
X122404761Y-85452380D02*
X122404761Y-84452380D01*
X121785714Y-85452380D02*
X121785714Y-84452380D01*
X121452380Y-85166666D01*
X121119047Y-84452380D01*
X121119047Y-85452380D01*
X120642857Y-85452380D02*
X120642857Y-84452380D01*
X120404761Y-84452380D01*
X120261904Y-84500000D01*
X120166666Y-84595238D01*
X120119047Y-84690476D01*
X120071428Y-84880952D01*
X120071428Y-85023809D01*
X120119047Y-85214285D01*
X120166666Y-85309523D01*
X120261904Y-85404761D01*
X120404761Y-85452380D01*
X120642857Y-85452380D01*
%TO.C,G\u002A\u002A\u002A*%
G36*
X172604348Y-75876276D02*
G01*
X172592344Y-75888280D01*
X172580340Y-75876276D01*
X172592344Y-75864272D01*
X172604348Y-75876276D01*
G37*
G36*
X172375014Y-75994825D02*
G01*
X172406716Y-76032325D01*
X172424007Y-76063219D01*
X172428216Y-76080340D01*
X172411080Y-76067725D01*
X172376276Y-76032325D01*
X172352298Y-75998989D01*
X172354777Y-75984310D01*
X172375014Y-75994825D01*
G37*
G36*
X174866797Y-78481794D02*
G01*
X174885066Y-78505104D01*
X174884369Y-78510842D01*
X174861059Y-78529111D01*
X174855320Y-78528414D01*
X174837051Y-78505104D01*
X174837749Y-78499365D01*
X174861059Y-78481096D01*
X174866797Y-78481794D01*
G37*
G36*
X168667108Y-78012949D02*
G01*
X168655104Y-78024953D01*
X168643100Y-78012949D01*
X168655104Y-78000945D01*
X168667108Y-78012949D01*
G37*
G36*
X176344620Y-77848860D02*
G01*
X176342991Y-77901009D01*
X176321782Y-77983087D01*
X176282724Y-78088590D01*
X176227549Y-78211011D01*
X176204824Y-78256440D01*
X176162256Y-78334781D01*
X176128134Y-78388886D01*
X176108289Y-78409074D01*
X176103729Y-78408715D01*
X176085444Y-78391281D01*
X176086443Y-78386839D01*
X176101532Y-78348435D01*
X176130601Y-78282156D01*
X176168278Y-78199649D01*
X176209188Y-78112565D01*
X176247957Y-78032553D01*
X176279211Y-77971261D01*
X176290288Y-77944129D01*
X176301512Y-77881233D01*
X176306574Y-77852988D01*
X176328192Y-77832892D01*
X176344620Y-77848860D01*
G37*
G36*
X172111644Y-75435706D02*
G01*
X172020787Y-75501310D01*
X171929792Y-75557253D01*
X171848110Y-75595995D01*
X171791294Y-75607322D01*
X171697240Y-75613899D01*
X171580858Y-75615339D01*
X171455138Y-75611997D01*
X171333075Y-75604230D01*
X171227662Y-75592398D01*
X171151890Y-75576855D01*
X171102133Y-75555547D01*
X171005734Y-75488119D01*
X170906277Y-75390748D01*
X170812888Y-75272901D01*
X170734694Y-75144045D01*
X170722822Y-75120117D01*
X170680340Y-75014802D01*
X170655394Y-74917768D01*
X170655073Y-74913022D01*
X170731758Y-74913022D01*
X170733945Y-74928025D01*
X170753706Y-74986496D01*
X170788819Y-75067241D01*
X170832898Y-75156962D01*
X170879561Y-75242359D01*
X170922420Y-75310134D01*
X170960558Y-75354613D01*
X171065762Y-75435007D01*
X171200761Y-75500198D01*
X171353674Y-75543749D01*
X171356437Y-75544285D01*
X171444031Y-75561004D01*
X171503105Y-75569301D01*
X171551943Y-75569166D01*
X171608833Y-75560587D01*
X171692061Y-75543555D01*
X171737721Y-75532633D01*
X171914018Y-75464969D01*
X172072048Y-75365420D01*
X172081754Y-75357280D01*
X172107435Y-75319751D01*
X172089795Y-75289942D01*
X172027334Y-75266715D01*
X171918551Y-75248931D01*
X171853738Y-75237681D01*
X171746993Y-75212226D01*
X171623858Y-75177689D01*
X171500000Y-75138215D01*
X171391735Y-75101948D01*
X171289452Y-75068923D01*
X171209704Y-75044492D01*
X171163894Y-75032251D01*
X171118851Y-75021292D01*
X171055860Y-75000424D01*
X171038526Y-74993372D01*
X170975217Y-74968483D01*
X170899811Y-74939580D01*
X170866038Y-74926773D01*
X170801079Y-74901985D01*
X170761768Y-74886763D01*
X170746206Y-74886147D01*
X170731758Y-74913022D01*
X170655073Y-74913022D01*
X170650134Y-74840119D01*
X170666711Y-74792961D01*
X170682160Y-74790271D01*
X170731406Y-74802315D01*
X170798306Y-74830306D01*
X170802909Y-74832511D01*
X170871225Y-74861214D01*
X170974296Y-74900230D01*
X171102011Y-74946108D01*
X171244259Y-74995393D01*
X171390932Y-75044633D01*
X171531918Y-75090374D01*
X171657107Y-75129163D01*
X171756389Y-75157547D01*
X171767724Y-75160377D01*
X171858731Y-75176478D01*
X171972276Y-75188978D01*
X172086493Y-75195370D01*
X172122098Y-75196297D01*
X172210030Y-75200523D01*
X172261703Y-75208140D01*
X172286112Y-75221173D01*
X172292250Y-75241644D01*
X172288855Y-75256350D01*
X172255130Y-75305685D01*
X172241082Y-75319751D01*
X172192909Y-75367984D01*
X172111644Y-75435706D01*
G37*
G36*
X171884121Y-76308412D02*
G01*
X171872117Y-76320416D01*
X171860114Y-76308412D01*
X171872117Y-76296408D01*
X171884121Y-76308412D01*
G37*
G36*
X172820416Y-75936295D02*
G01*
X172818683Y-75949004D01*
X172804411Y-75952300D01*
X172801538Y-75948781D01*
X172804411Y-75920290D01*
X172811632Y-75916534D01*
X172820416Y-75936295D01*
G37*
G36*
X175365218Y-73798450D02*
G01*
X175363876Y-73811658D01*
X175351673Y-73869264D01*
X175329747Y-73954136D01*
X175301779Y-74053450D01*
X175271451Y-74154379D01*
X175242445Y-74244098D01*
X175218441Y-74309782D01*
X175189529Y-74354348D01*
X175146237Y-74375803D01*
X175121226Y-74374789D01*
X175101135Y-74369801D01*
X175103315Y-74358565D01*
X175118005Y-74308824D01*
X175143127Y-74231706D01*
X175174655Y-74138817D01*
X175208564Y-74041759D01*
X175240829Y-73952140D01*
X175267426Y-73881564D01*
X175284327Y-73841635D01*
X175293219Y-73825878D01*
X175326158Y-73786178D01*
X175353688Y-73775151D01*
X175365218Y-73798450D01*
G37*
G36*
X170216577Y-74219103D02*
G01*
X170257609Y-74251097D01*
X170278848Y-74273442D01*
X170292357Y-74297547D01*
X170271885Y-74303781D01*
X170253950Y-74300757D01*
X170214104Y-74277061D01*
X170187446Y-74242987D01*
X170188834Y-74214506D01*
X170189509Y-74213912D01*
X170216577Y-74219103D01*
G37*
G36*
X173006353Y-74637406D02*
G01*
X173038994Y-74673932D01*
X173063990Y-74714420D01*
X173068363Y-74742603D01*
X173066935Y-74744197D01*
X173043689Y-74736219D01*
X173007826Y-74699445D01*
X173003988Y-74694466D01*
X172976601Y-74649451D01*
X172973128Y-74623217D01*
X172979045Y-74621111D01*
X173006353Y-74637406D01*
G37*
G36*
X168030897Y-74386827D02*
G01*
X168095935Y-74415399D01*
X168153770Y-74453187D01*
X168191688Y-74491852D01*
X168196977Y-74523057D01*
X168193610Y-74528351D01*
X168180963Y-74540055D01*
X168158899Y-74538363D01*
X168116316Y-74520436D01*
X168042113Y-74483433D01*
X167971706Y-74443286D01*
X167930065Y-74407518D01*
X167929761Y-74384163D01*
X167972467Y-74375803D01*
X168030897Y-74386827D01*
G37*
G36*
X174909074Y-78397070D02*
G01*
X174897070Y-78409074D01*
X174885066Y-78397070D01*
X174897070Y-78385066D01*
X174909074Y-78397070D01*
G37*
G36*
X170680083Y-74271583D02*
G01*
X170723778Y-74301137D01*
X170762183Y-74338369D01*
X170779019Y-74370646D01*
X170771019Y-74388864D01*
X170735786Y-74377959D01*
X170721924Y-74369843D01*
X170674850Y-74331638D01*
X170644573Y-74291946D01*
X170642669Y-74264830D01*
X170647373Y-74262340D01*
X170680083Y-74271583D01*
G37*
G36*
X167442722Y-76368431D02*
G01*
X167440990Y-76381140D01*
X167426717Y-76384436D01*
X167423844Y-76380917D01*
X167426717Y-76352426D01*
X167433938Y-76348670D01*
X167442722Y-76368431D01*
G37*
G36*
X172076182Y-76260397D02*
G01*
X172064178Y-76272401D01*
X172052174Y-76260397D01*
X172064178Y-76248393D01*
X172076182Y-76260397D01*
G37*
G36*
X166962571Y-77628828D02*
G01*
X166950567Y-77640832D01*
X166938563Y-77628828D01*
X166950567Y-77616824D01*
X166962571Y-77628828D01*
G37*
G36*
X167466730Y-76523063D02*
G01*
X167463792Y-76540950D01*
X167442722Y-76560491D01*
X167437026Y-76559845D01*
X167418715Y-76537901D01*
X167419630Y-76531165D01*
X167442722Y-76500472D01*
X167455091Y-76498214D01*
X167466730Y-76523063D01*
G37*
G36*
X168762983Y-73752838D02*
G01*
X168782447Y-73783544D01*
X168809776Y-73847820D01*
X168840920Y-73935371D01*
X168871831Y-74035902D01*
X168875601Y-74050364D01*
X168874488Y-74081715D01*
X168844159Y-74083719D01*
X168820742Y-74071227D01*
X168786552Y-74026166D01*
X168757725Y-73960988D01*
X168737459Y-73888320D01*
X168728953Y-73820784D01*
X168735405Y-73771005D01*
X168760013Y-73751607D01*
X168762983Y-73752838D01*
G37*
G36*
X167346692Y-76848582D02*
G01*
X167344959Y-76861292D01*
X167330687Y-76864587D01*
X167327814Y-76861068D01*
X167330687Y-76832577D01*
X167337908Y-76828821D01*
X167346692Y-76848582D01*
G37*
G36*
X172773903Y-73023788D02*
G01*
X172778565Y-73053694D01*
X172756941Y-73107814D01*
X172714944Y-73173650D01*
X172660517Y-73240401D01*
X172601602Y-73297269D01*
X172546143Y-73333455D01*
X172472742Y-73359520D01*
X172409355Y-73361971D01*
X172365145Y-73332526D01*
X172348847Y-73305873D01*
X172354573Y-73274256D01*
X172397835Y-73244529D01*
X172483528Y-73211696D01*
X172573520Y-73170878D01*
X172673597Y-73083821D01*
X172714434Y-73037439D01*
X172748577Y-73014660D01*
X172773903Y-73023788D01*
G37*
G36*
X174722579Y-77201452D02*
G01*
X174749846Y-77250685D01*
X174781588Y-77318889D01*
X174811469Y-77392361D01*
X174833153Y-77457399D01*
X174840276Y-77483598D01*
X174849439Y-77526043D01*
X174841673Y-77532394D01*
X174814358Y-77509979D01*
X174785433Y-77475691D01*
X174757219Y-77417325D01*
X174755790Y-77411505D01*
X174740107Y-77348871D01*
X174721212Y-77274716D01*
X174716657Y-77256260D01*
X174706629Y-77205196D01*
X174707050Y-77184688D01*
X174722579Y-77201452D01*
G37*
G36*
X172940454Y-75708223D02*
G01*
X172928450Y-75720227D01*
X172916446Y-75708223D01*
X172928450Y-75696219D01*
X172940454Y-75708223D01*
G37*
G36*
X172556333Y-75924291D02*
G01*
X172544329Y-75936295D01*
X172532325Y-75924291D01*
X172544329Y-75912287D01*
X172556333Y-75924291D01*
G37*
G36*
X167514745Y-76428450D02*
G01*
X167502741Y-76440454D01*
X167490737Y-76428450D01*
X167502741Y-76416446D01*
X167514745Y-76428450D01*
G37*
G36*
X167634783Y-78673157D02*
G01*
X167633050Y-78685866D01*
X167618778Y-78689162D01*
X167615904Y-78685643D01*
X167618778Y-78657152D01*
X167625999Y-78653396D01*
X167634783Y-78673157D01*
G37*
G36*
X169154265Y-80365769D02*
G01*
X169265699Y-80399755D01*
X169284582Y-80406185D01*
X169380316Y-80437509D01*
X169495831Y-80473924D01*
X169610196Y-80508802D01*
X169648599Y-80520660D01*
X169737112Y-80552065D01*
X169791639Y-80578288D01*
X169805794Y-80596469D01*
X169792475Y-80604506D01*
X169739169Y-80606534D01*
X169656229Y-80595111D01*
X169553242Y-80573053D01*
X169439796Y-80543173D01*
X169325478Y-80508286D01*
X169219875Y-80471207D01*
X169132574Y-80434750D01*
X169073163Y-80401729D01*
X169051229Y-80374958D01*
X169052893Y-80367026D01*
X169083708Y-80354903D01*
X169154265Y-80365769D01*
G37*
G36*
X172964461Y-73844636D02*
G01*
X172973982Y-73850084D01*
X172986387Y-73886298D01*
X172985056Y-73938275D01*
X172969261Y-73984739D01*
X172953368Y-73995795D01*
X172897782Y-74018318D01*
X172813555Y-74044998D01*
X172711547Y-74072151D01*
X172661824Y-74084296D01*
X172562964Y-74108373D01*
X172498333Y-74123377D01*
X172458938Y-74130733D01*
X172435788Y-74131864D01*
X172419888Y-74128197D01*
X172402247Y-74121155D01*
X172379137Y-74100939D01*
X172364272Y-74051995D01*
X172375120Y-74014126D01*
X172414174Y-73978011D01*
X172490312Y-73936150D01*
X172618276Y-73879740D01*
X172731066Y-73846543D01*
X172840560Y-73835980D01*
X172964461Y-73844636D01*
G37*
G36*
X174957089Y-78565123D02*
G01*
X174945085Y-78577127D01*
X174933081Y-78565123D01*
X174945085Y-78553119D01*
X174957089Y-78565123D01*
G37*
G36*
X172812827Y-74653798D02*
G01*
X172844424Y-74687902D01*
X172844929Y-74688549D01*
X172877747Y-74737640D01*
X172891371Y-74771928D01*
X172891148Y-74773984D01*
X172876020Y-74770020D01*
X172844424Y-74735917D01*
X172843918Y-74735269D01*
X172811101Y-74686178D01*
X172797476Y-74651890D01*
X172797699Y-74649834D01*
X172812827Y-74653798D01*
G37*
G36*
X174666314Y-73833974D02*
G01*
X174675769Y-73851177D01*
X174686010Y-73906138D01*
X174691910Y-73983113D01*
X174692956Y-74066868D01*
X174688635Y-74142170D01*
X174678433Y-74193783D01*
X174667043Y-74212314D01*
X174630418Y-74231758D01*
X174622222Y-74230015D01*
X174607249Y-74207435D01*
X174599449Y-74152592D01*
X174597343Y-74057703D01*
X174599936Y-73967013D01*
X174611973Y-73877154D01*
X174634021Y-73833058D01*
X174666314Y-73833974D01*
G37*
G36*
X167280408Y-78697862D02*
G01*
X167298677Y-78721172D01*
X167297979Y-78726910D01*
X167274669Y-78745179D01*
X167268931Y-78744482D01*
X167250662Y-78721172D01*
X167251359Y-78715433D01*
X167274669Y-78697164D01*
X167280408Y-78697862D01*
G37*
G36*
X172508318Y-75984310D02*
G01*
X172506585Y-75997019D01*
X172492313Y-76000315D01*
X172489439Y-75996796D01*
X172492313Y-75968305D01*
X172499534Y-75964549D01*
X172508318Y-75984310D01*
G37*
G36*
X176399251Y-78049002D02*
G01*
X176409416Y-78069594D01*
X176406322Y-78113984D01*
X176393403Y-78161884D01*
X176374089Y-78193006D01*
X176361275Y-78208842D01*
X176338979Y-78253024D01*
X176323418Y-78280115D01*
X176308451Y-78270223D01*
X176305764Y-78254333D01*
X176319940Y-78210204D01*
X176339004Y-78174505D01*
X176358678Y-78114981D01*
X176376187Y-78069502D01*
X176398457Y-78048960D01*
X176399251Y-78049002D01*
G37*
G36*
X172904442Y-75776816D02*
G01*
X172925516Y-75800501D01*
X172940454Y-75826546D01*
X172930663Y-75841237D01*
X172905286Y-75832117D01*
X172883003Y-75802290D01*
X172870939Y-75766381D01*
X172874918Y-75752332D01*
X172904442Y-75776816D01*
G37*
G36*
X170399810Y-74185525D02*
G01*
X170467675Y-74255765D01*
X170476012Y-74264931D01*
X170532603Y-74330026D01*
X170572569Y-74380975D01*
X170587713Y-74407421D01*
X170579403Y-74423544D01*
X170548650Y-74410625D01*
X170499818Y-74364826D01*
X170437786Y-74289968D01*
X170425796Y-74274071D01*
X170372801Y-74198662D01*
X170351432Y-74158050D01*
X170360749Y-74153313D01*
X170399810Y-74185525D01*
G37*
G36*
X176277505Y-78349055D02*
G01*
X176265501Y-78361058D01*
X176253497Y-78349055D01*
X176265501Y-78337051D01*
X176277505Y-78349055D01*
G37*
G36*
X172273561Y-76177286D02*
G01*
X172304253Y-76200378D01*
X172306512Y-76212747D01*
X172281663Y-76224385D01*
X172263776Y-76221447D01*
X172244235Y-76200378D01*
X172244881Y-76194682D01*
X172266825Y-76176370D01*
X172273561Y-76177286D01*
G37*
G36*
X171109911Y-72850356D02*
G01*
X171175134Y-72889399D01*
X171259328Y-72953355D01*
X171265038Y-72958049D01*
X171338646Y-73017144D01*
X171401731Y-73065459D01*
X171441181Y-73092931D01*
X171464446Y-73113780D01*
X171469026Y-73158952D01*
X171467026Y-73163807D01*
X171431105Y-73199325D01*
X171375026Y-73193985D01*
X171301655Y-73148842D01*
X171213858Y-73064953D01*
X171207221Y-73057664D01*
X171144638Y-72986294D01*
X171094295Y-72924481D01*
X171066559Y-72884896D01*
X171055131Y-72853675D01*
X171068348Y-72837894D01*
X171109911Y-72850356D01*
G37*
G36*
X167514745Y-76308412D02*
G01*
X167502741Y-76320416D01*
X167490737Y-76308412D01*
X167502741Y-76296408D01*
X167514745Y-76308412D01*
G37*
G36*
X170104517Y-77227006D02*
G01*
X170065548Y-77275882D01*
X170055297Y-77286716D01*
X170011275Y-77335159D01*
X169949712Y-77404389D01*
X169880583Y-77483225D01*
X169846210Y-77521552D01*
X169788428Y-77580153D01*
X169746616Y-77614707D01*
X169728076Y-77618726D01*
X169727966Y-77613950D01*
X169744662Y-77576273D01*
X169782458Y-77515738D01*
X169833464Y-77443209D01*
X169889793Y-77369551D01*
X169943555Y-77305628D01*
X169986861Y-77262307D01*
X170030124Y-77229768D01*
X170080692Y-77202895D01*
X170107527Y-77202326D01*
X170104517Y-77227006D01*
G37*
G36*
X167514745Y-76200378D02*
G01*
X167513012Y-76213087D01*
X167498740Y-76216383D01*
X167495867Y-76212864D01*
X167498740Y-76184373D01*
X167505961Y-76180617D01*
X167514745Y-76200378D01*
G37*
G36*
X168631097Y-78096975D02*
G01*
X168651231Y-78115115D01*
X168667108Y-78135173D01*
X168662348Y-78137463D01*
X168631097Y-78129665D01*
X168614261Y-78120358D01*
X168595085Y-78091467D01*
X168601851Y-78082367D01*
X168631097Y-78096975D01*
G37*
G36*
X167953757Y-74688552D02*
G01*
X168008958Y-74702901D01*
X168069697Y-74729606D01*
X168118762Y-74760068D01*
X168138942Y-74785690D01*
X168120590Y-74803974D01*
X168073455Y-74806788D01*
X168013832Y-74794689D01*
X167958040Y-74769167D01*
X167951594Y-74764851D01*
X167907673Y-74725421D01*
X167904569Y-74698111D01*
X167943193Y-74687902D01*
X167953757Y-74688552D01*
G37*
G36*
X172748393Y-75876276D02*
G01*
X172736390Y-75888280D01*
X172724386Y-75876276D01*
X172736390Y-75864272D01*
X172748393Y-75876276D01*
G37*
G36*
X167982694Y-78610531D02*
G01*
X167946639Y-78627725D01*
X167923850Y-78634014D01*
X167881487Y-78643924D01*
X167878125Y-78637648D01*
X167908405Y-78613143D01*
X167942867Y-78595109D01*
X167980185Y-78594876D01*
X167982694Y-78610531D01*
G37*
G36*
X174583068Y-78314928D02*
G01*
X174584972Y-78337051D01*
X174580044Y-78344235D01*
X174559547Y-78361058D01*
X174557151Y-78360434D01*
X174548960Y-78337051D01*
X174549937Y-78330471D01*
X174574385Y-78313043D01*
X174583068Y-78314928D01*
G37*
G36*
X171908129Y-76212382D02*
G01*
X171896125Y-76224385D01*
X171884121Y-76212382D01*
X171896125Y-76200378D01*
X171908129Y-76212382D01*
G37*
G36*
X172652363Y-76020321D02*
G01*
X172640359Y-76032325D01*
X172628356Y-76020321D01*
X172640359Y-76008317D01*
X172652363Y-76020321D01*
G37*
G36*
X175796102Y-74458369D02*
G01*
X175786952Y-74492771D01*
X175750064Y-74555715D01*
X175683599Y-74651087D01*
X175673467Y-74664931D01*
X175603632Y-74751650D01*
X175552095Y-74798569D01*
X175520194Y-74804781D01*
X175509263Y-74769381D01*
X175509515Y-74765425D01*
X175528636Y-74718264D01*
X175571205Y-74653281D01*
X175627392Y-74582150D01*
X175687365Y-74516547D01*
X175741294Y-74468146D01*
X175779348Y-74448625D01*
X175779350Y-74448625D01*
X175796102Y-74458369D01*
G37*
G36*
X172292250Y-76044329D02*
G01*
X172280246Y-76056333D01*
X172268242Y-76044329D01*
X172280246Y-76032325D01*
X172292250Y-76044329D01*
G37*
G36*
X168563075Y-78128985D02*
G01*
X168566831Y-78136206D01*
X168547070Y-78144990D01*
X168534361Y-78143258D01*
X168531065Y-78128985D01*
X168534584Y-78126112D01*
X168563075Y-78128985D01*
G37*
G36*
X168196675Y-73687735D02*
G01*
X168235133Y-73757609D01*
X168249057Y-73787122D01*
X168296338Y-73879633D01*
X168345405Y-73967675D01*
X168406574Y-74073212D01*
X168459458Y-74170970D01*
X168489532Y-74237168D01*
X168499055Y-74276344D01*
X168498223Y-74287821D01*
X168484892Y-74296145D01*
X168446112Y-74274484D01*
X168439959Y-74269832D01*
X168398577Y-74222964D01*
X168345966Y-74146384D01*
X168288540Y-74051632D01*
X168232710Y-73950249D01*
X168184892Y-73853777D01*
X168151498Y-73773755D01*
X168138942Y-73721725D01*
X168145264Y-73672948D01*
X168165595Y-73659096D01*
X168196675Y-73687735D01*
G37*
G36*
X170641090Y-73551853D02*
G01*
X170707580Y-73568259D01*
X170820056Y-73609565D01*
X170928419Y-73663848D01*
X171025908Y-73726015D01*
X171105762Y-73790974D01*
X171161219Y-73853631D01*
X171185518Y-73908894D01*
X171171897Y-73951670D01*
X171155229Y-73962337D01*
X171101917Y-73964059D01*
X171045747Y-73935887D01*
X171038512Y-73930385D01*
X170982884Y-73898888D01*
X170900148Y-73860670D01*
X170804356Y-73821282D01*
X170709564Y-73786274D01*
X170629826Y-73761199D01*
X170579196Y-73751607D01*
X170555684Y-73750390D01*
X170501820Y-73728891D01*
X170488265Y-73682270D01*
X170516036Y-73612764D01*
X170548924Y-73566123D01*
X170585232Y-73546653D01*
X170641090Y-73551853D01*
G37*
G36*
X167298677Y-76919188D02*
G01*
X167297754Y-76926156D01*
X167274669Y-76944612D01*
X167269236Y-76944337D01*
X167250662Y-76934025D01*
X167251767Y-76930174D01*
X167274669Y-76908601D01*
X167283969Y-76904850D01*
X167298677Y-76919188D01*
G37*
G36*
X174620983Y-78253024D02*
G01*
X174608979Y-78265028D01*
X174596976Y-78253024D01*
X174608979Y-78241021D01*
X174620983Y-78253024D01*
G37*
G36*
X167778828Y-78673157D02*
G01*
X167777096Y-78685866D01*
X167762823Y-78689162D01*
X167759950Y-78685643D01*
X167762823Y-78657152D01*
X167770044Y-78653396D01*
X167778828Y-78673157D01*
G37*
G36*
X174191605Y-72796176D02*
G01*
X174191541Y-72796343D01*
X174175296Y-72847347D01*
X174153186Y-72927745D01*
X174129979Y-73020206D01*
X174090515Y-73185277D01*
X174089603Y-73189090D01*
X174151229Y-73311784D01*
X174177087Y-73364707D01*
X174202873Y-73421682D01*
X174212855Y-73449998D01*
X174212965Y-73451083D01*
X174224302Y-73482756D01*
X174250619Y-73544297D01*
X174286726Y-73623519D01*
X174292062Y-73635056D01*
X174330669Y-73732283D01*
X174341934Y-73793417D01*
X174326571Y-73817156D01*
X174285294Y-73802197D01*
X174218821Y-73747236D01*
X174216716Y-73745230D01*
X174140842Y-73679649D01*
X174061283Y-73621390D01*
X173987974Y-73576547D01*
X173930851Y-73551219D01*
X173899848Y-73551502D01*
X173894344Y-73566210D01*
X173892668Y-73618968D01*
X173900833Y-73691588D01*
X173910203Y-73756984D01*
X173920999Y-73863547D01*
X173928996Y-73979129D01*
X173933759Y-74092375D01*
X173934852Y-74191929D01*
X173931842Y-74266436D01*
X173924294Y-74304541D01*
X173914329Y-74311200D01*
X173883767Y-74298962D01*
X173832137Y-74254938D01*
X173755328Y-74175998D01*
X173703142Y-74120950D01*
X173633112Y-74053554D01*
X173587225Y-74022705D01*
X173561767Y-74027791D01*
X173553024Y-74068197D01*
X173557284Y-74143311D01*
X173560472Y-74192295D01*
X173561352Y-74205807D01*
X173556664Y-74265081D01*
X173538904Y-74325598D01*
X173504275Y-74396752D01*
X173480583Y-74435822D01*
X173448981Y-74487936D01*
X173369224Y-74608545D01*
X173362406Y-74618724D01*
X173269719Y-74774468D01*
X173208223Y-74920750D01*
X173170502Y-75074974D01*
X173162441Y-75109423D01*
X173133777Y-75193785D01*
X173096088Y-75279038D01*
X173091503Y-75288117D01*
X173052816Y-75372175D01*
X173039889Y-75423511D01*
X173052499Y-75449157D01*
X173090419Y-75456144D01*
X173095605Y-75456350D01*
X173149770Y-75465757D01*
X173231242Y-75486379D01*
X173324493Y-75514352D01*
X173430287Y-75548292D01*
X173559415Y-75589282D01*
X173672684Y-75624828D01*
X173762150Y-75655372D01*
X173828648Y-75689050D01*
X173883699Y-75736066D01*
X173945534Y-75808706D01*
X173994888Y-75878100D01*
X174009673Y-75901683D01*
X174038899Y-75948299D01*
X174059166Y-75980626D01*
X174127547Y-76099227D01*
X174191611Y-76219837D01*
X174228610Y-76294105D01*
X174279491Y-76403377D01*
X174311496Y-76486269D01*
X174328127Y-76552507D01*
X174328497Y-76557113D01*
X174332892Y-76611817D01*
X174337934Y-76687580D01*
X174359438Y-76738751D01*
X174406757Y-76786429D01*
X174442170Y-76814615D01*
X174497580Y-76843261D01*
X174548247Y-76836547D01*
X174611744Y-76795228D01*
X174664251Y-76748269D01*
X174755852Y-76632075D01*
X174843124Y-76474670D01*
X174926828Y-76274357D01*
X175007728Y-76029439D01*
X175086586Y-75738219D01*
X175109379Y-75650158D01*
X175153321Y-75506697D01*
X175197307Y-75403679D01*
X175244316Y-75336184D01*
X175297331Y-75299294D01*
X175359330Y-75288091D01*
X175403503Y-75294003D01*
X175469227Y-75335476D01*
X175511321Y-75412855D01*
X175528731Y-75521723D01*
X175520404Y-75657663D01*
X175485287Y-75816257D01*
X175480305Y-75833653D01*
X175448479Y-75952007D01*
X175414774Y-76086886D01*
X175385704Y-76212382D01*
X175375805Y-76257396D01*
X175354122Y-76354899D01*
X175336436Y-76432994D01*
X175325847Y-76477925D01*
X175324889Y-76482208D01*
X175333158Y-76534896D01*
X175369975Y-76569515D01*
X175420196Y-76571107D01*
X175430792Y-76565106D01*
X175471242Y-76526444D01*
X175515210Y-76468661D01*
X175518070Y-76464260D01*
X175556235Y-76400052D01*
X175604625Y-76311649D01*
X175658519Y-76208544D01*
X175713199Y-76100227D01*
X175763943Y-75996191D01*
X175806033Y-75905927D01*
X175834748Y-75838929D01*
X175845369Y-75804687D01*
X175846331Y-75795511D01*
X175871205Y-75743968D01*
X175918508Y-75687831D01*
X175973143Y-75642706D01*
X176020010Y-75624196D01*
X176070792Y-75638997D01*
X176125910Y-75676396D01*
X176146194Y-75697760D01*
X176168393Y-75737822D01*
X176178719Y-75795720D01*
X176181113Y-75886463D01*
X176174523Y-75995486D01*
X176156981Y-76101073D01*
X176131702Y-76187338D01*
X176101898Y-76239942D01*
X176092674Y-76258145D01*
X176086030Y-76306411D01*
X176088649Y-76322358D01*
X176104158Y-76323773D01*
X176138255Y-76294332D01*
X176196225Y-76230387D01*
X176203041Y-76222599D01*
X176277081Y-76147450D01*
X176335196Y-76111763D01*
X176384188Y-76113191D01*
X176430859Y-76149385D01*
X176450113Y-76173125D01*
X176482828Y-76243957D01*
X176485401Y-76328687D01*
X176457252Y-76434652D01*
X176397805Y-76569189D01*
X176360473Y-76638672D01*
X176284042Y-76761383D01*
X176196523Y-76884460D01*
X176106215Y-76997155D01*
X176021419Y-77088721D01*
X175950435Y-77148414D01*
X175932182Y-77162014D01*
X175908803Y-77199895D01*
X175930411Y-77229728D01*
X175994753Y-77246524D01*
X176141247Y-77262269D01*
X176313228Y-77284585D01*
X176442606Y-77307718D01*
X176532559Y-77332988D01*
X176586265Y-77361713D01*
X176606904Y-77395214D01*
X176597655Y-77434809D01*
X176596267Y-77436623D01*
X176561695Y-77481818D01*
X176543707Y-77498620D01*
X176451783Y-77553048D01*
X176320723Y-77598227D01*
X176157073Y-77632270D01*
X175967375Y-77653289D01*
X175854524Y-77662190D01*
X175770823Y-77673155D01*
X175707947Y-77689436D01*
X175652042Y-77714667D01*
X175589256Y-77752482D01*
X175528276Y-77792747D01*
X175479820Y-77827479D01*
X175461248Y-77844706D01*
X175471243Y-77864708D01*
X175501895Y-77917879D01*
X175548258Y-77995459D01*
X175605293Y-78088908D01*
X175627545Y-78125311D01*
X175685753Y-78227026D01*
X175724220Y-78313162D01*
X175745243Y-78396295D01*
X175751115Y-78488999D01*
X175749045Y-78523057D01*
X175744134Y-78603851D01*
X175726595Y-78753426D01*
X175717994Y-78831257D01*
X175717124Y-78894807D01*
X175726764Y-78956779D01*
X175749345Y-79032562D01*
X175779979Y-79117297D01*
X175787300Y-79137547D01*
X175791599Y-79149102D01*
X175810449Y-79201323D01*
X175838974Y-79280345D01*
X175869301Y-79377779D01*
X175883689Y-79451266D01*
X175883247Y-79510669D01*
X175869083Y-79565849D01*
X175842308Y-79626668D01*
X175828447Y-79656735D01*
X175806607Y-79718789D01*
X175792148Y-79791224D01*
X175782974Y-79886581D01*
X175776989Y-80017400D01*
X175775216Y-80068272D01*
X175770239Y-80172870D01*
X175763185Y-80243172D01*
X175752014Y-80289113D01*
X175734684Y-80320628D01*
X175709156Y-80347651D01*
X175689505Y-80368111D01*
X175655382Y-80415610D01*
X175617112Y-80485502D01*
X175570702Y-80585396D01*
X175512154Y-80722904D01*
X175510420Y-80726999D01*
X175486999Y-80768741D01*
X175469664Y-80778233D01*
X175450814Y-80779278D01*
X175400502Y-80798748D01*
X175332519Y-80833428D01*
X175280230Y-80860294D01*
X175193046Y-80897155D01*
X175122191Y-80918241D01*
X175103267Y-80920801D01*
X174994705Y-80908954D01*
X174870675Y-80857498D01*
X174735470Y-80769587D01*
X174593382Y-80648373D01*
X174448706Y-80497010D01*
X174305734Y-80318649D01*
X174268660Y-80266846D01*
X174215229Y-80185774D01*
X174178499Y-80121455D01*
X174164839Y-80084477D01*
X174151114Y-80053743D01*
X174110150Y-79995552D01*
X174048497Y-79919630D01*
X173972779Y-79834591D01*
X173901604Y-79754937D01*
X173838857Y-79678385D01*
X173796356Y-79619097D01*
X173780718Y-79585650D01*
X173778354Y-79553067D01*
X173761695Y-79463959D01*
X173733304Y-79355760D01*
X173698193Y-79244987D01*
X173681589Y-79201323D01*
X174260870Y-79201323D01*
X174260872Y-79202219D01*
X174268021Y-79252484D01*
X174284877Y-79273346D01*
X174285176Y-79273340D01*
X174301931Y-79251893D01*
X174308885Y-79201323D01*
X174308883Y-79200427D01*
X174301734Y-79150162D01*
X174284877Y-79129300D01*
X174284579Y-79129306D01*
X174267824Y-79150754D01*
X174260870Y-79201323D01*
X173681589Y-79201323D01*
X173661371Y-79148157D01*
X173645785Y-79117297D01*
X174068809Y-79117297D01*
X174080813Y-79129300D01*
X174092817Y-79117297D01*
X174080813Y-79105293D01*
X174068809Y-79117297D01*
X173645785Y-79117297D01*
X173627852Y-79081789D01*
X173606237Y-79051804D01*
X173554813Y-78985441D01*
X173485042Y-78898227D01*
X173404371Y-78799214D01*
X173320246Y-78697459D01*
X173240116Y-78602015D01*
X173171427Y-78521939D01*
X173121626Y-78466284D01*
X173119196Y-78463667D01*
X173084759Y-78424999D01*
X173039641Y-78372801D01*
X172982779Y-78306134D01*
X172912864Y-78531658D01*
X172848384Y-78741483D01*
X172793549Y-78926097D01*
X172750875Y-79080271D01*
X172718849Y-79211781D01*
X172695954Y-79328402D01*
X172680676Y-79437911D01*
X172671498Y-79548081D01*
X172666905Y-79666690D01*
X172665383Y-79801512D01*
X172665546Y-79877925D01*
X172669390Y-80007452D01*
X172679684Y-80115907D01*
X172698515Y-80221311D01*
X172727971Y-80341682D01*
X172742344Y-80396361D01*
X172774958Y-80523027D01*
X172805192Y-80643543D01*
X172827973Y-80737807D01*
X172846923Y-80816940D01*
X172867037Y-80896605D01*
X172881204Y-80947873D01*
X172884674Y-80959932D01*
X172883477Y-80993606D01*
X172848350Y-81001890D01*
X172840855Y-81001479D01*
X172808549Y-80987061D01*
X172777220Y-80946939D01*
X172742589Y-80874170D01*
X172700378Y-80761815D01*
X172689199Y-80730833D01*
X172659827Y-80655691D01*
X172622336Y-80568656D01*
X172572189Y-80459419D01*
X172504846Y-80317675D01*
X172485598Y-80277295D01*
X172450994Y-80199521D01*
X172429523Y-80134966D01*
X172418042Y-80068321D01*
X172413413Y-79984279D01*
X172412494Y-79867533D01*
X172411470Y-79789105D01*
X172406841Y-79694674D01*
X172399146Y-79632102D01*
X172389115Y-79609452D01*
X172354471Y-79622304D01*
X172296588Y-79669616D01*
X172229475Y-79743640D01*
X172160741Y-79835802D01*
X172097997Y-79937525D01*
X172088808Y-79954032D01*
X172034910Y-80042930D01*
X171997022Y-80088763D01*
X171973960Y-80093014D01*
X171964922Y-80054389D01*
X171988755Y-79985344D01*
X171995019Y-79971859D01*
X172018615Y-79914643D01*
X172028166Y-79880024D01*
X172028586Y-79876764D01*
X172046142Y-79837462D01*
X172085347Y-79769481D01*
X172140482Y-79681404D01*
X172205826Y-79581810D01*
X172275659Y-79479281D01*
X172344261Y-79382398D01*
X172405911Y-79299743D01*
X172454889Y-79239895D01*
X172492863Y-79189117D01*
X172547392Y-79101400D01*
X172606970Y-78993984D01*
X172664094Y-78879781D01*
X172666851Y-78873928D01*
X172740712Y-78713065D01*
X172792948Y-78589531D01*
X172825169Y-78498812D01*
X172838984Y-78436390D01*
X172836004Y-78397753D01*
X172811653Y-78368576D01*
X172748649Y-78317923D01*
X172653022Y-78251416D01*
X172530094Y-78172295D01*
X172385181Y-78083800D01*
X172223603Y-77989170D01*
X172050677Y-77891646D01*
X171871724Y-77794468D01*
X171692061Y-77700876D01*
X171634254Y-77671389D01*
X171507006Y-77605680D01*
X171411763Y-77554812D01*
X171340435Y-77514248D01*
X171284931Y-77479453D01*
X171237159Y-77445894D01*
X171169853Y-77396132D01*
X171074296Y-77459368D01*
X171051532Y-77475324D01*
X170998867Y-77524693D01*
X170955412Y-77591755D01*
X170910945Y-77691007D01*
X170905317Y-77704864D01*
X170870587Y-77785222D01*
X170841360Y-77844803D01*
X170823467Y-77871574D01*
X170820385Y-77873679D01*
X170803959Y-77913087D01*
X170821249Y-77973767D01*
X170869802Y-78046458D01*
X170882866Y-78063062D01*
X170927144Y-78128217D01*
X170977860Y-78211823D01*
X171028552Y-78302100D01*
X171072760Y-78387267D01*
X171104022Y-78455542D01*
X171115865Y-78495101D01*
X171115879Y-78495147D01*
X171113075Y-78505134D01*
X171083094Y-78544698D01*
X171030885Y-78594733D01*
X170969717Y-78644181D01*
X170912860Y-78681983D01*
X170873582Y-78697079D01*
X170865392Y-78695528D01*
X170827853Y-78666766D01*
X170790098Y-78613138D01*
X170780405Y-78595890D01*
X170748196Y-78548245D01*
X170725872Y-78529111D01*
X170722158Y-78541220D01*
X170717871Y-78594746D01*
X170714703Y-78685042D01*
X170712796Y-78805583D01*
X170712290Y-78949842D01*
X170713326Y-79111295D01*
X170713989Y-79170759D01*
X170716106Y-79339128D01*
X170718488Y-79466706D01*
X170721660Y-79559047D01*
X170726148Y-79621702D01*
X170732477Y-79660225D01*
X170741173Y-79680167D01*
X170752762Y-79687081D01*
X170767770Y-79686520D01*
X170800242Y-79679703D01*
X170863800Y-79658574D01*
X170872413Y-79654978D01*
X170927168Y-79634057D01*
X171009069Y-79604262D01*
X171103875Y-79570800D01*
X171181223Y-79542479D01*
X171352182Y-79471102D01*
X171518351Y-79391022D01*
X171665842Y-79309181D01*
X171780763Y-79232520D01*
X171815791Y-79206960D01*
X171870345Y-79173413D01*
X171900743Y-79163336D01*
X171901641Y-79177663D01*
X171867693Y-79217328D01*
X171819790Y-79262483D01*
X171711898Y-79349025D01*
X171585639Y-79430149D01*
X171433880Y-79509775D01*
X171249485Y-79591823D01*
X171025319Y-79680215D01*
X170975195Y-79699306D01*
X170855402Y-79747626D01*
X170774832Y-79785540D01*
X170728435Y-79815624D01*
X170711161Y-79840454D01*
X170710969Y-79841401D01*
X170694611Y-79885447D01*
X170661325Y-79955678D01*
X170618085Y-80037340D01*
X170588538Y-80092831D01*
X170556366Y-80169169D01*
X170555358Y-80210276D01*
X170586678Y-80216967D01*
X170651494Y-80190057D01*
X170750969Y-80130365D01*
X170854822Y-80061545D01*
X170970162Y-79982533D01*
X171070080Y-79911704D01*
X171086209Y-79900065D01*
X171159030Y-79849986D01*
X171215821Y-79814799D01*
X171245430Y-79801512D01*
X171246888Y-79801575D01*
X171249202Y-79816473D01*
X171218990Y-79853852D01*
X171162191Y-79908349D01*
X171084743Y-79974603D01*
X170992585Y-80047252D01*
X170891656Y-80120933D01*
X170823209Y-80168897D01*
X170740676Y-80226733D01*
X170677695Y-80270870D01*
X170644152Y-80294379D01*
X170634340Y-80302366D01*
X170623467Y-80326132D01*
X170631035Y-80367166D01*
X170658318Y-80438425D01*
X170677191Y-80482857D01*
X170709754Y-80554976D01*
X170733833Y-80602766D01*
X170734771Y-80604482D01*
X170749463Y-80652606D01*
X170763269Y-80731449D01*
X170773313Y-80824836D01*
X170786704Y-81001890D01*
X170687208Y-81001890D01*
X170658222Y-81001679D01*
X170610005Y-80995859D01*
X170591024Y-80974269D01*
X170587713Y-80926651D01*
X170587818Y-80919692D01*
X170596565Y-80841811D01*
X170615070Y-80760100D01*
X170618154Y-80749554D01*
X170629534Y-80688741D01*
X170621424Y-80633085D01*
X170591063Y-80559514D01*
X170574028Y-80521438D01*
X170549383Y-80457378D01*
X170539698Y-80417968D01*
X170535012Y-80387013D01*
X170506507Y-80367857D01*
X170447274Y-80382289D01*
X170395368Y-80402990D01*
X170335633Y-80426787D01*
X170312693Y-80435656D01*
X170224223Y-80466461D01*
X170133287Y-80494124D01*
X170055695Y-80514073D01*
X170007255Y-80521739D01*
X169982661Y-80520262D01*
X169963311Y-80507678D01*
X169987718Y-80483231D01*
X170054326Y-80448113D01*
X170161579Y-80403517D01*
X170167932Y-80401070D01*
X170278939Y-80357849D01*
X170353566Y-80325777D01*
X170399802Y-80298893D01*
X170425639Y-80271235D01*
X170439066Y-80236842D01*
X170448075Y-80189750D01*
X170454894Y-80159313D01*
X170485873Y-80069699D01*
X170527409Y-79984222D01*
X170537803Y-79965919D01*
X170565803Y-79900394D01*
X170560681Y-79864215D01*
X170520888Y-79856933D01*
X170444869Y-79878097D01*
X170331075Y-79927257D01*
X170328292Y-79928455D01*
X170272351Y-79936411D01*
X170183414Y-79933787D01*
X170073791Y-79922454D01*
X169955792Y-79904284D01*
X169841727Y-79881147D01*
X169743905Y-79854916D01*
X169674637Y-79827462D01*
X169626374Y-79808598D01*
X169560602Y-79790654D01*
X169554789Y-79789314D01*
X169504155Y-79771111D01*
X169483365Y-79751306D01*
X169481373Y-79746905D01*
X169449318Y-79739361D01*
X169389336Y-79743958D01*
X169330842Y-79749048D01*
X169273895Y-79735394D01*
X169209279Y-79693377D01*
X169198468Y-79684828D01*
X169143837Y-79627391D01*
X169124015Y-79576593D01*
X169124483Y-79561550D01*
X169131623Y-79540528D01*
X169154025Y-79561767D01*
X169163544Y-79572923D01*
X169231060Y-79629139D01*
X169306150Y-79663886D01*
X169371004Y-79668411D01*
X169407296Y-79665454D01*
X169458077Y-79691935D01*
X169487149Y-79714050D01*
X169544761Y-79729489D01*
X169598474Y-79735973D01*
X169667861Y-79755268D01*
X169699601Y-79766407D01*
X169756556Y-79782699D01*
X169834588Y-79801073D01*
X169942448Y-79823542D01*
X170088882Y-79852117D01*
X170103120Y-79854782D01*
X170192835Y-79865999D01*
X170270898Y-79860395D01*
X170364969Y-79836394D01*
X170392188Y-79828242D01*
X170453401Y-79809201D01*
X170500554Y-79789152D01*
X170535605Y-79762222D01*
X170560511Y-79722539D01*
X170577233Y-79664231D01*
X170587727Y-79581425D01*
X170593952Y-79468248D01*
X170597866Y-79318828D01*
X170601427Y-79127293D01*
X170605891Y-78897100D01*
X170610887Y-78661858D01*
X170615222Y-78485598D01*
X170881305Y-78485598D01*
X170905037Y-78517199D01*
X170933832Y-78521391D01*
X170947826Y-78495101D01*
X170942886Y-78476418D01*
X170909814Y-78457089D01*
X170891754Y-78461108D01*
X170881305Y-78485598D01*
X170615222Y-78485598D01*
X170615670Y-78467371D01*
X170620428Y-78309683D01*
X170625349Y-78184838D01*
X170630621Y-78088878D01*
X170636431Y-78017847D01*
X170642968Y-77967788D01*
X170650419Y-77934745D01*
X170658972Y-77914761D01*
X170674860Y-77870171D01*
X170662170Y-77802883D01*
X170637968Y-77756757D01*
X170604587Y-77738646D01*
X170570900Y-77767519D01*
X170557203Y-77783833D01*
X170511900Y-77826309D01*
X170450975Y-77876536D01*
X170414814Y-77907229D01*
X170361894Y-77963055D01*
X170334194Y-78007930D01*
X170332966Y-78011782D01*
X170312923Y-78063189D01*
X170293917Y-78106978D01*
X170279295Y-78140668D01*
X170262633Y-78176886D01*
X170238651Y-78229017D01*
X170194760Y-78328626D01*
X170150934Y-78440478D01*
X170119263Y-78534673D01*
X170109059Y-78568011D01*
X170051517Y-78705789D01*
X169982036Y-78801777D01*
X169902497Y-78853213D01*
X169881584Y-78860675D01*
X169802914Y-78896925D01*
X169718112Y-78950169D01*
X169620820Y-79025203D01*
X169504679Y-79126823D01*
X169363327Y-79259826D01*
X169250257Y-79366248D01*
X169051080Y-79541014D01*
X168841231Y-79708095D01*
X168609503Y-79876232D01*
X168344689Y-80054164D01*
X168321334Y-80069324D01*
X168121082Y-80193702D01*
X167951754Y-80287358D01*
X167809510Y-80352063D01*
X167690509Y-80389587D01*
X167590910Y-80401701D01*
X167559529Y-80401894D01*
X167510747Y-80406179D01*
X167477261Y-80421772D01*
X167455524Y-80456003D01*
X167441990Y-80516200D01*
X167433111Y-80609693D01*
X167425340Y-80743809D01*
X167421775Y-80808788D01*
X167415494Y-80900785D01*
X167407981Y-80957664D01*
X167396940Y-80987855D01*
X167380078Y-80999786D01*
X167355099Y-81001890D01*
X167353589Y-81001889D01*
X167327323Y-80999430D01*
X167311135Y-80986014D01*
X167302589Y-80952378D01*
X167299249Y-80889256D01*
X167298677Y-80787385D01*
X167299026Y-80748979D01*
X167303188Y-80647574D01*
X167311058Y-80563927D01*
X167321383Y-80513158D01*
X167327501Y-80487735D01*
X167319964Y-80438455D01*
X167292099Y-80408384D01*
X167253551Y-80411920D01*
X167227770Y-80417665D01*
X167162446Y-80424706D01*
X167069104Y-80431383D01*
X166958406Y-80436797D01*
X166859896Y-80440001D01*
X166767617Y-80440303D01*
X166706053Y-80435429D01*
X166665520Y-80424467D01*
X166636336Y-80406507D01*
X166585195Y-80356252D01*
X166501710Y-80230404D01*
X166428153Y-80058565D01*
X166364795Y-79841422D01*
X166311906Y-79579662D01*
X166297222Y-79490438D01*
X166280251Y-79375862D01*
X166271324Y-79288362D01*
X166269834Y-79215500D01*
X166275175Y-79144837D01*
X166286740Y-79063933D01*
X166288965Y-79050245D01*
X166306281Y-78952976D01*
X166323463Y-78869712D01*
X166337092Y-78817202D01*
X166352220Y-78770851D01*
X166362328Y-78737038D01*
X166971500Y-78737038D01*
X166996063Y-78759607D01*
X167048859Y-78769187D01*
X167098658Y-78777292D01*
X167163394Y-78805283D01*
X167205057Y-78825712D01*
X167233891Y-78825970D01*
X167237460Y-78823452D01*
X167277194Y-78811920D01*
X167340009Y-78803733D01*
X167359234Y-78801942D01*
X167448611Y-78788782D01*
X167538753Y-78769994D01*
X167639538Y-78750604D01*
X167790213Y-78733188D01*
X167962827Y-78722952D01*
X167972193Y-78721764D01*
X168025588Y-78687848D01*
X168087783Y-78607136D01*
X168123397Y-78552911D01*
X168205522Y-78441774D01*
X168272295Y-78374436D01*
X168324566Y-78349971D01*
X168330367Y-78349224D01*
X168383243Y-78329857D01*
X168444327Y-78293815D01*
X168455697Y-78285929D01*
X168509369Y-78253976D01*
X168544774Y-78241021D01*
X168552461Y-78240061D01*
X168571078Y-78219123D01*
X168573607Y-78213709D01*
X168607107Y-78195971D01*
X168667108Y-78181002D01*
X168704851Y-78173218D01*
X168750280Y-78152296D01*
X168763138Y-78118873D01*
X168758672Y-78092965D01*
X168737714Y-78072968D01*
X168729854Y-78071651D01*
X168725788Y-78051127D01*
X168731133Y-78015159D01*
X168712812Y-77972690D01*
X168679764Y-77952930D01*
X168661565Y-77960943D01*
X168612177Y-77995364D01*
X168542819Y-78050681D01*
X168462366Y-78120073D01*
X168414042Y-78161758D01*
X168316326Y-78239113D01*
X168223276Y-78305018D01*
X168149846Y-78348541D01*
X168101881Y-78373944D01*
X168054394Y-78403334D01*
X168013565Y-78428603D01*
X167943679Y-78481109D01*
X167929710Y-78492748D01*
X167859928Y-78535749D01*
X167798251Y-78552735D01*
X167751580Y-78559086D01*
X167718809Y-78577127D01*
X167699408Y-78591433D01*
X167650712Y-78601134D01*
X167606738Y-78608879D01*
X167546084Y-78637113D01*
X167504695Y-78658307D01*
X167485286Y-78644798D01*
X167472849Y-78630615D01*
X167429279Y-78636755D01*
X167404866Y-78646326D01*
X167371897Y-78655011D01*
X167323824Y-78662545D01*
X167249727Y-78670582D01*
X167138685Y-78680776D01*
X167093397Y-78685696D01*
X167026064Y-78696739D01*
X166988246Y-78708137D01*
X166984358Y-78710735D01*
X166971500Y-78737038D01*
X166362328Y-78737038D01*
X166386474Y-78656264D01*
X166423617Y-78521890D01*
X166456810Y-78394569D01*
X167401209Y-78394569D01*
X167401581Y-78402764D01*
X167432719Y-78407178D01*
X167456317Y-78403334D01*
X167447224Y-78392674D01*
X167433341Y-78388838D01*
X167401209Y-78394569D01*
X166456810Y-78394569D01*
X166461351Y-78377151D01*
X166493532Y-78247023D01*
X166674830Y-78247023D01*
X166674848Y-78248225D01*
X166693312Y-78265028D01*
X166696859Y-78264292D01*
X166723819Y-78238708D01*
X166756089Y-78189683D01*
X166783159Y-78135101D01*
X166794518Y-78092842D01*
X166796510Y-78081558D01*
X166817683Y-78032961D01*
X166854537Y-77971780D01*
X166870155Y-77947821D01*
X166889760Y-77912807D01*
X168282987Y-77912807D01*
X168283806Y-77918541D01*
X168306019Y-77929511D01*
X168346118Y-77916844D01*
X168387300Y-77885019D01*
X168390858Y-77880613D01*
X168820843Y-77880613D01*
X168835826Y-77961281D01*
X168875735Y-78118873D01*
X168876878Y-78123387D01*
X168934902Y-78298867D01*
X168999272Y-78434306D01*
X169072235Y-78534211D01*
X169156042Y-78603088D01*
X169166942Y-78609487D01*
X169239197Y-78638540D01*
X169319650Y-78645066D01*
X169416078Y-78627803D01*
X169536260Y-78585492D01*
X169687973Y-78516871D01*
X169716111Y-78503070D01*
X169812863Y-78452833D01*
X169897310Y-78405122D01*
X169953779Y-78368677D01*
X169966291Y-78359581D01*
X170019711Y-78326445D01*
X170055257Y-78313043D01*
X170059022Y-78312610D01*
X170090490Y-78290869D01*
X170123769Y-78249112D01*
X170146784Y-78205174D01*
X170147459Y-78176886D01*
X170131888Y-78179213D01*
X170089422Y-78205978D01*
X170032689Y-78252743D01*
X169958352Y-78310795D01*
X169816966Y-78392557D01*
X169662538Y-78455633D01*
X169516189Y-78490308D01*
X169455020Y-78496602D01*
X169400564Y-78492543D01*
X169351845Y-78469196D01*
X169288117Y-78420182D01*
X169248517Y-78386520D01*
X169179551Y-78322802D01*
X169128819Y-78269681D01*
X169070378Y-78186170D01*
X169008644Y-78063472D01*
X168964516Y-77935797D01*
X168946017Y-77822761D01*
X168945869Y-77818348D01*
X168935832Y-77737000D01*
X168914588Y-77699594D01*
X168884203Y-77707399D01*
X168846742Y-77761687D01*
X168841735Y-77771602D01*
X168824295Y-77819293D01*
X168822429Y-77824395D01*
X168820843Y-77880613D01*
X168390858Y-77880613D01*
X168413835Y-77852158D01*
X168424131Y-77819293D01*
X168394742Y-77808885D01*
X168382743Y-77811322D01*
X168340593Y-77837436D01*
X168300706Y-77877435D01*
X168282987Y-77912807D01*
X166889760Y-77912807D01*
X166901919Y-77891090D01*
X166914556Y-77855199D01*
X166914637Y-77853912D01*
X166929056Y-77818626D01*
X166963477Y-77757371D01*
X167003773Y-77693896D01*
X168461578Y-77693896D01*
X168484104Y-77707726D01*
X168544236Y-77712854D01*
X168563813Y-77712365D01*
X168623675Y-77704097D01*
X168655104Y-77688847D01*
X168656569Y-77683797D01*
X168634044Y-77669967D01*
X168573911Y-77664839D01*
X168554335Y-77665328D01*
X168494473Y-77673597D01*
X168463044Y-77688847D01*
X168461578Y-77693896D01*
X167003773Y-77693896D01*
X167010953Y-77682586D01*
X167011016Y-77682492D01*
X167061643Y-77601213D01*
X167101746Y-77526851D01*
X167122648Y-77475495D01*
X167143538Y-77420403D01*
X167182300Y-77355505D01*
X167212926Y-77307531D01*
X167226654Y-77267927D01*
X167230078Y-77251842D01*
X167234488Y-77241155D01*
X168164653Y-77241155D01*
X168170398Y-77271292D01*
X168199195Y-77314032D01*
X168243561Y-77358835D01*
X168296009Y-77395165D01*
X168299017Y-77396672D01*
X168349975Y-77415159D01*
X168430327Y-77438032D01*
X168524081Y-77460696D01*
X168599824Y-77477605D01*
X168723199Y-77506558D01*
X168812721Y-77530528D01*
X168877294Y-77552327D01*
X168925820Y-77574768D01*
X168967202Y-77600661D01*
X168976826Y-77607508D01*
X169023725Y-77644381D01*
X169046753Y-77668550D01*
X169050707Y-77676677D01*
X169055313Y-77683797D01*
X169085273Y-77730113D01*
X169141623Y-77805070D01*
X169211329Y-77891556D01*
X169285965Y-77979579D01*
X169357105Y-78059143D01*
X169416322Y-78120258D01*
X169455190Y-78152928D01*
X169466222Y-78159346D01*
X169508483Y-78180745D01*
X169545379Y-78186318D01*
X169593691Y-78175733D01*
X169670194Y-78148655D01*
X169750622Y-78123436D01*
X169808697Y-78115828D01*
X169829129Y-78128435D01*
X169809151Y-78159165D01*
X169745995Y-78205927D01*
X169708500Y-78226698D01*
X169596586Y-78262979D01*
X169483809Y-78268327D01*
X169387396Y-78241053D01*
X169386327Y-78240483D01*
X169349606Y-78227515D01*
X169340083Y-78246178D01*
X169346206Y-78273732D01*
X169386059Y-78331866D01*
X169451777Y-78381145D01*
X169455086Y-78382903D01*
X169496184Y-78401491D01*
X169533197Y-78403944D01*
X169591399Y-78392277D01*
X169595903Y-78391183D01*
X169673544Y-78363740D01*
X169765810Y-78319336D01*
X169863016Y-78264191D01*
X169955479Y-78204528D01*
X170033513Y-78146570D01*
X170076852Y-78106357D01*
X170183356Y-78106357D01*
X170189087Y-78138488D01*
X170197283Y-78138117D01*
X170201696Y-78106978D01*
X170197852Y-78083380D01*
X170187192Y-78092474D01*
X170183356Y-78106357D01*
X170076852Y-78106357D01*
X170087435Y-78096537D01*
X170107562Y-78060651D01*
X170106369Y-78058049D01*
X170077289Y-78053386D01*
X170021491Y-78059763D01*
X169969825Y-78067177D01*
X169944573Y-78060121D01*
X169943740Y-78032713D01*
X169957841Y-78009166D01*
X170009702Y-77979035D01*
X170104119Y-77948479D01*
X170178725Y-77925490D01*
X170261495Y-77893439D01*
X170317279Y-77864165D01*
X170369128Y-77828294D01*
X170416760Y-77796881D01*
X170418220Y-77795945D01*
X170456497Y-77766811D01*
X170517048Y-77716399D01*
X170587448Y-77655036D01*
X170663221Y-77594076D01*
X170766880Y-77523261D01*
X170861984Y-77469878D01*
X170986622Y-77405864D01*
X171065758Y-77356849D01*
X171292070Y-77356849D01*
X171322383Y-77389434D01*
X171358853Y-77408837D01*
X171409972Y-77414939D01*
X171433205Y-77414237D01*
X171452172Y-77433013D01*
X171464963Y-77457090D01*
X171506189Y-77487268D01*
X171527637Y-77497860D01*
X171650914Y-77559927D01*
X171777931Y-77625571D01*
X171899343Y-77689798D01*
X172005805Y-77747614D01*
X172087970Y-77794027D01*
X172136494Y-77824043D01*
X172139337Y-77826029D01*
X172206483Y-77866033D01*
X172268242Y-77892967D01*
X172282440Y-77898168D01*
X172345449Y-77931197D01*
X172412287Y-77976853D01*
X172425639Y-77987011D01*
X172504653Y-78040866D01*
X172580340Y-78084672D01*
X172610217Y-78101131D01*
X172688169Y-78151340D01*
X172764438Y-78207999D01*
X172804356Y-78239389D01*
X172853828Y-78275125D01*
X172879227Y-78289036D01*
X172881252Y-78288720D01*
X172900123Y-78267626D01*
X172914696Y-78232464D01*
X172913410Y-78209976D01*
X172910431Y-78208337D01*
X172874486Y-78188716D01*
X172808760Y-78152919D01*
X172723350Y-78106442D01*
X172691730Y-78089247D01*
X174335668Y-78089247D01*
X174339715Y-78176428D01*
X174352931Y-78221302D01*
X174374192Y-78222084D01*
X174402375Y-78176988D01*
X174421501Y-78138978D01*
X174439245Y-78130883D01*
X174465141Y-78159735D01*
X174475355Y-78174898D01*
X174496367Y-78227131D01*
X174496494Y-78232464D01*
X174497404Y-78270765D01*
X174476938Y-78289036D01*
X174474752Y-78289076D01*
X174454032Y-78304829D01*
X174471656Y-78348711D01*
X174527440Y-78420242D01*
X174582300Y-78474583D01*
X174627161Y-78502202D01*
X174652325Y-78496947D01*
X174651947Y-78457089D01*
X174640627Y-78429051D01*
X174618342Y-78409074D01*
X174616225Y-78408656D01*
X174620111Y-78389015D01*
X174649479Y-78349055D01*
X174660193Y-78337350D01*
X174710392Y-78298321D01*
X174749692Y-78291393D01*
X174768280Y-78319045D01*
X174769289Y-78343444D01*
X174769354Y-78406369D01*
X174767895Y-78487098D01*
X174764259Y-78625142D01*
X174899484Y-78625142D01*
X174906191Y-78625141D01*
X174979666Y-78623868D01*
X175016457Y-78616402D01*
X175027162Y-78597181D01*
X175026997Y-78595920D01*
X175135325Y-78595920D01*
X175154221Y-78628784D01*
X175186788Y-78644713D01*
X175240627Y-78643605D01*
X175275383Y-78601765D01*
X175286229Y-78523057D01*
X175285487Y-78506967D01*
X175277960Y-78454319D01*
X175265950Y-78433081D01*
X175265173Y-78433011D01*
X175250858Y-78409971D01*
X175240699Y-78358115D01*
X175233176Y-78283149D01*
X175177767Y-78328253D01*
X175160409Y-78343367D01*
X175135634Y-78383019D01*
X175141278Y-78414302D01*
X175144693Y-78433229D01*
X175153647Y-78470990D01*
X175145155Y-78551127D01*
X175135325Y-78595920D01*
X175026997Y-78595920D01*
X175022379Y-78560642D01*
X175016850Y-78509957D01*
X175029550Y-78453136D01*
X175067692Y-78433081D01*
X175089270Y-78430442D01*
X175101365Y-78414302D01*
X175079809Y-78391975D01*
X175030771Y-78373427D01*
X174975403Y-78353743D01*
X174931801Y-78323504D01*
X174912842Y-78305830D01*
X174873063Y-78289036D01*
X174852365Y-78283453D01*
X174813044Y-78253024D01*
X174790991Y-78234520D01*
X174736367Y-78217013D01*
X174708270Y-78212894D01*
X174656714Y-78187004D01*
X174646746Y-78178462D01*
X174597787Y-78141004D01*
X174535395Y-78096975D01*
X174518476Y-78085204D01*
X174448493Y-78031730D01*
X174393056Y-77982823D01*
X174339174Y-77928689D01*
X174335948Y-78071382D01*
X174335668Y-78089247D01*
X172691730Y-78089247D01*
X172628356Y-78054784D01*
X172588768Y-78032190D01*
X172495668Y-77974001D01*
X172409071Y-77914473D01*
X172360420Y-77880364D01*
X172305331Y-77846143D01*
X172274630Y-77832892D01*
X172262453Y-77829396D01*
X172246706Y-77820888D01*
X174216968Y-77820888D01*
X174221540Y-77897728D01*
X174228445Y-77955034D01*
X174236025Y-77976937D01*
X174245379Y-77974623D01*
X174271472Y-77943515D01*
X174286587Y-77893033D01*
X174282999Y-77844896D01*
X174270797Y-77799765D01*
X174262557Y-77730860D01*
X174254600Y-77685584D01*
X174236038Y-77664839D01*
X174225274Y-77678343D01*
X174217293Y-77732428D01*
X174216968Y-77820888D01*
X172246706Y-77820888D01*
X172217440Y-77805076D01*
X172157808Y-77765207D01*
X172133360Y-77748372D01*
X172055021Y-77701998D01*
X171986219Y-77670448D01*
X171978160Y-77667496D01*
X171903096Y-77631169D01*
X171830170Y-77584445D01*
X171824898Y-77580532D01*
X171744765Y-77529773D01*
X171661505Y-77488140D01*
X171633697Y-77474878D01*
X171554649Y-77425275D01*
X171481449Y-77365950D01*
X171431212Y-77320959D01*
X171379944Y-77288098D01*
X171341938Y-77287855D01*
X171307317Y-77317480D01*
X171301079Y-77325424D01*
X171292070Y-77356849D01*
X171065758Y-77356849D01*
X171104804Y-77332665D01*
X171192281Y-77263339D01*
X171245534Y-77201256D01*
X171261049Y-77149783D01*
X171235307Y-77112289D01*
X171199218Y-77100444D01*
X171115266Y-77100212D01*
X171003187Y-77119530D01*
X170871609Y-77156729D01*
X170729158Y-77210143D01*
X170498486Y-77307121D01*
X170411058Y-77255537D01*
X170406256Y-77252685D01*
X170344307Y-77209109D01*
X170325112Y-77176203D01*
X170346033Y-77149668D01*
X170348618Y-77143438D01*
X170340494Y-77102953D01*
X170314968Y-77035022D01*
X170275754Y-76950189D01*
X170265010Y-76928500D01*
X170217336Y-76828582D01*
X170175741Y-76736045D01*
X170148211Y-76668525D01*
X170128163Y-76615320D01*
X170091605Y-76522629D01*
X170053049Y-76428450D01*
X170027490Y-76364103D01*
X169985320Y-76246989D01*
X169951356Y-76140359D01*
X169938046Y-76098103D01*
X169917291Y-76043447D01*
X170283568Y-76043447D01*
X170289635Y-76182372D01*
X170294929Y-76269788D01*
X170303192Y-76371184D01*
X170314284Y-76445465D01*
X170331123Y-76505221D01*
X170356626Y-76563042D01*
X170393709Y-76631516D01*
X170443624Y-76710535D01*
X170502160Y-76784175D01*
X170552373Y-76828328D01*
X170627515Y-76869494D01*
X170725129Y-76909155D01*
X170810111Y-76921257D01*
X170896148Y-76909012D01*
X170923680Y-76900826D01*
X170986933Y-76872735D01*
X171022516Y-76842963D01*
X171038982Y-76802157D01*
X171058276Y-76727562D01*
X171066445Y-76681362D01*
X173641390Y-76681362D01*
X173660539Y-76714644D01*
X173707236Y-76771177D01*
X173774514Y-76843874D01*
X173855405Y-76925649D01*
X173942941Y-77009414D01*
X174030156Y-77088085D01*
X174104321Y-77149783D01*
X174110080Y-77154574D01*
X174155218Y-77196335D01*
X174233810Y-77293154D01*
X174309301Y-77413514D01*
X174324106Y-77439576D01*
X174379051Y-77525901D01*
X174431940Y-77595454D01*
X174473092Y-77635134D01*
X174473669Y-77635501D01*
X174521948Y-77667695D01*
X174548960Y-77688429D01*
X174553218Y-77692754D01*
X174607470Y-77737222D01*
X174685228Y-77790983D01*
X174769402Y-77842813D01*
X174842901Y-77881486D01*
X174872719Y-77893033D01*
X174903058Y-77904782D01*
X175025229Y-77922435D01*
X175139100Y-77893800D01*
X175250023Y-77818043D01*
X175252501Y-77815864D01*
X175315682Y-77772286D01*
X175389225Y-77735679D01*
X175441378Y-77712707D01*
X175525943Y-77670865D01*
X175613601Y-77623760D01*
X175679123Y-77588500D01*
X175736859Y-77564566D01*
X175797164Y-77551445D01*
X175875182Y-77545927D01*
X175986057Y-77544801D01*
X176000613Y-77544770D01*
X176141809Y-77539737D01*
X176252176Y-77524722D01*
X176346909Y-77497744D01*
X176401788Y-77477020D01*
X176459918Y-77453154D01*
X176487017Y-77439322D01*
X176489381Y-77436623D01*
X176488685Y-77409537D01*
X176459649Y-77387585D01*
X176419067Y-77384354D01*
X176398605Y-77386458D01*
X176334399Y-77385063D01*
X176243594Y-77378652D01*
X176138609Y-77368591D01*
X176031862Y-77356242D01*
X175935770Y-77342972D01*
X175862752Y-77330142D01*
X175825227Y-77319119D01*
X175805720Y-77294957D01*
X175798013Y-77238700D01*
X175812983Y-77174769D01*
X175848370Y-77122388D01*
X175853350Y-77117778D01*
X175900472Y-77067902D01*
X175965424Y-76992699D01*
X176038858Y-76903683D01*
X176111428Y-76812366D01*
X176173784Y-76730263D01*
X176216580Y-76668885D01*
X176251002Y-76612488D01*
X176306752Y-76512381D01*
X176353475Y-76418086D01*
X176385597Y-76341174D01*
X176397543Y-76293217D01*
X176391119Y-76265605D01*
X176357695Y-76231595D01*
X176326214Y-76237967D01*
X176269375Y-76279416D01*
X176194473Y-76353290D01*
X176105756Y-76455349D01*
X176007471Y-76581351D01*
X175957903Y-76645302D01*
X175886964Y-76729907D01*
X175817307Y-76806565D01*
X175756062Y-76867853D01*
X175710361Y-76906346D01*
X175687337Y-76914620D01*
X175689719Y-76891601D01*
X175713467Y-76839627D01*
X175753846Y-76771559D01*
X175774119Y-76739338D01*
X175835469Y-76632882D01*
X175898156Y-76513777D01*
X175953106Y-76399721D01*
X175991250Y-76308412D01*
X175992519Y-76304905D01*
X176013848Y-76247070D01*
X176040028Y-76177280D01*
X176040340Y-76176448D01*
X176056176Y-76109687D01*
X176067709Y-76015433D01*
X176072460Y-75913812D01*
X176071573Y-75825286D01*
X176065971Y-75766565D01*
X176053445Y-75736525D01*
X176031840Y-75725163D01*
X176023615Y-75724353D01*
X175987112Y-75744783D01*
X175951281Y-75808574D01*
X175949542Y-75812659D01*
X175898206Y-75927237D01*
X175836672Y-76055756D01*
X175769964Y-76188612D01*
X175703110Y-76316204D01*
X175641136Y-76428932D01*
X175589069Y-76517193D01*
X175551936Y-76571385D01*
X175543503Y-76581512D01*
X175475269Y-76651392D01*
X175416781Y-76680546D01*
X175357670Y-76671082D01*
X175287568Y-76625106D01*
X175259039Y-76601239D01*
X175211456Y-76548793D01*
X175199770Y-76501281D01*
X175219177Y-76446130D01*
X175222460Y-76439379D01*
X175244418Y-76379287D01*
X175272830Y-76284541D01*
X175305066Y-76165523D01*
X175338497Y-76032617D01*
X175370493Y-75896205D01*
X175398426Y-75766670D01*
X175419666Y-75654396D01*
X175432155Y-75534172D01*
X175421115Y-75446799D01*
X175384864Y-75398622D01*
X175323001Y-75388548D01*
X175291229Y-75395052D01*
X175264650Y-75415290D01*
X175244996Y-75459821D01*
X175224803Y-75540170D01*
X175212142Y-75595976D01*
X175149976Y-75853023D01*
X175089838Y-76070076D01*
X175029411Y-76253637D01*
X174966383Y-76410208D01*
X174898439Y-76546293D01*
X174823264Y-76668392D01*
X174820914Y-76671861D01*
X174770551Y-76748810D01*
X174730901Y-76813978D01*
X174710366Y-76853583D01*
X174705847Y-76861575D01*
X174663457Y-76892968D01*
X174592561Y-76922830D01*
X174508434Y-76946602D01*
X174426354Y-76959728D01*
X174361596Y-76957648D01*
X174338760Y-76949366D01*
X174275335Y-76915318D01*
X174193058Y-76862852D01*
X174103915Y-76799333D01*
X174101668Y-76797645D01*
X173957469Y-76698833D01*
X173838363Y-76637204D01*
X173745340Y-76613018D01*
X173679393Y-76626535D01*
X173641512Y-76678016D01*
X173641390Y-76681362D01*
X171066445Y-76681362D01*
X171073012Y-76644218D01*
X171080103Y-76570369D01*
X171078579Y-76551074D01*
X171613730Y-76551074D01*
X171636297Y-76550777D01*
X171692061Y-76524226D01*
X171704050Y-76517983D01*
X171789440Y-76476936D01*
X171910334Y-76422712D01*
X172058990Y-76358802D01*
X172076095Y-76351859D01*
X172143167Y-76329396D01*
X172191032Y-76320258D01*
X172194673Y-76320083D01*
X172244407Y-76304797D01*
X172304253Y-76272401D01*
X172309934Y-76268725D01*
X172371103Y-76237463D01*
X172420585Y-76224544D01*
X172423823Y-76224414D01*
X172474944Y-76208719D01*
X172534457Y-76174852D01*
X172543261Y-76168802D01*
X172593568Y-76142307D01*
X172625346Y-76138499D01*
X172634629Y-76139813D01*
X172638673Y-76138440D01*
X173983671Y-76138440D01*
X173988386Y-76154362D01*
X174004804Y-76217587D01*
X174022825Y-76294489D01*
X174028353Y-76316175D01*
X174063743Y-76410896D01*
X174109303Y-76494471D01*
X174128287Y-76521423D01*
X174162581Y-76566632D01*
X174166247Y-76570369D01*
X174180108Y-76584499D01*
X174183655Y-76583646D01*
X174191522Y-76557113D01*
X174184939Y-76505004D01*
X174167032Y-76443058D01*
X174140922Y-76387017D01*
X174134172Y-76375592D01*
X174104816Y-76315581D01*
X174092787Y-76272401D01*
X174091842Y-76265189D01*
X174070770Y-76219517D01*
X174030753Y-76164367D01*
X174009703Y-76140854D01*
X173983966Y-76119937D01*
X173983671Y-76138440D01*
X172638673Y-76138440D01*
X172676933Y-76125450D01*
X172734610Y-76092002D01*
X172756744Y-76077864D01*
X172820670Y-76045323D01*
X172868159Y-76032325D01*
X172868193Y-76032325D01*
X172911253Y-76019822D01*
X172959308Y-75989407D01*
X173000761Y-75951643D01*
X173003012Y-75948299D01*
X173900756Y-75948299D01*
X173912760Y-75960302D01*
X173924764Y-75948299D01*
X173912760Y-75936295D01*
X173900756Y-75948299D01*
X173003012Y-75948299D01*
X173024016Y-75917093D01*
X173017476Y-75896317D01*
X173000152Y-75882775D01*
X173012640Y-75852071D01*
X173025221Y-75831396D01*
X173013642Y-75804974D01*
X173013023Y-75804568D01*
X172995430Y-75770730D01*
X172992489Y-75748675D01*
X173570121Y-75748675D01*
X173583191Y-75766950D01*
X173626659Y-75787620D01*
X173640973Y-75790643D01*
X173698714Y-75810967D01*
X173741004Y-75831396D01*
X173760101Y-75840621D01*
X173808864Y-75871060D01*
X173828734Y-75893739D01*
X173829394Y-75898056D01*
X173852741Y-75912287D01*
X173875239Y-75901683D01*
X173862154Y-75867347D01*
X173810728Y-75811652D01*
X173795766Y-75799079D01*
X173739568Y-75765191D01*
X173676467Y-75739951D01*
X173618900Y-75726615D01*
X173579306Y-75728438D01*
X173570121Y-75748675D01*
X172992489Y-75748675D01*
X172987705Y-75712808D01*
X172977978Y-75647768D01*
X172953895Y-75592609D01*
X172942973Y-75579123D01*
X172912730Y-75562057D01*
X172870348Y-75580556D01*
X172840240Y-75607963D01*
X172830913Y-75640930D01*
X172832194Y-75654684D01*
X172808510Y-75656923D01*
X172783271Y-75659042D01*
X172727506Y-75682551D01*
X172659685Y-75723479D01*
X172617476Y-75751309D01*
X172517562Y-75811400D01*
X172424291Y-75861325D01*
X172377288Y-75885305D01*
X172307367Y-75925002D01*
X172262093Y-75955896D01*
X172232175Y-75975299D01*
X172205013Y-75977099D01*
X172192537Y-75975706D01*
X172147356Y-75990226D01*
X172084271Y-76021260D01*
X172047401Y-76040596D01*
X171981760Y-76069121D01*
X171938051Y-76080340D01*
X171899091Y-76094855D01*
X171847031Y-76140939D01*
X171800429Y-76204499D01*
X171772014Y-76270922D01*
X171759454Y-76304505D01*
X171723017Y-76372716D01*
X171674617Y-76446455D01*
X171665188Y-76459536D01*
X171623610Y-76521775D01*
X171613730Y-76551074D01*
X171078579Y-76551074D01*
X171076461Y-76524259D01*
X171053872Y-76498630D01*
X170999256Y-76449171D01*
X170918867Y-76381198D01*
X170818949Y-76299990D01*
X170705741Y-76210822D01*
X170704925Y-76210189D01*
X170592007Y-76121950D01*
X170492347Y-76042917D01*
X170412148Y-75978102D01*
X170357614Y-75932518D01*
X170334948Y-75911179D01*
X170330898Y-75905740D01*
X170296759Y-75888280D01*
X170290076Y-75896625D01*
X170283729Y-75947616D01*
X170283568Y-76043447D01*
X169917291Y-76043447D01*
X169894758Y-75984111D01*
X169839274Y-75857934D01*
X169778501Y-75733987D01*
X169719344Y-75626682D01*
X169668708Y-75550434D01*
X169666908Y-75548185D01*
X169613492Y-75501187D01*
X169559482Y-75481479D01*
X169533646Y-75482480D01*
X169512984Y-75498881D01*
X169517191Y-75539329D01*
X169517903Y-75546172D01*
X169524405Y-75578144D01*
X169538974Y-75656561D01*
X169554111Y-75744234D01*
X169554475Y-75746402D01*
X169575801Y-75837123D01*
X169609951Y-75947320D01*
X169649707Y-76053633D01*
X169656823Y-76071007D01*
X169690649Y-76161461D01*
X169714447Y-76238193D01*
X169723441Y-76286143D01*
X169727703Y-76330066D01*
X169745166Y-76398440D01*
X169754269Y-76428618D01*
X169770220Y-76503029D01*
X169783563Y-76589021D01*
X169784575Y-76597123D01*
X169791897Y-76670730D01*
X169786294Y-76715779D01*
X169761432Y-76749854D01*
X169710977Y-76790542D01*
X169621718Y-76858623D01*
X169558543Y-76785947D01*
X169541072Y-76765920D01*
X169485787Y-76702894D01*
X169414866Y-76622330D01*
X169339320Y-76536746D01*
X169315575Y-76509552D01*
X169227847Y-76404687D01*
X169141348Y-76295711D01*
X169071798Y-76202275D01*
X169027021Y-76139934D01*
X168961608Y-76056286D01*
X168908211Y-76002000D01*
X168858753Y-75969464D01*
X168805151Y-75951066D01*
X168777659Y-75945587D01*
X168746444Y-75950970D01*
X168739131Y-75985012D01*
X168743217Y-76017732D01*
X168761110Y-76072327D01*
X168795945Y-76148563D01*
X168850655Y-76252736D01*
X168928171Y-76391145D01*
X168935232Y-76403585D01*
X168992704Y-76508399D01*
X169047818Y-76614174D01*
X169089521Y-76699770D01*
X169113497Y-76748171D01*
X169172166Y-76850174D01*
X169232117Y-76938590D01*
X169279702Y-77004132D01*
X169309506Y-77057367D01*
X169307900Y-77082884D01*
X169276010Y-77084416D01*
X169268300Y-77080721D01*
X169234319Y-77044837D01*
X169189566Y-76979928D01*
X169141629Y-76896597D01*
X169131333Y-76877384D01*
X169077136Y-76783441D01*
X169023615Y-76700463D01*
X168981010Y-76644518D01*
X168951859Y-76609992D01*
X168894221Y-76533587D01*
X168839057Y-76452457D01*
X168768823Y-76347685D01*
X168703725Y-76265782D01*
X168656889Y-76227304D01*
X168628587Y-76232463D01*
X168619093Y-76281472D01*
X168623496Y-76321818D01*
X168645153Y-76398089D01*
X168686864Y-76503647D01*
X168750815Y-76644518D01*
X168785208Y-76718056D01*
X168833532Y-76822631D01*
X168880057Y-76924393D01*
X168883654Y-76932269D01*
X168922393Y-77011512D01*
X168956130Y-77071530D01*
X168977917Y-77099865D01*
X168987136Y-77109470D01*
X169001092Y-77157733D01*
X169001628Y-77223843D01*
X168989746Y-77287739D01*
X168966448Y-77329359D01*
X168960856Y-77333362D01*
X168931409Y-77343378D01*
X168883270Y-77345938D01*
X168810799Y-77340459D01*
X168708359Y-77326361D01*
X168570313Y-77303061D01*
X168391021Y-77269977D01*
X168364112Y-77264915D01*
X168276715Y-77248898D01*
X168211502Y-77237589D01*
X168180955Y-77233175D01*
X168164653Y-77241155D01*
X167234488Y-77241155D01*
X167251613Y-77199651D01*
X167286384Y-77133121D01*
X167306167Y-77096720D01*
X167334958Y-77034926D01*
X167346403Y-76996414D01*
X167346409Y-76996043D01*
X167360894Y-76955374D01*
X167394707Y-76903148D01*
X167428223Y-76845848D01*
X167442722Y-76790667D01*
X167448960Y-76751630D01*
X167475603Y-76691873D01*
X167480524Y-76683991D01*
X167505345Y-76623165D01*
X167522947Y-76548488D01*
X167522998Y-76548150D01*
X167538453Y-76449255D01*
X167550051Y-76386708D01*
X167560234Y-76349290D01*
X167571447Y-76325782D01*
X167575962Y-76314891D01*
X167566281Y-76286580D01*
X167552278Y-76259994D01*
X167556158Y-76202237D01*
X167578609Y-76129011D01*
X167615303Y-76053740D01*
X167661914Y-75989848D01*
X167688225Y-75961495D01*
X167736843Y-75908278D01*
X167766824Y-75874318D01*
X167771245Y-75869209D01*
X167805754Y-75831641D01*
X167861347Y-75772679D01*
X167928309Y-75702650D01*
X167969648Y-75659287D01*
X168019734Y-75602868D01*
X168043317Y-75565921D01*
X168045349Y-75539329D01*
X168030782Y-75513974D01*
X168026053Y-75507972D01*
X168008510Y-75493012D01*
X167986973Y-75494880D01*
X167954366Y-75518251D01*
X167903614Y-75567801D01*
X167827640Y-75648204D01*
X167777956Y-75703317D01*
X167719312Y-75774662D01*
X167681282Y-75829220D01*
X167670396Y-75858270D01*
X167670899Y-75873268D01*
X167644616Y-75888280D01*
X167626987Y-75892191D01*
X167625300Y-75916367D01*
X167629366Y-75932814D01*
X167600488Y-75928272D01*
X167568227Y-75925579D01*
X167545735Y-75960203D01*
X167534824Y-75988370D01*
X167514552Y-76008317D01*
X167495168Y-76026984D01*
X167469947Y-76075483D01*
X167446360Y-76136336D01*
X167431158Y-76192015D01*
X167431093Y-76224991D01*
X167434439Y-76244750D01*
X167420840Y-76289430D01*
X167402466Y-76335987D01*
X167381738Y-76417380D01*
X167367775Y-76502322D01*
X167365441Y-76566493D01*
X167364538Y-76588995D01*
X167348316Y-76608506D01*
X167346472Y-76608768D01*
X167327103Y-76633596D01*
X167310262Y-76686531D01*
X167309422Y-76690402D01*
X167284288Y-76767631D01*
X167248058Y-76844423D01*
X167240258Y-76858714D01*
X167218098Y-76913570D01*
X167216442Y-76947511D01*
X167217049Y-76976590D01*
X167195713Y-77024270D01*
X167174068Y-77070246D01*
X167160633Y-77138144D01*
X167154174Y-77165922D01*
X167124280Y-77232218D01*
X167074844Y-77320264D01*
X167011171Y-77420052D01*
X166966000Y-77489368D01*
X166914162Y-77577210D01*
X166882549Y-77642496D01*
X166875375Y-77677239D01*
X166879596Y-77695133D01*
X166869630Y-77712854D01*
X166862890Y-77717032D01*
X166842027Y-77753364D01*
X166819632Y-77814886D01*
X166812542Y-77838046D01*
X166788266Y-77911818D01*
X166768424Y-77964934D01*
X166751858Y-78006664D01*
X166726451Y-78077336D01*
X166701545Y-78151800D01*
X166682539Y-78213785D01*
X166674830Y-78247023D01*
X166493532Y-78247023D01*
X166497378Y-78231469D01*
X166529400Y-78094267D01*
X166555118Y-77974964D01*
X166572234Y-77882984D01*
X166578450Y-77827747D01*
X166592087Y-77766594D01*
X166650473Y-77685153D01*
X166667819Y-77667195D01*
X166706897Y-77620833D01*
X166722495Y-77592367D01*
X166723011Y-77589858D01*
X166742779Y-77557703D01*
X166785471Y-77502182D01*
X166843206Y-77433660D01*
X166851114Y-77424542D01*
X166909839Y-77351498D01*
X166953817Y-77287751D01*
X166974042Y-77246204D01*
X166974124Y-77245800D01*
X166984829Y-77197590D01*
X167002945Y-77119645D01*
X167024598Y-77028639D01*
X167026146Y-77022186D01*
X167057743Y-76881612D01*
X167086032Y-76740131D01*
X167108922Y-76609615D01*
X167124325Y-76501934D01*
X167130152Y-76428959D01*
X167130641Y-76418027D01*
X167146047Y-76339061D01*
X167179405Y-76233728D01*
X167225771Y-76114902D01*
X167280200Y-75995461D01*
X167337750Y-75888280D01*
X167345009Y-75876152D01*
X167476635Y-75682531D01*
X167622981Y-75510235D01*
X167773023Y-75372329D01*
X167775846Y-75370114D01*
X167852124Y-75313370D01*
X167909958Y-75281395D01*
X167966271Y-75267275D01*
X168037988Y-75264098D01*
X168077792Y-75262092D01*
X168175196Y-75249768D01*
X168291735Y-75228707D01*
X168410105Y-75201805D01*
X168419268Y-75199477D01*
X168568976Y-75161592D01*
X168682076Y-75133657D01*
X168767960Y-75113765D01*
X168836023Y-75100006D01*
X168895659Y-75090474D01*
X168956260Y-75083259D01*
X169027221Y-75076454D01*
X169207278Y-75060019D01*
X169226733Y-74495841D01*
X169387335Y-74495841D01*
X169388032Y-74501579D01*
X169411342Y-74519849D01*
X169417081Y-74519151D01*
X169435350Y-74495841D01*
X169434652Y-74490103D01*
X169411342Y-74471834D01*
X169405604Y-74472531D01*
X169387335Y-74495841D01*
X169226733Y-74495841D01*
X169231286Y-74363799D01*
X169297306Y-74370710D01*
X169334498Y-74370577D01*
X169360617Y-74350507D01*
X169349308Y-74304499D01*
X169300620Y-74230420D01*
X169225986Y-74120417D01*
X169180932Y-74017183D01*
X169164965Y-73912288D01*
X169243220Y-73912288D01*
X169250396Y-73961717D01*
X169283731Y-74038710D01*
X169341511Y-74138007D01*
X169356274Y-74160267D01*
X169416179Y-74240996D01*
X169489994Y-74330576D01*
X169570437Y-74421254D01*
X169641266Y-74495841D01*
X169650227Y-74505277D01*
X169722083Y-74574891D01*
X169778724Y-74622346D01*
X169812868Y-74639886D01*
X169833286Y-74624097D01*
X169843478Y-74578107D01*
X169852612Y-74532195D01*
X169883617Y-74524090D01*
X169900630Y-74534164D01*
X169921693Y-74571994D01*
X169942887Y-74643919D01*
X169966649Y-74756769D01*
X169973402Y-74791294D01*
X169994708Y-74883635D01*
X170020998Y-74961959D01*
X170057428Y-75033912D01*
X170109154Y-75107142D01*
X170181331Y-75189297D01*
X170279113Y-75288024D01*
X170407656Y-75410970D01*
X170574922Y-75562751D01*
X170856096Y-75791756D01*
X171169522Y-76016449D01*
X171212325Y-76043593D01*
X171334584Y-76100612D01*
X171445065Y-76121899D01*
X171536011Y-76105568D01*
X171581439Y-76091362D01*
X171650373Y-76082028D01*
X171702637Y-76075740D01*
X171758407Y-76058074D01*
X171766175Y-76054081D01*
X171814858Y-76030228D01*
X171894825Y-75991795D01*
X171996971Y-75943144D01*
X172112193Y-75888634D01*
X172130059Y-75880207D01*
X172272997Y-75812448D01*
X172381770Y-75759677D01*
X172464845Y-75717169D01*
X172530690Y-75680197D01*
X172587770Y-75644036D01*
X172644553Y-75603960D01*
X172709505Y-75555243D01*
X172824967Y-75453611D01*
X172934229Y-75313965D01*
X173021661Y-75141674D01*
X173034503Y-75111064D01*
X173064882Y-75041380D01*
X173086964Y-74994324D01*
X173087616Y-74993024D01*
X173102393Y-74939269D01*
X173108507Y-74869701D01*
X173108605Y-74861944D01*
X173115909Y-74804045D01*
X173131259Y-74772704D01*
X173137794Y-74764549D01*
X173159260Y-74718691D01*
X173187553Y-74643183D01*
X173218312Y-74549217D01*
X173233401Y-74500447D01*
X173253731Y-74435822D01*
X173348582Y-74435822D01*
X173360586Y-74447826D01*
X173372590Y-74435822D01*
X173360586Y-74423818D01*
X173348582Y-74435822D01*
X173253731Y-74435822D01*
X173274899Y-74368533D01*
X173284465Y-74338600D01*
X173396597Y-74338600D01*
X173399500Y-74356277D01*
X173420605Y-74375803D01*
X173433569Y-74368915D01*
X173444613Y-74332590D01*
X173447831Y-74308707D01*
X173470872Y-74263117D01*
X173483160Y-74242859D01*
X173487670Y-74192295D01*
X173480386Y-74172136D01*
X173465094Y-74178252D01*
X173437403Y-74224564D01*
X173433687Y-74231715D01*
X173407373Y-74293189D01*
X173396597Y-74338600D01*
X173284465Y-74338600D01*
X173320791Y-74224925D01*
X173363613Y-74093058D01*
X173389131Y-74012978D01*
X173417803Y-73916121D01*
X173437372Y-73841369D01*
X173444613Y-73800382D01*
X173447778Y-73773667D01*
X173464555Y-73742116D01*
X173469070Y-73737543D01*
X173487879Y-73691846D01*
X173510560Y-73602614D01*
X173536356Y-73473148D01*
X173564508Y-73306749D01*
X173571220Y-73262462D01*
X173579034Y-73185277D01*
X173575973Y-73119478D01*
X173560232Y-73046215D01*
X173530003Y-72946636D01*
X173527051Y-72937440D01*
X173483255Y-72811098D01*
X173447587Y-72731225D01*
X173418854Y-72697238D01*
X173395863Y-72708555D01*
X173377420Y-72764592D01*
X173362332Y-72864768D01*
X173361306Y-72873629D01*
X173337779Y-73008057D01*
X173304491Y-73095837D01*
X173261304Y-73137340D01*
X173246580Y-73136034D01*
X173235687Y-73110250D01*
X173230112Y-73051355D01*
X173228545Y-72951936D01*
X173217132Y-72784269D01*
X173161905Y-72545330D01*
X173060370Y-72302257D01*
X172911958Y-72053432D01*
X172856437Y-71980653D01*
X172792313Y-71928330D01*
X172716930Y-71907880D01*
X172615116Y-71912078D01*
X172543549Y-71917879D01*
X172496584Y-71912460D01*
X172476314Y-71892807D01*
X172452004Y-71876456D01*
X172384156Y-71860161D01*
X172279054Y-71847075D01*
X172142416Y-71837884D01*
X171979962Y-71833275D01*
X171952719Y-71830932D01*
X171870666Y-71811338D01*
X171787901Y-71778570D01*
X171690756Y-71742565D01*
X171560019Y-71723298D01*
X171444983Y-71708009D01*
X171321935Y-71665898D01*
X171270504Y-71643585D01*
X171188510Y-71622259D01*
X171108862Y-71625275D01*
X171034527Y-71641023D01*
X171029613Y-71643123D01*
X170966661Y-71670025D01*
X170914962Y-71717320D01*
X170874037Y-71790262D01*
X170838494Y-71896206D01*
X170802940Y-72042506D01*
X170775209Y-72196355D01*
X170759632Y-72376221D01*
X170765152Y-72533871D01*
X170791954Y-72658939D01*
X170798142Y-72677384D01*
X170811359Y-72742706D01*
X170802825Y-72773560D01*
X170776663Y-72765739D01*
X170736994Y-72715037D01*
X170719294Y-72684504D01*
X170650436Y-72523455D01*
X170606162Y-72343415D01*
X170588051Y-72158320D01*
X170597682Y-71982106D01*
X170636632Y-71828709D01*
X170685551Y-71704601D01*
X170606622Y-71720259D01*
X170576649Y-71727877D01*
X170528308Y-71752123D01*
X170487019Y-71795166D01*
X170448339Y-71864007D01*
X170407822Y-71965648D01*
X170361023Y-72107089D01*
X170339573Y-72176593D01*
X170275216Y-72408078D01*
X170231900Y-72610495D01*
X170207747Y-72793937D01*
X170200881Y-72968494D01*
X170200898Y-72971054D01*
X170201055Y-73070968D01*
X170198659Y-73130474D01*
X170191830Y-73157020D01*
X170178691Y-73158056D01*
X170157361Y-73141029D01*
X170138187Y-73115348D01*
X170108156Y-73041776D01*
X170083862Y-72939831D01*
X170069088Y-72858535D01*
X170052242Y-72775017D01*
X170038774Y-72725341D01*
X170026337Y-72701447D01*
X170012581Y-72695274D01*
X170003067Y-72714336D01*
X169995685Y-72769424D01*
X169992859Y-72847917D01*
X169990075Y-72921421D01*
X169980585Y-73000038D01*
X169966689Y-73049458D01*
X169957667Y-73074727D01*
X169946193Y-73144053D01*
X169942596Y-73226919D01*
X169942679Y-73233715D01*
X169940984Y-73325619D01*
X169935390Y-73439933D01*
X169927002Y-73553544D01*
X169918991Y-73627206D01*
X169901794Y-73712439D01*
X169878304Y-73750359D01*
X169846741Y-73741268D01*
X169805321Y-73685468D01*
X169752264Y-73583265D01*
X169687741Y-73459528D01*
X169621093Y-73357961D01*
X169560838Y-73293811D01*
X169510371Y-73271455D01*
X169481649Y-73287061D01*
X169436540Y-73333916D01*
X169386170Y-73399696D01*
X169339321Y-73471835D01*
X169304772Y-73537770D01*
X169291304Y-73584935D01*
X169289862Y-73607164D01*
X169276732Y-73665617D01*
X169273197Y-73686012D01*
X169289489Y-73703592D01*
X169306108Y-73697120D01*
X169330390Y-73661578D01*
X169340235Y-73633580D01*
X169379852Y-73547325D01*
X169425217Y-73476206D01*
X169466935Y-73435758D01*
X169484534Y-73430779D01*
X169536663Y-73449403D01*
X169599876Y-73508609D01*
X169670980Y-73604981D01*
X169746782Y-73735104D01*
X169771368Y-73782068D01*
X169791555Y-73824746D01*
X169802975Y-73848890D01*
X169816034Y-73896717D01*
X169813566Y-73940772D01*
X169798590Y-73996276D01*
X169783712Y-74049239D01*
X169769030Y-74141256D01*
X169779869Y-74209256D01*
X169817048Y-74265190D01*
X169852285Y-74310845D01*
X169867486Y-74347341D01*
X169863792Y-74365428D01*
X169838531Y-74375116D01*
X169797708Y-74353327D01*
X169751244Y-74303781D01*
X169743043Y-74293083D01*
X169701998Y-74249450D01*
X169671706Y-74231758D01*
X169656501Y-74249451D01*
X169659821Y-74303781D01*
X169661460Y-74312446D01*
X169663620Y-74362417D01*
X169646654Y-74370937D01*
X169613257Y-74339043D01*
X169566122Y-74267769D01*
X169541002Y-74227475D01*
X169504923Y-74178750D01*
X169482055Y-74159735D01*
X169473611Y-74157822D01*
X169435448Y-74130182D01*
X169391194Y-74082285D01*
X169354576Y-74030383D01*
X169339320Y-73990727D01*
X169331892Y-73959242D01*
X169300969Y-73915305D01*
X169262495Y-73895652D01*
X169243220Y-73912288D01*
X169164965Y-73912288D01*
X169164336Y-73908153D01*
X169169225Y-73813110D01*
X169376055Y-73813110D01*
X169388032Y-73853386D01*
X169428348Y-73912079D01*
X169448375Y-73939449D01*
X169479213Y-73988263D01*
X169488099Y-74013821D01*
X169488830Y-74021192D01*
X169516057Y-74035061D01*
X169538081Y-74031755D01*
X169565279Y-73999049D01*
X169566077Y-73996806D01*
X169597789Y-73954989D01*
X169651356Y-73914774D01*
X169702026Y-73873588D01*
X169723441Y-73824746D01*
X169723247Y-73816451D01*
X169710967Y-73780361D01*
X169682423Y-73786932D01*
X169641622Y-73835633D01*
X169620860Y-73862710D01*
X169571152Y-73891932D01*
X169520278Y-73873272D01*
X169468661Y-73806800D01*
X169449894Y-73774514D01*
X169425351Y-73740089D01*
X169408707Y-73740568D01*
X169389636Y-73771314D01*
X169387861Y-73774691D01*
X169376055Y-73813110D01*
X169169225Y-73813110D01*
X169171154Y-73775614D01*
X169181738Y-73636515D01*
X169176924Y-73513065D01*
X169153881Y-73415501D01*
X169152364Y-73411612D01*
X169139456Y-73401638D01*
X169125403Y-73437236D01*
X169117171Y-73459726D01*
X169084506Y-73506331D01*
X169045023Y-73533403D01*
X169012962Y-73529282D01*
X169008608Y-73508076D01*
X169012212Y-73451023D01*
X169024887Y-73374082D01*
X169026711Y-73364842D01*
X169040986Y-73267276D01*
X169052286Y-73148234D01*
X169058303Y-73031380D01*
X169058948Y-72932969D01*
X169052928Y-72850245D01*
X169037207Y-72784932D01*
X169009216Y-72720774D01*
X169003961Y-72710306D01*
X168982060Y-72661678D01*
X168967336Y-72613536D01*
X168960153Y-72559093D01*
X168960871Y-72491562D01*
X168969851Y-72404156D01*
X168983451Y-72316031D01*
X170061165Y-72316031D01*
X170064325Y-72394265D01*
X170075018Y-72426026D01*
X170091434Y-72411594D01*
X170111759Y-72351247D01*
X170134183Y-72245264D01*
X170136191Y-72234329D01*
X170187010Y-72048797D01*
X170268381Y-71856091D01*
X170293634Y-71804403D01*
X170330580Y-71724380D01*
X170354054Y-71667331D01*
X170359821Y-71643123D01*
X170337505Y-71650238D01*
X170298757Y-71690805D01*
X170250212Y-71756160D01*
X170198388Y-71837519D01*
X170149805Y-71926099D01*
X170103060Y-72031362D01*
X170075423Y-72134355D01*
X170063135Y-72256203D01*
X170061165Y-72316031D01*
X168983451Y-72316031D01*
X168987455Y-72290087D01*
X169014044Y-72142569D01*
X169049978Y-71954814D01*
X169058912Y-71898218D01*
X169056608Y-71815854D01*
X169024572Y-71753297D01*
X168957399Y-71695398D01*
X168940727Y-71682008D01*
X168924237Y-71655520D01*
X169033904Y-71655520D01*
X169048379Y-71678000D01*
X169092231Y-71704962D01*
X169141055Y-71724960D01*
X169170051Y-71731702D01*
X169189515Y-71727516D01*
X169237644Y-71717982D01*
X169269373Y-71705943D01*
X169278135Y-71685070D01*
X169275272Y-71673868D01*
X169295785Y-71650953D01*
X169301420Y-71649286D01*
X169348825Y-71639529D01*
X169431419Y-71625009D01*
X169539537Y-71607229D01*
X169566817Y-71602930D01*
X170395652Y-71602930D01*
X170407656Y-71614934D01*
X170419660Y-71602930D01*
X170407656Y-71590926D01*
X170395652Y-71602930D01*
X169566817Y-71602930D01*
X169663514Y-71587692D01*
X169793687Y-71567901D01*
X169920389Y-71549359D01*
X170033957Y-71533568D01*
X170124726Y-71522033D01*
X170146489Y-71519371D01*
X170244794Y-71502745D01*
X170295984Y-71484413D01*
X170299832Y-71464922D01*
X170256117Y-71444820D01*
X170164613Y-71424653D01*
X170088870Y-71411349D01*
X169981695Y-71392238D01*
X169874795Y-71372943D01*
X169702048Y-71341525D01*
X169502678Y-71433293D01*
X169476793Y-71445169D01*
X169365364Y-71495591D01*
X169256928Y-71543731D01*
X169171742Y-71580574D01*
X169113156Y-71607020D01*
X169057749Y-71636489D01*
X169033904Y-71655520D01*
X168924237Y-71655520D01*
X168909845Y-71632403D01*
X168918662Y-71586572D01*
X168966348Y-71557274D01*
X168969426Y-71556435D01*
X169010999Y-71530607D01*
X169055528Y-71473110D01*
X169108615Y-71376838D01*
X169117613Y-71358655D01*
X169152845Y-71281296D01*
X169174254Y-71223634D01*
X169177491Y-71197024D01*
X169159554Y-71188749D01*
X169111835Y-71182798D01*
X169074142Y-71176787D01*
X169015172Y-71149722D01*
X169010544Y-71146186D01*
X168998031Y-71130961D01*
X168999442Y-71110678D01*
X169018988Y-71079771D01*
X169060881Y-71032672D01*
X169129331Y-70963815D01*
X169133166Y-70960097D01*
X169601370Y-70960097D01*
X169625161Y-70985788D01*
X169672404Y-71016247D01*
X169737442Y-71045053D01*
X169768491Y-71056494D01*
X169872545Y-71097597D01*
X169968621Y-71138776D01*
X169975011Y-71141663D01*
X170044504Y-71169221D01*
X170087571Y-71174643D01*
X170118217Y-71159909D01*
X170168405Y-71141409D01*
X170245153Y-71141496D01*
X170251575Y-71142358D01*
X170330143Y-71155408D01*
X170395652Y-71169985D01*
X170455671Y-71186630D01*
X170388511Y-71124866D01*
X170381071Y-71118246D01*
X170321300Y-71075968D01*
X170268473Y-71053590D01*
X170241171Y-71048960D01*
X170170348Y-71037484D01*
X170073575Y-71022122D01*
X169963516Y-71004898D01*
X169886469Y-70992643D01*
X169783123Y-70975304D01*
X169701390Y-70960525D01*
X169654206Y-70950580D01*
X169646783Y-70948716D01*
X169606691Y-70945599D01*
X169601370Y-70960097D01*
X169133166Y-70960097D01*
X169228549Y-70867633D01*
X169269802Y-70828124D01*
X169360434Y-70742847D01*
X169438362Y-70671561D01*
X169496378Y-70620793D01*
X169527276Y-70597071D01*
X169554454Y-70580507D01*
X169613467Y-70540947D01*
X169628262Y-70530496D01*
X170932238Y-70530496D01*
X170937292Y-70620358D01*
X170947892Y-70745367D01*
X170951381Y-70782455D01*
X170970630Y-70937667D01*
X170994074Y-71062241D01*
X171020152Y-71147494D01*
X171036600Y-71183712D01*
X171038174Y-71186630D01*
X171064135Y-71234772D01*
X171081811Y-71254820D01*
X171082109Y-71254790D01*
X171086879Y-71231614D01*
X171084935Y-71173551D01*
X171076663Y-71092769D01*
X171065629Y-70971677D01*
X171058848Y-70820278D01*
X171056603Y-70655980D01*
X171058886Y-70493960D01*
X171065691Y-70349392D01*
X171077013Y-70237451D01*
X171082137Y-70198697D01*
X171084948Y-70129565D01*
X171074267Y-70104369D01*
X171052026Y-70122194D01*
X171020156Y-70182121D01*
X170980590Y-70283233D01*
X170959296Y-70345376D01*
X170942346Y-70405647D01*
X170933625Y-70463140D01*
X170932238Y-70530496D01*
X169628262Y-70530496D01*
X169683306Y-70491615D01*
X169726387Y-70458542D01*
X169767712Y-70414922D01*
X169765284Y-70386808D01*
X169717897Y-70371652D01*
X169624348Y-70366908D01*
X169608065Y-70366585D01*
X169529725Y-70355580D01*
X169484238Y-70331581D01*
X169466620Y-70292071D01*
X169486649Y-70259171D01*
X169544200Y-70246503D01*
X169546452Y-70246452D01*
X169598800Y-70235327D01*
X169676944Y-70208527D01*
X169764853Y-70171499D01*
X169780594Y-70164245D01*
X169928235Y-70097391D01*
X170045984Y-70048335D01*
X170145993Y-70014150D01*
X170240418Y-69991912D01*
X170341412Y-69978693D01*
X170461128Y-69971567D01*
X170611720Y-69967609D01*
X170681281Y-69966237D01*
X170806199Y-69963760D01*
X170911279Y-69961661D01*
X170987132Y-69960127D01*
X171024369Y-69959346D01*
X171036903Y-69956860D01*
X171086329Y-69931109D01*
X171143469Y-69886651D01*
X171154250Y-69877195D01*
X171209482Y-69841846D01*
X171247831Y-69836974D01*
X171261156Y-69860581D01*
X171241318Y-69910670D01*
X171223188Y-69942339D01*
X171211909Y-69970090D01*
X171212564Y-69974335D01*
X171234568Y-69983412D01*
X171273162Y-69972277D01*
X171308325Y-69945944D01*
X171346017Y-69926680D01*
X171412001Y-69922940D01*
X171484229Y-69936364D01*
X171543031Y-69965326D01*
X171558970Y-69975197D01*
X171591817Y-69969716D01*
X171616772Y-69920438D01*
X171634274Y-69829819D01*
X171707085Y-69829819D01*
X171718673Y-69880387D01*
X171725223Y-69898797D01*
X171747924Y-69986737D01*
X171769601Y-70111237D01*
X171790847Y-70276113D01*
X171812250Y-70485182D01*
X171821290Y-70572765D01*
X171838842Y-70694561D01*
X171858774Y-70772799D01*
X171881939Y-70810334D01*
X171909190Y-70810024D01*
X171918025Y-70807400D01*
X171945133Y-70824291D01*
X171946821Y-70828504D01*
X171954183Y-70871940D01*
X171962208Y-70951229D01*
X171970035Y-71056727D01*
X171976801Y-71178794D01*
X171979273Y-71231614D01*
X171990191Y-71464922D01*
X171992155Y-71506900D01*
X171995677Y-71495250D01*
X172664154Y-71495250D01*
X172674120Y-71512239D01*
X172720952Y-71518903D01*
X172750789Y-71521634D01*
X172805336Y-71547685D01*
X172857602Y-71602930D01*
X172863280Y-71608932D01*
X172937104Y-71709984D01*
X173071054Y-71936211D01*
X173178870Y-72178676D01*
X173251826Y-72419187D01*
X173257899Y-72445339D01*
X173282208Y-72533358D01*
X173301896Y-72579741D01*
X173315025Y-72583301D01*
X173319652Y-72542848D01*
X173314517Y-72467202D01*
X173396597Y-72467202D01*
X173399306Y-72483768D01*
X173420605Y-72503213D01*
X173431649Y-72499151D01*
X173444613Y-72467202D01*
X173441904Y-72450636D01*
X173420605Y-72431191D01*
X173409561Y-72435254D01*
X173396597Y-72467202D01*
X173314517Y-72467202D01*
X173313838Y-72457192D01*
X173310823Y-72430909D01*
X173290847Y-72311123D01*
X173258696Y-72194402D01*
X173209738Y-72066284D01*
X173139342Y-71912306D01*
X173137278Y-71908040D01*
X173069889Y-71787415D01*
X173050228Y-71759670D01*
X173312571Y-71759670D01*
X173437542Y-71820447D01*
X173593744Y-71920784D01*
X173745480Y-72069185D01*
X173888840Y-72263274D01*
X173919718Y-72312548D01*
X173962425Y-72389231D01*
X173979438Y-72438243D01*
X173973548Y-72466276D01*
X173973206Y-72467202D01*
X173964769Y-72490018D01*
X173975010Y-72540212D01*
X173976221Y-72542848D01*
X174011775Y-72620220D01*
X174041136Y-72672957D01*
X174074933Y-72723683D01*
X174096225Y-72743289D01*
X174103173Y-72736498D01*
X174112976Y-72694886D01*
X174116824Y-72627965D01*
X174103695Y-72525555D01*
X174056108Y-72389563D01*
X173980308Y-72249045D01*
X173883197Y-72112451D01*
X173771674Y-71988229D01*
X173652639Y-71884829D01*
X173532993Y-71810699D01*
X173419636Y-71774289D01*
X173312571Y-71759670D01*
X173050228Y-71759670D01*
X172993214Y-71679215D01*
X172912792Y-71588305D01*
X172834158Y-71519552D01*
X172762851Y-71477822D01*
X172704408Y-71467981D01*
X172664367Y-71494896D01*
X172664154Y-71495250D01*
X171995677Y-71495250D01*
X172093779Y-71170794D01*
X172096896Y-71160480D01*
X172145746Y-70995532D01*
X172180617Y-70867468D01*
X172202594Y-70768056D01*
X172212763Y-70689062D01*
X172212210Y-70622254D01*
X172202020Y-70559399D01*
X172183280Y-70492264D01*
X172176307Y-70471315D01*
X172142014Y-70384979D01*
X172098661Y-70292122D01*
X172052898Y-70205546D01*
X172035833Y-70177807D01*
X172212311Y-70177807D01*
X172216643Y-70210669D01*
X172245143Y-70284633D01*
X172257100Y-70314343D01*
X172288024Y-70407614D01*
X172307706Y-70490754D01*
X172311556Y-70510741D01*
X172331515Y-70569464D01*
X172355666Y-70599238D01*
X172356930Y-70599834D01*
X172372955Y-70631768D01*
X172381948Y-70689062D01*
X172383440Y-70698571D01*
X172388144Y-70788194D01*
X172386826Y-70888589D01*
X172379245Y-70987708D01*
X172365159Y-71073501D01*
X172355762Y-71124163D01*
X172354288Y-71182920D01*
X172366980Y-71206414D01*
X172389857Y-71190411D01*
X172418937Y-71130677D01*
X172455418Y-71012828D01*
X172481752Y-70883693D01*
X172492870Y-70766378D01*
X172486404Y-70676811D01*
X172460526Y-70593952D01*
X172415236Y-70485586D01*
X172359937Y-70373786D01*
X172302788Y-70274956D01*
X172251951Y-70205503D01*
X172232182Y-70185638D01*
X172212311Y-70177807D01*
X172035833Y-70177807D01*
X172032029Y-70171624D01*
X172412706Y-70171624D01*
X172424383Y-70209457D01*
X172470598Y-70278141D01*
X172533799Y-70378322D01*
X172602360Y-70534679D01*
X172654013Y-70712647D01*
X172668444Y-70766378D01*
X172674369Y-70788440D01*
X172701699Y-70844225D01*
X172737254Y-70871028D01*
X172754007Y-70880496D01*
X172785126Y-70918185D01*
X172817958Y-70987782D01*
X172856493Y-71096846D01*
X172871996Y-71143405D01*
X172914003Y-71255945D01*
X172946824Y-71322068D01*
X172969931Y-71342412D01*
X172982796Y-71317614D01*
X172984887Y-71248310D01*
X172975677Y-71135138D01*
X172954637Y-70978733D01*
X172925690Y-70810377D01*
X172891015Y-70666575D01*
X172848201Y-70552203D01*
X172798675Y-70467899D01*
X173071221Y-70467899D01*
X173073157Y-70498172D01*
X173102799Y-70551217D01*
X173162312Y-70651323D01*
X173224459Y-70784018D01*
X173279959Y-70929026D01*
X173321304Y-71068575D01*
X173337900Y-71129200D01*
X173363718Y-71194655D01*
X173386336Y-71219414D01*
X173403162Y-71201463D01*
X173411602Y-71138784D01*
X173413687Y-71092651D01*
X173418778Y-71051668D01*
X173430195Y-71043707D01*
X173452731Y-71059535D01*
X173461524Y-71069174D01*
X173489644Y-71119518D01*
X173515520Y-71188514D01*
X173520211Y-71205900D01*
X173528573Y-71248310D01*
X173536533Y-71288677D01*
X173551736Y-71395215D01*
X173563041Y-71506900D01*
X173570512Y-71590947D01*
X173579958Y-71658849D01*
X173590078Y-71685573D01*
X173601758Y-71674953D01*
X173602379Y-71673537D01*
X173614706Y-71617173D01*
X173621690Y-71529492D01*
X173623440Y-71426235D01*
X173620064Y-71323145D01*
X173611669Y-71235963D01*
X173598365Y-71180430D01*
X173526988Y-71031263D01*
X173452753Y-70896617D01*
X173374858Y-70779829D01*
X173284251Y-70666076D01*
X173246544Y-70622341D01*
X173183346Y-70551183D01*
X173134391Y-70498810D01*
X173107966Y-70474240D01*
X173096481Y-70467986D01*
X173071221Y-70467899D01*
X172798675Y-70467899D01*
X172792641Y-70457628D01*
X172719726Y-70373217D01*
X172624848Y-70289339D01*
X172563646Y-70241686D01*
X172484462Y-70187893D01*
X172433440Y-70164488D01*
X172412706Y-70171624D01*
X172032029Y-70171624D01*
X172011378Y-70138057D01*
X171980754Y-70102457D01*
X171979412Y-70101446D01*
X171955387Y-70070855D01*
X171924045Y-70018431D01*
X171897267Y-69973301D01*
X171847297Y-69905977D01*
X171796948Y-69853702D01*
X171752568Y-69820742D01*
X171720498Y-69811359D01*
X171707085Y-69829819D01*
X171634274Y-69829819D01*
X171635128Y-69825400D01*
X171647250Y-69748529D01*
X171667175Y-69686893D01*
X171696481Y-69669524D01*
X171740647Y-69694282D01*
X171805153Y-69759029D01*
X171855214Y-69816687D01*
X171909813Y-69885966D01*
X171944275Y-69937497D01*
X171978187Y-69984521D01*
X172018362Y-70015953D01*
X172037050Y-70020978D01*
X172049920Y-70007767D01*
X172043858Y-69958843D01*
X172042758Y-69953020D01*
X172042861Y-69900667D01*
X172064197Y-69886355D01*
X172100193Y-69909411D01*
X172144281Y-69969158D01*
X172149431Y-69977817D01*
X172184329Y-70026252D01*
X172221130Y-70042853D01*
X172280007Y-70037827D01*
X172286322Y-70036888D01*
X172360142Y-70035719D01*
X172419602Y-70049464D01*
X172444233Y-70061248D01*
X172594342Y-70126024D01*
X172781589Y-70197232D01*
X172843229Y-70221202D01*
X172941822Y-70264933D01*
X173021664Y-70306331D01*
X173089309Y-70352471D01*
X173196075Y-70444434D01*
X173306191Y-70557397D01*
X173411341Y-70681352D01*
X173503208Y-70806287D01*
X173573476Y-70922195D01*
X173613829Y-71019064D01*
X173630439Y-71069304D01*
X173656961Y-71106348D01*
X173684792Y-71095514D01*
X173689841Y-71085318D01*
X173845044Y-71085318D01*
X173855787Y-71160017D01*
X173862734Y-71201744D01*
X173868861Y-71301991D01*
X173864378Y-71401219D01*
X173863738Y-71406843D01*
X173862413Y-71426235D01*
X173858096Y-71489401D01*
X173865684Y-71540666D01*
X173888534Y-71575274D01*
X173914326Y-71598830D01*
X173945726Y-71613602D01*
X173962700Y-71592787D01*
X173967167Y-71532505D01*
X173961051Y-71428875D01*
X173949023Y-71320280D01*
X173931273Y-71211086D01*
X173910632Y-71118324D01*
X173889170Y-71049813D01*
X173868954Y-71013374D01*
X173852053Y-71016826D01*
X173847815Y-71028572D01*
X173845044Y-71085318D01*
X173689841Y-71085318D01*
X173713833Y-71036869D01*
X173743982Y-70930483D01*
X173754102Y-70885825D01*
X173770607Y-70790754D01*
X173772554Y-70717731D01*
X173760969Y-70649844D01*
X173746016Y-70570517D01*
X173752238Y-70524623D01*
X173781519Y-70510586D01*
X173806086Y-70528028D01*
X173838838Y-70580612D01*
X173871376Y-70656127D01*
X173897473Y-70742138D01*
X173906644Y-70779602D01*
X173928080Y-70864885D01*
X173955451Y-70972160D01*
X173985031Y-71086767D01*
X174011325Y-71203212D01*
X174035443Y-71355315D01*
X174048481Y-71501633D01*
X174048839Y-71532505D01*
X174049994Y-71632048D01*
X174039535Y-71736440D01*
X174016660Y-71804692D01*
X174005732Y-71824989D01*
X174002083Y-71862470D01*
X174032735Y-71888002D01*
X174102186Y-71904044D01*
X174214935Y-71913054D01*
X174220916Y-71913339D01*
X174320575Y-71921467D01*
X174378031Y-71934680D01*
X174398683Y-71954187D01*
X174388600Y-71974992D01*
X174347065Y-72013357D01*
X174285342Y-72057658D01*
X174216248Y-72099588D01*
X174152599Y-72130837D01*
X174107214Y-72143100D01*
X174100703Y-72143697D01*
X174074294Y-72167424D01*
X174070981Y-72210985D01*
X174093313Y-72254031D01*
X174118489Y-72287159D01*
X174157787Y-72374619D01*
X174187619Y-72485090D01*
X174205113Y-72602733D01*
X174205643Y-72627965D01*
X174207400Y-72711708D01*
X174191605Y-72796176D01*
G37*
G36*
X171966901Y-76287248D02*
G01*
X171985327Y-76295562D01*
X172004159Y-76310980D01*
X171997505Y-76319924D01*
X171969988Y-76316585D01*
X171944310Y-76296683D01*
X171942118Y-76285570D01*
X171966901Y-76287248D01*
G37*
G36*
X172932451Y-75920290D02*
G01*
X172936207Y-75927511D01*
X172916446Y-75936295D01*
X172903737Y-75934562D01*
X172900441Y-75920290D01*
X172903960Y-75917416D01*
X172932451Y-75920290D01*
G37*
G36*
X167447224Y-78728780D02*
G01*
X167458336Y-78737421D01*
X167432719Y-78743284D01*
X167408369Y-78741587D01*
X167401209Y-78730675D01*
X167409703Y-78725917D01*
X167447224Y-78728780D01*
G37*
G36*
X172076182Y-76150946D02*
G01*
X172075259Y-76157914D01*
X172052174Y-76176370D01*
X172046741Y-76176095D01*
X172028166Y-76165783D01*
X172029271Y-76161932D01*
X172052174Y-76140359D01*
X172061474Y-76136608D01*
X172076182Y-76150946D01*
G37*
G36*
X172176763Y-76082960D02*
G01*
X172196219Y-76103594D01*
X172191122Y-76113528D01*
X172160208Y-76113029D01*
X172142970Y-76105256D01*
X172124197Y-76089775D01*
X172128177Y-76085477D01*
X172160208Y-76080340D01*
X172176763Y-76082960D01*
G37*
G36*
X140103411Y-100729211D02*
G01*
X139561833Y-100729211D01*
X139561833Y-100187634D01*
X140103411Y-100187634D01*
X140103411Y-100729211D01*
G37*
G36*
X134146055Y-98562900D02*
G01*
X133604477Y-98562900D01*
X133604477Y-98021322D01*
X134146055Y-98021322D01*
X134146055Y-98562900D01*
G37*
G36*
X137937100Y-94230277D02*
G01*
X137395522Y-94230277D01*
X137395522Y-93688700D01*
X137937100Y-93688700D01*
X137937100Y-94230277D01*
G37*
G36*
X140103411Y-108311301D02*
G01*
X140103411Y-107769723D01*
X140644989Y-107769723D01*
X142269723Y-107769723D01*
X142269723Y-106144990D01*
X140644989Y-106144990D01*
X140644989Y-107769723D01*
X140103411Y-107769723D01*
X140103411Y-105603412D01*
X142811300Y-105603412D01*
X142811300Y-108311301D01*
X140103411Y-108311301D01*
G37*
G36*
X141728145Y-99104478D02*
G01*
X141186567Y-99104478D01*
X141186567Y-98562900D01*
X141728145Y-98562900D01*
X141728145Y-99104478D01*
X142269723Y-99104478D01*
X142269723Y-100187634D01*
X141728145Y-100187634D01*
X141728145Y-100729211D01*
X141186567Y-100729211D01*
X141186567Y-101270789D01*
X141728145Y-101270789D01*
X141728145Y-101812367D01*
X139020256Y-101812367D01*
X139020256Y-102353945D01*
X138478678Y-102353945D01*
X138478678Y-101270789D01*
X137395522Y-101270789D01*
X137395522Y-100187634D01*
X137937100Y-100187634D01*
X137937100Y-99646056D01*
X137395522Y-99646056D01*
X137395522Y-99104478D01*
X136853944Y-99104478D01*
X136853944Y-98021322D01*
X136312366Y-98021322D01*
X136312366Y-97479744D01*
X135770789Y-97479744D01*
X135770789Y-96396589D01*
X136312366Y-96396589D01*
X136312366Y-95855011D01*
X138478678Y-95855011D01*
X138478678Y-97479744D01*
X137395522Y-97479744D01*
X137395522Y-96938167D01*
X137937100Y-96938167D01*
X137937100Y-96396589D01*
X137395522Y-96396589D01*
X137395522Y-96938167D01*
X136853944Y-96938167D01*
X136853944Y-96396589D01*
X136312366Y-96396589D01*
X136312366Y-97479744D01*
X137395522Y-97479744D01*
X137395522Y-98021322D01*
X137937100Y-98021322D01*
X137937100Y-99104478D01*
X139020256Y-99104478D01*
X139020256Y-98562900D01*
X138478678Y-98562900D01*
X138478678Y-98021322D01*
X140103411Y-98021322D01*
X140103411Y-98562900D01*
X140644989Y-98562900D01*
X140644989Y-98021322D01*
X141186567Y-98021322D01*
X141186567Y-98562900D01*
X140644989Y-98562900D01*
X140644989Y-99104478D01*
X140103411Y-99104478D01*
X140103411Y-98562900D01*
X139561833Y-98562900D01*
X139561833Y-99104478D01*
X139020256Y-99104478D01*
X139020256Y-99646056D01*
X139561833Y-99646056D01*
X139561833Y-100187634D01*
X139020256Y-100187634D01*
X139020256Y-100729211D01*
X138478678Y-100729211D01*
X138478678Y-100187634D01*
X137937100Y-100187634D01*
X137937100Y-100729211D01*
X138478678Y-100729211D01*
X138478678Y-101270789D01*
X140103411Y-101270789D01*
X140103411Y-100729211D01*
X140644989Y-100729211D01*
X140644989Y-100187634D01*
X141186567Y-100187634D01*
X141186567Y-99646056D01*
X141728145Y-99646056D01*
X141728145Y-99104478D01*
G37*
G36*
X142269723Y-100729211D02*
G01*
X142269723Y-101270789D01*
X141728145Y-101270789D01*
X141728145Y-100729211D01*
X142269723Y-100729211D01*
G37*
G36*
X128188699Y-96396589D02*
G01*
X128188699Y-95855011D01*
X128730277Y-95855011D01*
X130355010Y-95855011D01*
X130355010Y-94230277D01*
X128730277Y-94230277D01*
X128730277Y-95855011D01*
X128188699Y-95855011D01*
X128188699Y-93688700D01*
X130896588Y-93688700D01*
X130896588Y-96396589D01*
X128188699Y-96396589D01*
G37*
G36*
X133604477Y-107769723D02*
G01*
X133062900Y-107769723D01*
X133062900Y-107228145D01*
X133604477Y-107228145D01*
X133604477Y-107769723D01*
G37*
G36*
X137395522Y-105061834D02*
G01*
X136853944Y-105061834D01*
X136853944Y-104520256D01*
X137395522Y-104520256D01*
X137395522Y-105061834D01*
G37*
G36*
X135229211Y-100729211D02*
G01*
X134687633Y-100729211D01*
X134687633Y-99646056D01*
X135229211Y-99646056D01*
X135229211Y-100729211D01*
G37*
G36*
X136853944Y-106686567D02*
G01*
X136312366Y-106686567D01*
X136312366Y-105603412D01*
X136853944Y-105603412D01*
X136853944Y-106686567D01*
G37*
G36*
X134687633Y-103978678D02*
G01*
X134146055Y-103978678D01*
X134146055Y-103437100D01*
X134687633Y-103437100D01*
X134687633Y-103978678D01*
G37*
G36*
X140103411Y-99646056D02*
G01*
X139561833Y-99646056D01*
X139561833Y-99104478D01*
X140103411Y-99104478D01*
X140103411Y-99646056D01*
G37*
G36*
X136312366Y-99646056D02*
G01*
X135229211Y-99646056D01*
X135229211Y-99104478D01*
X135770789Y-99104478D01*
X135770789Y-98562900D01*
X136312366Y-98562900D01*
X136312366Y-99646056D01*
G37*
G36*
X133604477Y-102353945D02*
G01*
X134146055Y-102353945D01*
X134146055Y-101812367D01*
X134687633Y-101812367D01*
X134687633Y-102353945D01*
X134146055Y-102353945D01*
X134146055Y-102895523D01*
X133062900Y-102895523D01*
X133062900Y-103437100D01*
X133604477Y-103437100D01*
X133604477Y-104520256D01*
X134146055Y-104520256D01*
X134146055Y-105061834D01*
X134687633Y-105061834D01*
X134687633Y-103978678D01*
X135229211Y-103978678D01*
X135229211Y-104520256D01*
X136312366Y-104520256D01*
X136312366Y-105061834D01*
X134687633Y-105061834D01*
X134687633Y-105603412D01*
X135770789Y-105603412D01*
X135770789Y-106686567D01*
X135229211Y-106686567D01*
X135229211Y-106144990D01*
X134687633Y-106144990D01*
X134687633Y-107228145D01*
X134146055Y-107228145D01*
X134146055Y-105061834D01*
X133604477Y-105061834D01*
X133604477Y-104520256D01*
X132521322Y-104520256D01*
X132521322Y-101812367D01*
X133604477Y-101812367D01*
X133604477Y-102353945D01*
G37*
G36*
X135229211Y-102895523D02*
G01*
X136853944Y-102895523D01*
X136853944Y-102353945D01*
X136312366Y-102353945D01*
X136312366Y-100729211D01*
X136853944Y-100729211D01*
X136853944Y-101270789D01*
X137395522Y-101270789D01*
X137395522Y-102353945D01*
X137937100Y-102353945D01*
X137937100Y-102895523D01*
X137395522Y-102895523D01*
X137395522Y-103437100D01*
X136853944Y-103437100D01*
X136853944Y-104520256D01*
X136312366Y-104520256D01*
X136312366Y-103978678D01*
X135770789Y-103978678D01*
X135770789Y-103437100D01*
X135229211Y-103437100D01*
X135229211Y-102895523D01*
X134687633Y-102895523D01*
X134687633Y-102353945D01*
X135229211Y-102353945D01*
X135229211Y-102895523D01*
G37*
G36*
X125480810Y-111019190D02*
G01*
X125480810Y-108311301D01*
X127647121Y-108311301D01*
X128188699Y-108311301D01*
X128188699Y-108852879D01*
X128730277Y-108852879D01*
X128730277Y-107769723D01*
X129271855Y-107769723D01*
X129271855Y-108852879D01*
X132521322Y-108852879D01*
X132521322Y-107769723D01*
X133062900Y-107769723D01*
X133062900Y-108311301D01*
X133604477Y-108311301D01*
X133604477Y-108852879D01*
X134146055Y-108852879D01*
X134687633Y-108852879D01*
X135229211Y-108852879D01*
X136312366Y-108852879D01*
X136853944Y-108852879D01*
X138478678Y-108852879D01*
X143352878Y-108852879D01*
X143352878Y-105061834D01*
X139561833Y-105061834D01*
X139561833Y-108852879D01*
X139020256Y-108852879D01*
X139020256Y-108311301D01*
X138478678Y-108311301D01*
X138478678Y-108852879D01*
X136853944Y-108852879D01*
X136853944Y-108311301D01*
X137395522Y-108311301D01*
X137395522Y-107769723D01*
X136312366Y-107769723D01*
X136312366Y-108852879D01*
X135229211Y-108852879D01*
X135229211Y-108311301D01*
X134687633Y-108311301D01*
X134687633Y-108852879D01*
X134146055Y-108852879D01*
X134146055Y-107769723D01*
X135229211Y-107769723D01*
X135229211Y-107228145D01*
X135770789Y-107228145D01*
X135770789Y-107769723D01*
X136312366Y-107769723D01*
X136312366Y-107228145D01*
X136853944Y-107228145D01*
X137395522Y-107228145D01*
X137937100Y-107228145D01*
X137937100Y-107769723D01*
X138478678Y-107769723D01*
X138478678Y-107228145D01*
X137937100Y-107228145D01*
X137937100Y-106686567D01*
X139020256Y-106686567D01*
X139020256Y-106144990D01*
X138478678Y-106144990D01*
X138478678Y-105603412D01*
X139020256Y-105603412D01*
X139020256Y-104520256D01*
X139561833Y-104520256D01*
X143352878Y-104520256D01*
X143352878Y-103978678D01*
X142269723Y-103978678D01*
X142269723Y-104520256D01*
X141728145Y-104520256D01*
X141728145Y-103978678D01*
X141186567Y-103978678D01*
X141186567Y-103437100D01*
X142269723Y-103437100D01*
X142269723Y-102895523D01*
X143352878Y-102895523D01*
X143352878Y-102353945D01*
X141728145Y-102353945D01*
X141728145Y-102895523D01*
X141186567Y-102895523D01*
X141186567Y-103437100D01*
X140644989Y-103437100D01*
X140644989Y-102895523D01*
X139561833Y-102895523D01*
X139561833Y-103437100D01*
X140644989Y-103437100D01*
X140644989Y-103978678D01*
X141186567Y-103978678D01*
X141186567Y-104520256D01*
X140103411Y-104520256D01*
X140103411Y-103978678D01*
X139561833Y-103978678D01*
X139561833Y-104520256D01*
X139020256Y-104520256D01*
X138478678Y-104520256D01*
X138478678Y-105603412D01*
X137937100Y-105603412D01*
X137937100Y-106686567D01*
X137395522Y-106686567D01*
X137395522Y-107228145D01*
X136853944Y-107228145D01*
X136853944Y-106686567D01*
X137395522Y-106686567D01*
X137395522Y-105061834D01*
X137937100Y-105061834D01*
X137937100Y-103978678D01*
X137395522Y-103978678D01*
X137395522Y-103437100D01*
X137937100Y-103437100D01*
X137937100Y-102895523D01*
X138478678Y-102895523D01*
X138478678Y-103978678D01*
X139020256Y-103978678D01*
X139020256Y-102353945D01*
X141728145Y-102353945D01*
X141728145Y-101812367D01*
X142269723Y-101812367D01*
X142269723Y-101270789D01*
X143352878Y-101270789D01*
X143352878Y-100187634D01*
X142811300Y-100187634D01*
X142811300Y-99104478D01*
X143352878Y-99104478D01*
X143352878Y-98562900D01*
X142811300Y-98562900D01*
X142811300Y-99104478D01*
X142269723Y-99104478D01*
X142269723Y-98021322D01*
X142811300Y-98021322D01*
X143352878Y-98021322D01*
X143352878Y-97479744D01*
X142811300Y-97479744D01*
X142811300Y-98021322D01*
X142269723Y-98021322D01*
X141186567Y-98021322D01*
X141186567Y-97479744D01*
X140644989Y-97479744D01*
X140644989Y-98021322D01*
X140103411Y-98021322D01*
X140103411Y-97479744D01*
X139020256Y-97479744D01*
X139020256Y-96938167D01*
X139561833Y-96938167D01*
X143352878Y-96938167D01*
X143352878Y-93147122D01*
X139561833Y-93147122D01*
X139561833Y-96938167D01*
X139020256Y-96938167D01*
X139020256Y-94771855D01*
X138478678Y-94771855D01*
X138478678Y-95313433D01*
X137937100Y-95313433D01*
X137937100Y-94230277D01*
X138478678Y-94230277D01*
X138478678Y-93688700D01*
X139020256Y-93688700D01*
X139020256Y-93147122D01*
X138478678Y-93147122D01*
X138478678Y-93688700D01*
X137937100Y-93688700D01*
X137937100Y-93147122D01*
X137395522Y-93147122D01*
X137395522Y-93688700D01*
X136853944Y-93688700D01*
X136853944Y-93147122D01*
X135770789Y-93147122D01*
X135770789Y-94230277D01*
X136853944Y-94230277D01*
X136853944Y-94771855D01*
X136312366Y-94771855D01*
X136312366Y-95855011D01*
X135770789Y-95855011D01*
X135770789Y-94771855D01*
X135229211Y-94771855D01*
X135229211Y-95855011D01*
X135770789Y-95855011D01*
X135770789Y-96396589D01*
X135229211Y-96396589D01*
X135229211Y-96938167D01*
X134687633Y-96938167D01*
X134687633Y-95313433D01*
X134146055Y-95313433D01*
X134146055Y-96938167D01*
X133604477Y-96938167D01*
X133604477Y-96396589D01*
X133062900Y-96396589D01*
X133062900Y-95855011D01*
X132521322Y-95855011D01*
X132521322Y-96396589D01*
X131979744Y-96396589D01*
X131979744Y-97479744D01*
X129271855Y-97479744D01*
X129271855Y-98021322D01*
X128188699Y-98021322D01*
X128188699Y-97479744D01*
X127647121Y-97479744D01*
X127647121Y-99646056D01*
X128188699Y-99646056D01*
X128188699Y-100187634D01*
X127647121Y-100187634D01*
X127647121Y-101812367D01*
X128188699Y-101812367D01*
X128188699Y-102353945D01*
X127647121Y-102353945D01*
X127647121Y-105603412D01*
X128188699Y-105603412D01*
X128188699Y-103978678D01*
X128730277Y-103978678D01*
X128730277Y-103437100D01*
X129271855Y-103437100D01*
X129271855Y-102895523D01*
X131438166Y-102895523D01*
X131438166Y-102353945D01*
X130896588Y-102353945D01*
X130896588Y-101812367D01*
X130355010Y-101812367D01*
X130355010Y-102353945D01*
X129271855Y-102353945D01*
X129271855Y-102895523D01*
X128730277Y-102895523D01*
X128730277Y-101270789D01*
X129813433Y-101270789D01*
X129813433Y-100729211D01*
X130355010Y-100729211D01*
X130355010Y-101270789D01*
X131438166Y-101270789D01*
X131438166Y-101812367D01*
X131979744Y-101812367D01*
X131979744Y-103437100D01*
X131438166Y-103437100D01*
X131438166Y-103978678D01*
X130896588Y-103978678D01*
X130896588Y-103437100D01*
X129813433Y-103437100D01*
X129813433Y-103978678D01*
X129271855Y-103978678D01*
X129271855Y-104520256D01*
X129813433Y-104520256D01*
X129813433Y-105061834D01*
X128730277Y-105061834D01*
X128730277Y-105603412D01*
X129813433Y-105603412D01*
X129813433Y-106144990D01*
X129271855Y-106144990D01*
X129271855Y-106686567D01*
X131438166Y-106686567D01*
X131438166Y-107769723D01*
X130896588Y-107769723D01*
X130896588Y-108311301D01*
X130355010Y-108311301D01*
X130355010Y-107769723D01*
X129813433Y-107769723D01*
X129813433Y-107228145D01*
X128188699Y-107228145D01*
X128188699Y-106686567D01*
X128730277Y-106686567D01*
X128730277Y-106144990D01*
X128188699Y-106144990D01*
X128188699Y-106686567D01*
X127647121Y-106686567D01*
X127647121Y-108311301D01*
X125480810Y-108311301D01*
X125480810Y-96938167D01*
X127647121Y-96938167D01*
X131438166Y-96938167D01*
X131438166Y-94771855D01*
X132521322Y-94771855D01*
X133062900Y-94771855D01*
X133062900Y-95855011D01*
X133604477Y-95855011D01*
X133604477Y-94771855D01*
X134146055Y-94771855D01*
X134146055Y-94230277D01*
X134687633Y-94230277D01*
X134687633Y-93147122D01*
X134146055Y-93147122D01*
X134146055Y-93688700D01*
X132521322Y-93688700D01*
X132521322Y-94771855D01*
X131438166Y-94771855D01*
X131438166Y-93147122D01*
X127647121Y-93147122D01*
X127647121Y-96938167D01*
X125480810Y-96938167D01*
X125480810Y-90980811D01*
X145519189Y-90980811D01*
X145519189Y-111019190D01*
X125480810Y-111019190D01*
G37*
G36*
X133062900Y-107228145D02*
G01*
X131979744Y-107228145D01*
X131979744Y-106686567D01*
X133062900Y-106686567D01*
X133062900Y-107228145D01*
G37*
G36*
X140103411Y-96396589D02*
G01*
X140103411Y-95855011D01*
X140644989Y-95855011D01*
X142269723Y-95855011D01*
X142269723Y-94230277D01*
X140644989Y-94230277D01*
X140644989Y-95855011D01*
X140103411Y-95855011D01*
X140103411Y-93688700D01*
X142811300Y-93688700D01*
X142811300Y-96396589D01*
X140103411Y-96396589D01*
G37*
G36*
X128730277Y-103437100D02*
G01*
X128188699Y-103437100D01*
X128188699Y-102895523D01*
X128730277Y-102895523D01*
X128730277Y-103437100D01*
G37*
G36*
X130355010Y-106144990D02*
G01*
X130355010Y-105603412D01*
X130896588Y-105603412D01*
X131438166Y-105603412D01*
X131438166Y-105061834D01*
X130896588Y-105061834D01*
X130896588Y-105603412D01*
X130355010Y-105603412D01*
X130355010Y-104520256D01*
X131979744Y-104520256D01*
X131979744Y-106144990D01*
X130355010Y-106144990D01*
G37*
G36*
X134687633Y-101270789D02*
G01*
X132521322Y-101270789D01*
X132521322Y-100729211D01*
X131438166Y-100729211D01*
X131438166Y-100187634D01*
X132521322Y-100187634D01*
X132521322Y-100729211D01*
X133062900Y-100729211D01*
X133062900Y-99646056D01*
X132521322Y-99646056D01*
X132521322Y-99104478D01*
X131979744Y-99104478D01*
X131979744Y-99646056D01*
X131438166Y-99646056D01*
X131438166Y-100187634D01*
X128730277Y-100187634D01*
X128730277Y-99104478D01*
X128188699Y-99104478D01*
X128188699Y-98562900D01*
X130355010Y-98562900D01*
X130355010Y-99104478D01*
X129271855Y-99104478D01*
X129271855Y-99646056D01*
X131438166Y-99646056D01*
X131438166Y-98562900D01*
X131979744Y-98562900D01*
X131979744Y-98021322D01*
X132521322Y-98021322D01*
X132521322Y-97479744D01*
X133604477Y-97479744D01*
X133604477Y-98021322D01*
X133062900Y-98021322D01*
X133062900Y-99104478D01*
X133604477Y-99104478D01*
X133604477Y-100187634D01*
X134146055Y-100187634D01*
X134146055Y-100729211D01*
X134687633Y-100729211D01*
X134687633Y-101270789D01*
G37*
G36*
X133604477Y-94771855D02*
G01*
X133062900Y-94771855D01*
X133062900Y-94230277D01*
X133604477Y-94230277D01*
X133604477Y-94771855D01*
G37*
G36*
X135770789Y-102353945D02*
G01*
X135229211Y-102353945D01*
X135229211Y-101270789D01*
X135770789Y-101270789D01*
X135770789Y-102353945D01*
G37*
G36*
X133604477Y-106686567D02*
G01*
X133062900Y-106686567D01*
X133062900Y-106144990D01*
X133604477Y-106144990D01*
X133604477Y-106686567D01*
G37*
G36*
X134687633Y-97479744D02*
G01*
X135770789Y-97479744D01*
X135770789Y-98021322D01*
X135229211Y-98021322D01*
X135229211Y-98562900D01*
X134687633Y-98562900D01*
X134687633Y-98021322D01*
X134146055Y-98021322D01*
X134146055Y-96938167D01*
X134687633Y-96938167D01*
X134687633Y-97479744D01*
G37*
G36*
X128730277Y-101270789D02*
G01*
X128188699Y-101270789D01*
X128188699Y-100729211D01*
X128730277Y-100729211D01*
X128730277Y-101270789D01*
G37*
G36*
X133062900Y-96938167D02*
G01*
X132521322Y-96938167D01*
X132521322Y-96396589D01*
X133062900Y-96396589D01*
X133062900Y-96938167D01*
G37*
G36*
X141186567Y-99646056D02*
G01*
X140644989Y-99646056D01*
X140644989Y-99104478D01*
X141186567Y-99104478D01*
X141186567Y-99646056D01*
G37*
G36*
X136312366Y-100729211D02*
G01*
X135770789Y-100729211D01*
X135770789Y-100187634D01*
X136312366Y-100187634D01*
X136312366Y-100729211D01*
G37*
%TO.C,REF\u002A\u002A*%
G36*
X140549802Y-73801782D02*
G01*
X137531980Y-73801782D01*
X137531980Y-73198218D01*
X140549802Y-73198218D01*
X140549802Y-73801782D01*
G37*
D11*
X140549802Y-73801782D02*
X137531980Y-73801782D01*
X137531980Y-73198218D01*
X140549802Y-73198218D01*
X140549802Y-73801782D01*
G36*
X142050993Y-73633958D02*
G01*
X142047499Y-73748966D01*
X142040860Y-73851052D01*
X142030408Y-73946295D01*
X142015476Y-74040777D01*
X141995396Y-74140579D01*
X141969501Y-74251783D01*
X141952901Y-74316692D01*
X141871342Y-74574689D01*
X141768188Y-74821529D01*
X141644485Y-75056073D01*
X141501277Y-75277183D01*
X141339612Y-75483718D01*
X141160533Y-75674541D01*
X140965087Y-75848512D01*
X140754320Y-76004491D01*
X140529277Y-76141341D01*
X140291003Y-76257922D01*
X140040544Y-76353095D01*
X139975787Y-76373736D01*
X139842687Y-76411783D01*
X139709697Y-76443227D01*
X139570515Y-76469320D01*
X139418838Y-76491313D01*
X139248366Y-76510459D01*
X139226699Y-76511615D01*
X139181259Y-76512398D01*
X139120133Y-76512465D01*
X139048547Y-76511815D01*
X138971732Y-76510449D01*
X138913844Y-76508692D01*
X138630664Y-76485961D01*
X138357010Y-76439973D01*
X138092929Y-76370744D01*
X137838465Y-76278289D01*
X137593664Y-76162626D01*
X137358571Y-76023770D01*
X137133232Y-75861737D01*
X137074001Y-75813056D01*
X136949861Y-75699258D01*
X136824788Y-75570155D01*
X136703809Y-75431369D01*
X136591951Y-75288520D01*
X136494240Y-75147228D01*
X136390482Y-74969234D01*
X136292014Y-74765049D01*
X136206756Y-74549657D01*
X136136827Y-74329042D01*
X136084346Y-74109191D01*
X136051432Y-73896089D01*
X136041930Y-73808070D01*
X132998492Y-73801682D01*
X132970293Y-73977107D01*
X132944096Y-74119067D01*
X132878205Y-74376394D01*
X132789227Y-74626949D01*
X132676135Y-74873868D01*
X132541180Y-75111206D01*
X132386027Y-75334133D01*
X132211883Y-75541403D01*
X132019904Y-75731867D01*
X131811248Y-75904378D01*
X131587073Y-76057788D01*
X131348534Y-76190949D01*
X131175259Y-76271983D01*
X130947468Y-76360401D01*
X130719254Y-76427366D01*
X130486153Y-76473925D01*
X130243699Y-76501123D01*
X129987425Y-76510009D01*
X129785989Y-76503594D01*
X129513984Y-76473804D01*
X129248819Y-76420101D01*
X128991461Y-76342889D01*
X128742874Y-76242570D01*
X128504024Y-76119550D01*
X128275877Y-75974233D01*
X128059398Y-75807021D01*
X127855552Y-75618319D01*
X127837680Y-75599988D01*
X127790005Y-75549043D01*
X127739486Y-75492677D01*
X127688957Y-75434311D01*
X127641256Y-75377364D01*
X127599218Y-75325259D01*
X127565679Y-75281416D01*
X127543476Y-75249257D01*
X127535445Y-75232202D01*
X127535697Y-75231640D01*
X127548513Y-75220410D01*
X127578459Y-75197618D01*
X127622405Y-75165552D01*
X127677220Y-75126501D01*
X127739777Y-75082754D01*
X127807035Y-75036058D01*
X127871521Y-74991166D01*
X127928610Y-74951308D01*
X127973874Y-74919575D01*
X128002884Y-74899058D01*
X128061660Y-74857029D01*
X128155061Y-74973836D01*
X128258611Y-75094741D01*
X128430737Y-75264161D01*
X128618845Y-75414717D01*
X128821548Y-75545446D01*
X129037461Y-75655388D01*
X129265197Y-75743581D01*
X129481639Y-75803717D01*
X129716569Y-75844490D01*
X129952977Y-75861015D01*
X130189171Y-75853523D01*
X130423460Y-75822247D01*
X130654151Y-75767417D01*
X130879554Y-75689266D01*
X131097975Y-75588025D01*
X131307722Y-75463926D01*
X131356041Y-75431096D01*
X131544638Y-75284399D01*
X131715905Y-75120161D01*
X131869035Y-74939658D01*
X132003224Y-74744164D01*
X132117667Y-74534956D01*
X132211559Y-74313307D01*
X132284095Y-74080493D01*
X132334469Y-73837789D01*
X132335943Y-73828126D01*
X132346722Y-73729384D01*
X132353070Y-73614862D01*
X132354991Y-73492636D01*
X132353513Y-73420720D01*
X136699129Y-73420720D01*
X136703799Y-73669753D01*
X136711969Y-73766157D01*
X136748851Y-74005482D01*
X136807981Y-74234949D01*
X136888311Y-74453511D01*
X136988794Y-74660120D01*
X137108384Y-74853730D01*
X137246035Y-75033294D01*
X137400700Y-75197765D01*
X137571332Y-75346096D01*
X137756886Y-75477241D01*
X137956314Y-75590152D01*
X138168570Y-75683783D01*
X138392608Y-75757086D01*
X138627380Y-75809016D01*
X138871841Y-75838524D01*
X138890374Y-75839841D01*
X138954617Y-75844099D01*
X139009949Y-75847311D01*
X139050981Y-75849184D01*
X139072326Y-75849427D01*
X139088000Y-75848348D01*
X139125609Y-75845769D01*
X139176993Y-75842248D01*
X139235792Y-75838223D01*
X139329571Y-75829924D01*
X139565495Y-75792102D01*
X139794455Y-75731129D01*
X140014783Y-75647901D01*
X140224812Y-75543313D01*
X140422872Y-75418261D01*
X140607296Y-75273641D01*
X140776416Y-75110349D01*
X140928562Y-74929281D01*
X140981549Y-74856040D01*
X141105653Y-74655171D01*
X141207945Y-74442444D01*
X141288088Y-74218899D01*
X141345747Y-73985570D01*
X141380589Y-73743496D01*
X141392277Y-73493713D01*
X141392070Y-73460821D01*
X141377216Y-73215479D01*
X141339438Y-72977652D01*
X141279501Y-72748587D01*
X141198171Y-72529530D01*
X141096216Y-72321731D01*
X140974402Y-72126436D01*
X140833495Y-71944892D01*
X140674261Y-71778348D01*
X140497469Y-71628051D01*
X140303883Y-71495248D01*
X140094271Y-71381188D01*
X140048494Y-71359848D01*
X139826095Y-71272634D01*
X139596074Y-71208252D01*
X139360736Y-71166685D01*
X139122385Y-71147919D01*
X138883323Y-71151938D01*
X138645855Y-71178726D01*
X138412286Y-71228267D01*
X138184917Y-71300547D01*
X137966054Y-71395549D01*
X137812033Y-71479481D01*
X137616236Y-71609996D01*
X137437374Y-71757969D01*
X137276140Y-71922152D01*
X137133224Y-72101300D01*
X137009318Y-72294169D01*
X136905113Y-72499512D01*
X136821300Y-72716084D01*
X136758571Y-72942640D01*
X136717617Y-73177934D01*
X136699129Y-73420720D01*
X132353513Y-73420720D01*
X132352486Y-73370783D01*
X132345559Y-73257379D01*
X132334213Y-73160499D01*
X132324266Y-73101610D01*
X132268438Y-72858680D01*
X132190714Y-72628108D01*
X132091049Y-72409802D01*
X131969395Y-72203671D01*
X131825706Y-72009624D01*
X131659937Y-71827568D01*
X131542211Y-71718148D01*
X131354395Y-71571424D01*
X131153994Y-71445416D01*
X130942717Y-71340642D01*
X130722270Y-71257618D01*
X130494363Y-71196861D01*
X130260705Y-71158889D01*
X130023002Y-71144217D01*
X129782963Y-71153363D01*
X129542297Y-71186844D01*
X129432302Y-71210970D01*
X129216504Y-71276457D01*
X129005345Y-71364029D01*
X128801829Y-71471818D01*
X128608964Y-71597958D01*
X128429754Y-71740579D01*
X128267206Y-71897816D01*
X128124325Y-72067800D01*
X128096877Y-72101697D01*
X128073099Y-72126301D01*
X128058598Y-72135693D01*
X128048696Y-72131092D01*
X128020210Y-72113833D01*
X127976502Y-72085598D01*
X127920515Y-72048325D01*
X127855192Y-72003954D01*
X127783476Y-71954424D01*
X127523068Y-71773156D01*
X127556522Y-71728088D01*
X127651142Y-71606909D01*
X127836734Y-71400249D01*
X128038811Y-71211958D01*
X128256162Y-71042939D01*
X128487580Y-70894094D01*
X128731853Y-70766325D01*
X128987772Y-70660535D01*
X129192878Y-70594910D01*
X129452575Y-70534983D01*
X129715744Y-70498872D01*
X129980622Y-70486333D01*
X130245447Y-70497125D01*
X130508455Y-70531006D01*
X130767883Y-70587732D01*
X131021970Y-70667062D01*
X131268951Y-70768752D01*
X131507065Y-70892562D01*
X131734549Y-71038247D01*
X131931781Y-71190848D01*
X132126752Y-71370883D01*
X132305857Y-71567697D01*
X132467601Y-71779139D01*
X132610485Y-72003058D01*
X132733013Y-72237303D01*
X132833687Y-72479725D01*
X132911010Y-72728171D01*
X132913835Y-72739221D01*
X132928534Y-72801447D01*
X132943815Y-72872678D01*
X132958641Y-72947329D01*
X132971976Y-73019813D01*
X132982783Y-73084545D01*
X132990028Y-73135940D01*
X132992673Y-73168411D01*
X132992673Y-73198218D01*
X136035164Y-73198218D01*
X136041000Y-73169926D01*
X136042012Y-73164603D01*
X136047050Y-73133363D01*
X136053751Y-73087446D01*
X136060949Y-73034753D01*
X136071976Y-72959854D01*
X136123789Y-72713665D01*
X136198516Y-72468592D01*
X136294631Y-72228154D01*
X136410609Y-71995871D01*
X136544923Y-71775264D01*
X136696047Y-71569852D01*
X136715956Y-71545730D01*
X136796233Y-71455405D01*
X136889098Y-71359408D01*
X136988030Y-71264086D01*
X137086506Y-71175786D01*
X137178007Y-71100851D01*
X137370362Y-70965669D01*
X137591406Y-70836974D01*
X137825035Y-70725906D01*
X138066823Y-70634558D01*
X138312345Y-70565019D01*
X138383129Y-70548862D01*
X138486493Y-70527852D01*
X138583585Y-70512124D01*
X138680673Y-70501015D01*
X138784027Y-70493863D01*
X138899914Y-70490009D01*
X139034604Y-70488788D01*
X139062632Y-70488794D01*
X139184078Y-70489800D01*
X139287608Y-70492868D01*
X139379180Y-70498593D01*
X139464751Y-70507575D01*
X139550281Y-70520410D01*
X139641728Y-70537696D01*
X139745049Y-70560030D01*
X139864926Y-70589576D01*
X140123476Y-70671403D01*
X140370432Y-70774713D01*
X140604760Y-70898484D01*
X140825425Y-71041693D01*
X141031395Y-71203316D01*
X141221632Y-71382333D01*
X141395105Y-71577719D01*
X141550777Y-71788452D01*
X141687615Y-72013511D01*
X141804584Y-72251871D01*
X141900651Y-72502510D01*
X141974779Y-72764406D01*
X141996075Y-72858820D01*
X142015845Y-72959131D01*
X142030579Y-73053894D01*
X142040919Y-73149237D01*
X142047509Y-73251286D01*
X142050991Y-73366165D01*
X142051961Y-73493713D01*
X142052008Y-73500000D01*
X142050993Y-73633958D01*
G37*
X142050993Y-73633958D02*
X142047499Y-73748966D01*
X142040860Y-73851052D01*
X142030408Y-73946295D01*
X142015476Y-74040777D01*
X141995396Y-74140579D01*
X141969501Y-74251783D01*
X141952901Y-74316692D01*
X141871342Y-74574689D01*
X141768188Y-74821529D01*
X141644485Y-75056073D01*
X141501277Y-75277183D01*
X141339612Y-75483718D01*
X141160533Y-75674541D01*
X140965087Y-75848512D01*
X140754320Y-76004491D01*
X140529277Y-76141341D01*
X140291003Y-76257922D01*
X140040544Y-76353095D01*
X139975787Y-76373736D01*
X139842687Y-76411783D01*
X139709697Y-76443227D01*
X139570515Y-76469320D01*
X139418838Y-76491313D01*
X139248366Y-76510459D01*
X139226699Y-76511615D01*
X139181259Y-76512398D01*
X139120133Y-76512465D01*
X139048547Y-76511815D01*
X138971732Y-76510449D01*
X138913844Y-76508692D01*
X138630664Y-76485961D01*
X138357010Y-76439973D01*
X138092929Y-76370744D01*
X137838465Y-76278289D01*
X137593664Y-76162626D01*
X137358571Y-76023770D01*
X137133232Y-75861737D01*
X137074001Y-75813056D01*
X136949861Y-75699258D01*
X136824788Y-75570155D01*
X136703809Y-75431369D01*
X136591951Y-75288520D01*
X136494240Y-75147228D01*
X136390482Y-74969234D01*
X136292014Y-74765049D01*
X136206756Y-74549657D01*
X136136827Y-74329042D01*
X136084346Y-74109191D01*
X136051432Y-73896089D01*
X136041930Y-73808070D01*
X132998492Y-73801682D01*
X132970293Y-73977107D01*
X132944096Y-74119067D01*
X132878205Y-74376394D01*
X132789227Y-74626949D01*
X132676135Y-74873868D01*
X132541180Y-75111206D01*
X132386027Y-75334133D01*
X132211883Y-75541403D01*
X132019904Y-75731867D01*
X131811248Y-75904378D01*
X131587073Y-76057788D01*
X131348534Y-76190949D01*
X131175259Y-76271983D01*
X130947468Y-76360401D01*
X130719254Y-76427366D01*
X130486153Y-76473925D01*
X130243699Y-76501123D01*
X129987425Y-76510009D01*
X129785989Y-76503594D01*
X129513984Y-76473804D01*
X129248819Y-76420101D01*
X128991461Y-76342889D01*
X128742874Y-76242570D01*
X128504024Y-76119550D01*
X128275877Y-75974233D01*
X128059398Y-75807021D01*
X127855552Y-75618319D01*
X127837680Y-75599988D01*
X127790005Y-75549043D01*
X127739486Y-75492677D01*
X127688957Y-75434311D01*
X127641256Y-75377364D01*
X127599218Y-75325259D01*
X127565679Y-75281416D01*
X127543476Y-75249257D01*
X127535445Y-75232202D01*
X127535697Y-75231640D01*
X127548513Y-75220410D01*
X127578459Y-75197618D01*
X127622405Y-75165552D01*
X127677220Y-75126501D01*
X127739777Y-75082754D01*
X127807035Y-75036058D01*
X127871521Y-74991166D01*
X127928610Y-74951308D01*
X127973874Y-74919575D01*
X128002884Y-74899058D01*
X128061660Y-74857029D01*
X128155061Y-74973836D01*
X128258611Y-75094741D01*
X128430737Y-75264161D01*
X128618845Y-75414717D01*
X128821548Y-75545446D01*
X129037461Y-75655388D01*
X129265197Y-75743581D01*
X129481639Y-75803717D01*
X129716569Y-75844490D01*
X129952977Y-75861015D01*
X130189171Y-75853523D01*
X130423460Y-75822247D01*
X130654151Y-75767417D01*
X130879554Y-75689266D01*
X131097975Y-75588025D01*
X131307722Y-75463926D01*
X131356041Y-75431096D01*
X131544638Y-75284399D01*
X131715905Y-75120161D01*
X131869035Y-74939658D01*
X132003224Y-74744164D01*
X132117667Y-74534956D01*
X132211559Y-74313307D01*
X132284095Y-74080493D01*
X132334469Y-73837789D01*
X132335943Y-73828126D01*
X132346722Y-73729384D01*
X132353070Y-73614862D01*
X132354991Y-73492636D01*
X132353513Y-73420720D01*
X136699129Y-73420720D01*
X136703799Y-73669753D01*
X136711969Y-73766157D01*
X136748851Y-74005482D01*
X136807981Y-74234949D01*
X136888311Y-74453511D01*
X136988794Y-74660120D01*
X137108384Y-74853730D01*
X137246035Y-75033294D01*
X137400700Y-75197765D01*
X137571332Y-75346096D01*
X137756886Y-75477241D01*
X137956314Y-75590152D01*
X138168570Y-75683783D01*
X138392608Y-75757086D01*
X138627380Y-75809016D01*
X138871841Y-75838524D01*
X138890374Y-75839841D01*
X138954617Y-75844099D01*
X139009949Y-75847311D01*
X139050981Y-75849184D01*
X139072326Y-75849427D01*
X139088000Y-75848348D01*
X139125609Y-75845769D01*
X139176993Y-75842248D01*
X139235792Y-75838223D01*
X139329571Y-75829924D01*
X139565495Y-75792102D01*
X139794455Y-75731129D01*
X140014783Y-75647901D01*
X140224812Y-75543313D01*
X140422872Y-75418261D01*
X140607296Y-75273641D01*
X140776416Y-75110349D01*
X140928562Y-74929281D01*
X140981549Y-74856040D01*
X141105653Y-74655171D01*
X141207945Y-74442444D01*
X141288088Y-74218899D01*
X141345747Y-73985570D01*
X141380589Y-73743496D01*
X141392277Y-73493713D01*
X141392070Y-73460821D01*
X141377216Y-73215479D01*
X141339438Y-72977652D01*
X141279501Y-72748587D01*
X141198171Y-72529530D01*
X141096216Y-72321731D01*
X140974402Y-72126436D01*
X140833495Y-71944892D01*
X140674261Y-71778348D01*
X140497469Y-71628051D01*
X140303883Y-71495248D01*
X140094271Y-71381188D01*
X140048494Y-71359848D01*
X139826095Y-71272634D01*
X139596074Y-71208252D01*
X139360736Y-71166685D01*
X139122385Y-71147919D01*
X138883323Y-71151938D01*
X138645855Y-71178726D01*
X138412286Y-71228267D01*
X138184917Y-71300547D01*
X137966054Y-71395549D01*
X137812033Y-71479481D01*
X137616236Y-71609996D01*
X137437374Y-71757969D01*
X137276140Y-71922152D01*
X137133224Y-72101300D01*
X137009318Y-72294169D01*
X136905113Y-72499512D01*
X136821300Y-72716084D01*
X136758571Y-72942640D01*
X136717617Y-73177934D01*
X136699129Y-73420720D01*
X132353513Y-73420720D01*
X132352486Y-73370783D01*
X132345559Y-73257379D01*
X132334213Y-73160499D01*
X132324266Y-73101610D01*
X132268438Y-72858680D01*
X132190714Y-72628108D01*
X132091049Y-72409802D01*
X131969395Y-72203671D01*
X131825706Y-72009624D01*
X131659937Y-71827568D01*
X131542211Y-71718148D01*
X131354395Y-71571424D01*
X131153994Y-71445416D01*
X130942717Y-71340642D01*
X130722270Y-71257618D01*
X130494363Y-71196861D01*
X130260705Y-71158889D01*
X130023002Y-71144217D01*
X129782963Y-71153363D01*
X129542297Y-71186844D01*
X129432302Y-71210970D01*
X129216504Y-71276457D01*
X129005345Y-71364029D01*
X128801829Y-71471818D01*
X128608964Y-71597958D01*
X128429754Y-71740579D01*
X128267206Y-71897816D01*
X128124325Y-72067800D01*
X128096877Y-72101697D01*
X128073099Y-72126301D01*
X128058598Y-72135693D01*
X128048696Y-72131092D01*
X128020210Y-72113833D01*
X127976502Y-72085598D01*
X127920515Y-72048325D01*
X127855192Y-72003954D01*
X127783476Y-71954424D01*
X127523068Y-71773156D01*
X127556522Y-71728088D01*
X127651142Y-71606909D01*
X127836734Y-71400249D01*
X128038811Y-71211958D01*
X128256162Y-71042939D01*
X128487580Y-70894094D01*
X128731853Y-70766325D01*
X128987772Y-70660535D01*
X129192878Y-70594910D01*
X129452575Y-70534983D01*
X129715744Y-70498872D01*
X129980622Y-70486333D01*
X130245447Y-70497125D01*
X130508455Y-70531006D01*
X130767883Y-70587732D01*
X131021970Y-70667062D01*
X131268951Y-70768752D01*
X131507065Y-70892562D01*
X131734549Y-71038247D01*
X131931781Y-71190848D01*
X132126752Y-71370883D01*
X132305857Y-71567697D01*
X132467601Y-71779139D01*
X132610485Y-72003058D01*
X132733013Y-72237303D01*
X132833687Y-72479725D01*
X132911010Y-72728171D01*
X132913835Y-72739221D01*
X132928534Y-72801447D01*
X132943815Y-72872678D01*
X132958641Y-72947329D01*
X132971976Y-73019813D01*
X132982783Y-73084545D01*
X132990028Y-73135940D01*
X132992673Y-73168411D01*
X132992673Y-73198218D01*
X136035164Y-73198218D01*
X136041000Y-73169926D01*
X136042012Y-73164603D01*
X136047050Y-73133363D01*
X136053751Y-73087446D01*
X136060949Y-73034753D01*
X136071976Y-72959854D01*
X136123789Y-72713665D01*
X136198516Y-72468592D01*
X136294631Y-72228154D01*
X136410609Y-71995871D01*
X136544923Y-71775264D01*
X136696047Y-71569852D01*
X136715956Y-71545730D01*
X136796233Y-71455405D01*
X136889098Y-71359408D01*
X136988030Y-71264086D01*
X137086506Y-71175786D01*
X137178007Y-71100851D01*
X137370362Y-70965669D01*
X137591406Y-70836974D01*
X137825035Y-70725906D01*
X138066823Y-70634558D01*
X138312345Y-70565019D01*
X138383129Y-70548862D01*
X138486493Y-70527852D01*
X138583585Y-70512124D01*
X138680673Y-70501015D01*
X138784027Y-70493863D01*
X138899914Y-70490009D01*
X139034604Y-70488788D01*
X139062632Y-70488794D01*
X139184078Y-70489800D01*
X139287608Y-70492868D01*
X139379180Y-70498593D01*
X139464751Y-70507575D01*
X139550281Y-70520410D01*
X139641728Y-70537696D01*
X139745049Y-70560030D01*
X139864926Y-70589576D01*
X140123476Y-70671403D01*
X140370432Y-70774713D01*
X140604760Y-70898484D01*
X140825425Y-71041693D01*
X141031395Y-71203316D01*
X141221632Y-71382333D01*
X141395105Y-71577719D01*
X141550777Y-71788452D01*
X141687615Y-72013511D01*
X141804584Y-72251871D01*
X141900651Y-72502510D01*
X141974779Y-72764406D01*
X141996075Y-72858820D01*
X142015845Y-72959131D01*
X142030579Y-73053894D01*
X142040919Y-73149237D01*
X142047509Y-73251286D01*
X142050991Y-73366165D01*
X142051961Y-73493713D01*
X142052008Y-73500000D01*
X142050993Y-73633958D01*
G36*
X131375202Y-73791073D02*
G01*
X131326614Y-73972636D01*
X131295267Y-74056607D01*
X131218275Y-74212292D01*
X131119461Y-74358261D01*
X130997447Y-74496705D01*
X130914555Y-74573625D01*
X130771717Y-74679829D01*
X130618093Y-74765503D01*
X130455977Y-74830650D01*
X130287664Y-74875275D01*
X130115450Y-74899379D01*
X129941628Y-74902966D01*
X129768494Y-74886040D01*
X129598342Y-74848604D01*
X129433467Y-74790661D01*
X129276164Y-74712215D01*
X129128728Y-74613268D01*
X128993453Y-74493825D01*
X128954085Y-74452660D01*
X128867043Y-74348478D01*
X128792807Y-74237391D01*
X128728895Y-74114878D01*
X128672827Y-73976421D01*
X128622120Y-73817500D01*
X128621989Y-73817256D01*
X128615824Y-73815290D01*
X128599974Y-73813486D01*
X128573529Y-73811840D01*
X128535579Y-73810343D01*
X128485215Y-73808992D01*
X128421527Y-73807778D01*
X128343606Y-73806697D01*
X128250541Y-73805742D01*
X128141424Y-73804907D01*
X128015345Y-73804186D01*
X127871394Y-73803573D01*
X127708661Y-73803061D01*
X127526238Y-73802645D01*
X127323214Y-73802318D01*
X127098680Y-73802075D01*
X126851726Y-73801908D01*
X126581443Y-73801813D01*
X126286921Y-73801782D01*
X123956222Y-73801782D01*
X123933583Y-73955817D01*
X123922964Y-74022882D01*
X123868187Y-74279620D01*
X123792489Y-74530547D01*
X123697128Y-74772735D01*
X123583364Y-75003255D01*
X123452453Y-75219178D01*
X123305654Y-75417575D01*
X123297115Y-75427921D01*
X123224593Y-75510595D01*
X123139491Y-75600408D01*
X123048605Y-75690585D01*
X122958737Y-75774354D01*
X122876683Y-75844941D01*
X122748015Y-75943269D01*
X122533696Y-76083096D01*
X122305371Y-76205555D01*
X122066628Y-76309154D01*
X121821053Y-76392397D01*
X121572235Y-76453789D01*
X121323762Y-76491837D01*
X121285549Y-76495854D01*
X121227447Y-76502019D01*
X121178934Y-76507233D01*
X121147722Y-76510670D01*
X121125614Y-76512474D01*
X121067245Y-76514155D01*
X120991993Y-76513745D01*
X120905196Y-76511484D01*
X120812193Y-76507614D01*
X120718322Y-76502373D01*
X120628923Y-76496003D01*
X120549334Y-76488743D01*
X120484893Y-76480834D01*
X120228566Y-76432574D01*
X119964626Y-76359355D01*
X119711925Y-76263787D01*
X119469936Y-76145671D01*
X119238134Y-76004804D01*
X119149580Y-75942980D01*
X118939668Y-75775370D01*
X118747597Y-75590501D01*
X118573998Y-75389311D01*
X118419499Y-75172735D01*
X118284731Y-74941710D01*
X118170324Y-74697173D01*
X118076908Y-74440062D01*
X118005113Y-74171311D01*
X117973050Y-74001257D01*
X117944030Y-73745057D01*
X117935843Y-73482526D01*
X117939333Y-73409030D01*
X118607969Y-73409030D01*
X118608756Y-73533195D01*
X118613747Y-73660418D01*
X118622662Y-73783696D01*
X118635222Y-73896023D01*
X118651147Y-73990396D01*
X118703169Y-74194965D01*
X118783801Y-74422942D01*
X118884672Y-74637342D01*
X119004757Y-74837274D01*
X119143030Y-75021849D01*
X119298466Y-75190176D01*
X119470038Y-75341366D01*
X119656722Y-75474528D01*
X119857491Y-75588772D01*
X120071321Y-75683209D01*
X120297185Y-75756947D01*
X120534058Y-75809097D01*
X120780914Y-75838769D01*
X120795305Y-75839792D01*
X120860183Y-75844021D01*
X120917104Y-75847147D01*
X120960364Y-75848885D01*
X120984257Y-75848950D01*
X120999896Y-75847920D01*
X121039507Y-75845526D01*
X121084851Y-75842962D01*
X121225115Y-75831388D01*
X121463815Y-75793094D01*
X121693907Y-75732520D01*
X121914060Y-75650533D01*
X122122947Y-75548002D01*
X122319239Y-75425794D01*
X122501607Y-75284775D01*
X122668723Y-75125814D01*
X122819258Y-74949778D01*
X122951884Y-74757535D01*
X123065272Y-74549951D01*
X123122306Y-74422297D01*
X123200020Y-74203923D01*
X123254801Y-73979902D01*
X123287239Y-73747590D01*
X123297920Y-73504344D01*
X123297808Y-73477316D01*
X123296343Y-73397106D01*
X123293451Y-73318586D01*
X123289468Y-73249574D01*
X123284730Y-73197888D01*
X123280383Y-73164582D01*
X123235444Y-72924637D01*
X123168388Y-72694701D01*
X123080164Y-72475947D01*
X122971719Y-72269549D01*
X122844004Y-72076681D01*
X122697966Y-71898517D01*
X122534554Y-71736231D01*
X122354717Y-71590996D01*
X122159402Y-71463986D01*
X121949560Y-71356375D01*
X121726138Y-71269337D01*
X121634402Y-71241007D01*
X121407522Y-71188153D01*
X121175863Y-71157274D01*
X120942023Y-71148048D01*
X120708604Y-71160149D01*
X120478205Y-71193255D01*
X120253426Y-71247041D01*
X120036868Y-71321185D01*
X119831130Y-71415361D01*
X119638812Y-71529246D01*
X119555455Y-71587483D01*
X119366451Y-71740288D01*
X119197231Y-71908387D01*
X119048192Y-72091126D01*
X118919734Y-72287853D01*
X118812254Y-72497915D01*
X118726150Y-72720657D01*
X118661821Y-72955427D01*
X118619664Y-73201572D01*
X118611665Y-73294927D01*
X118607969Y-73409030D01*
X117939333Y-73409030D01*
X117948398Y-73218125D01*
X117981602Y-72956313D01*
X118035364Y-72701549D01*
X118098620Y-72487869D01*
X118196532Y-72235623D01*
X118316245Y-71994838D01*
X118456979Y-71766754D01*
X118617957Y-71552612D01*
X118798399Y-71353650D01*
X118997524Y-71171108D01*
X119173370Y-71036007D01*
X119394145Y-70894776D01*
X119628897Y-70772654D01*
X119875379Y-70670554D01*
X120131342Y-70589392D01*
X120394538Y-70530082D01*
X120662719Y-70493539D01*
X120715976Y-70489561D01*
X120825143Y-70485352D01*
X120946698Y-70484620D01*
X121073160Y-70487175D01*
X121197047Y-70492824D01*
X121310876Y-70501374D01*
X121407164Y-70512635D01*
X121559995Y-70538973D01*
X121827007Y-70603888D01*
X122083427Y-70690724D01*
X122328217Y-70798674D01*
X122560335Y-70926930D01*
X122778741Y-71074686D01*
X122982397Y-71241134D01*
X123170261Y-71425468D01*
X123341293Y-71626879D01*
X123494454Y-71844560D01*
X123628703Y-72077705D01*
X123743000Y-72325507D01*
X123791629Y-72455810D01*
X123843245Y-72620886D01*
X123887672Y-72792647D01*
X123922577Y-72961944D01*
X123945623Y-73119629D01*
X123954251Y-73198218D01*
X126324243Y-73198218D01*
X126615719Y-73198179D01*
X126883070Y-73198076D01*
X127127206Y-73197900D01*
X127349035Y-73197647D01*
X127549467Y-73197310D01*
X127729412Y-73196882D01*
X127889778Y-73196359D01*
X128031476Y-73195733D01*
X128155415Y-73194998D01*
X128262504Y-73194150D01*
X128353652Y-73193180D01*
X128429769Y-73192084D01*
X128491764Y-73190854D01*
X128540547Y-73189486D01*
X128577026Y-73187973D01*
X128602112Y-73186308D01*
X128616714Y-73184486D01*
X128621741Y-73182500D01*
X128670266Y-73022432D01*
X128733459Y-72867868D01*
X128809704Y-72729455D01*
X128901129Y-72603370D01*
X129009865Y-72485791D01*
X129042527Y-72455030D01*
X129096063Y-72407642D01*
X129147436Y-72365287D01*
X129188960Y-72334461D01*
X129327302Y-72252631D01*
X129494004Y-72179728D01*
X129667628Y-72128637D01*
X129845638Y-72099292D01*
X130025498Y-72091630D01*
X130204671Y-72105588D01*
X130380623Y-72141103D01*
X130550818Y-72198111D01*
X130712718Y-72276549D01*
X130863789Y-72376353D01*
X130975555Y-72471826D01*
X131096295Y-72603563D01*
X131198068Y-72749108D01*
X131280244Y-72906296D01*
X131342196Y-73072961D01*
X131383295Y-73246936D01*
X131402915Y-73426057D01*
X131401845Y-73504344D01*
X131400427Y-73608158D01*
X131375202Y-73791073D01*
G37*
X131375202Y-73791073D02*
X131326614Y-73972636D01*
X131295267Y-74056607D01*
X131218275Y-74212292D01*
X131119461Y-74358261D01*
X130997447Y-74496705D01*
X130914555Y-74573625D01*
X130771717Y-74679829D01*
X130618093Y-74765503D01*
X130455977Y-74830650D01*
X130287664Y-74875275D01*
X130115450Y-74899379D01*
X129941628Y-74902966D01*
X129768494Y-74886040D01*
X129598342Y-74848604D01*
X129433467Y-74790661D01*
X129276164Y-74712215D01*
X129128728Y-74613268D01*
X128993453Y-74493825D01*
X128954085Y-74452660D01*
X128867043Y-74348478D01*
X128792807Y-74237391D01*
X128728895Y-74114878D01*
X128672827Y-73976421D01*
X128622120Y-73817500D01*
X128621989Y-73817256D01*
X128615824Y-73815290D01*
X128599974Y-73813486D01*
X128573529Y-73811840D01*
X128535579Y-73810343D01*
X128485215Y-73808992D01*
X128421527Y-73807778D01*
X128343606Y-73806697D01*
X128250541Y-73805742D01*
X128141424Y-73804907D01*
X128015345Y-73804186D01*
X127871394Y-73803573D01*
X127708661Y-73803061D01*
X127526238Y-73802645D01*
X127323214Y-73802318D01*
X127098680Y-73802075D01*
X126851726Y-73801908D01*
X126581443Y-73801813D01*
X126286921Y-73801782D01*
X123956222Y-73801782D01*
X123933583Y-73955817D01*
X123922964Y-74022882D01*
X123868187Y-74279620D01*
X123792489Y-74530547D01*
X123697128Y-74772735D01*
X123583364Y-75003255D01*
X123452453Y-75219178D01*
X123305654Y-75417575D01*
X123297115Y-75427921D01*
X123224593Y-75510595D01*
X123139491Y-75600408D01*
X123048605Y-75690585D01*
X122958737Y-75774354D01*
X122876683Y-75844941D01*
X122748015Y-75943269D01*
X122533696Y-76083096D01*
X122305371Y-76205555D01*
X122066628Y-76309154D01*
X121821053Y-76392397D01*
X121572235Y-76453789D01*
X121323762Y-76491837D01*
X121285549Y-76495854D01*
X121227447Y-76502019D01*
X121178934Y-76507233D01*
X121147722Y-76510670D01*
X121125614Y-76512474D01*
X121067245Y-76514155D01*
X120991993Y-76513745D01*
X120905196Y-76511484D01*
X120812193Y-76507614D01*
X120718322Y-76502373D01*
X120628923Y-76496003D01*
X120549334Y-76488743D01*
X120484893Y-76480834D01*
X120228566Y-76432574D01*
X119964626Y-76359355D01*
X119711925Y-76263787D01*
X119469936Y-76145671D01*
X119238134Y-76004804D01*
X119149580Y-75942980D01*
X118939668Y-75775370D01*
X118747597Y-75590501D01*
X118573998Y-75389311D01*
X118419499Y-75172735D01*
X118284731Y-74941710D01*
X118170324Y-74697173D01*
X118076908Y-74440062D01*
X118005113Y-74171311D01*
X117973050Y-74001257D01*
X117944030Y-73745057D01*
X117935843Y-73482526D01*
X117939333Y-73409030D01*
X118607969Y-73409030D01*
X118608756Y-73533195D01*
X118613747Y-73660418D01*
X118622662Y-73783696D01*
X118635222Y-73896023D01*
X118651147Y-73990396D01*
X118703169Y-74194965D01*
X118783801Y-74422942D01*
X118884672Y-74637342D01*
X119004757Y-74837274D01*
X119143030Y-75021849D01*
X119298466Y-75190176D01*
X119470038Y-75341366D01*
X119656722Y-75474528D01*
X119857491Y-75588772D01*
X120071321Y-75683209D01*
X120297185Y-75756947D01*
X120534058Y-75809097D01*
X120780914Y-75838769D01*
X120795305Y-75839792D01*
X120860183Y-75844021D01*
X120917104Y-75847147D01*
X120960364Y-75848885D01*
X120984257Y-75848950D01*
X120999896Y-75847920D01*
X121039507Y-75845526D01*
X121084851Y-75842962D01*
X121225115Y-75831388D01*
X121463815Y-75793094D01*
X121693907Y-75732520D01*
X121914060Y-75650533D01*
X122122947Y-75548002D01*
X122319239Y-75425794D01*
X122501607Y-75284775D01*
X122668723Y-75125814D01*
X122819258Y-74949778D01*
X122951884Y-74757535D01*
X123065272Y-74549951D01*
X123122306Y-74422297D01*
X123200020Y-74203923D01*
X123254801Y-73979902D01*
X123287239Y-73747590D01*
X123297920Y-73504344D01*
X123297808Y-73477316D01*
X123296343Y-73397106D01*
X123293451Y-73318586D01*
X123289468Y-73249574D01*
X123284730Y-73197888D01*
X123280383Y-73164582D01*
X123235444Y-72924637D01*
X123168388Y-72694701D01*
X123080164Y-72475947D01*
X122971719Y-72269549D01*
X122844004Y-72076681D01*
X122697966Y-71898517D01*
X122534554Y-71736231D01*
X122354717Y-71590996D01*
X122159402Y-71463986D01*
X121949560Y-71356375D01*
X121726138Y-71269337D01*
X121634402Y-71241007D01*
X121407522Y-71188153D01*
X121175863Y-71157274D01*
X120942023Y-71148048D01*
X120708604Y-71160149D01*
X120478205Y-71193255D01*
X120253426Y-71247041D01*
X120036868Y-71321185D01*
X119831130Y-71415361D01*
X119638812Y-71529246D01*
X119555455Y-71587483D01*
X119366451Y-71740288D01*
X119197231Y-71908387D01*
X119048192Y-72091126D01*
X118919734Y-72287853D01*
X118812254Y-72497915D01*
X118726150Y-72720657D01*
X118661821Y-72955427D01*
X118619664Y-73201572D01*
X118611665Y-73294927D01*
X118607969Y-73409030D01*
X117939333Y-73409030D01*
X117948398Y-73218125D01*
X117981602Y-72956313D01*
X118035364Y-72701549D01*
X118098620Y-72487869D01*
X118196532Y-72235623D01*
X118316245Y-71994838D01*
X118456979Y-71766754D01*
X118617957Y-71552612D01*
X118798399Y-71353650D01*
X118997524Y-71171108D01*
X119173370Y-71036007D01*
X119394145Y-70894776D01*
X119628897Y-70772654D01*
X119875379Y-70670554D01*
X120131342Y-70589392D01*
X120394538Y-70530082D01*
X120662719Y-70493539D01*
X120715976Y-70489561D01*
X120825143Y-70485352D01*
X120946698Y-70484620D01*
X121073160Y-70487175D01*
X121197047Y-70492824D01*
X121310876Y-70501374D01*
X121407164Y-70512635D01*
X121559995Y-70538973D01*
X121827007Y-70603888D01*
X122083427Y-70690724D01*
X122328217Y-70798674D01*
X122560335Y-70926930D01*
X122778741Y-71074686D01*
X122982397Y-71241134D01*
X123170261Y-71425468D01*
X123341293Y-71626879D01*
X123494454Y-71844560D01*
X123628703Y-72077705D01*
X123743000Y-72325507D01*
X123791629Y-72455810D01*
X123843245Y-72620886D01*
X123887672Y-72792647D01*
X123922577Y-72961944D01*
X123945623Y-73119629D01*
X123954251Y-73198218D01*
X126324243Y-73198218D01*
X126615719Y-73198179D01*
X126883070Y-73198076D01*
X127127206Y-73197900D01*
X127349035Y-73197647D01*
X127549467Y-73197310D01*
X127729412Y-73196882D01*
X127889778Y-73196359D01*
X128031476Y-73195733D01*
X128155415Y-73194998D01*
X128262504Y-73194150D01*
X128353652Y-73193180D01*
X128429769Y-73192084D01*
X128491764Y-73190854D01*
X128540547Y-73189486D01*
X128577026Y-73187973D01*
X128602112Y-73186308D01*
X128616714Y-73184486D01*
X128621741Y-73182500D01*
X128670266Y-73022432D01*
X128733459Y-72867868D01*
X128809704Y-72729455D01*
X128901129Y-72603370D01*
X129009865Y-72485791D01*
X129042527Y-72455030D01*
X129096063Y-72407642D01*
X129147436Y-72365287D01*
X129188960Y-72334461D01*
X129327302Y-72252631D01*
X129494004Y-72179728D01*
X129667628Y-72128637D01*
X129845638Y-72099292D01*
X130025498Y-72091630D01*
X130204671Y-72105588D01*
X130380623Y-72141103D01*
X130550818Y-72198111D01*
X130712718Y-72276549D01*
X130863789Y-72376353D01*
X130975555Y-72471826D01*
X131096295Y-72603563D01*
X131198068Y-72749108D01*
X131280244Y-72906296D01*
X131342196Y-73072961D01*
X131383295Y-73246936D01*
X131402915Y-73426057D01*
X131401845Y-73504344D01*
X131400427Y-73608158D01*
X131375202Y-73791073D01*
G36*
X121251338Y-72591510D02*
G01*
X121254604Y-73191931D01*
X121855024Y-73195196D01*
X122455445Y-73198462D01*
X122455445Y-73801782D01*
X121248316Y-73801782D01*
X121248316Y-75008911D01*
X120644752Y-75008911D01*
X120644752Y-73801782D01*
X119437623Y-73801782D01*
X119437623Y-73198218D01*
X120644752Y-73198218D01*
X120644752Y-71991089D01*
X121248073Y-71991089D01*
X121251338Y-72591510D01*
G37*
X121251338Y-72591510D02*
X121254604Y-73191931D01*
X121855024Y-73195196D01*
X122455445Y-73198462D01*
X122455445Y-73801782D01*
X121248316Y-73801782D01*
X121248316Y-75008911D01*
X120644752Y-75008911D01*
X120644752Y-73801782D01*
X119437623Y-73801782D01*
X119437623Y-73198218D01*
X120644752Y-73198218D01*
X120644752Y-71991089D01*
X121248073Y-71991089D01*
X121251338Y-72591510D01*
%TD*%
%LPC*%
D12*
%TO.C,REF\u002A\u002A*%
X114000000Y-72000000D03*
%TD*%
D13*
%TO.C,J2*%
X118577500Y-85250000D03*
D14*
X118577500Y-82750000D03*
X116577500Y-82750000D03*
X116577500Y-85250000D03*
D15*
X113867500Y-77980000D03*
X113867500Y-90020000D03*
%TD*%
D12*
%TO.C,REF\u002A\u002A*%
X114000000Y-109000000D03*
%TD*%
D16*
%TO.C,J3*%
X171000000Y-106200000D03*
D17*
X171000000Y-96200000D03*
%TD*%
D18*
%TO.C,J1*%
X118950000Y-99000000D03*
D19*
X112650000Y-99000000D03*
D20*
X116050000Y-103800000D03*
%TD*%
D13*
%TO.C,J5*%
X137600000Y-77850000D03*
D21*
X137600000Y-75310000D03*
X137600000Y-72770000D03*
X137600000Y-70230000D03*
%TD*%
D12*
%TO.C,REF\u002A\u002A*%
X161500000Y-72000000D03*
%TD*%
M02*
