%TF.GenerationSoftware,KiCad,Pcbnew,(6.0.10)*%
%TF.CreationDate,2023-02-16T23:49:11+01:00*%
%TF.ProjectId,base,62617365-2e6b-4696-9361-645f70636258,rev?*%
%TF.SameCoordinates,Original*%
%TF.FileFunction,Copper,L2,Bot*%
%TF.FilePolarity,Positive*%
%FSLAX46Y46*%
G04 Gerber Fmt 4.6, Leading zero omitted, Abs format (unit mm)*
G04 Created by KiCad (PCBNEW (6.0.10)) date 2023-02-16 23:49:11*
%MOMM*%
%LPD*%
G01*
G04 APERTURE LIST*
%TA.AperFunction,ComponentPad*%
%ADD10R,1.700000X1.700000*%
%TD*%
%TA.AperFunction,ComponentPad*%
%ADD11O,1.700000X1.700000*%
%TD*%
%TA.AperFunction,ComponentPad*%
%ADD12R,6.600000X3.300000*%
%TD*%
%TA.AperFunction,ComponentPad*%
%ADD13O,6.600000X3.300000*%
%TD*%
%TA.AperFunction,ComponentPad*%
%ADD14C,1.700000*%
%TD*%
%TA.AperFunction,ComponentPad*%
%ADD15C,3.500000*%
%TD*%
%TA.AperFunction,ComponentPad*%
%ADD16R,2.000000X4.600000*%
%TD*%
%TA.AperFunction,ComponentPad*%
%ADD17O,2.000000X4.200000*%
%TD*%
%TA.AperFunction,ComponentPad*%
%ADD18O,4.200000X2.000000*%
%TD*%
%TA.AperFunction,ViaPad*%
%ADD19C,0.800000*%
%TD*%
%TA.AperFunction,Conductor*%
%ADD20C,0.250000*%
%TD*%
G04 APERTURE END LIST*
D10*
%TO.P,J5,1,Pin_1*%
%TO.N,UART_RX*%
X137600000Y-77850000D03*
D11*
%TO.P,J5,2,Pin_2*%
%TO.N,UART_TX*%
X137600000Y-75310000D03*
%TO.P,J5,3,Pin_3*%
%TO.N,GND*%
X137600000Y-72770000D03*
%TO.P,J5,4,Pin_4*%
%TO.N,+VDC*%
X137600000Y-70230000D03*
%TD*%
D12*
%TO.P,J3,1,Pin_1*%
%TO.N,Motor_Pin_1*%
X171000000Y-106200000D03*
D13*
%TO.P,J3,2,Pin_2*%
%TO.N,Motor_Pin_2*%
X171000000Y-96200000D03*
%TD*%
D10*
%TO.P,J2,1,VBUS*%
%TO.N,Net-(D1-Pad2)*%
X118577500Y-85250000D03*
D14*
%TO.P,J2,2,D-*%
%TO.N,/D-*%
X118577500Y-82750000D03*
%TO.P,J2,3,D+*%
%TO.N,/D+*%
X116577500Y-82750000D03*
%TO.P,J2,4,GND*%
%TO.N,GND*%
X116577500Y-85250000D03*
D15*
%TO.P,J2,5,Shield*%
%TO.N,unconnected-(J2-Pad5)*%
X113867500Y-90020000D03*
X113867500Y-77980000D03*
%TD*%
D16*
%TO.P,J1,1*%
%TO.N,V_Barrel*%
X118950000Y-99000000D03*
D17*
%TO.P,J1,2*%
%TO.N,GND*%
X112650000Y-99000000D03*
D18*
%TO.P,J1,3*%
%TO.N,/Power_led*%
X116050000Y-103800000D03*
%TD*%
D19*
%TO.N,Motor_Pin_2*%
X151500000Y-90500000D03*
X157000000Y-90500000D03*
%TO.N,+VDC*%
X154000000Y-74500000D03*
X148500000Y-70500000D03*
X121000000Y-78500000D03*
X123000000Y-76500000D03*
%TO.N,Motor_A*%
X154000000Y-81500000D03*
X146500000Y-81500000D03*
%TO.N,Motor_EN*%
X156000000Y-83000000D03*
X172000000Y-83000000D03*
X147000000Y-83000000D03*
X167000000Y-83000000D03*
%TO.N,V_Barrel*%
X160000000Y-86500000D03*
%TO.N,+VDC*%
X155500000Y-80500000D03*
X165000000Y-84000000D03*
%TO.N,Motor_A*%
X141000000Y-88500000D03*
X144000000Y-98000000D03*
%TO.N,Motor_B*%
X176000000Y-80500000D03*
X159500000Y-99500000D03*
X150000000Y-99500000D03*
%TO.N,Motor_A*%
X158500000Y-103500000D03*
X149500000Y-103500000D03*
%TO.N,V_Barrel*%
X145000000Y-106500000D03*
X149000000Y-98000000D03*
X150000000Y-98000000D03*
X150500000Y-97000000D03*
X149500000Y-97000000D03*
X148500000Y-97000000D03*
X148500000Y-96000000D03*
X149500000Y-96000000D03*
X150500000Y-96000000D03*
X150500000Y-95000000D03*
X149500000Y-95000000D03*
X148500000Y-95000000D03*
%TO.N,/EN_Pin*%
X146500000Y-94000000D03*
X161500000Y-92500000D03*
%TO.N,V_Barrel*%
X142500000Y-86500000D03*
%TO.N,UART_RX*%
X164500000Y-79000000D03*
X148500000Y-79000000D03*
%TO.N,UART_TX*%
X165000000Y-75500000D03*
X148000000Y-75500000D03*
%TO.N,+VDC*%
X126500000Y-81500000D03*
X137500000Y-90000000D03*
%TO.N,UART_RX*%
X126987701Y-77987701D03*
%TO.N,V_Barrel*%
X124000000Y-99000000D03*
X123000000Y-99000000D03*
X121000000Y-99000000D03*
X122000000Y-99000000D03*
X124000000Y-98000000D03*
X123000000Y-98000000D03*
X122000000Y-98000000D03*
X121000000Y-98000000D03*
X124000000Y-100000000D03*
X123000000Y-100000000D03*
X122000000Y-100000000D03*
X121000000Y-100000000D03*
X124000000Y-101000000D03*
X123000000Y-101000000D03*
X122000000Y-101000000D03*
X121000000Y-101000000D03*
X124000000Y-97000000D03*
X123000000Y-97000000D03*
X122000000Y-97000000D03*
X121000000Y-97000000D03*
%TD*%
D20*
%TO.N,Motor_Pin_2*%
X151500000Y-90500000D02*
X157000000Y-90500000D01*
%TO.N,+VDC*%
X150000000Y-70500000D02*
X154000000Y-74500000D01*
X148500000Y-70500000D02*
X150000000Y-70500000D01*
X121000000Y-78500000D02*
X123000000Y-76500000D01*
%TO.N,UART_TX*%
X164500000Y-76000000D02*
X148500000Y-76000000D01*
X165000000Y-75500000D02*
X164500000Y-76000000D01*
X148500000Y-76000000D02*
X148000000Y-75500000D01*
%TO.N,Motor_A*%
X146500000Y-81500000D02*
X154000000Y-81500000D01*
%TO.N,Motor_EN*%
X167000000Y-83000000D02*
X172000000Y-83000000D01*
X147000000Y-83000000D02*
X156000000Y-83000000D01*
%TO.N,+VDC*%
X159000000Y-84000000D02*
X155500000Y-80500000D01*
X165000000Y-84000000D02*
X159000000Y-84000000D01*
%TO.N,Motor_A*%
X141000000Y-95000000D02*
X141000000Y-88500000D01*
X144000000Y-98000000D02*
X141000000Y-95000000D01*
%TO.N,Motor_B*%
X174500000Y-80500000D02*
X176000000Y-80500000D01*
X174500000Y-84500000D02*
X174500000Y-80500000D01*
X159500000Y-99500000D02*
X174500000Y-84500000D01*
X150000000Y-99500000D02*
X159500000Y-99500000D01*
%TO.N,Motor_A*%
X149500000Y-103500000D02*
X158500000Y-103500000D01*
%TO.N,/EN_Pin*%
X160000000Y-94000000D02*
X146500000Y-94000000D01*
X161500000Y-92500000D02*
X160000000Y-94000000D01*
%TO.N,UART_RX*%
X148500000Y-79000000D02*
X164500000Y-79000000D01*
%TO.N,+VDC*%
X132000000Y-84500000D02*
X137500000Y-90000000D01*
X129500000Y-84500000D02*
X132000000Y-84500000D01*
X126500000Y-81500000D02*
X129500000Y-84500000D01*
%TO.N,UART_RX*%
X127125402Y-77850000D02*
X137600000Y-77850000D01*
X126987701Y-77987701D02*
X127125402Y-77850000D01*
%TD*%
%TA.AperFunction,Conductor*%
%TO.N,V_Barrel*%
G36*
X136669683Y-69020002D02*
G01*
X136716176Y-69073658D01*
X136726280Y-69143932D01*
X136692656Y-69213051D01*
X136544200Y-69368401D01*
X136540629Y-69372138D01*
X136414743Y-69556680D01*
X136320688Y-69759305D01*
X136260989Y-69974570D01*
X136237251Y-70196695D01*
X136237548Y-70201848D01*
X136237548Y-70201851D01*
X136247174Y-70368789D01*
X136250110Y-70419715D01*
X136251247Y-70424761D01*
X136251248Y-70424767D01*
X136266724Y-70493435D01*
X136299222Y-70637639D01*
X136383266Y-70844616D01*
X136499987Y-71035088D01*
X136646250Y-71203938D01*
X136818126Y-71346632D01*
X136851457Y-71366109D01*
X136891445Y-71389476D01*
X136940169Y-71441114D01*
X136953240Y-71510897D01*
X136926509Y-71576669D01*
X136886055Y-71610027D01*
X136873607Y-71616507D01*
X136869474Y-71619610D01*
X136869471Y-71619612D01*
X136822673Y-71654749D01*
X136694965Y-71750635D01*
X136540629Y-71912138D01*
X136537715Y-71916410D01*
X136537714Y-71916411D01*
X136525629Y-71934127D01*
X136414743Y-72096680D01*
X136320688Y-72299305D01*
X136260989Y-72514570D01*
X136237251Y-72736695D01*
X136237548Y-72741848D01*
X136237548Y-72741851D01*
X136249812Y-72954547D01*
X136250110Y-72959715D01*
X136251247Y-72964761D01*
X136251248Y-72964767D01*
X136271119Y-73052939D01*
X136299222Y-73177639D01*
X136337461Y-73271811D01*
X136369327Y-73350287D01*
X136383266Y-73384616D01*
X136385965Y-73389020D01*
X136481517Y-73544947D01*
X136499987Y-73575088D01*
X136646250Y-73743938D01*
X136818126Y-73886632D01*
X136829356Y-73893194D01*
X136891445Y-73929476D01*
X136940169Y-73981114D01*
X136953240Y-74050897D01*
X136926509Y-74116669D01*
X136886055Y-74150027D01*
X136873607Y-74156507D01*
X136869474Y-74159610D01*
X136869471Y-74159612D01*
X136845247Y-74177800D01*
X136694965Y-74290635D01*
X136540629Y-74452138D01*
X136414743Y-74636680D01*
X136381228Y-74708882D01*
X136329123Y-74821134D01*
X136320688Y-74839305D01*
X136260989Y-75054570D01*
X136237251Y-75276695D01*
X136237548Y-75281848D01*
X136237548Y-75281851D01*
X136243011Y-75376590D01*
X136250110Y-75499715D01*
X136251247Y-75504761D01*
X136251248Y-75504767D01*
X136270795Y-75591500D01*
X136299222Y-75717639D01*
X136337461Y-75811811D01*
X136368242Y-75887615D01*
X136383266Y-75924616D01*
X136499987Y-76115088D01*
X136646250Y-76283938D01*
X136650230Y-76287242D01*
X136654981Y-76291187D01*
X136694616Y-76350090D01*
X136696113Y-76421071D01*
X136658997Y-76481593D01*
X136618725Y-76506112D01*
X136552014Y-76531121D01*
X136503295Y-76549385D01*
X136386739Y-76636739D01*
X136299385Y-76753295D01*
X136248255Y-76889684D01*
X136241500Y-76951866D01*
X136241500Y-77090500D01*
X136221498Y-77158621D01*
X136167842Y-77205114D01*
X136115500Y-77216500D01*
X127511332Y-77216500D01*
X127448807Y-77199746D01*
X127444453Y-77196583D01*
X127438423Y-77193898D01*
X127276020Y-77121592D01*
X127276019Y-77121592D01*
X127269989Y-77118907D01*
X127176588Y-77099054D01*
X127089645Y-77080573D01*
X127089640Y-77080573D01*
X127083188Y-77079201D01*
X126892214Y-77079201D01*
X126885762Y-77080573D01*
X126885757Y-77080573D01*
X126798814Y-77099054D01*
X126705413Y-77118907D01*
X126699383Y-77121592D01*
X126699382Y-77121592D01*
X126536979Y-77193898D01*
X126536977Y-77193899D01*
X126530949Y-77196583D01*
X126376448Y-77308835D01*
X126248661Y-77450757D01*
X126153174Y-77616145D01*
X126094159Y-77797773D01*
X126093469Y-77804334D01*
X126093469Y-77804336D01*
X126077303Y-77958148D01*
X126074197Y-77987701D01*
X126074887Y-77994266D01*
X126089136Y-78129834D01*
X126094159Y-78177629D01*
X126153174Y-78359257D01*
X126248661Y-78524645D01*
X126376448Y-78666567D01*
X126530949Y-78778819D01*
X126536977Y-78781503D01*
X126536979Y-78781504D01*
X126618311Y-78817715D01*
X126705413Y-78856495D01*
X126798814Y-78876348D01*
X126885757Y-78894829D01*
X126885762Y-78894829D01*
X126892214Y-78896201D01*
X127083188Y-78896201D01*
X127089640Y-78894829D01*
X127089645Y-78894829D01*
X127176588Y-78876348D01*
X127269989Y-78856495D01*
X127357091Y-78817715D01*
X127438423Y-78781504D01*
X127438425Y-78781503D01*
X127444453Y-78778819D01*
X127598954Y-78666567D01*
X127726251Y-78525190D01*
X127786696Y-78487950D01*
X127819886Y-78483500D01*
X136115500Y-78483500D01*
X136183621Y-78503502D01*
X136230114Y-78557158D01*
X136241500Y-78609500D01*
X136241500Y-78748134D01*
X136248255Y-78810316D01*
X136299385Y-78946705D01*
X136386739Y-79063261D01*
X136503295Y-79150615D01*
X136639684Y-79201745D01*
X136701866Y-79208500D01*
X138498134Y-79208500D01*
X138560316Y-79201745D01*
X138696705Y-79150615D01*
X138813261Y-79063261D01*
X138900615Y-78946705D01*
X138951745Y-78810316D01*
X138958500Y-78748134D01*
X138958500Y-76951866D01*
X138951745Y-76889684D01*
X138900615Y-76753295D01*
X138813261Y-76636739D01*
X138696705Y-76549385D01*
X138647986Y-76531121D01*
X138578203Y-76504960D01*
X138521439Y-76462318D01*
X138496739Y-76395756D01*
X138511947Y-76326408D01*
X138533493Y-76297727D01*
X138634435Y-76197137D01*
X138638096Y-76193489D01*
X138645814Y-76182749D01*
X138765435Y-76016277D01*
X138768453Y-76012077D01*
X138837903Y-75871556D01*
X138865136Y-75816453D01*
X138865137Y-75816451D01*
X138867430Y-75811811D01*
X138906455Y-75683365D01*
X138930865Y-75603023D01*
X138930865Y-75603021D01*
X138932370Y-75598069D01*
X138945281Y-75500000D01*
X147086496Y-75500000D01*
X147106458Y-75689928D01*
X147165473Y-75871556D01*
X147260960Y-76036944D01*
X147388747Y-76178866D01*
X147408874Y-76193489D01*
X147533366Y-76283938D01*
X147543248Y-76291118D01*
X147549276Y-76293802D01*
X147549278Y-76293803D01*
X147600560Y-76316635D01*
X147717712Y-76368794D01*
X147811113Y-76388647D01*
X147898056Y-76407128D01*
X147898061Y-76407128D01*
X147904513Y-76408500D01*
X147959691Y-76408500D01*
X148027812Y-76428502D01*
X148045942Y-76442648D01*
X148057651Y-76453643D01*
X148060495Y-76456400D01*
X148080230Y-76476135D01*
X148083427Y-76478615D01*
X148092447Y-76486318D01*
X148124679Y-76516586D01*
X148131625Y-76520405D01*
X148131628Y-76520407D01*
X148142434Y-76526348D01*
X148158953Y-76537199D01*
X148174959Y-76549614D01*
X148182228Y-76552759D01*
X148182232Y-76552762D01*
X148215537Y-76567174D01*
X148226187Y-76572391D01*
X148264940Y-76593695D01*
X148272615Y-76595666D01*
X148272616Y-76595666D01*
X148284562Y-76598733D01*
X148303267Y-76605137D01*
X148321855Y-76613181D01*
X148329678Y-76614420D01*
X148329688Y-76614423D01*
X148365524Y-76620099D01*
X148377144Y-76622505D01*
X148408959Y-76630673D01*
X148419970Y-76633500D01*
X148440224Y-76633500D01*
X148459934Y-76635051D01*
X148479943Y-76638220D01*
X148487835Y-76637474D01*
X148506580Y-76635702D01*
X148523962Y-76634059D01*
X148535819Y-76633500D01*
X164421233Y-76633500D01*
X164432416Y-76634027D01*
X164439909Y-76635702D01*
X164447835Y-76635453D01*
X164447836Y-76635453D01*
X164507986Y-76633562D01*
X164511945Y-76633500D01*
X164539856Y-76633500D01*
X164543791Y-76633003D01*
X164543856Y-76632995D01*
X164555693Y-76632062D01*
X164587951Y-76631048D01*
X164591970Y-76630922D01*
X164599889Y-76630673D01*
X164619343Y-76625021D01*
X164638700Y-76621013D01*
X164650930Y-76619468D01*
X164650931Y-76619468D01*
X164658797Y-76618474D01*
X164666168Y-76615555D01*
X164666170Y-76615555D01*
X164699912Y-76602196D01*
X164711142Y-76598351D01*
X164745983Y-76588229D01*
X164745984Y-76588229D01*
X164753593Y-76586018D01*
X164760412Y-76581985D01*
X164760417Y-76581983D01*
X164771028Y-76575707D01*
X164788776Y-76567012D01*
X164807617Y-76559552D01*
X164843387Y-76533564D01*
X164853307Y-76527048D01*
X164884535Y-76508580D01*
X164884538Y-76508578D01*
X164891362Y-76504542D01*
X164905683Y-76490221D01*
X164920717Y-76477380D01*
X164930693Y-76470132D01*
X164937107Y-76465472D01*
X164945784Y-76454984D01*
X164946443Y-76454187D01*
X165005275Y-76414447D01*
X165043529Y-76408500D01*
X165095487Y-76408500D01*
X165101939Y-76407128D01*
X165101944Y-76407128D01*
X165188887Y-76388647D01*
X165282288Y-76368794D01*
X165399440Y-76316635D01*
X165450722Y-76293803D01*
X165450724Y-76293802D01*
X165456752Y-76291118D01*
X165466635Y-76283938D01*
X165591126Y-76193489D01*
X165611253Y-76178866D01*
X165739040Y-76036944D01*
X165834527Y-75871556D01*
X165893542Y-75689928D01*
X165913504Y-75500000D01*
X165899473Y-75366500D01*
X165894232Y-75316635D01*
X165894232Y-75316633D01*
X165893542Y-75310072D01*
X165834527Y-75128444D01*
X165739040Y-74963056D01*
X165660403Y-74875720D01*
X165615675Y-74826045D01*
X165615674Y-74826044D01*
X165611253Y-74821134D01*
X165456752Y-74708882D01*
X165450724Y-74706198D01*
X165450722Y-74706197D01*
X165288319Y-74633891D01*
X165288318Y-74633891D01*
X165282288Y-74631206D01*
X165188887Y-74611353D01*
X165101944Y-74592872D01*
X165101939Y-74592872D01*
X165095487Y-74591500D01*
X164904513Y-74591500D01*
X164898061Y-74592872D01*
X164898056Y-74592872D01*
X164811113Y-74611353D01*
X164717712Y-74631206D01*
X164711682Y-74633891D01*
X164711681Y-74633891D01*
X164549278Y-74706197D01*
X164549276Y-74706198D01*
X164543248Y-74708882D01*
X164388747Y-74821134D01*
X164384326Y-74826044D01*
X164384325Y-74826045D01*
X164339598Y-74875720D01*
X164260960Y-74963056D01*
X164165473Y-75128444D01*
X164163432Y-75134726D01*
X164116412Y-75279437D01*
X164076338Y-75338042D01*
X164010941Y-75365679D01*
X163996579Y-75366500D01*
X154725307Y-75366500D01*
X154657186Y-75346498D01*
X154610693Y-75292842D01*
X154600589Y-75222568D01*
X154631671Y-75156190D01*
X154734621Y-75041852D01*
X154734622Y-75041851D01*
X154739040Y-75036944D01*
X154834527Y-74871556D01*
X154893542Y-74689928D01*
X154895575Y-74670590D01*
X154912814Y-74506565D01*
X154913504Y-74500000D01*
X154908081Y-74448401D01*
X154894232Y-74316635D01*
X154894232Y-74316633D01*
X154893542Y-74310072D01*
X154834527Y-74128444D01*
X154739040Y-73963056D01*
X154712793Y-73933905D01*
X154615675Y-73826045D01*
X154615674Y-73826044D01*
X154611253Y-73821134D01*
X154456752Y-73708882D01*
X154450724Y-73706198D01*
X154450722Y-73706197D01*
X154288319Y-73633891D01*
X154288318Y-73633891D01*
X154282288Y-73631206D01*
X154188888Y-73611353D01*
X154101944Y-73592872D01*
X154101939Y-73592872D01*
X154095487Y-73591500D01*
X154039595Y-73591500D01*
X153971474Y-73571498D01*
X153950500Y-73554595D01*
X152325638Y-71929733D01*
X159487822Y-71929733D01*
X159487975Y-71934121D01*
X159487975Y-71934127D01*
X159493816Y-72101375D01*
X159497625Y-72210458D01*
X159498387Y-72214781D01*
X159498388Y-72214788D01*
X159522164Y-72349624D01*
X159546402Y-72487087D01*
X159633203Y-72754235D01*
X159635131Y-72758188D01*
X159635133Y-72758193D01*
X159673370Y-72836590D01*
X159756340Y-73006702D01*
X159758795Y-73010341D01*
X159758798Y-73010347D01*
X159787527Y-73052939D01*
X159913415Y-73239576D01*
X159916360Y-73242847D01*
X159916361Y-73242848D01*
X159946619Y-73276453D01*
X160101371Y-73448322D01*
X160104733Y-73451143D01*
X160104734Y-73451144D01*
X160129681Y-73472077D01*
X160316550Y-73628879D01*
X160554764Y-73777731D01*
X160663279Y-73826045D01*
X160799359Y-73886632D01*
X160811375Y-73891982D01*
X161081390Y-73969407D01*
X161085740Y-73970018D01*
X161085743Y-73970019D01*
X161164690Y-73981114D01*
X161359552Y-74008500D01*
X161570146Y-74008500D01*
X161572332Y-74008347D01*
X161572336Y-74008347D01*
X161775827Y-73994118D01*
X161775832Y-73994117D01*
X161780212Y-73993811D01*
X162054970Y-73935409D01*
X162059099Y-73933906D01*
X162059103Y-73933905D01*
X162314781Y-73840846D01*
X162314785Y-73840844D01*
X162318926Y-73839337D01*
X162566942Y-73707464D01*
X162641233Y-73653489D01*
X162790629Y-73544947D01*
X162790632Y-73544944D01*
X162794192Y-73542358D01*
X162996252Y-73347231D01*
X163169188Y-73125882D01*
X163171384Y-73122078D01*
X163171389Y-73122071D01*
X163307435Y-72886431D01*
X163309636Y-72882619D01*
X163414862Y-72622176D01*
X163434767Y-72542342D01*
X163481753Y-72353893D01*
X163481754Y-72353888D01*
X163482817Y-72349624D01*
X163484279Y-72335720D01*
X163511719Y-72074636D01*
X163511719Y-72074633D01*
X163512178Y-72070267D01*
X163512025Y-72065873D01*
X163502529Y-71793939D01*
X163502528Y-71793933D01*
X163502375Y-71789542D01*
X163499468Y-71773051D01*
X163454360Y-71517236D01*
X163453598Y-71512913D01*
X163366797Y-71245765D01*
X163329620Y-71169540D01*
X163267341Y-71041852D01*
X163243660Y-70993298D01*
X163241205Y-70989659D01*
X163241202Y-70989653D01*
X163157305Y-70865271D01*
X163086585Y-70760424D01*
X162898629Y-70551678D01*
X162683450Y-70371121D01*
X162445236Y-70222269D01*
X162248619Y-70134729D01*
X162192639Y-70109805D01*
X162192637Y-70109804D01*
X162188625Y-70108018D01*
X161918610Y-70030593D01*
X161914260Y-70029982D01*
X161914257Y-70029981D01*
X161798267Y-70013680D01*
X161640448Y-69991500D01*
X161429854Y-69991500D01*
X161427668Y-69991653D01*
X161427664Y-69991653D01*
X161224173Y-70005882D01*
X161224168Y-70005883D01*
X161219788Y-70006189D01*
X160945030Y-70064591D01*
X160940901Y-70066094D01*
X160940897Y-70066095D01*
X160685219Y-70159154D01*
X160685215Y-70159156D01*
X160681074Y-70160663D01*
X160433058Y-70292536D01*
X160429499Y-70295122D01*
X160429497Y-70295123D01*
X160251057Y-70424767D01*
X160205808Y-70457642D01*
X160003748Y-70652769D01*
X159830812Y-70874118D01*
X159828616Y-70877922D01*
X159828611Y-70877929D01*
X159737876Y-71035088D01*
X159690364Y-71117381D01*
X159585138Y-71377824D01*
X159584073Y-71382097D01*
X159584072Y-71382099D01*
X159520319Y-71637800D01*
X159517183Y-71650376D01*
X159516724Y-71654744D01*
X159516723Y-71654749D01*
X159503888Y-71776870D01*
X159487822Y-71929733D01*
X152325638Y-71929733D01*
X150503652Y-70107747D01*
X150496112Y-70099461D01*
X150492000Y-70092982D01*
X150442348Y-70046356D01*
X150439507Y-70043602D01*
X150419770Y-70023865D01*
X150416573Y-70021385D01*
X150407551Y-70013680D01*
X150400822Y-70007361D01*
X150375321Y-69983414D01*
X150368375Y-69979595D01*
X150368372Y-69979593D01*
X150357566Y-69973652D01*
X150341047Y-69962801D01*
X150335048Y-69958148D01*
X150325041Y-69950386D01*
X150317772Y-69947241D01*
X150317768Y-69947238D01*
X150284463Y-69932826D01*
X150273813Y-69927609D01*
X150235060Y-69906305D01*
X150215437Y-69901267D01*
X150196734Y-69894863D01*
X150185420Y-69889967D01*
X150185419Y-69889967D01*
X150178145Y-69886819D01*
X150170322Y-69885580D01*
X150170312Y-69885577D01*
X150134476Y-69879901D01*
X150122856Y-69877495D01*
X150087711Y-69868472D01*
X150087710Y-69868472D01*
X150080030Y-69866500D01*
X150059776Y-69866500D01*
X150040065Y-69864949D01*
X150027886Y-69863020D01*
X150020057Y-69861780D01*
X150012165Y-69862526D01*
X149976039Y-69865941D01*
X149964181Y-69866500D01*
X149208200Y-69866500D01*
X149140079Y-69846498D01*
X149120853Y-69830157D01*
X149120580Y-69830460D01*
X149115668Y-69826037D01*
X149111253Y-69821134D01*
X148956752Y-69708882D01*
X148950724Y-69706198D01*
X148950722Y-69706197D01*
X148788319Y-69633891D01*
X148788318Y-69633891D01*
X148782288Y-69631206D01*
X148688888Y-69611353D01*
X148601944Y-69592872D01*
X148601939Y-69592872D01*
X148595487Y-69591500D01*
X148404513Y-69591500D01*
X148398061Y-69592872D01*
X148398056Y-69592872D01*
X148311112Y-69611353D01*
X148217712Y-69631206D01*
X148211682Y-69633891D01*
X148211681Y-69633891D01*
X148049278Y-69706197D01*
X148049276Y-69706198D01*
X148043248Y-69708882D01*
X147888747Y-69821134D01*
X147884326Y-69826044D01*
X147884325Y-69826045D01*
X147775203Y-69947238D01*
X147760960Y-69963056D01*
X147665473Y-70128444D01*
X147606458Y-70310072D01*
X147605768Y-70316633D01*
X147605768Y-70316635D01*
X147599744Y-70373949D01*
X147586496Y-70500000D01*
X147587186Y-70506565D01*
X147591928Y-70551678D01*
X147606458Y-70689928D01*
X147665473Y-70871556D01*
X147760960Y-71036944D01*
X147888747Y-71178866D01*
X147975378Y-71241807D01*
X148019923Y-71274171D01*
X148043248Y-71291118D01*
X148049276Y-71293802D01*
X148049278Y-71293803D01*
X148167935Y-71346632D01*
X148217712Y-71368794D01*
X148311113Y-71388647D01*
X148398056Y-71407128D01*
X148398061Y-71407128D01*
X148404513Y-71408500D01*
X148595487Y-71408500D01*
X148601939Y-71407128D01*
X148601944Y-71407128D01*
X148688887Y-71388647D01*
X148782288Y-71368794D01*
X148832065Y-71346632D01*
X148950722Y-71293803D01*
X148950724Y-71293802D01*
X148956752Y-71291118D01*
X148980078Y-71274171D01*
X149089671Y-71194546D01*
X149111253Y-71178866D01*
X149115668Y-71173963D01*
X149120580Y-71169540D01*
X149121705Y-71170789D01*
X149175014Y-71137949D01*
X149208200Y-71133500D01*
X149685406Y-71133500D01*
X149753527Y-71153502D01*
X149774501Y-71170405D01*
X153052878Y-74448782D01*
X153086904Y-74511094D01*
X153089093Y-74524707D01*
X153104426Y-74670590D01*
X153106458Y-74689928D01*
X153165473Y-74871556D01*
X153260960Y-75036944D01*
X153265378Y-75041851D01*
X153265379Y-75041852D01*
X153368329Y-75156190D01*
X153399047Y-75220197D01*
X153390282Y-75290651D01*
X153344819Y-75345182D01*
X153274693Y-75366500D01*
X149003421Y-75366500D01*
X148935300Y-75346498D01*
X148888807Y-75292842D01*
X148883588Y-75279437D01*
X148836568Y-75134726D01*
X148834527Y-75128444D01*
X148739040Y-74963056D01*
X148660403Y-74875720D01*
X148615675Y-74826045D01*
X148615674Y-74826044D01*
X148611253Y-74821134D01*
X148456752Y-74708882D01*
X148450724Y-74706198D01*
X148450722Y-74706197D01*
X148288319Y-74633891D01*
X148288318Y-74633891D01*
X148282288Y-74631206D01*
X148188887Y-74611353D01*
X148101944Y-74592872D01*
X148101939Y-74592872D01*
X148095487Y-74591500D01*
X147904513Y-74591500D01*
X147898061Y-74592872D01*
X147898056Y-74592872D01*
X147811113Y-74611353D01*
X147717712Y-74631206D01*
X147711682Y-74633891D01*
X147711681Y-74633891D01*
X147549278Y-74706197D01*
X147549276Y-74706198D01*
X147543248Y-74708882D01*
X147388747Y-74821134D01*
X147384326Y-74826044D01*
X147384325Y-74826045D01*
X147339598Y-74875720D01*
X147260960Y-74963056D01*
X147165473Y-75128444D01*
X147106458Y-75310072D01*
X147105768Y-75316633D01*
X147105768Y-75316635D01*
X147100527Y-75366500D01*
X147086496Y-75500000D01*
X138945281Y-75500000D01*
X138961529Y-75376590D01*
X138962264Y-75346498D01*
X138963074Y-75313365D01*
X138963074Y-75313361D01*
X138963156Y-75310000D01*
X138944852Y-75087361D01*
X138890431Y-74870702D01*
X138801354Y-74665840D01*
X138710051Y-74524707D01*
X138682822Y-74482617D01*
X138682820Y-74482614D01*
X138680014Y-74478277D01*
X138529670Y-74313051D01*
X138525619Y-74309852D01*
X138525615Y-74309848D01*
X138358414Y-74177800D01*
X138358410Y-74177798D01*
X138354359Y-74174598D01*
X138313053Y-74151796D01*
X138263084Y-74101364D01*
X138248312Y-74031921D01*
X138273428Y-73965516D01*
X138300780Y-73938909D01*
X138366569Y-73891982D01*
X138479860Y-73811173D01*
X138638096Y-73653489D01*
X138681654Y-73592872D01*
X138765435Y-73476277D01*
X138768453Y-73472077D01*
X138780194Y-73448322D01*
X138865136Y-73276453D01*
X138865137Y-73276451D01*
X138867430Y-73271811D01*
X138932370Y-73058069D01*
X138961529Y-72836590D01*
X138963156Y-72770000D01*
X138944852Y-72547361D01*
X138890431Y-72330702D01*
X138801354Y-72125840D01*
X138680014Y-71938277D01*
X138529670Y-71773051D01*
X138525619Y-71769852D01*
X138525615Y-71769848D01*
X138358414Y-71637800D01*
X138358410Y-71637798D01*
X138354359Y-71634598D01*
X138313053Y-71611796D01*
X138263084Y-71561364D01*
X138248312Y-71491921D01*
X138273428Y-71425516D01*
X138300780Y-71398909D01*
X138346764Y-71366109D01*
X138479860Y-71271173D01*
X138638096Y-71113489D01*
X138697594Y-71030689D01*
X138765435Y-70936277D01*
X138768453Y-70932077D01*
X138795215Y-70877929D01*
X138865136Y-70736453D01*
X138865137Y-70736451D01*
X138867430Y-70731811D01*
X138932370Y-70518069D01*
X138961529Y-70296590D01*
X138963156Y-70230000D01*
X138944852Y-70007361D01*
X138890431Y-69790702D01*
X138801354Y-69585840D01*
X138745822Y-69500000D01*
X138682822Y-69402617D01*
X138682820Y-69402614D01*
X138680014Y-69398277D01*
X138529670Y-69233051D01*
X138519326Y-69224882D01*
X138478264Y-69166966D01*
X138475031Y-69096043D01*
X138510655Y-69034631D01*
X138573826Y-69002228D01*
X138597418Y-69000000D01*
X177876896Y-69000000D01*
X177945017Y-69020002D01*
X177991510Y-69073658D01*
X178002862Y-69123071D01*
X178222259Y-78557158D01*
X178976939Y-111008347D01*
X178997002Y-111871071D01*
X178978589Y-111939638D01*
X178926029Y-111987366D01*
X178871036Y-112000000D01*
X111126000Y-112000000D01*
X111057879Y-111979998D01*
X111011386Y-111926342D01*
X111000000Y-111874000D01*
X111000000Y-108929733D01*
X111987822Y-108929733D01*
X111997625Y-109210458D01*
X111998387Y-109214781D01*
X111998388Y-109214788D01*
X112022164Y-109349624D01*
X112046402Y-109487087D01*
X112133203Y-109754235D01*
X112256340Y-110006702D01*
X112258795Y-110010341D01*
X112258798Y-110010347D01*
X112331890Y-110118710D01*
X112413415Y-110239576D01*
X112601371Y-110448322D01*
X112816550Y-110628879D01*
X113054764Y-110777731D01*
X113311375Y-110891982D01*
X113581390Y-110969407D01*
X113585740Y-110970018D01*
X113585743Y-110970019D01*
X113688690Y-110984487D01*
X113859552Y-111008500D01*
X114070146Y-111008500D01*
X114072332Y-111008347D01*
X114072336Y-111008347D01*
X114275827Y-110994118D01*
X114275832Y-110994117D01*
X114280212Y-110993811D01*
X114554970Y-110935409D01*
X114559099Y-110933906D01*
X114559103Y-110933905D01*
X114814781Y-110840846D01*
X114814785Y-110840844D01*
X114818926Y-110839337D01*
X115066942Y-110707464D01*
X115171896Y-110631211D01*
X115290629Y-110544947D01*
X115290632Y-110544944D01*
X115294192Y-110542358D01*
X115496252Y-110347231D01*
X115669188Y-110125882D01*
X115671384Y-110122078D01*
X115671389Y-110122071D01*
X115807435Y-109886431D01*
X115809636Y-109882619D01*
X115914862Y-109622176D01*
X115948544Y-109487087D01*
X115981753Y-109353893D01*
X115981754Y-109353888D01*
X115982817Y-109349624D01*
X116012178Y-109070267D01*
X116002375Y-108789542D01*
X115978608Y-108654749D01*
X115954360Y-108517236D01*
X115953598Y-108512913D01*
X115866797Y-108245765D01*
X115853569Y-108218642D01*
X115789994Y-108088297D01*
X115743660Y-107993298D01*
X115741205Y-107989659D01*
X115741202Y-107989653D01*
X115679471Y-107898134D01*
X167191500Y-107898134D01*
X167198255Y-107960316D01*
X167249385Y-108096705D01*
X167336739Y-108213261D01*
X167453295Y-108300615D01*
X167589684Y-108351745D01*
X167651866Y-108358500D01*
X174348134Y-108358500D01*
X174410316Y-108351745D01*
X174546705Y-108300615D01*
X174663261Y-108213261D01*
X174750615Y-108096705D01*
X174801745Y-107960316D01*
X174808500Y-107898134D01*
X174808500Y-104501866D01*
X174801745Y-104439684D01*
X174750615Y-104303295D01*
X174663261Y-104186739D01*
X174546705Y-104099385D01*
X174410316Y-104048255D01*
X174348134Y-104041500D01*
X167651866Y-104041500D01*
X167589684Y-104048255D01*
X167453295Y-104099385D01*
X167336739Y-104186739D01*
X167249385Y-104303295D01*
X167198255Y-104439684D01*
X167191500Y-104501866D01*
X167191500Y-107898134D01*
X115679471Y-107898134D01*
X115660935Y-107870653D01*
X115586585Y-107760424D01*
X115398629Y-107551678D01*
X115183450Y-107371121D01*
X114945236Y-107222269D01*
X114688625Y-107108018D01*
X114418610Y-107030593D01*
X114414260Y-107029982D01*
X114414257Y-107029981D01*
X114311310Y-107015513D01*
X114140448Y-106991500D01*
X113929854Y-106991500D01*
X113927668Y-106991653D01*
X113927664Y-106991653D01*
X113724173Y-107005882D01*
X113724168Y-107005883D01*
X113719788Y-107006189D01*
X113445030Y-107064591D01*
X113440901Y-107066094D01*
X113440897Y-107066095D01*
X113185219Y-107159154D01*
X113185215Y-107159156D01*
X113181074Y-107160663D01*
X112933058Y-107292536D01*
X112929499Y-107295122D01*
X112929497Y-107295123D01*
X112824895Y-107371121D01*
X112705808Y-107457642D01*
X112503748Y-107652769D01*
X112330812Y-107874118D01*
X112328616Y-107877922D01*
X112328611Y-107877929D01*
X112214794Y-108075067D01*
X112190364Y-108117381D01*
X112085138Y-108377824D01*
X112084073Y-108382097D01*
X112084072Y-108382099D01*
X112050379Y-108517236D01*
X112017183Y-108650376D01*
X111987822Y-108929733D01*
X111000000Y-108929733D01*
X111000000Y-103852817D01*
X113437514Y-103852817D01*
X113438095Y-103857837D01*
X113438095Y-103857841D01*
X113459346Y-104041500D01*
X113465415Y-104093956D01*
X113466791Y-104098820D01*
X113466792Y-104098823D01*
X113512476Y-104260266D01*
X113531510Y-104327532D01*
X113533644Y-104332108D01*
X113533646Y-104332114D01*
X113614396Y-104505283D01*
X113634099Y-104547536D01*
X113770544Y-104748307D01*
X113937332Y-104924681D01*
X113941358Y-104927759D01*
X113941359Y-104927760D01*
X114126154Y-105069047D01*
X114126158Y-105069050D01*
X114130174Y-105072120D01*
X114344109Y-105186831D01*
X114573631Y-105265862D01*
X114672978Y-105283022D01*
X114808926Y-105306504D01*
X114808932Y-105306505D01*
X114812836Y-105307179D01*
X114816797Y-105307359D01*
X114816798Y-105307359D01*
X114840506Y-105308436D01*
X114840525Y-105308436D01*
X114841925Y-105308500D01*
X117211001Y-105308500D01*
X117213509Y-105308298D01*
X117213514Y-105308298D01*
X117386924Y-105294346D01*
X117386929Y-105294345D01*
X117391965Y-105293940D01*
X117396873Y-105292734D01*
X117396876Y-105292734D01*
X117622792Y-105237244D01*
X117627706Y-105236037D01*
X117632358Y-105234062D01*
X117632362Y-105234061D01*
X117846498Y-105143165D01*
X117851156Y-105141188D01*
X117957037Y-105074511D01*
X118052288Y-105014528D01*
X118052291Y-105014526D01*
X118056567Y-105011833D01*
X118155422Y-104924681D01*
X118234858Y-104854650D01*
X118234861Y-104854647D01*
X118238655Y-104851302D01*
X118392734Y-104663722D01*
X118514841Y-104453922D01*
X118575419Y-104296109D01*
X118600020Y-104232022D01*
X118600021Y-104232018D01*
X118601833Y-104227298D01*
X118602868Y-104222345D01*
X118650440Y-103994631D01*
X118650440Y-103994627D01*
X118651474Y-103989680D01*
X118662486Y-103747183D01*
X118656588Y-103696206D01*
X118635167Y-103511071D01*
X118635166Y-103511067D01*
X118634585Y-103506044D01*
X118632875Y-103500000D01*
X148586496Y-103500000D01*
X148587186Y-103506565D01*
X148597571Y-103605369D01*
X148606458Y-103689928D01*
X148665473Y-103871556D01*
X148760960Y-104036944D01*
X148765378Y-104041851D01*
X148765379Y-104041852D01*
X148847899Y-104133500D01*
X148888747Y-104178866D01*
X149043248Y-104291118D01*
X149049276Y-104293802D01*
X149049278Y-104293803D01*
X149211681Y-104366109D01*
X149217712Y-104368794D01*
X149311113Y-104388647D01*
X149398056Y-104407128D01*
X149398061Y-104407128D01*
X149404513Y-104408500D01*
X149595487Y-104408500D01*
X149601939Y-104407128D01*
X149601944Y-104407128D01*
X149688887Y-104388647D01*
X149782288Y-104368794D01*
X149788319Y-104366109D01*
X149950722Y-104293803D01*
X149950724Y-104293802D01*
X149956752Y-104291118D01*
X150111253Y-104178866D01*
X150115668Y-104173963D01*
X150120580Y-104169540D01*
X150121705Y-104170789D01*
X150175014Y-104137949D01*
X150208200Y-104133500D01*
X157791800Y-104133500D01*
X157859921Y-104153502D01*
X157879147Y-104169843D01*
X157879420Y-104169540D01*
X157884332Y-104173963D01*
X157888747Y-104178866D01*
X158043248Y-104291118D01*
X158049276Y-104293802D01*
X158049278Y-104293803D01*
X158211681Y-104366109D01*
X158217712Y-104368794D01*
X158311113Y-104388647D01*
X158398056Y-104407128D01*
X158398061Y-104407128D01*
X158404513Y-104408500D01*
X158595487Y-104408500D01*
X158601939Y-104407128D01*
X158601944Y-104407128D01*
X158688887Y-104388647D01*
X158782288Y-104368794D01*
X158788319Y-104366109D01*
X158950722Y-104293803D01*
X158950724Y-104293802D01*
X158956752Y-104291118D01*
X159111253Y-104178866D01*
X159152101Y-104133500D01*
X159234621Y-104041852D01*
X159234622Y-104041851D01*
X159239040Y-104036944D01*
X159334527Y-103871556D01*
X159393542Y-103689928D01*
X159402430Y-103605369D01*
X159412814Y-103506565D01*
X159413504Y-103500000D01*
X159393542Y-103310072D01*
X159334527Y-103128444D01*
X159239040Y-102963056D01*
X159138769Y-102851693D01*
X159115675Y-102826045D01*
X159115674Y-102826044D01*
X159111253Y-102821134D01*
X158956752Y-102708882D01*
X158950724Y-102706198D01*
X158950722Y-102706197D01*
X158788319Y-102633891D01*
X158788318Y-102633891D01*
X158782288Y-102631206D01*
X158688888Y-102611353D01*
X158601944Y-102592872D01*
X158601939Y-102592872D01*
X158595487Y-102591500D01*
X158404513Y-102591500D01*
X158398061Y-102592872D01*
X158398056Y-102592872D01*
X158311113Y-102611353D01*
X158217712Y-102631206D01*
X158211682Y-102633891D01*
X158211681Y-102633891D01*
X158049278Y-102706197D01*
X158049276Y-102706198D01*
X158043248Y-102708882D01*
X157888747Y-102821134D01*
X157884332Y-102826037D01*
X157879420Y-102830460D01*
X157878295Y-102829211D01*
X157824986Y-102862051D01*
X157791800Y-102866500D01*
X150208200Y-102866500D01*
X150140079Y-102846498D01*
X150120853Y-102830157D01*
X150120580Y-102830460D01*
X150115668Y-102826037D01*
X150111253Y-102821134D01*
X149956752Y-102708882D01*
X149950724Y-102706198D01*
X149950722Y-102706197D01*
X149788319Y-102633891D01*
X149788318Y-102633891D01*
X149782288Y-102631206D01*
X149688888Y-102611353D01*
X149601944Y-102592872D01*
X149601939Y-102592872D01*
X149595487Y-102591500D01*
X149404513Y-102591500D01*
X149398061Y-102592872D01*
X149398056Y-102592872D01*
X149311113Y-102611353D01*
X149217712Y-102631206D01*
X149211682Y-102633891D01*
X149211681Y-102633891D01*
X149049278Y-102706197D01*
X149049276Y-102706198D01*
X149043248Y-102708882D01*
X148888747Y-102821134D01*
X148884326Y-102826044D01*
X148884325Y-102826045D01*
X148861232Y-102851693D01*
X148760960Y-102963056D01*
X148665473Y-103128444D01*
X148606458Y-103310072D01*
X148586496Y-103500000D01*
X118632875Y-103500000D01*
X118595517Y-103367978D01*
X118569866Y-103277331D01*
X118568490Y-103272468D01*
X118566356Y-103267892D01*
X118566354Y-103267886D01*
X118468038Y-103057046D01*
X118468036Y-103057042D01*
X118465901Y-103052464D01*
X118329456Y-102851693D01*
X118162668Y-102675319D01*
X118158641Y-102672240D01*
X117973846Y-102530953D01*
X117973842Y-102530950D01*
X117969826Y-102527880D01*
X117755891Y-102413169D01*
X117526369Y-102334138D01*
X117427022Y-102316978D01*
X117291074Y-102293496D01*
X117291068Y-102293495D01*
X117287164Y-102292821D01*
X117283203Y-102292641D01*
X117283202Y-102292641D01*
X117259494Y-102291564D01*
X117259475Y-102291564D01*
X117258075Y-102291500D01*
X114888999Y-102291500D01*
X114886491Y-102291702D01*
X114886486Y-102291702D01*
X114713076Y-102305654D01*
X114713071Y-102305655D01*
X114708035Y-102306060D01*
X114703127Y-102307266D01*
X114703124Y-102307266D01*
X114587007Y-102335787D01*
X114472294Y-102363963D01*
X114467642Y-102365938D01*
X114467638Y-102365939D01*
X114360252Y-102411522D01*
X114248844Y-102458812D01*
X114244560Y-102461510D01*
X114047712Y-102585472D01*
X114047709Y-102585474D01*
X114043433Y-102588167D01*
X114039639Y-102591512D01*
X113865142Y-102745350D01*
X113865139Y-102745353D01*
X113861345Y-102748698D01*
X113858135Y-102752606D01*
X113858134Y-102752607D01*
X113781012Y-102846498D01*
X113707266Y-102936278D01*
X113585159Y-103146078D01*
X113498167Y-103372702D01*
X113497133Y-103377652D01*
X113497132Y-103377655D01*
X113470202Y-103506565D01*
X113448526Y-103610320D01*
X113437514Y-103852817D01*
X111000000Y-103852817D01*
X111000000Y-100692951D01*
X111020002Y-100624830D01*
X111073658Y-100578337D01*
X111143932Y-100568233D01*
X111208512Y-100597727D01*
X111241984Y-100643719D01*
X111308812Y-100801156D01*
X111438167Y-101006567D01*
X111441512Y-101010361D01*
X111595350Y-101184858D01*
X111595353Y-101184861D01*
X111598698Y-101188655D01*
X111602606Y-101191865D01*
X111602607Y-101191866D01*
X111709242Y-101279456D01*
X111786278Y-101342734D01*
X111996078Y-101464841D01*
X112000801Y-101466654D01*
X112217978Y-101550020D01*
X112217982Y-101550021D01*
X112222702Y-101551833D01*
X112227652Y-101552867D01*
X112227655Y-101552868D01*
X112455369Y-101600440D01*
X112455373Y-101600440D01*
X112460320Y-101601474D01*
X112702817Y-101612486D01*
X112707837Y-101611905D01*
X112707841Y-101611905D01*
X112938929Y-101585167D01*
X112938933Y-101585166D01*
X112943956Y-101584585D01*
X112948820Y-101583209D01*
X112948823Y-101583208D01*
X113172669Y-101519866D01*
X113172668Y-101519866D01*
X113177532Y-101518490D01*
X113182108Y-101516356D01*
X113182114Y-101516354D01*
X113392954Y-101418038D01*
X113392958Y-101418036D01*
X113397536Y-101415901D01*
X113502350Y-101344669D01*
X117442001Y-101344669D01*
X117442371Y-101351490D01*
X117447895Y-101402352D01*
X117451521Y-101417604D01*
X117496676Y-101538054D01*
X117505214Y-101553649D01*
X117581715Y-101655724D01*
X117594276Y-101668285D01*
X117696351Y-101744786D01*
X117711946Y-101753324D01*
X117832394Y-101798478D01*
X117847649Y-101802105D01*
X117898514Y-101807631D01*
X117905328Y-101808000D01*
X118677885Y-101808000D01*
X118693124Y-101803525D01*
X118694329Y-101802135D01*
X118696000Y-101794452D01*
X118696000Y-101789884D01*
X119204000Y-101789884D01*
X119208475Y-101805123D01*
X119209865Y-101806328D01*
X119217548Y-101807999D01*
X119994669Y-101807999D01*
X120001490Y-101807629D01*
X120052352Y-101802105D01*
X120067604Y-101798479D01*
X120188054Y-101753324D01*
X120203649Y-101744786D01*
X120305724Y-101668285D01*
X120318285Y-101655724D01*
X120394786Y-101553649D01*
X120403324Y-101538054D01*
X120448478Y-101417606D01*
X120452105Y-101402351D01*
X120457631Y-101351486D01*
X120458000Y-101344672D01*
X120458000Y-99500000D01*
X149086496Y-99500000D01*
X149106458Y-99689928D01*
X149165473Y-99871556D01*
X149260960Y-100036944D01*
X149388747Y-100178866D01*
X149543248Y-100291118D01*
X149549276Y-100293802D01*
X149549278Y-100293803D01*
X149711681Y-100366109D01*
X149717712Y-100368794D01*
X149811113Y-100388647D01*
X149898056Y-100407128D01*
X149898061Y-100407128D01*
X149904513Y-100408500D01*
X150095487Y-100408500D01*
X150101939Y-100407128D01*
X150101944Y-100407128D01*
X150188887Y-100388647D01*
X150282288Y-100368794D01*
X150288319Y-100366109D01*
X150450722Y-100293803D01*
X150450724Y-100293802D01*
X150456752Y-100291118D01*
X150525632Y-100241074D01*
X150589671Y-100194546D01*
X150611253Y-100178866D01*
X150615668Y-100173963D01*
X150620580Y-100169540D01*
X150621705Y-100170789D01*
X150675014Y-100137949D01*
X150708200Y-100133500D01*
X158791800Y-100133500D01*
X158859921Y-100153502D01*
X158879147Y-100169843D01*
X158879420Y-100169540D01*
X158884332Y-100173963D01*
X158888747Y-100178866D01*
X158910329Y-100194546D01*
X158974369Y-100241074D01*
X159043248Y-100291118D01*
X159049276Y-100293802D01*
X159049278Y-100293803D01*
X159211681Y-100366109D01*
X159217712Y-100368794D01*
X159311113Y-100388647D01*
X159398056Y-100407128D01*
X159398061Y-100407128D01*
X159404513Y-100408500D01*
X159595487Y-100408500D01*
X159601939Y-100407128D01*
X159601944Y-100407128D01*
X159688887Y-100388647D01*
X159782288Y-100368794D01*
X159788319Y-100366109D01*
X159950722Y-100293803D01*
X159950724Y-100293802D01*
X159956752Y-100291118D01*
X160111253Y-100178866D01*
X160239040Y-100036944D01*
X160334527Y-99871556D01*
X160393542Y-99689928D01*
X160410907Y-99524706D01*
X160437920Y-99459050D01*
X160447122Y-99448782D01*
X163560054Y-96335850D01*
X167190725Y-96335850D01*
X167191284Y-96340094D01*
X167191284Y-96340098D01*
X167201123Y-96414833D01*
X167229140Y-96627640D01*
X167230273Y-96631780D01*
X167230273Y-96631782D01*
X167236715Y-96655331D01*
X167306800Y-96911517D01*
X167308485Y-96915467D01*
X167420586Y-97178286D01*
X167420590Y-97178293D01*
X167422268Y-97182228D01*
X167440543Y-97212763D01*
X167568886Y-97427208D01*
X167573408Y-97434764D01*
X167757422Y-97664451D01*
X167760524Y-97667395D01*
X167760528Y-97667399D01*
X167967796Y-97864089D01*
X167970905Y-97867039D01*
X168209908Y-98038780D01*
X168470007Y-98176496D01*
X168746390Y-98277638D01*
X169033943Y-98340334D01*
X169066519Y-98342898D01*
X169262309Y-98358307D01*
X169262318Y-98358307D01*
X169264766Y-98358500D01*
X172723990Y-98358500D01*
X172726126Y-98358354D01*
X172726137Y-98358354D01*
X172939350Y-98343819D01*
X172939356Y-98343818D01*
X172943627Y-98343527D01*
X172947822Y-98342658D01*
X172947824Y-98342658D01*
X173087723Y-98313686D01*
X173231820Y-98283845D01*
X173509247Y-98185603D01*
X173770774Y-98050618D01*
X173774275Y-98048157D01*
X173774279Y-98048155D01*
X174008052Y-97883856D01*
X174008053Y-97883855D01*
X174011562Y-97881389D01*
X174227156Y-97681048D01*
X174240741Y-97664451D01*
X174356000Y-97523631D01*
X174413565Y-97453300D01*
X174567340Y-97202361D01*
X174569068Y-97198425D01*
X174683913Y-96936802D01*
X174683914Y-96936798D01*
X174685637Y-96932874D01*
X174766265Y-96649826D01*
X174770029Y-96623384D01*
X174807129Y-96362705D01*
X174807734Y-96358454D01*
X174809275Y-96064150D01*
X174805740Y-96037295D01*
X174771420Y-95776616D01*
X174770860Y-95772360D01*
X174693200Y-95488483D01*
X174651774Y-95391362D01*
X174579414Y-95221714D01*
X174579410Y-95221707D01*
X174577732Y-95217772D01*
X174453358Y-95009958D01*
X174428796Y-94968918D01*
X174428793Y-94968914D01*
X174426592Y-94965236D01*
X174242578Y-94735549D01*
X174239476Y-94732605D01*
X174239472Y-94732601D01*
X174032204Y-94535911D01*
X174032201Y-94535909D01*
X174029095Y-94532961D01*
X173790092Y-94361220D01*
X173529993Y-94223504D01*
X173253610Y-94122362D01*
X172966057Y-94059666D01*
X172925486Y-94056473D01*
X172737691Y-94041693D01*
X172737682Y-94041693D01*
X172735234Y-94041500D01*
X169276010Y-94041500D01*
X169273874Y-94041646D01*
X169273863Y-94041646D01*
X169060650Y-94056181D01*
X169060644Y-94056182D01*
X169056373Y-94056473D01*
X169052178Y-94057342D01*
X169052176Y-94057342D01*
X168912277Y-94086314D01*
X168768180Y-94116155D01*
X168490753Y-94214397D01*
X168229226Y-94349382D01*
X168225725Y-94351843D01*
X168225721Y-94351845D01*
X167991948Y-94516144D01*
X167988438Y-94518611D01*
X167772844Y-94718952D01*
X167770130Y-94722268D01*
X167770128Y-94722270D01*
X167713777Y-94791118D01*
X167586435Y-94946700D01*
X167432660Y-95197639D01*
X167430933Y-95201572D01*
X167430932Y-95201575D01*
X167330356Y-95430694D01*
X167314363Y-95467126D01*
X167233735Y-95750174D01*
X167233131Y-95754416D01*
X167233130Y-95754422D01*
X167192871Y-96037295D01*
X167192266Y-96041546D01*
X167191478Y-96192000D01*
X167191448Y-96197865D01*
X167190725Y-96335850D01*
X163560054Y-96335850D01*
X174892247Y-85003657D01*
X174900537Y-84996113D01*
X174907018Y-84992000D01*
X174919584Y-84978619D01*
X174953658Y-84942333D01*
X174956413Y-84939491D01*
X174976134Y-84919770D01*
X174978612Y-84916575D01*
X174986318Y-84907553D01*
X175011158Y-84881101D01*
X175016586Y-84875321D01*
X175026346Y-84857568D01*
X175037199Y-84841045D01*
X175044753Y-84831306D01*
X175049613Y-84825041D01*
X175067176Y-84784457D01*
X175072383Y-84773827D01*
X175093695Y-84735060D01*
X175095666Y-84727383D01*
X175095668Y-84727378D01*
X175098732Y-84715442D01*
X175105138Y-84696730D01*
X175110034Y-84685417D01*
X175113181Y-84678145D01*
X175120007Y-84635051D01*
X175120097Y-84634481D01*
X175122504Y-84622860D01*
X175131528Y-84587711D01*
X175131528Y-84587710D01*
X175133500Y-84580030D01*
X175133500Y-84559769D01*
X175135051Y-84540058D01*
X175136979Y-84527885D01*
X175138219Y-84520057D01*
X175134059Y-84476046D01*
X175133500Y-84464189D01*
X175133500Y-81259500D01*
X175153502Y-81191379D01*
X175207158Y-81144886D01*
X175259500Y-81133500D01*
X175291800Y-81133500D01*
X175359921Y-81153502D01*
X175379147Y-81169843D01*
X175379420Y-81169540D01*
X175384332Y-81173963D01*
X175388747Y-81178866D01*
X175543248Y-81291118D01*
X175549276Y-81293802D01*
X175549278Y-81293803D01*
X175598278Y-81315619D01*
X175717712Y-81368794D01*
X175811113Y-81388647D01*
X175898056Y-81407128D01*
X175898061Y-81407128D01*
X175904513Y-81408500D01*
X176095487Y-81408500D01*
X176101939Y-81407128D01*
X176101944Y-81407128D01*
X176188887Y-81388647D01*
X176282288Y-81368794D01*
X176401722Y-81315619D01*
X176450722Y-81293803D01*
X176450724Y-81293802D01*
X176456752Y-81291118D01*
X176611253Y-81178866D01*
X176739040Y-81036944D01*
X176834527Y-80871556D01*
X176893542Y-80689928D01*
X176913504Y-80500000D01*
X176910907Y-80475292D01*
X176894232Y-80316635D01*
X176894232Y-80316633D01*
X176893542Y-80310072D01*
X176834527Y-80128444D01*
X176739040Y-79963056D01*
X176716056Y-79937529D01*
X176615675Y-79826045D01*
X176615674Y-79826044D01*
X176611253Y-79821134D01*
X176456752Y-79708882D01*
X176450724Y-79706198D01*
X176450722Y-79706197D01*
X176288319Y-79633891D01*
X176288318Y-79633891D01*
X176282288Y-79631206D01*
X176188888Y-79611353D01*
X176101944Y-79592872D01*
X176101939Y-79592872D01*
X176095487Y-79591500D01*
X175904513Y-79591500D01*
X175898061Y-79592872D01*
X175898056Y-79592872D01*
X175811112Y-79611353D01*
X175717712Y-79631206D01*
X175711682Y-79633891D01*
X175711681Y-79633891D01*
X175549278Y-79706197D01*
X175549276Y-79706198D01*
X175543248Y-79708882D01*
X175537907Y-79712762D01*
X175537906Y-79712763D01*
X175448897Y-79777432D01*
X175388747Y-79821134D01*
X175384332Y-79826037D01*
X175379420Y-79830460D01*
X175378295Y-79829211D01*
X175324986Y-79862051D01*
X175291800Y-79866500D01*
X174571793Y-79866500D01*
X174548184Y-79864268D01*
X174547881Y-79864210D01*
X174547877Y-79864210D01*
X174540094Y-79862725D01*
X174486306Y-79866109D01*
X174484049Y-79866251D01*
X174476138Y-79866500D01*
X174460144Y-79866500D01*
X174444270Y-79868506D01*
X174436410Y-79869248D01*
X174408951Y-79870976D01*
X174388263Y-79872277D01*
X174388262Y-79872277D01*
X174380350Y-79872775D01*
X174372809Y-79875225D01*
X174372513Y-79875321D01*
X174349369Y-79880494D01*
X174349065Y-79880532D01*
X174349060Y-79880533D01*
X174341203Y-79881526D01*
X174333838Y-79884442D01*
X174333834Y-79884443D01*
X174288989Y-79902199D01*
X174281570Y-79904871D01*
X174228125Y-79922236D01*
X174221429Y-79926486D01*
X174221428Y-79926486D01*
X174221169Y-79926650D01*
X174200042Y-79937415D01*
X174199754Y-79937529D01*
X174199749Y-79937532D01*
X174192383Y-79940448D01*
X174185975Y-79945104D01*
X174185969Y-79945107D01*
X174146948Y-79973458D01*
X174140411Y-79977901D01*
X174092982Y-80008000D01*
X174087556Y-80013778D01*
X174087555Y-80013779D01*
X174087341Y-80014007D01*
X174069554Y-80029688D01*
X174069309Y-80029866D01*
X174069307Y-80029868D01*
X174062893Y-80034528D01*
X174057839Y-80040637D01*
X174057838Y-80040638D01*
X174027097Y-80077796D01*
X174021866Y-80083730D01*
X173988842Y-80118898D01*
X173988840Y-80118901D01*
X173983414Y-80124679D01*
X173979445Y-80131899D01*
X173966119Y-80151506D01*
X173965920Y-80151746D01*
X173965916Y-80151753D01*
X173960867Y-80157856D01*
X173956550Y-80167030D01*
X173936953Y-80208676D01*
X173933371Y-80215708D01*
X173906305Y-80264940D01*
X173904335Y-80272615D01*
X173904332Y-80272621D01*
X173904256Y-80272919D01*
X173896224Y-80295228D01*
X173896094Y-80295503D01*
X173896091Y-80295511D01*
X173892717Y-80302682D01*
X173882195Y-80357843D01*
X173880471Y-80365558D01*
X173866500Y-80419970D01*
X173866500Y-80428207D01*
X173864268Y-80451816D01*
X173862725Y-80459906D01*
X173865661Y-80506567D01*
X173866251Y-80515951D01*
X173866500Y-80523862D01*
X173866500Y-84185405D01*
X173846498Y-84253526D01*
X173829595Y-84274500D01*
X159549500Y-98554595D01*
X159487188Y-98588621D01*
X159460405Y-98591500D01*
X159404513Y-98591500D01*
X159398061Y-98592872D01*
X159398056Y-98592872D01*
X159311112Y-98611353D01*
X159217712Y-98631206D01*
X159211682Y-98633891D01*
X159211681Y-98633891D01*
X159049278Y-98706197D01*
X159049276Y-98706198D01*
X159043248Y-98708882D01*
X159037907Y-98712762D01*
X159037906Y-98712763D01*
X158935402Y-98787237D01*
X158888747Y-98821134D01*
X158884332Y-98826037D01*
X158879420Y-98830460D01*
X158878295Y-98829211D01*
X158824986Y-98862051D01*
X158791800Y-98866500D01*
X150708200Y-98866500D01*
X150640079Y-98846498D01*
X150620853Y-98830157D01*
X150620580Y-98830460D01*
X150615668Y-98826037D01*
X150611253Y-98821134D01*
X150564598Y-98787237D01*
X150462094Y-98712763D01*
X150462093Y-98712762D01*
X150456752Y-98708882D01*
X150450724Y-98706198D01*
X150450722Y-98706197D01*
X150288319Y-98633891D01*
X150288318Y-98633891D01*
X150282288Y-98631206D01*
X150188888Y-98611353D01*
X150101944Y-98592872D01*
X150101939Y-98592872D01*
X150095487Y-98591500D01*
X149904513Y-98591500D01*
X149898061Y-98592872D01*
X149898056Y-98592872D01*
X149811112Y-98611353D01*
X149717712Y-98631206D01*
X149711682Y-98633891D01*
X149711681Y-98633891D01*
X149549278Y-98706197D01*
X149549276Y-98706198D01*
X149543248Y-98708882D01*
X149388747Y-98821134D01*
X149260960Y-98963056D01*
X149165473Y-99128444D01*
X149106458Y-99310072D01*
X149086496Y-99500000D01*
X120458000Y-99500000D01*
X120458000Y-99272115D01*
X120453525Y-99256876D01*
X120452135Y-99255671D01*
X120444452Y-99254000D01*
X119222115Y-99254000D01*
X119206876Y-99258475D01*
X119205671Y-99259865D01*
X119204000Y-99267548D01*
X119204000Y-101789884D01*
X118696000Y-101789884D01*
X118696000Y-99272115D01*
X118691525Y-99256876D01*
X118690135Y-99255671D01*
X118682452Y-99254000D01*
X117460116Y-99254000D01*
X117444877Y-99258475D01*
X117443672Y-99259865D01*
X117442001Y-99267548D01*
X117442001Y-101344669D01*
X113502350Y-101344669D01*
X113598307Y-101279456D01*
X113774681Y-101112668D01*
X113852901Y-101010361D01*
X113919047Y-100923846D01*
X113919050Y-100923842D01*
X113922120Y-100919826D01*
X114036831Y-100705891D01*
X114115862Y-100476369D01*
X114157179Y-100237164D01*
X114158500Y-100208075D01*
X114158500Y-98727885D01*
X117442000Y-98727885D01*
X117446475Y-98743124D01*
X117447865Y-98744329D01*
X117455548Y-98746000D01*
X118677885Y-98746000D01*
X118693124Y-98741525D01*
X118694329Y-98740135D01*
X118696000Y-98732452D01*
X118696000Y-98727885D01*
X119204000Y-98727885D01*
X119208475Y-98743124D01*
X119209865Y-98744329D01*
X119217548Y-98746000D01*
X120439884Y-98746000D01*
X120455123Y-98741525D01*
X120456328Y-98740135D01*
X120457999Y-98732452D01*
X120457999Y-96655331D01*
X120457629Y-96648510D01*
X120452105Y-96597648D01*
X120448479Y-96582396D01*
X120403324Y-96461946D01*
X120394786Y-96446351D01*
X120318285Y-96344276D01*
X120305724Y-96331715D01*
X120203649Y-96255214D01*
X120188054Y-96246676D01*
X120067606Y-96201522D01*
X120052351Y-96197895D01*
X120001486Y-96192369D01*
X119994672Y-96192000D01*
X119222115Y-96192000D01*
X119206876Y-96196475D01*
X119205671Y-96197865D01*
X119204000Y-96205548D01*
X119204000Y-98727885D01*
X118696000Y-98727885D01*
X118696000Y-96210116D01*
X118691525Y-96194877D01*
X118690135Y-96193672D01*
X118682452Y-96192001D01*
X117905331Y-96192001D01*
X117898510Y-96192371D01*
X117847648Y-96197895D01*
X117832396Y-96201521D01*
X117711946Y-96246676D01*
X117696351Y-96255214D01*
X117594276Y-96331715D01*
X117581715Y-96344276D01*
X117505214Y-96446351D01*
X117496676Y-96461946D01*
X117451522Y-96582394D01*
X117447895Y-96597649D01*
X117442369Y-96648514D01*
X117442000Y-96655328D01*
X117442000Y-98727885D01*
X114158500Y-98727885D01*
X114158500Y-97838999D01*
X114156173Y-97810072D01*
X114144346Y-97663076D01*
X114144345Y-97663071D01*
X114143940Y-97658035D01*
X114097454Y-97468774D01*
X114087244Y-97427208D01*
X114086037Y-97422294D01*
X113991188Y-97198844D01*
X113943019Y-97122354D01*
X113864528Y-96997712D01*
X113864526Y-96997709D01*
X113861833Y-96993433D01*
X113811906Y-96936802D01*
X113704650Y-96815142D01*
X113704647Y-96815139D01*
X113701302Y-96811345D01*
X113594993Y-96724022D01*
X113517628Y-96660474D01*
X113517625Y-96660472D01*
X113513722Y-96657266D01*
X113303922Y-96535159D01*
X113169725Y-96483646D01*
X113082022Y-96449980D01*
X113082018Y-96449979D01*
X113077298Y-96448167D01*
X113072348Y-96447133D01*
X113072345Y-96447132D01*
X112844631Y-96399560D01*
X112844627Y-96399560D01*
X112839680Y-96398526D01*
X112597183Y-96387514D01*
X112592163Y-96388095D01*
X112592159Y-96388095D01*
X112361071Y-96414833D01*
X112361067Y-96414834D01*
X112356044Y-96415415D01*
X112351180Y-96416791D01*
X112351177Y-96416792D01*
X112246718Y-96446351D01*
X112122468Y-96481510D01*
X112117892Y-96483644D01*
X112117886Y-96483646D01*
X111907046Y-96581962D01*
X111907042Y-96581964D01*
X111902464Y-96584099D01*
X111701693Y-96720544D01*
X111525319Y-96887332D01*
X111522241Y-96891358D01*
X111522240Y-96891359D01*
X111380953Y-97076154D01*
X111380950Y-97076158D01*
X111377880Y-97080174D01*
X111375490Y-97084632D01*
X111375489Y-97084633D01*
X111350517Y-97131206D01*
X111263169Y-97294109D01*
X111261523Y-97298890D01*
X111261521Y-97298894D01*
X111245135Y-97346483D01*
X111204045Y-97404380D01*
X111138176Y-97430871D01*
X111068441Y-97417546D01*
X111016981Y-97368634D01*
X111000000Y-97305461D01*
X111000000Y-90020000D01*
X111604154Y-90020000D01*
X111604424Y-90024119D01*
X111622755Y-90303794D01*
X111623517Y-90315426D01*
X111624319Y-90319459D01*
X111624320Y-90319465D01*
X111667580Y-90536944D01*
X111681276Y-90605797D01*
X111682603Y-90609706D01*
X111682604Y-90609710D01*
X111742866Y-90787237D01*
X111776441Y-90886145D01*
X111907385Y-91151673D01*
X112071867Y-91397838D01*
X112074581Y-91400932D01*
X112074585Y-91400938D01*
X112080014Y-91407128D01*
X112267073Y-91620427D01*
X112270162Y-91623136D01*
X112486562Y-91812915D01*
X112486568Y-91812919D01*
X112489662Y-91815633D01*
X112493088Y-91817922D01*
X112493093Y-91817926D01*
X112676905Y-91940744D01*
X112735827Y-91980115D01*
X112739526Y-91981939D01*
X112739531Y-91981942D01*
X112875813Y-92049148D01*
X113001355Y-92111059D01*
X113005260Y-92112384D01*
X113005261Y-92112385D01*
X113277790Y-92204896D01*
X113277794Y-92204897D01*
X113281703Y-92206224D01*
X113285747Y-92207028D01*
X113285753Y-92207030D01*
X113568035Y-92263180D01*
X113568041Y-92263181D01*
X113572074Y-92263983D01*
X113576179Y-92264252D01*
X113576186Y-92264253D01*
X113863381Y-92283076D01*
X113867500Y-92283346D01*
X113871619Y-92283076D01*
X114158814Y-92264253D01*
X114158821Y-92264252D01*
X114162926Y-92263983D01*
X114166959Y-92263181D01*
X114166965Y-92263180D01*
X114449247Y-92207030D01*
X114449253Y-92207028D01*
X114453297Y-92206224D01*
X114457206Y-92204897D01*
X114457210Y-92204896D01*
X114729739Y-92112385D01*
X114729740Y-92112384D01*
X114733645Y-92111059D01*
X114859187Y-92049148D01*
X114995469Y-91981942D01*
X114995474Y-91981939D01*
X114999173Y-91980115D01*
X115058095Y-91940744D01*
X115241907Y-91817926D01*
X115241912Y-91817922D01*
X115245338Y-91815633D01*
X115248432Y-91812919D01*
X115248438Y-91812915D01*
X115464838Y-91623136D01*
X115467927Y-91620427D01*
X115654986Y-91407128D01*
X115660415Y-91400938D01*
X115660419Y-91400932D01*
X115663133Y-91397838D01*
X115827615Y-91151673D01*
X115958559Y-90886145D01*
X115992134Y-90787237D01*
X116052396Y-90609710D01*
X116052397Y-90609706D01*
X116053724Y-90605797D01*
X116067420Y-90536944D01*
X116110680Y-90319465D01*
X116110681Y-90319459D01*
X116111483Y-90315426D01*
X116112246Y-90303794D01*
X116130576Y-90024119D01*
X116130846Y-90020000D01*
X116117558Y-89817255D01*
X116111753Y-89728686D01*
X116111752Y-89728679D01*
X116111483Y-89724574D01*
X116092362Y-89628444D01*
X116054530Y-89438253D01*
X116054528Y-89438247D01*
X116053724Y-89434203D01*
X116017010Y-89326045D01*
X115959885Y-89157761D01*
X115959884Y-89157760D01*
X115958559Y-89153855D01*
X115827615Y-88888327D01*
X115699244Y-88696206D01*
X115665426Y-88645593D01*
X115665422Y-88645588D01*
X115663133Y-88642162D01*
X115660419Y-88639068D01*
X115660415Y-88639062D01*
X115470636Y-88422662D01*
X115467927Y-88419573D01*
X115464838Y-88416864D01*
X115248438Y-88227085D01*
X115248432Y-88227081D01*
X115245338Y-88224367D01*
X115241912Y-88222078D01*
X115241907Y-88222074D01*
X115002606Y-88062179D01*
X114999173Y-88059885D01*
X114995474Y-88058061D01*
X114995469Y-88058058D01*
X114792871Y-87958148D01*
X114733645Y-87928941D01*
X114729739Y-87927615D01*
X114457210Y-87835104D01*
X114457206Y-87835103D01*
X114453297Y-87833776D01*
X114449253Y-87832972D01*
X114449247Y-87832970D01*
X114166965Y-87776820D01*
X114166959Y-87776819D01*
X114162926Y-87776017D01*
X114158821Y-87775748D01*
X114158814Y-87775747D01*
X113871619Y-87756924D01*
X113867500Y-87756654D01*
X113863381Y-87756924D01*
X113576186Y-87775747D01*
X113576179Y-87775748D01*
X113572074Y-87776017D01*
X113568041Y-87776819D01*
X113568035Y-87776820D01*
X113285753Y-87832970D01*
X113285747Y-87832972D01*
X113281703Y-87833776D01*
X113277794Y-87835103D01*
X113277790Y-87835104D01*
X113005261Y-87927615D01*
X113001355Y-87928941D01*
X112942129Y-87958148D01*
X112739531Y-88058058D01*
X112739526Y-88058061D01*
X112735827Y-88059885D01*
X112732394Y-88062179D01*
X112493093Y-88222074D01*
X112493088Y-88222078D01*
X112489662Y-88224367D01*
X112486568Y-88227081D01*
X112486562Y-88227085D01*
X112270162Y-88416864D01*
X112267073Y-88419573D01*
X112264364Y-88422662D01*
X112074585Y-88639062D01*
X112074581Y-88639068D01*
X112071867Y-88642162D01*
X112069578Y-88645588D01*
X112069574Y-88645593D01*
X112035756Y-88696206D01*
X111907385Y-88888327D01*
X111776441Y-89153855D01*
X111775116Y-89157760D01*
X111775115Y-89157761D01*
X111717991Y-89326045D01*
X111681276Y-89434203D01*
X111680472Y-89438247D01*
X111680470Y-89438253D01*
X111642639Y-89628444D01*
X111623517Y-89724574D01*
X111623248Y-89728679D01*
X111623247Y-89728686D01*
X111617442Y-89817255D01*
X111604154Y-90020000D01*
X111000000Y-90020000D01*
X111000000Y-85216695D01*
X115214751Y-85216695D01*
X115227610Y-85439715D01*
X115228747Y-85444761D01*
X115228748Y-85444767D01*
X115252804Y-85551508D01*
X115276722Y-85657639D01*
X115360766Y-85864616D01*
X115477487Y-86055088D01*
X115623750Y-86223938D01*
X115795626Y-86366632D01*
X115988500Y-86479338D01*
X116197192Y-86559030D01*
X116202260Y-86560061D01*
X116202263Y-86560062D01*
X116309517Y-86581883D01*
X116416097Y-86603567D01*
X116421272Y-86603757D01*
X116421274Y-86603757D01*
X116634173Y-86611564D01*
X116634177Y-86611564D01*
X116639337Y-86611753D01*
X116644457Y-86611097D01*
X116644459Y-86611097D01*
X116855788Y-86584025D01*
X116855789Y-86584025D01*
X116860916Y-86583368D01*
X116865866Y-86581883D01*
X117069929Y-86520661D01*
X117069934Y-86520659D01*
X117074884Y-86519174D01*
X117226975Y-86444665D01*
X117296945Y-86432659D01*
X117361986Y-86460255D01*
X117364239Y-86463261D01*
X117480795Y-86550615D01*
X117617184Y-86601745D01*
X117679366Y-86608500D01*
X119475634Y-86608500D01*
X119537816Y-86601745D01*
X119674205Y-86550615D01*
X119790761Y-86463261D01*
X119878115Y-86346705D01*
X119929245Y-86210316D01*
X119936000Y-86148134D01*
X119936000Y-84351866D01*
X119929245Y-84289684D01*
X119878115Y-84153295D01*
X119790761Y-84036739D01*
X119674205Y-83949385D01*
X119665796Y-83946233D01*
X119665795Y-83946232D01*
X119584871Y-83915895D01*
X119528106Y-83873254D01*
X119503406Y-83806692D01*
X119518613Y-83737343D01*
X119540160Y-83708662D01*
X119611935Y-83637137D01*
X119615596Y-83633489D01*
X119675094Y-83550689D01*
X119742935Y-83456277D01*
X119745953Y-83452077D01*
X119790447Y-83362051D01*
X119842636Y-83256453D01*
X119842637Y-83256451D01*
X119844930Y-83251811D01*
X119909870Y-83038069D01*
X119939029Y-82816590D01*
X119940656Y-82750000D01*
X119922352Y-82527361D01*
X119867931Y-82310702D01*
X119778854Y-82105840D01*
X119717356Y-82010778D01*
X119660322Y-81922617D01*
X119660320Y-81922614D01*
X119657514Y-81918277D01*
X119507170Y-81753051D01*
X119503119Y-81749852D01*
X119503115Y-81749848D01*
X119335914Y-81617800D01*
X119335910Y-81617798D01*
X119331859Y-81614598D01*
X119136289Y-81506638D01*
X119131420Y-81504914D01*
X119131416Y-81504912D01*
X119117545Y-81500000D01*
X125586496Y-81500000D01*
X125587186Y-81506565D01*
X125598541Y-81614598D01*
X125606458Y-81689928D01*
X125665473Y-81871556D01*
X125760960Y-82036944D01*
X125765378Y-82041851D01*
X125765379Y-82041852D01*
X125819079Y-82101492D01*
X125888747Y-82178866D01*
X125987843Y-82250864D01*
X126033860Y-82284297D01*
X126043248Y-82291118D01*
X126049276Y-82293802D01*
X126049278Y-82293803D01*
X126130931Y-82330157D01*
X126217712Y-82368794D01*
X126311113Y-82388647D01*
X126398056Y-82407128D01*
X126398061Y-82407128D01*
X126404513Y-82408500D01*
X126460406Y-82408500D01*
X126528527Y-82428502D01*
X126549501Y-82445405D01*
X128996343Y-84892247D01*
X129003887Y-84900537D01*
X129008000Y-84907018D01*
X129013777Y-84912443D01*
X129057667Y-84953658D01*
X129060509Y-84956413D01*
X129080231Y-84976135D01*
X129083373Y-84978572D01*
X129083433Y-84978619D01*
X129092445Y-84986317D01*
X129110911Y-85003657D01*
X129124679Y-85016586D01*
X129131622Y-85020403D01*
X129142431Y-85026345D01*
X129158953Y-85037198D01*
X129174959Y-85049614D01*
X129182237Y-85052764D01*
X129182238Y-85052764D01*
X129215537Y-85067174D01*
X129226187Y-85072391D01*
X129264940Y-85093695D01*
X129272615Y-85095666D01*
X129272616Y-85095666D01*
X129284562Y-85098733D01*
X129303267Y-85105137D01*
X129321855Y-85113181D01*
X129329678Y-85114420D01*
X129329688Y-85114423D01*
X129365524Y-85120099D01*
X129377144Y-85122505D01*
X129412289Y-85131528D01*
X129419970Y-85133500D01*
X129440224Y-85133500D01*
X129459934Y-85135051D01*
X129479943Y-85138220D01*
X129487835Y-85137474D01*
X129523961Y-85134059D01*
X129535819Y-85133500D01*
X131685406Y-85133500D01*
X131753527Y-85153502D01*
X131774501Y-85170405D01*
X136552878Y-89948782D01*
X136586904Y-90011094D01*
X136589092Y-90024703D01*
X136606458Y-90189928D01*
X136665473Y-90371556D01*
X136760960Y-90536944D01*
X136888747Y-90678866D01*
X137043248Y-90791118D01*
X137049276Y-90793802D01*
X137049278Y-90793803D01*
X137209799Y-90865271D01*
X137217712Y-90868794D01*
X137299342Y-90886145D01*
X137398056Y-90907128D01*
X137398061Y-90907128D01*
X137404513Y-90908500D01*
X137595487Y-90908500D01*
X137601939Y-90907128D01*
X137601944Y-90907128D01*
X137700658Y-90886145D01*
X137782288Y-90868794D01*
X137790201Y-90865271D01*
X137950722Y-90793803D01*
X137950724Y-90793802D01*
X137956752Y-90791118D01*
X138111253Y-90678866D01*
X138239040Y-90536944D01*
X138334527Y-90371556D01*
X138393542Y-90189928D01*
X138413504Y-90000000D01*
X138399005Y-89862051D01*
X138394232Y-89816635D01*
X138394232Y-89816633D01*
X138393542Y-89810072D01*
X138334527Y-89628444D01*
X138313990Y-89592872D01*
X138242341Y-89468774D01*
X138239040Y-89463056D01*
X138209538Y-89430290D01*
X138115675Y-89326045D01*
X138115674Y-89326044D01*
X138111253Y-89321134D01*
X137956752Y-89208882D01*
X137950724Y-89206198D01*
X137950722Y-89206197D01*
X137788319Y-89133891D01*
X137788318Y-89133891D01*
X137782288Y-89131206D01*
X137688888Y-89111353D01*
X137601944Y-89092872D01*
X137601939Y-89092872D01*
X137595487Y-89091500D01*
X137539594Y-89091500D01*
X137471473Y-89071498D01*
X137450499Y-89054595D01*
X136895904Y-88500000D01*
X140086496Y-88500000D01*
X140087186Y-88506565D01*
X140101438Y-88642162D01*
X140106458Y-88689928D01*
X140165473Y-88871556D01*
X140260960Y-89036944D01*
X140334137Y-89118215D01*
X140364853Y-89182221D01*
X140366500Y-89202524D01*
X140366500Y-94921233D01*
X140365973Y-94932416D01*
X140364298Y-94939909D01*
X140364547Y-94947835D01*
X140364547Y-94947836D01*
X140366438Y-95007986D01*
X140366500Y-95011945D01*
X140366500Y-95039856D01*
X140366997Y-95043790D01*
X140366997Y-95043791D01*
X140367005Y-95043856D01*
X140367938Y-95055693D01*
X140369327Y-95099889D01*
X140374978Y-95119339D01*
X140378987Y-95138700D01*
X140381526Y-95158797D01*
X140384445Y-95166168D01*
X140384445Y-95166170D01*
X140397804Y-95199912D01*
X140401649Y-95211142D01*
X140411771Y-95245983D01*
X140413982Y-95253593D01*
X140418015Y-95260412D01*
X140418017Y-95260417D01*
X140424293Y-95271028D01*
X140432988Y-95288776D01*
X140440448Y-95307617D01*
X140445110Y-95314033D01*
X140445110Y-95314034D01*
X140466436Y-95343387D01*
X140472952Y-95353307D01*
X140495458Y-95391362D01*
X140509779Y-95405683D01*
X140522619Y-95420716D01*
X140534528Y-95437107D01*
X140540634Y-95442158D01*
X140568605Y-95465298D01*
X140577384Y-95473288D01*
X143052878Y-97948782D01*
X143086904Y-98011094D01*
X143089092Y-98024703D01*
X143106458Y-98189928D01*
X143165473Y-98371556D01*
X143260960Y-98536944D01*
X143388747Y-98678866D01*
X143543248Y-98791118D01*
X143549276Y-98793802D01*
X143549278Y-98793803D01*
X143630931Y-98830157D01*
X143717712Y-98868794D01*
X143811112Y-98888647D01*
X143898056Y-98907128D01*
X143898061Y-98907128D01*
X143904513Y-98908500D01*
X144095487Y-98908500D01*
X144101939Y-98907128D01*
X144101944Y-98907128D01*
X144188888Y-98888647D01*
X144282288Y-98868794D01*
X144369069Y-98830157D01*
X144450722Y-98793803D01*
X144450724Y-98793802D01*
X144456752Y-98791118D01*
X144611253Y-98678866D01*
X144739040Y-98536944D01*
X144834527Y-98371556D01*
X144893542Y-98189928D01*
X144913504Y-98000000D01*
X144899792Y-97869539D01*
X144894232Y-97816635D01*
X144894232Y-97816633D01*
X144893542Y-97810072D01*
X144834527Y-97628444D01*
X144739040Y-97463056D01*
X144716580Y-97438111D01*
X144615675Y-97326045D01*
X144615674Y-97326044D01*
X144611253Y-97321134D01*
X144456752Y-97208882D01*
X144450724Y-97206198D01*
X144450722Y-97206197D01*
X144288319Y-97133891D01*
X144288318Y-97133891D01*
X144282288Y-97131206D01*
X144188888Y-97111353D01*
X144101944Y-97092872D01*
X144101939Y-97092872D01*
X144095487Y-97091500D01*
X144039594Y-97091500D01*
X143971473Y-97071498D01*
X143950499Y-97054595D01*
X141670405Y-94774500D01*
X141636379Y-94712188D01*
X141633500Y-94685405D01*
X141633500Y-94000000D01*
X145586496Y-94000000D01*
X145587186Y-94006565D01*
X145599512Y-94123837D01*
X145606458Y-94189928D01*
X145665473Y-94371556D01*
X145760960Y-94536944D01*
X145765378Y-94541851D01*
X145765379Y-94541852D01*
X145847452Y-94633003D01*
X145888747Y-94678866D01*
X146043248Y-94791118D01*
X146049276Y-94793802D01*
X146049278Y-94793803D01*
X146211681Y-94866109D01*
X146217712Y-94868794D01*
X146311112Y-94888647D01*
X146398056Y-94907128D01*
X146398061Y-94907128D01*
X146404513Y-94908500D01*
X146595487Y-94908500D01*
X146601939Y-94907128D01*
X146601944Y-94907128D01*
X146688887Y-94888647D01*
X146782288Y-94868794D01*
X146788319Y-94866109D01*
X146950722Y-94793803D01*
X146950724Y-94793802D01*
X146956752Y-94791118D01*
X147037294Y-94732601D01*
X147102253Y-94685405D01*
X147111253Y-94678866D01*
X147115668Y-94673963D01*
X147120580Y-94669540D01*
X147121705Y-94670789D01*
X147175014Y-94637949D01*
X147208200Y-94633500D01*
X159921233Y-94633500D01*
X159932416Y-94634027D01*
X159939909Y-94635702D01*
X159947835Y-94635453D01*
X159947836Y-94635453D01*
X160007986Y-94633562D01*
X160011945Y-94633500D01*
X160039856Y-94633500D01*
X160043791Y-94633003D01*
X160043856Y-94632995D01*
X160055693Y-94632062D01*
X160087951Y-94631048D01*
X160091970Y-94630922D01*
X160099889Y-94630673D01*
X160119343Y-94625021D01*
X160138700Y-94621013D01*
X160150930Y-94619468D01*
X160150931Y-94619468D01*
X160158797Y-94618474D01*
X160166168Y-94615555D01*
X160166170Y-94615555D01*
X160199912Y-94602196D01*
X160211142Y-94598351D01*
X160245983Y-94588229D01*
X160245984Y-94588229D01*
X160253593Y-94586018D01*
X160260412Y-94581985D01*
X160260417Y-94581983D01*
X160271028Y-94575707D01*
X160288776Y-94567012D01*
X160307617Y-94559552D01*
X160343387Y-94533564D01*
X160353307Y-94527048D01*
X160384535Y-94508580D01*
X160384538Y-94508578D01*
X160391362Y-94504542D01*
X160405683Y-94490221D01*
X160420717Y-94477380D01*
X160430694Y-94470131D01*
X160437107Y-94465472D01*
X160465298Y-94431395D01*
X160473288Y-94422616D01*
X161450499Y-93445405D01*
X161512811Y-93411379D01*
X161539594Y-93408500D01*
X161595487Y-93408500D01*
X161601939Y-93407128D01*
X161601944Y-93407128D01*
X161688888Y-93388647D01*
X161782288Y-93368794D01*
X161870331Y-93329595D01*
X161950722Y-93293803D01*
X161950724Y-93293802D01*
X161956752Y-93291118D01*
X162111253Y-93178866D01*
X162239040Y-93036944D01*
X162334527Y-92871556D01*
X162393542Y-92689928D01*
X162413504Y-92500000D01*
X162393542Y-92310072D01*
X162334527Y-92128444D01*
X162239040Y-91963056D01*
X162111253Y-91821134D01*
X161956752Y-91708882D01*
X161950724Y-91706198D01*
X161950722Y-91706197D01*
X161788319Y-91633891D01*
X161788318Y-91633891D01*
X161782288Y-91631206D01*
X161688887Y-91611353D01*
X161601944Y-91592872D01*
X161601939Y-91592872D01*
X161595487Y-91591500D01*
X161404513Y-91591500D01*
X161398061Y-91592872D01*
X161398056Y-91592872D01*
X161311113Y-91611353D01*
X161217712Y-91631206D01*
X161211682Y-91633891D01*
X161211681Y-91633891D01*
X161049278Y-91706197D01*
X161049276Y-91706198D01*
X161043248Y-91708882D01*
X160888747Y-91821134D01*
X160760960Y-91963056D01*
X160665473Y-92128444D01*
X160606458Y-92310072D01*
X160605768Y-92316633D01*
X160605768Y-92316635D01*
X160589093Y-92475292D01*
X160562080Y-92540949D01*
X160552878Y-92551217D01*
X159774500Y-93329595D01*
X159712188Y-93363621D01*
X159685405Y-93366500D01*
X147208200Y-93366500D01*
X147140079Y-93346498D01*
X147120853Y-93330157D01*
X147120580Y-93330460D01*
X147115668Y-93326037D01*
X147111253Y-93321134D01*
X146956752Y-93208882D01*
X146950724Y-93206198D01*
X146950722Y-93206197D01*
X146788319Y-93133891D01*
X146788318Y-93133891D01*
X146782288Y-93131206D01*
X146688888Y-93111353D01*
X146601944Y-93092872D01*
X146601939Y-93092872D01*
X146595487Y-93091500D01*
X146404513Y-93091500D01*
X146398061Y-93092872D01*
X146398056Y-93092872D01*
X146311112Y-93111353D01*
X146217712Y-93131206D01*
X146211682Y-93133891D01*
X146211681Y-93133891D01*
X146049278Y-93206197D01*
X146049276Y-93206198D01*
X146043248Y-93208882D01*
X145888747Y-93321134D01*
X145884326Y-93326044D01*
X145884325Y-93326045D01*
X145850492Y-93363621D01*
X145760960Y-93463056D01*
X145665473Y-93628444D01*
X145606458Y-93810072D01*
X145586496Y-94000000D01*
X141633500Y-94000000D01*
X141633500Y-90500000D01*
X150586496Y-90500000D01*
X150587186Y-90506565D01*
X150597616Y-90605797D01*
X150606458Y-90689928D01*
X150665473Y-90871556D01*
X150668776Y-90877278D01*
X150668777Y-90877279D01*
X150686803Y-90908500D01*
X150760960Y-91036944D01*
X150888747Y-91178866D01*
X151043248Y-91291118D01*
X151049276Y-91293802D01*
X151049278Y-91293803D01*
X151211681Y-91366109D01*
X151217712Y-91368794D01*
X151311113Y-91388647D01*
X151398056Y-91407128D01*
X151398061Y-91407128D01*
X151404513Y-91408500D01*
X151595487Y-91408500D01*
X151601939Y-91407128D01*
X151601944Y-91407128D01*
X151688887Y-91388647D01*
X151782288Y-91368794D01*
X151788319Y-91366109D01*
X151950722Y-91293803D01*
X151950724Y-91293802D01*
X151956752Y-91291118D01*
X152111253Y-91178866D01*
X152115668Y-91173963D01*
X152120580Y-91169540D01*
X152121705Y-91170789D01*
X152175014Y-91137949D01*
X152208200Y-91133500D01*
X156291800Y-91133500D01*
X156359921Y-91153502D01*
X156379147Y-91169843D01*
X156379420Y-91169540D01*
X156384332Y-91173963D01*
X156388747Y-91178866D01*
X156543248Y-91291118D01*
X156549276Y-91293802D01*
X156549278Y-91293803D01*
X156711681Y-91366109D01*
X156717712Y-91368794D01*
X156811113Y-91388647D01*
X156898056Y-91407128D01*
X156898061Y-91407128D01*
X156904513Y-91408500D01*
X157095487Y-91408500D01*
X157101939Y-91407128D01*
X157101944Y-91407128D01*
X157188887Y-91388647D01*
X157282288Y-91368794D01*
X157288319Y-91366109D01*
X157450722Y-91293803D01*
X157450724Y-91293802D01*
X157456752Y-91291118D01*
X157611253Y-91178866D01*
X157739040Y-91036944D01*
X157813197Y-90908500D01*
X157831223Y-90877279D01*
X157831224Y-90877278D01*
X157834527Y-90871556D01*
X157893542Y-90689928D01*
X157902385Y-90605797D01*
X157912814Y-90506565D01*
X157913504Y-90500000D01*
X157893542Y-90310072D01*
X157834527Y-90128444D01*
X157739040Y-89963056D01*
X157611253Y-89821134D01*
X157456752Y-89708882D01*
X157450724Y-89706198D01*
X157450722Y-89706197D01*
X157288319Y-89633891D01*
X157288318Y-89633891D01*
X157282288Y-89631206D01*
X157188887Y-89611353D01*
X157101944Y-89592872D01*
X157101939Y-89592872D01*
X157095487Y-89591500D01*
X156904513Y-89591500D01*
X156898061Y-89592872D01*
X156898056Y-89592872D01*
X156811112Y-89611353D01*
X156717712Y-89631206D01*
X156711682Y-89633891D01*
X156711681Y-89633891D01*
X156549278Y-89706197D01*
X156549276Y-89706198D01*
X156543248Y-89708882D01*
X156388747Y-89821134D01*
X156384332Y-89826037D01*
X156379420Y-89830460D01*
X156378295Y-89829211D01*
X156324986Y-89862051D01*
X156291800Y-89866500D01*
X152208200Y-89866500D01*
X152140079Y-89846498D01*
X152120853Y-89830157D01*
X152120580Y-89830460D01*
X152115668Y-89826037D01*
X152111253Y-89821134D01*
X151956752Y-89708882D01*
X151950724Y-89706198D01*
X151950722Y-89706197D01*
X151788319Y-89633891D01*
X151788318Y-89633891D01*
X151782288Y-89631206D01*
X151688887Y-89611353D01*
X151601944Y-89592872D01*
X151601939Y-89592872D01*
X151595487Y-89591500D01*
X151404513Y-89591500D01*
X151398061Y-89592872D01*
X151398056Y-89592872D01*
X151311112Y-89611353D01*
X151217712Y-89631206D01*
X151211682Y-89633891D01*
X151211681Y-89633891D01*
X151049278Y-89706197D01*
X151049276Y-89706198D01*
X151043248Y-89708882D01*
X150888747Y-89821134D01*
X150760960Y-89963056D01*
X150665473Y-90128444D01*
X150606458Y-90310072D01*
X150586496Y-90500000D01*
X141633500Y-90500000D01*
X141633500Y-89202524D01*
X141653502Y-89134403D01*
X141665858Y-89118221D01*
X141739040Y-89036944D01*
X141834527Y-88871556D01*
X141893542Y-88689928D01*
X141898563Y-88642162D01*
X141912814Y-88506565D01*
X141913504Y-88500000D01*
X141893542Y-88310072D01*
X141834527Y-88128444D01*
X141739040Y-87963056D01*
X141611253Y-87821134D01*
X141456752Y-87708882D01*
X141450724Y-87706198D01*
X141450722Y-87706197D01*
X141288319Y-87633891D01*
X141288318Y-87633891D01*
X141282288Y-87631206D01*
X141188887Y-87611353D01*
X141101944Y-87592872D01*
X141101939Y-87592872D01*
X141095487Y-87591500D01*
X140904513Y-87591500D01*
X140898061Y-87592872D01*
X140898056Y-87592872D01*
X140811112Y-87611353D01*
X140717712Y-87631206D01*
X140711682Y-87633891D01*
X140711681Y-87633891D01*
X140549278Y-87706197D01*
X140549276Y-87706198D01*
X140543248Y-87708882D01*
X140388747Y-87821134D01*
X140260960Y-87963056D01*
X140165473Y-88128444D01*
X140106458Y-88310072D01*
X140086496Y-88500000D01*
X136895904Y-88500000D01*
X134979930Y-86584025D01*
X132503652Y-84107747D01*
X132496112Y-84099461D01*
X132492000Y-84092982D01*
X132442348Y-84046356D01*
X132439507Y-84043602D01*
X132419770Y-84023865D01*
X132416573Y-84021385D01*
X132407551Y-84013680D01*
X132381100Y-83988841D01*
X132375321Y-83983414D01*
X132368375Y-83979595D01*
X132368372Y-83979593D01*
X132357566Y-83973652D01*
X132341047Y-83962801D01*
X132340583Y-83962441D01*
X132325041Y-83950386D01*
X132317772Y-83947241D01*
X132317768Y-83947238D01*
X132284463Y-83932826D01*
X132273813Y-83927609D01*
X132235060Y-83906305D01*
X132215437Y-83901267D01*
X132196734Y-83894863D01*
X132185420Y-83889967D01*
X132185419Y-83889967D01*
X132178145Y-83886819D01*
X132170322Y-83885580D01*
X132170312Y-83885577D01*
X132134476Y-83879901D01*
X132122856Y-83877495D01*
X132087711Y-83868472D01*
X132087710Y-83868472D01*
X132080030Y-83866500D01*
X132059776Y-83866500D01*
X132040065Y-83864949D01*
X132027886Y-83863020D01*
X132020057Y-83861780D01*
X132012165Y-83862526D01*
X131976039Y-83865941D01*
X131964181Y-83866500D01*
X129814594Y-83866500D01*
X129746473Y-83846498D01*
X129725499Y-83829595D01*
X127447122Y-81551217D01*
X127419155Y-81500000D01*
X145586496Y-81500000D01*
X145587186Y-81506565D01*
X145598541Y-81614598D01*
X145606458Y-81689928D01*
X145665473Y-81871556D01*
X145760960Y-82036944D01*
X145765378Y-82041851D01*
X145765379Y-82041852D01*
X145819079Y-82101492D01*
X145888747Y-82178866D01*
X145987843Y-82250864D01*
X146033860Y-82284297D01*
X146043248Y-82291118D01*
X146049276Y-82293802D01*
X146049278Y-82293803D01*
X146167571Y-82346470D01*
X146221667Y-82392450D01*
X146242316Y-82460377D01*
X146225441Y-82524576D01*
X146165473Y-82628444D01*
X146106458Y-82810072D01*
X146086496Y-83000000D01*
X146106458Y-83189928D01*
X146165473Y-83371556D01*
X146260960Y-83536944D01*
X146388747Y-83678866D01*
X146543248Y-83791118D01*
X146549276Y-83793802D01*
X146549278Y-83793803D01*
X146709076Y-83864949D01*
X146717712Y-83868794D01*
X146811113Y-83888647D01*
X146898056Y-83907128D01*
X146898061Y-83907128D01*
X146904513Y-83908500D01*
X147095487Y-83908500D01*
X147101939Y-83907128D01*
X147101944Y-83907128D01*
X147188888Y-83888647D01*
X147282288Y-83868794D01*
X147290924Y-83864949D01*
X147450722Y-83793803D01*
X147450724Y-83793802D01*
X147456752Y-83791118D01*
X147554595Y-83720031D01*
X147589671Y-83694546D01*
X147611253Y-83678866D01*
X147615668Y-83673963D01*
X147620580Y-83669540D01*
X147621705Y-83670789D01*
X147675014Y-83637949D01*
X147708200Y-83633500D01*
X155291800Y-83633500D01*
X155359921Y-83653502D01*
X155379147Y-83669843D01*
X155379420Y-83669540D01*
X155384332Y-83673963D01*
X155388747Y-83678866D01*
X155410329Y-83694546D01*
X155445406Y-83720031D01*
X155543248Y-83791118D01*
X155549276Y-83793802D01*
X155549278Y-83793803D01*
X155709076Y-83864949D01*
X155717712Y-83868794D01*
X155811113Y-83888647D01*
X155898056Y-83907128D01*
X155898061Y-83907128D01*
X155904513Y-83908500D01*
X156095487Y-83908500D01*
X156101939Y-83907128D01*
X156101944Y-83907128D01*
X156188888Y-83888647D01*
X156282288Y-83868794D01*
X156290924Y-83864949D01*
X156450722Y-83793803D01*
X156450724Y-83793802D01*
X156456752Y-83791118D01*
X156611253Y-83678866D01*
X156739040Y-83536944D01*
X156834527Y-83371556D01*
X156893542Y-83189928D01*
X156904018Y-83090251D01*
X156931031Y-83024595D01*
X156989252Y-82983965D01*
X157060198Y-82981262D01*
X157118423Y-83014327D01*
X158496343Y-84392247D01*
X158503887Y-84400537D01*
X158508000Y-84407018D01*
X158513777Y-84412443D01*
X158557667Y-84453658D01*
X158560509Y-84456413D01*
X158580230Y-84476134D01*
X158583425Y-84478612D01*
X158592447Y-84486318D01*
X158624679Y-84516586D01*
X158631628Y-84520406D01*
X158642432Y-84526346D01*
X158658956Y-84537199D01*
X158674959Y-84549613D01*
X158715543Y-84567176D01*
X158726173Y-84572383D01*
X158764940Y-84593695D01*
X158772617Y-84595666D01*
X158772622Y-84595668D01*
X158784558Y-84598732D01*
X158803266Y-84605137D01*
X158821855Y-84613181D01*
X158829680Y-84614420D01*
X158829682Y-84614421D01*
X158865519Y-84620097D01*
X158877140Y-84622504D01*
X158912289Y-84631528D01*
X158919970Y-84633500D01*
X158940231Y-84633500D01*
X158959940Y-84635051D01*
X158979943Y-84638219D01*
X158987835Y-84637473D01*
X158993062Y-84636979D01*
X159023954Y-84634059D01*
X159035811Y-84633500D01*
X164291800Y-84633500D01*
X164359921Y-84653502D01*
X164379147Y-84669843D01*
X164379420Y-84669540D01*
X164384332Y-84673963D01*
X164388747Y-84678866D01*
X164397764Y-84685417D01*
X164533860Y-84784297D01*
X164543248Y-84791118D01*
X164549276Y-84793802D01*
X164549278Y-84793803D01*
X164711681Y-84866109D01*
X164717712Y-84868794D01*
X164775612Y-84881101D01*
X164898056Y-84907128D01*
X164898061Y-84907128D01*
X164904513Y-84908500D01*
X165095487Y-84908500D01*
X165101939Y-84907128D01*
X165101944Y-84907128D01*
X165224388Y-84881101D01*
X165282288Y-84868794D01*
X165288319Y-84866109D01*
X165450722Y-84793803D01*
X165450724Y-84793802D01*
X165456752Y-84791118D01*
X165466141Y-84784297D01*
X165544482Y-84727378D01*
X165611253Y-84678866D01*
X165647852Y-84638219D01*
X165734621Y-84541852D01*
X165734622Y-84541851D01*
X165739040Y-84536944D01*
X165814053Y-84407018D01*
X165831223Y-84377279D01*
X165831224Y-84377278D01*
X165834527Y-84371556D01*
X165893542Y-84189928D01*
X165902180Y-84107747D01*
X165912814Y-84006565D01*
X165913504Y-84000000D01*
X165904664Y-83915895D01*
X165894232Y-83816635D01*
X165894232Y-83816633D01*
X165893542Y-83810072D01*
X165834527Y-83628444D01*
X165739040Y-83463056D01*
X165729155Y-83452077D01*
X165615675Y-83326045D01*
X165615674Y-83326044D01*
X165611253Y-83321134D01*
X165456752Y-83208882D01*
X165450724Y-83206198D01*
X165450722Y-83206197D01*
X165288319Y-83133891D01*
X165288318Y-83133891D01*
X165282288Y-83131206D01*
X165188888Y-83111353D01*
X165101944Y-83092872D01*
X165101939Y-83092872D01*
X165095487Y-83091500D01*
X164904513Y-83091500D01*
X164898061Y-83092872D01*
X164898056Y-83092872D01*
X164811112Y-83111353D01*
X164717712Y-83131206D01*
X164711682Y-83133891D01*
X164711681Y-83133891D01*
X164549278Y-83206197D01*
X164549276Y-83206198D01*
X164543248Y-83208882D01*
X164537907Y-83212762D01*
X164537906Y-83212763D01*
X164477772Y-83256453D01*
X164388747Y-83321134D01*
X164384332Y-83326037D01*
X164379420Y-83330460D01*
X164378295Y-83329211D01*
X164324986Y-83362051D01*
X164291800Y-83366500D01*
X159314595Y-83366500D01*
X159246474Y-83346498D01*
X159225500Y-83329595D01*
X158895905Y-83000000D01*
X166086496Y-83000000D01*
X166106458Y-83189928D01*
X166165473Y-83371556D01*
X166260960Y-83536944D01*
X166388747Y-83678866D01*
X166543248Y-83791118D01*
X166549276Y-83793802D01*
X166549278Y-83793803D01*
X166709076Y-83864949D01*
X166717712Y-83868794D01*
X166811113Y-83888647D01*
X166898056Y-83907128D01*
X166898061Y-83907128D01*
X166904513Y-83908500D01*
X167095487Y-83908500D01*
X167101939Y-83907128D01*
X167101944Y-83907128D01*
X167188888Y-83888647D01*
X167282288Y-83868794D01*
X167290924Y-83864949D01*
X167450722Y-83793803D01*
X167450724Y-83793802D01*
X167456752Y-83791118D01*
X167554595Y-83720031D01*
X167589671Y-83694546D01*
X167611253Y-83678866D01*
X167615668Y-83673963D01*
X167620580Y-83669540D01*
X167621705Y-83670789D01*
X167675014Y-83637949D01*
X167708200Y-83633500D01*
X171291800Y-83633500D01*
X171359921Y-83653502D01*
X171379147Y-83669843D01*
X171379420Y-83669540D01*
X171384332Y-83673963D01*
X171388747Y-83678866D01*
X171410329Y-83694546D01*
X171445406Y-83720031D01*
X171543248Y-83791118D01*
X171549276Y-83793802D01*
X171549278Y-83793803D01*
X171709076Y-83864949D01*
X171717712Y-83868794D01*
X171811113Y-83888647D01*
X171898056Y-83907128D01*
X171898061Y-83907128D01*
X171904513Y-83908500D01*
X172095487Y-83908500D01*
X172101939Y-83907128D01*
X172101944Y-83907128D01*
X172188888Y-83888647D01*
X172282288Y-83868794D01*
X172290924Y-83864949D01*
X172450722Y-83793803D01*
X172450724Y-83793802D01*
X172456752Y-83791118D01*
X172611253Y-83678866D01*
X172739040Y-83536944D01*
X172834527Y-83371556D01*
X172893542Y-83189928D01*
X172913504Y-83000000D01*
X172893542Y-82810072D01*
X172834527Y-82628444D01*
X172739040Y-82463056D01*
X172707928Y-82428502D01*
X172615675Y-82326045D01*
X172615674Y-82326044D01*
X172611253Y-82321134D01*
X172456752Y-82208882D01*
X172450724Y-82206198D01*
X172450722Y-82206197D01*
X172288319Y-82133891D01*
X172288318Y-82133891D01*
X172282288Y-82131206D01*
X172185298Y-82110590D01*
X172101944Y-82092872D01*
X172101939Y-82092872D01*
X172095487Y-82091500D01*
X171904513Y-82091500D01*
X171898061Y-82092872D01*
X171898056Y-82092872D01*
X171814702Y-82110590D01*
X171717712Y-82131206D01*
X171711682Y-82133891D01*
X171711681Y-82133891D01*
X171549278Y-82206197D01*
X171549276Y-82206198D01*
X171543248Y-82208882D01*
X171537907Y-82212762D01*
X171537906Y-82212763D01*
X171446319Y-82279305D01*
X171388747Y-82321134D01*
X171384332Y-82326037D01*
X171379420Y-82330460D01*
X171378295Y-82329211D01*
X171324986Y-82362051D01*
X171291800Y-82366500D01*
X167708200Y-82366500D01*
X167640079Y-82346498D01*
X167620853Y-82330157D01*
X167620580Y-82330460D01*
X167615668Y-82326037D01*
X167611253Y-82321134D01*
X167553681Y-82279305D01*
X167462094Y-82212763D01*
X167462093Y-82212762D01*
X167456752Y-82208882D01*
X167450724Y-82206198D01*
X167450722Y-82206197D01*
X167288319Y-82133891D01*
X167288318Y-82133891D01*
X167282288Y-82131206D01*
X167185298Y-82110590D01*
X167101944Y-82092872D01*
X167101939Y-82092872D01*
X167095487Y-82091500D01*
X166904513Y-82091500D01*
X166898061Y-82092872D01*
X166898056Y-82092872D01*
X166814702Y-82110590D01*
X166717712Y-82131206D01*
X166711682Y-82133891D01*
X166711681Y-82133891D01*
X166549278Y-82206197D01*
X166549276Y-82206198D01*
X166543248Y-82208882D01*
X166388747Y-82321134D01*
X166384326Y-82326044D01*
X166384325Y-82326045D01*
X166292073Y-82428502D01*
X166260960Y-82463056D01*
X166165473Y-82628444D01*
X166106458Y-82810072D01*
X166086496Y-83000000D01*
X158895905Y-83000000D01*
X156447122Y-80551217D01*
X156413096Y-80488905D01*
X156410907Y-80475292D01*
X156408472Y-80452119D01*
X156393542Y-80310072D01*
X156334527Y-80128444D01*
X156239040Y-79963056D01*
X156218384Y-79940115D01*
X156131671Y-79843810D01*
X156100953Y-79779803D01*
X156109718Y-79709349D01*
X156155181Y-79654818D01*
X156225307Y-79633500D01*
X163791800Y-79633500D01*
X163859921Y-79653502D01*
X163879147Y-79669843D01*
X163879420Y-79669540D01*
X163884332Y-79673963D01*
X163888747Y-79678866D01*
X164043248Y-79791118D01*
X164049276Y-79793802D01*
X164049278Y-79793803D01*
X164205199Y-79863223D01*
X164217712Y-79868794D01*
X164311113Y-79888647D01*
X164398056Y-79907128D01*
X164398061Y-79907128D01*
X164404513Y-79908500D01*
X164595487Y-79908500D01*
X164601939Y-79907128D01*
X164601944Y-79907128D01*
X164688887Y-79888647D01*
X164782288Y-79868794D01*
X164794801Y-79863223D01*
X164950722Y-79793803D01*
X164950724Y-79793802D01*
X164956752Y-79791118D01*
X165111253Y-79678866D01*
X165239040Y-79536944D01*
X165313197Y-79408500D01*
X165331223Y-79377279D01*
X165331224Y-79377278D01*
X165334527Y-79371556D01*
X165393542Y-79189928D01*
X165413504Y-79000000D01*
X165407019Y-78938297D01*
X165394232Y-78816635D01*
X165394232Y-78816633D01*
X165393542Y-78810072D01*
X165334527Y-78628444D01*
X165239040Y-78463056D01*
X165111253Y-78321134D01*
X164956752Y-78208882D01*
X164950724Y-78206198D01*
X164950722Y-78206197D01*
X164788319Y-78133891D01*
X164788318Y-78133891D01*
X164782288Y-78131206D01*
X164688888Y-78111353D01*
X164601944Y-78092872D01*
X164601939Y-78092872D01*
X164595487Y-78091500D01*
X164404513Y-78091500D01*
X164398061Y-78092872D01*
X164398056Y-78092872D01*
X164311112Y-78111353D01*
X164217712Y-78131206D01*
X164211682Y-78133891D01*
X164211681Y-78133891D01*
X164049278Y-78206197D01*
X164049276Y-78206198D01*
X164043248Y-78208882D01*
X163888747Y-78321134D01*
X163884332Y-78326037D01*
X163879420Y-78330460D01*
X163878295Y-78329211D01*
X163824986Y-78362051D01*
X163791800Y-78366500D01*
X149208200Y-78366500D01*
X149140079Y-78346498D01*
X149120853Y-78330157D01*
X149120580Y-78330460D01*
X149115668Y-78326037D01*
X149111253Y-78321134D01*
X148956752Y-78208882D01*
X148950724Y-78206198D01*
X148950722Y-78206197D01*
X148788319Y-78133891D01*
X148788318Y-78133891D01*
X148782288Y-78131206D01*
X148688888Y-78111353D01*
X148601944Y-78092872D01*
X148601939Y-78092872D01*
X148595487Y-78091500D01*
X148404513Y-78091500D01*
X148398061Y-78092872D01*
X148398056Y-78092872D01*
X148311112Y-78111353D01*
X148217712Y-78131206D01*
X148211682Y-78133891D01*
X148211681Y-78133891D01*
X148049278Y-78206197D01*
X148049276Y-78206198D01*
X148043248Y-78208882D01*
X147888747Y-78321134D01*
X147760960Y-78463056D01*
X147665473Y-78628444D01*
X147606458Y-78810072D01*
X147605768Y-78816633D01*
X147605768Y-78816635D01*
X147592981Y-78938297D01*
X147586496Y-79000000D01*
X147606458Y-79189928D01*
X147665473Y-79371556D01*
X147668776Y-79377278D01*
X147668777Y-79377279D01*
X147686803Y-79408500D01*
X147760960Y-79536944D01*
X147888747Y-79678866D01*
X148043248Y-79791118D01*
X148049276Y-79793802D01*
X148049278Y-79793803D01*
X148205199Y-79863223D01*
X148217712Y-79868794D01*
X148311113Y-79888647D01*
X148398056Y-79907128D01*
X148398061Y-79907128D01*
X148404513Y-79908500D01*
X148595487Y-79908500D01*
X148601939Y-79907128D01*
X148601944Y-79907128D01*
X148688887Y-79888647D01*
X148782288Y-79868794D01*
X148794801Y-79863223D01*
X148950722Y-79793803D01*
X148950724Y-79793802D01*
X148956752Y-79791118D01*
X149111253Y-79678866D01*
X149115668Y-79673963D01*
X149120580Y-79669540D01*
X149121705Y-79670789D01*
X149175014Y-79637949D01*
X149208200Y-79633500D01*
X154774693Y-79633500D01*
X154842814Y-79653502D01*
X154889307Y-79707158D01*
X154899411Y-79777432D01*
X154868329Y-79843810D01*
X154781616Y-79940115D01*
X154760960Y-79963056D01*
X154665473Y-80128444D01*
X154606458Y-80310072D01*
X154605768Y-80316633D01*
X154605768Y-80316635D01*
X154589093Y-80475292D01*
X154586496Y-80500000D01*
X154587186Y-80506565D01*
X154587186Y-80506567D01*
X154593085Y-80562697D01*
X154580312Y-80632535D01*
X154531810Y-80684381D01*
X154462977Y-80701775D01*
X154416529Y-80690974D01*
X154282288Y-80631206D01*
X154188887Y-80611353D01*
X154101944Y-80592872D01*
X154101939Y-80592872D01*
X154095487Y-80591500D01*
X153904513Y-80591500D01*
X153898061Y-80592872D01*
X153898056Y-80592872D01*
X153811113Y-80611353D01*
X153717712Y-80631206D01*
X153711682Y-80633891D01*
X153711681Y-80633891D01*
X153549278Y-80706197D01*
X153549276Y-80706198D01*
X153543248Y-80708882D01*
X153388747Y-80821134D01*
X153384332Y-80826037D01*
X153379420Y-80830460D01*
X153378295Y-80829211D01*
X153324986Y-80862051D01*
X153291800Y-80866500D01*
X147208200Y-80866500D01*
X147140079Y-80846498D01*
X147120853Y-80830157D01*
X147120580Y-80830460D01*
X147115668Y-80826037D01*
X147111253Y-80821134D01*
X146956752Y-80708882D01*
X146950724Y-80706198D01*
X146950722Y-80706197D01*
X146788319Y-80633891D01*
X146788318Y-80633891D01*
X146782288Y-80631206D01*
X146688887Y-80611353D01*
X146601944Y-80592872D01*
X146601939Y-80592872D01*
X146595487Y-80591500D01*
X146404513Y-80591500D01*
X146398061Y-80592872D01*
X146398056Y-80592872D01*
X146311113Y-80611353D01*
X146217712Y-80631206D01*
X146211682Y-80633891D01*
X146211681Y-80633891D01*
X146049278Y-80706197D01*
X146049276Y-80706198D01*
X146043248Y-80708882D01*
X145888747Y-80821134D01*
X145760960Y-80963056D01*
X145665473Y-81128444D01*
X145606458Y-81310072D01*
X145605768Y-81316633D01*
X145605768Y-81316635D01*
X145594320Y-81425562D01*
X145586496Y-81500000D01*
X127419155Y-81500000D01*
X127413096Y-81488905D01*
X127410907Y-81475292D01*
X127394232Y-81316635D01*
X127394232Y-81316633D01*
X127393542Y-81310072D01*
X127334527Y-81128444D01*
X127239040Y-80963056D01*
X127111253Y-80821134D01*
X126956752Y-80708882D01*
X126950724Y-80706198D01*
X126950722Y-80706197D01*
X126788319Y-80633891D01*
X126788318Y-80633891D01*
X126782288Y-80631206D01*
X126688887Y-80611353D01*
X126601944Y-80592872D01*
X126601939Y-80592872D01*
X126595487Y-80591500D01*
X126404513Y-80591500D01*
X126398061Y-80592872D01*
X126398056Y-80592872D01*
X126311113Y-80611353D01*
X126217712Y-80631206D01*
X126211682Y-80633891D01*
X126211681Y-80633891D01*
X126049278Y-80706197D01*
X126049276Y-80706198D01*
X126043248Y-80708882D01*
X125888747Y-80821134D01*
X125760960Y-80963056D01*
X125665473Y-81128444D01*
X125606458Y-81310072D01*
X125605768Y-81316633D01*
X125605768Y-81316635D01*
X125594320Y-81425562D01*
X125586496Y-81500000D01*
X119117545Y-81500000D01*
X118930587Y-81433795D01*
X118930583Y-81433794D01*
X118925712Y-81432069D01*
X118920619Y-81431162D01*
X118920616Y-81431161D01*
X118710873Y-81393800D01*
X118710867Y-81393799D01*
X118705784Y-81392894D01*
X118631952Y-81391992D01*
X118487581Y-81390228D01*
X118487579Y-81390228D01*
X118482411Y-81390165D01*
X118261591Y-81423955D01*
X118049256Y-81493357D01*
X117851107Y-81596507D01*
X117846974Y-81599610D01*
X117846971Y-81599612D01*
X117718320Y-81696206D01*
X117672465Y-81730635D01*
X117668893Y-81734373D01*
X117668374Y-81734916D01*
X117668110Y-81735068D01*
X117665025Y-81737807D01*
X117664460Y-81737170D01*
X117606850Y-81770346D01*
X117535937Y-81766889D01*
X117499188Y-81746747D01*
X117335914Y-81617800D01*
X117335910Y-81617798D01*
X117331859Y-81614598D01*
X117136289Y-81506638D01*
X117131420Y-81504914D01*
X117131416Y-81504912D01*
X116930587Y-81433795D01*
X116930583Y-81433794D01*
X116925712Y-81432069D01*
X116920619Y-81431162D01*
X116920616Y-81431161D01*
X116710873Y-81393800D01*
X116710867Y-81393799D01*
X116705784Y-81392894D01*
X116631952Y-81391992D01*
X116487581Y-81390228D01*
X116487579Y-81390228D01*
X116482411Y-81390165D01*
X116261591Y-81423955D01*
X116049256Y-81493357D01*
X115851107Y-81596507D01*
X115846974Y-81599610D01*
X115846971Y-81599612D01*
X115718320Y-81696206D01*
X115672465Y-81730635D01*
X115668893Y-81734373D01*
X115532329Y-81877279D01*
X115518129Y-81892138D01*
X115392243Y-82076680D01*
X115298188Y-82279305D01*
X115238489Y-82494570D01*
X115214751Y-82716695D01*
X115215048Y-82721848D01*
X115215048Y-82721851D01*
X115220511Y-82816590D01*
X115227610Y-82939715D01*
X115228747Y-82944761D01*
X115228748Y-82944767D01*
X115244425Y-83014327D01*
X115276722Y-83157639D01*
X115314961Y-83251811D01*
X115346546Y-83329595D01*
X115360766Y-83364616D01*
X115477487Y-83555088D01*
X115623750Y-83723938D01*
X115795626Y-83866632D01*
X115828047Y-83885577D01*
X115835255Y-83889789D01*
X115883979Y-83941427D01*
X115897050Y-84011210D01*
X115870319Y-84076982D01*
X115847338Y-84099337D01*
X115726682Y-84189928D01*
X115672465Y-84230635D01*
X115668893Y-84234373D01*
X115532329Y-84377279D01*
X115518129Y-84392138D01*
X115515215Y-84396410D01*
X115515214Y-84396411D01*
X115468979Y-84464189D01*
X115392243Y-84576680D01*
X115370972Y-84622504D01*
X115322292Y-84727378D01*
X115298188Y-84779305D01*
X115238489Y-84994570D01*
X115214751Y-85216695D01*
X111000000Y-85216695D01*
X111000000Y-77980000D01*
X111604154Y-77980000D01*
X111604424Y-77984119D01*
X111619156Y-78208882D01*
X111623517Y-78275426D01*
X111624319Y-78279459D01*
X111624320Y-78279465D01*
X111680470Y-78561747D01*
X111681276Y-78565797D01*
X111682603Y-78569706D01*
X111682604Y-78569710D01*
X111753587Y-78778819D01*
X111776441Y-78846145D01*
X111907385Y-79111673D01*
X112071867Y-79357838D01*
X112074581Y-79360932D01*
X112074585Y-79360938D01*
X112264364Y-79577338D01*
X112267073Y-79580427D01*
X112270162Y-79583136D01*
X112486562Y-79772915D01*
X112486568Y-79772919D01*
X112489662Y-79775633D01*
X112493088Y-79777922D01*
X112493093Y-79777926D01*
X112628653Y-79868504D01*
X112735827Y-79940115D01*
X112739526Y-79941939D01*
X112739531Y-79941942D01*
X112864876Y-80003755D01*
X113001355Y-80071059D01*
X113005260Y-80072384D01*
X113005261Y-80072385D01*
X113277790Y-80164896D01*
X113277794Y-80164897D01*
X113281703Y-80166224D01*
X113285747Y-80167028D01*
X113285753Y-80167030D01*
X113568035Y-80223180D01*
X113568041Y-80223181D01*
X113572074Y-80223983D01*
X113576179Y-80224252D01*
X113576186Y-80224253D01*
X113863381Y-80243076D01*
X113867500Y-80243346D01*
X113871619Y-80243076D01*
X114158814Y-80224253D01*
X114158821Y-80224252D01*
X114162926Y-80223983D01*
X114166959Y-80223181D01*
X114166965Y-80223180D01*
X114449247Y-80167030D01*
X114449253Y-80167028D01*
X114453297Y-80166224D01*
X114457206Y-80164897D01*
X114457210Y-80164896D01*
X114729739Y-80072385D01*
X114729740Y-80072384D01*
X114733645Y-80071059D01*
X114870124Y-80003755D01*
X114995469Y-79941942D01*
X114995474Y-79941939D01*
X114999173Y-79940115D01*
X115106347Y-79868504D01*
X115241907Y-79777926D01*
X115241912Y-79777922D01*
X115245338Y-79775633D01*
X115248432Y-79772919D01*
X115248438Y-79772915D01*
X115464838Y-79583136D01*
X115467927Y-79580427D01*
X115470636Y-79577338D01*
X115660415Y-79360938D01*
X115660419Y-79360932D01*
X115663133Y-79357838D01*
X115827615Y-79111673D01*
X115958559Y-78846145D01*
X115981413Y-78778819D01*
X116052396Y-78569710D01*
X116052397Y-78569706D01*
X116053724Y-78565797D01*
X116054530Y-78561747D01*
X116066812Y-78500000D01*
X120086496Y-78500000D01*
X120087186Y-78506565D01*
X120104003Y-78666567D01*
X120106458Y-78689928D01*
X120165473Y-78871556D01*
X120260960Y-79036944D01*
X120388747Y-79178866D01*
X120543248Y-79291118D01*
X120549276Y-79293802D01*
X120549278Y-79293803D01*
X120685398Y-79354407D01*
X120717712Y-79368794D01*
X120811113Y-79388647D01*
X120898056Y-79407128D01*
X120898061Y-79407128D01*
X120904513Y-79408500D01*
X121095487Y-79408500D01*
X121101939Y-79407128D01*
X121101944Y-79407128D01*
X121188887Y-79388647D01*
X121282288Y-79368794D01*
X121314602Y-79354407D01*
X121450722Y-79293803D01*
X121450724Y-79293802D01*
X121456752Y-79291118D01*
X121611253Y-79178866D01*
X121739040Y-79036944D01*
X121834527Y-78871556D01*
X121893542Y-78689928D01*
X121896514Y-78661656D01*
X121906177Y-78569710D01*
X121910907Y-78524706D01*
X121937920Y-78459050D01*
X121947122Y-78448782D01*
X122950500Y-77445405D01*
X123012812Y-77411379D01*
X123039595Y-77408500D01*
X123095487Y-77408500D01*
X123101939Y-77407128D01*
X123101944Y-77407128D01*
X123188887Y-77388647D01*
X123282288Y-77368794D01*
X123288319Y-77366109D01*
X123450722Y-77293803D01*
X123450724Y-77293802D01*
X123456752Y-77291118D01*
X123611253Y-77178866D01*
X123739040Y-77036944D01*
X123834527Y-76871556D01*
X123893542Y-76689928D01*
X123899268Y-76635453D01*
X123912814Y-76506565D01*
X123913504Y-76500000D01*
X123911256Y-76478608D01*
X123894232Y-76316635D01*
X123894232Y-76316633D01*
X123893542Y-76310072D01*
X123834527Y-76128444D01*
X123739040Y-75963056D01*
X123611253Y-75821134D01*
X123456752Y-75708882D01*
X123450724Y-75706198D01*
X123450722Y-75706197D01*
X123288319Y-75633891D01*
X123288318Y-75633891D01*
X123282288Y-75631206D01*
X123188888Y-75611353D01*
X123101944Y-75592872D01*
X123101939Y-75592872D01*
X123095487Y-75591500D01*
X122904513Y-75591500D01*
X122898061Y-75592872D01*
X122898056Y-75592872D01*
X122811112Y-75611353D01*
X122717712Y-75631206D01*
X122711682Y-75633891D01*
X122711681Y-75633891D01*
X122549278Y-75706197D01*
X122549276Y-75706198D01*
X122543248Y-75708882D01*
X122388747Y-75821134D01*
X122260960Y-75963056D01*
X122165473Y-76128444D01*
X122106458Y-76310072D01*
X122090457Y-76462318D01*
X122089093Y-76475293D01*
X122062080Y-76540950D01*
X122052878Y-76551218D01*
X121049500Y-77554595D01*
X120987188Y-77588621D01*
X120960405Y-77591500D01*
X120904513Y-77591500D01*
X120898061Y-77592872D01*
X120898056Y-77592872D01*
X120815492Y-77610422D01*
X120717712Y-77631206D01*
X120711682Y-77633891D01*
X120711681Y-77633891D01*
X120549278Y-77706197D01*
X120549276Y-77706198D01*
X120543248Y-77708882D01*
X120388747Y-77821134D01*
X120260960Y-77963056D01*
X120248799Y-77984119D01*
X120186011Y-78092872D01*
X120165473Y-78128444D01*
X120106458Y-78310072D01*
X120105768Y-78316633D01*
X120105768Y-78316635D01*
X120100995Y-78362051D01*
X120086496Y-78500000D01*
X116066812Y-78500000D01*
X116110680Y-78279465D01*
X116110681Y-78279459D01*
X116111483Y-78275426D01*
X116115845Y-78208882D01*
X116130576Y-77984119D01*
X116130846Y-77980000D01*
X116129414Y-77958148D01*
X116111753Y-77688686D01*
X116111752Y-77688679D01*
X116111483Y-77684574D01*
X116101402Y-77633891D01*
X116054530Y-77398253D01*
X116054528Y-77398247D01*
X116053724Y-77394203D01*
X116044188Y-77366109D01*
X115959885Y-77117761D01*
X115959884Y-77117760D01*
X115958559Y-77113855D01*
X115848010Y-76889684D01*
X115829442Y-76852031D01*
X115829439Y-76852026D01*
X115827615Y-76848327D01*
X115725971Y-76696206D01*
X115665426Y-76605593D01*
X115665422Y-76605588D01*
X115663133Y-76602162D01*
X115660419Y-76599068D01*
X115660415Y-76599062D01*
X115470636Y-76382662D01*
X115467927Y-76379573D01*
X115374600Y-76297727D01*
X115248438Y-76187085D01*
X115248432Y-76187081D01*
X115245338Y-76184367D01*
X115241912Y-76182078D01*
X115241907Y-76182074D01*
X115032049Y-76041852D01*
X114999173Y-76019885D01*
X114995474Y-76018061D01*
X114995469Y-76018058D01*
X114814917Y-75929020D01*
X114733645Y-75888941D01*
X114699290Y-75877279D01*
X114457210Y-75795104D01*
X114457206Y-75795103D01*
X114453297Y-75793776D01*
X114449253Y-75792972D01*
X114449247Y-75792970D01*
X114166965Y-75736820D01*
X114166959Y-75736819D01*
X114162926Y-75736017D01*
X114158821Y-75735748D01*
X114158814Y-75735747D01*
X113871619Y-75716924D01*
X113867500Y-75716654D01*
X113863381Y-75716924D01*
X113576186Y-75735747D01*
X113576179Y-75735748D01*
X113572074Y-75736017D01*
X113568041Y-75736819D01*
X113568035Y-75736820D01*
X113285753Y-75792970D01*
X113285747Y-75792972D01*
X113281703Y-75793776D01*
X113277794Y-75795103D01*
X113277790Y-75795104D01*
X113035710Y-75877279D01*
X113001355Y-75888941D01*
X112920083Y-75929020D01*
X112739531Y-76018058D01*
X112739526Y-76018061D01*
X112735827Y-76019885D01*
X112702951Y-76041852D01*
X112493093Y-76182074D01*
X112493088Y-76182078D01*
X112489662Y-76184367D01*
X112486568Y-76187081D01*
X112486562Y-76187085D01*
X112360400Y-76297727D01*
X112267073Y-76379573D01*
X112264364Y-76382662D01*
X112074585Y-76599062D01*
X112074581Y-76599068D01*
X112071867Y-76602162D01*
X112069578Y-76605588D01*
X112069574Y-76605593D01*
X112009029Y-76696206D01*
X111907385Y-76848327D01*
X111905561Y-76852026D01*
X111905558Y-76852031D01*
X111886990Y-76889684D01*
X111776441Y-77113855D01*
X111775116Y-77117760D01*
X111775115Y-77117761D01*
X111690813Y-77366109D01*
X111681276Y-77394203D01*
X111680472Y-77398247D01*
X111680470Y-77398253D01*
X111633599Y-77633891D01*
X111623517Y-77684574D01*
X111623248Y-77688679D01*
X111623247Y-77688686D01*
X111605586Y-77958148D01*
X111604154Y-77980000D01*
X111000000Y-77980000D01*
X111000000Y-71929733D01*
X111987822Y-71929733D01*
X111987975Y-71934121D01*
X111987975Y-71934127D01*
X111993816Y-72101375D01*
X111997625Y-72210458D01*
X111998387Y-72214781D01*
X111998388Y-72214788D01*
X112022164Y-72349624D01*
X112046402Y-72487087D01*
X112133203Y-72754235D01*
X112135131Y-72758188D01*
X112135133Y-72758193D01*
X112173370Y-72836590D01*
X112256340Y-73006702D01*
X112258795Y-73010341D01*
X112258798Y-73010347D01*
X112287527Y-73052939D01*
X112413415Y-73239576D01*
X112416360Y-73242847D01*
X112416361Y-73242848D01*
X112446619Y-73276453D01*
X112601371Y-73448322D01*
X112604733Y-73451143D01*
X112604734Y-73451144D01*
X112629681Y-73472077D01*
X112816550Y-73628879D01*
X113054764Y-73777731D01*
X113163279Y-73826045D01*
X113299359Y-73886632D01*
X113311375Y-73891982D01*
X113581390Y-73969407D01*
X113585740Y-73970018D01*
X113585743Y-73970019D01*
X113664690Y-73981114D01*
X113859552Y-74008500D01*
X114070146Y-74008500D01*
X114072332Y-74008347D01*
X114072336Y-74008347D01*
X114275827Y-73994118D01*
X114275832Y-73994117D01*
X114280212Y-73993811D01*
X114554970Y-73935409D01*
X114559099Y-73933906D01*
X114559103Y-73933905D01*
X114814781Y-73840846D01*
X114814785Y-73840844D01*
X114818926Y-73839337D01*
X115066942Y-73707464D01*
X115141233Y-73653489D01*
X115290629Y-73544947D01*
X115290632Y-73544944D01*
X115294192Y-73542358D01*
X115496252Y-73347231D01*
X115669188Y-73125882D01*
X115671384Y-73122078D01*
X115671389Y-73122071D01*
X115807435Y-72886431D01*
X115809636Y-72882619D01*
X115914862Y-72622176D01*
X115934767Y-72542342D01*
X115981753Y-72353893D01*
X115981754Y-72353888D01*
X115982817Y-72349624D01*
X115984279Y-72335720D01*
X116011719Y-72074636D01*
X116011719Y-72074633D01*
X116012178Y-72070267D01*
X116012025Y-72065873D01*
X116002529Y-71793939D01*
X116002528Y-71793933D01*
X116002375Y-71789542D01*
X115999468Y-71773051D01*
X115954360Y-71517236D01*
X115953598Y-71512913D01*
X115866797Y-71245765D01*
X115829620Y-71169540D01*
X115767341Y-71041852D01*
X115743660Y-70993298D01*
X115741205Y-70989659D01*
X115741202Y-70989653D01*
X115657305Y-70865271D01*
X115586585Y-70760424D01*
X115398629Y-70551678D01*
X115183450Y-70371121D01*
X114945236Y-70222269D01*
X114748619Y-70134729D01*
X114692639Y-70109805D01*
X114692637Y-70109804D01*
X114688625Y-70108018D01*
X114418610Y-70030593D01*
X114414260Y-70029982D01*
X114414257Y-70029981D01*
X114298267Y-70013680D01*
X114140448Y-69991500D01*
X113929854Y-69991500D01*
X113927668Y-69991653D01*
X113927664Y-69991653D01*
X113724173Y-70005882D01*
X113724168Y-70005883D01*
X113719788Y-70006189D01*
X113445030Y-70064591D01*
X113440901Y-70066094D01*
X113440897Y-70066095D01*
X113185219Y-70159154D01*
X113185215Y-70159156D01*
X113181074Y-70160663D01*
X112933058Y-70292536D01*
X112929499Y-70295122D01*
X112929497Y-70295123D01*
X112751057Y-70424767D01*
X112705808Y-70457642D01*
X112503748Y-70652769D01*
X112330812Y-70874118D01*
X112328616Y-70877922D01*
X112328611Y-70877929D01*
X112237876Y-71035088D01*
X112190364Y-71117381D01*
X112085138Y-71377824D01*
X112084073Y-71382097D01*
X112084072Y-71382099D01*
X112020319Y-71637800D01*
X112017183Y-71650376D01*
X112016724Y-71654744D01*
X112016723Y-71654749D01*
X112003888Y-71776870D01*
X111987822Y-71929733D01*
X111000000Y-71929733D01*
X111000000Y-69126000D01*
X111020002Y-69057879D01*
X111073658Y-69011386D01*
X111126000Y-69000000D01*
X136601562Y-69000000D01*
X136669683Y-69020002D01*
G37*
%TD.AperFunction*%
%TD*%
M02*
