%TF.GenerationSoftware,KiCad,Pcbnew,(6.0.10)*%
%TF.CreationDate,2023-02-16T23:49:11+01:00*%
%TF.ProjectId,base,62617365-2e6b-4696-9361-645f70636258,rev?*%
%TF.SameCoordinates,Original*%
%TF.FileFunction,Legend,Top*%
%TF.FilePolarity,Positive*%
%FSLAX46Y46*%
G04 Gerber Fmt 4.6, Leading zero omitted, Abs format (unit mm)*
G04 Created by KiCad (PCBNEW (6.0.10)) date 2023-02-16 23:49:11*
%MOMM*%
%LPD*%
G01*
G04 APERTURE LIST*
G04 Aperture macros list*
%AMRoundRect*
0 Rectangle with rounded corners*
0 $1 Rounding radius*
0 $2 $3 $4 $5 $6 $7 $8 $9 X,Y pos of 4 corners*
0 Add a 4 corners polygon primitive as box body*
4,1,4,$2,$3,$4,$5,$6,$7,$8,$9,$2,$3,0*
0 Add four circle primitives for the rounded corners*
1,1,$1+$1,$2,$3*
1,1,$1+$1,$4,$5*
1,1,$1+$1,$6,$7*
1,1,$1+$1,$8,$9*
0 Add four rect primitives between the rounded corners*
20,1,$1+$1,$2,$3,$4,$5,0*
20,1,$1+$1,$4,$5,$6,$7,0*
20,1,$1+$1,$6,$7,$8,$9,0*
20,1,$1+$1,$8,$9,$2,$3,0*%
G04 Aperture macros list end*
%ADD10C,0.150000*%
%ADD11C,0.254000*%
%ADD12C,0.120000*%
%ADD13C,0.200000*%
%ADD14C,3.000000*%
%ADD15R,2.000000X1.500000*%
%ADD16R,2.000000X3.800000*%
%ADD17RoundRect,0.150000X-0.825000X-0.150000X0.825000X-0.150000X0.825000X0.150000X-0.825000X0.150000X0*%
%ADD18RoundRect,0.200000X-0.200000X-0.275000X0.200000X-0.275000X0.200000X0.275000X-0.200000X0.275000X0*%
%ADD19RoundRect,0.200000X0.200000X0.275000X-0.200000X0.275000X-0.200000X-0.275000X0.200000X-0.275000X0*%
%ADD20RoundRect,0.200000X0.275000X-0.200000X0.275000X0.200000X-0.275000X0.200000X-0.275000X-0.200000X0*%
%ADD21RoundRect,0.250000X-0.262500X-0.450000X0.262500X-0.450000X0.262500X0.450000X-0.262500X0.450000X0*%
%ADD22RoundRect,0.200000X-0.275000X0.200000X-0.275000X-0.200000X0.275000X-0.200000X0.275000X0.200000X0*%
%ADD23RoundRect,0.150000X0.587500X0.150000X-0.587500X0.150000X-0.587500X-0.150000X0.587500X-0.150000X0*%
%ADD24R,1.700000X1.700000*%
%ADD25O,1.700000X1.700000*%
%ADD26R,1.600000X2.000000*%
%ADD27R,1.750000X0.500000*%
%ADD28R,6.600000X3.300000*%
%ADD29O,6.600000X3.300000*%
%ADD30C,1.700000*%
%ADD31C,3.500000*%
%ADD32R,2.000000X4.600000*%
%ADD33O,2.000000X4.200000*%
%ADD34O,4.200000X2.000000*%
%ADD35R,0.700000X1.925000*%
%ADD36RoundRect,0.250000X0.375000X0.625000X-0.375000X0.625000X-0.375000X-0.625000X0.375000X-0.625000X0*%
%ADD37R,0.600000X0.450000*%
%ADD38RoundRect,0.250000X0.625000X-0.375000X0.625000X0.375000X-0.625000X0.375000X-0.625000X-0.375000X0*%
%ADD39R,1.000000X0.750000*%
%ADD40RoundRect,0.225000X-0.225000X-0.250000X0.225000X-0.250000X0.225000X0.250000X-0.225000X0.250000X0*%
%ADD41RoundRect,0.250000X0.475000X-0.250000X0.475000X0.250000X-0.475000X0.250000X-0.475000X-0.250000X0*%
%ADD42RoundRect,0.250000X0.250000X0.475000X-0.250000X0.475000X-0.250000X-0.475000X0.250000X-0.475000X0*%
%ADD43R,1.250000X0.500000*%
%ADD44R,0.500000X1.250000*%
%ADD45RoundRect,0.250000X-1.500000X-0.550000X1.500000X-0.550000X1.500000X0.550000X-1.500000X0.550000X0*%
G04 APERTURE END LIST*
D10*
X142738095Y-74952380D02*
X143309523Y-74952380D01*
X143023809Y-75952380D02*
X143023809Y-74952380D01*
X143547619Y-74952380D02*
X144214285Y-75952380D01*
X144214285Y-74952380D02*
X143547619Y-75952380D01*
X142738095Y-72500000D02*
X142642857Y-72452380D01*
X142500000Y-72452380D01*
X142357142Y-72500000D01*
X142261904Y-72595238D01*
X142214285Y-72690476D01*
X142166666Y-72880952D01*
X142166666Y-73023809D01*
X142214285Y-73214285D01*
X142261904Y-73309523D01*
X142357142Y-73404761D01*
X142500000Y-73452380D01*
X142595238Y-73452380D01*
X142738095Y-73404761D01*
X142785714Y-73357142D01*
X142785714Y-73023809D01*
X142595238Y-73023809D01*
X143214285Y-73452380D02*
X143214285Y-72452380D01*
X143785714Y-73452380D01*
X143785714Y-72452380D01*
X144261904Y-73452380D02*
X144261904Y-72452380D01*
X144500000Y-72452380D01*
X144642857Y-72500000D01*
X144738095Y-72595238D01*
X144785714Y-72690476D01*
X144833333Y-72880952D01*
X144833333Y-73023809D01*
X144785714Y-73214285D01*
X144738095Y-73309523D01*
X144642857Y-73404761D01*
X144500000Y-73452380D01*
X144261904Y-73452380D01*
X142023809Y-69452380D02*
X142642857Y-69452380D01*
X142309523Y-69833333D01*
X142452380Y-69833333D01*
X142547619Y-69880952D01*
X142595238Y-69928571D01*
X142642857Y-70023809D01*
X142642857Y-70261904D01*
X142595238Y-70357142D01*
X142547619Y-70404761D01*
X142452380Y-70452380D01*
X142166666Y-70452380D01*
X142071428Y-70404761D01*
X142023809Y-70357142D01*
X143071428Y-70357142D02*
X143119047Y-70404761D01*
X143071428Y-70452380D01*
X143023809Y-70404761D01*
X143071428Y-70357142D01*
X143071428Y-70452380D01*
X143452380Y-69452380D02*
X144071428Y-69452380D01*
X143738095Y-69833333D01*
X143880952Y-69833333D01*
X143976190Y-69880952D01*
X144023809Y-69928571D01*
X144071428Y-70023809D01*
X144071428Y-70261904D01*
X144023809Y-70357142D01*
X143976190Y-70404761D01*
X143880952Y-70452380D01*
X143595238Y-70452380D01*
X143500000Y-70404761D01*
X143452380Y-70357142D01*
X144357142Y-69452380D02*
X144690476Y-70452380D01*
X145023809Y-69452380D01*
%TO.C,U2*%
X134238095Y-92952380D02*
X134238095Y-93761904D01*
X134285714Y-93857142D01*
X134333333Y-93904761D01*
X134428571Y-93952380D01*
X134619047Y-93952380D01*
X134714285Y-93904761D01*
X134761904Y-93857142D01*
X134809523Y-93761904D01*
X134809523Y-92952380D01*
X135238095Y-93047619D02*
X135285714Y-93000000D01*
X135380952Y-92952380D01*
X135619047Y-92952380D01*
X135714285Y-93000000D01*
X135761904Y-93047619D01*
X135809523Y-93142857D01*
X135809523Y-93238095D01*
X135761904Y-93380952D01*
X135190476Y-93952380D01*
X135809523Y-93952380D01*
%TO.C,U1*%
X126238095Y-75552380D02*
X126238095Y-76361904D01*
X126285714Y-76457142D01*
X126333333Y-76504761D01*
X126428571Y-76552380D01*
X126619047Y-76552380D01*
X126714285Y-76504761D01*
X126761904Y-76457142D01*
X126809523Y-76361904D01*
X126809523Y-75552380D01*
X127809523Y-76552380D02*
X127238095Y-76552380D01*
X127523809Y-76552380D02*
X127523809Y-75552380D01*
X127428571Y-75695238D01*
X127333333Y-75790476D01*
X127238095Y-75838095D01*
%TO.C,R8*%
X119833333Y-106434880D02*
X119500000Y-105958690D01*
X119261904Y-106434880D02*
X119261904Y-105434880D01*
X119642857Y-105434880D01*
X119738095Y-105482500D01*
X119785714Y-105530119D01*
X119833333Y-105625357D01*
X119833333Y-105768214D01*
X119785714Y-105863452D01*
X119738095Y-105911071D01*
X119642857Y-105958690D01*
X119261904Y-105958690D01*
X120404761Y-105863452D02*
X120309523Y-105815833D01*
X120261904Y-105768214D01*
X120214285Y-105672976D01*
X120214285Y-105625357D01*
X120261904Y-105530119D01*
X120309523Y-105482500D01*
X120404761Y-105434880D01*
X120595238Y-105434880D01*
X120690476Y-105482500D01*
X120738095Y-105530119D01*
X120785714Y-105625357D01*
X120785714Y-105672976D01*
X120738095Y-105768214D01*
X120690476Y-105815833D01*
X120595238Y-105863452D01*
X120404761Y-105863452D01*
X120309523Y-105911071D01*
X120261904Y-105958690D01*
X120214285Y-106053928D01*
X120214285Y-106244404D01*
X120261904Y-106339642D01*
X120309523Y-106387261D01*
X120404761Y-106434880D01*
X120595238Y-106434880D01*
X120690476Y-106387261D01*
X120738095Y-106339642D01*
X120785714Y-106244404D01*
X120785714Y-106053928D01*
X120738095Y-105958690D01*
X120690476Y-105911071D01*
X120595238Y-105863452D01*
%TO.C,R7*%
X144396075Y-94229880D02*
X144062742Y-93753690D01*
X143824646Y-94229880D02*
X143824646Y-93229880D01*
X144205599Y-93229880D01*
X144300837Y-93277500D01*
X144348456Y-93325119D01*
X144396075Y-93420357D01*
X144396075Y-93563214D01*
X144348456Y-93658452D01*
X144300837Y-93706071D01*
X144205599Y-93753690D01*
X143824646Y-93753690D01*
X144729408Y-93229880D02*
X145396075Y-93229880D01*
X144967503Y-94229880D01*
%TO.C,R6*%
X149022380Y-89166666D02*
X148546190Y-89500000D01*
X149022380Y-89738095D02*
X148022380Y-89738095D01*
X148022380Y-89357142D01*
X148070000Y-89261904D01*
X148117619Y-89214285D01*
X148212857Y-89166666D01*
X148355714Y-89166666D01*
X148450952Y-89214285D01*
X148498571Y-89261904D01*
X148546190Y-89357142D01*
X148546190Y-89738095D01*
X148022380Y-88309523D02*
X148022380Y-88500000D01*
X148070000Y-88595238D01*
X148117619Y-88642857D01*
X148260476Y-88738095D01*
X148450952Y-88785714D01*
X148831904Y-88785714D01*
X148927142Y-88738095D01*
X148974761Y-88690476D01*
X149022380Y-88595238D01*
X149022380Y-88404761D01*
X148974761Y-88309523D01*
X148927142Y-88261904D01*
X148831904Y-88214285D01*
X148593809Y-88214285D01*
X148498571Y-88261904D01*
X148450952Y-88309523D01*
X148403333Y-88404761D01*
X148403333Y-88595238D01*
X148450952Y-88690476D01*
X148498571Y-88738095D01*
X148593809Y-88785714D01*
%TO.C,R5*%
X138333333Y-107737380D02*
X138000000Y-107261190D01*
X137761904Y-107737380D02*
X137761904Y-106737380D01*
X138142857Y-106737380D01*
X138238095Y-106785000D01*
X138285714Y-106832619D01*
X138333333Y-106927857D01*
X138333333Y-107070714D01*
X138285714Y-107165952D01*
X138238095Y-107213571D01*
X138142857Y-107261190D01*
X137761904Y-107261190D01*
X139238095Y-106737380D02*
X138761904Y-106737380D01*
X138714285Y-107213571D01*
X138761904Y-107165952D01*
X138857142Y-107118333D01*
X139095238Y-107118333D01*
X139190476Y-107165952D01*
X139238095Y-107213571D01*
X139285714Y-107308809D01*
X139285714Y-107546904D01*
X139238095Y-107642142D01*
X139190476Y-107689761D01*
X139095238Y-107737380D01*
X138857142Y-107737380D01*
X138761904Y-107689761D01*
X138714285Y-107642142D01*
%TO.C,R4*%
X127833333Y-105882380D02*
X127500000Y-105406190D01*
X127261904Y-105882380D02*
X127261904Y-104882380D01*
X127642857Y-104882380D01*
X127738095Y-104930000D01*
X127785714Y-104977619D01*
X127833333Y-105072857D01*
X127833333Y-105215714D01*
X127785714Y-105310952D01*
X127738095Y-105358571D01*
X127642857Y-105406190D01*
X127261904Y-105406190D01*
X128690476Y-105215714D02*
X128690476Y-105882380D01*
X128452380Y-104834761D02*
X128214285Y-105549047D01*
X128833333Y-105549047D01*
%TO.C,R3*%
X133992380Y-103611182D02*
X133516190Y-103944516D01*
X133992380Y-104182611D02*
X132992380Y-104182611D01*
X132992380Y-103801658D01*
X133040000Y-103706420D01*
X133087619Y-103658801D01*
X133182857Y-103611182D01*
X133325714Y-103611182D01*
X133420952Y-103658801D01*
X133468571Y-103706420D01*
X133516190Y-103801658D01*
X133516190Y-104182611D01*
X132992380Y-103277849D02*
X132992380Y-102658801D01*
X133373333Y-102992135D01*
X133373333Y-102849277D01*
X133420952Y-102754039D01*
X133468571Y-102706420D01*
X133563809Y-102658801D01*
X133801904Y-102658801D01*
X133897142Y-102706420D01*
X133944761Y-102754039D01*
X133992380Y-102849277D01*
X133992380Y-103134992D01*
X133944761Y-103230230D01*
X133897142Y-103277849D01*
%TO.C,R2*%
X125270591Y-94359880D02*
X124937258Y-93883690D01*
X124699162Y-94359880D02*
X124699162Y-93359880D01*
X125080115Y-93359880D01*
X125175353Y-93407500D01*
X125222972Y-93455119D01*
X125270591Y-93550357D01*
X125270591Y-93693214D01*
X125222972Y-93788452D01*
X125175353Y-93836071D01*
X125080115Y-93883690D01*
X124699162Y-93883690D01*
X125651543Y-93455119D02*
X125699162Y-93407500D01*
X125794400Y-93359880D01*
X126032496Y-93359880D01*
X126127734Y-93407500D01*
X126175353Y-93455119D01*
X126222972Y-93550357D01*
X126222972Y-93645595D01*
X126175353Y-93788452D01*
X125603924Y-94359880D01*
X126222972Y-94359880D01*
%TO.C,R1*%
X128833333Y-94294880D02*
X128500000Y-93818690D01*
X128261904Y-94294880D02*
X128261904Y-93294880D01*
X128642857Y-93294880D01*
X128738095Y-93342500D01*
X128785714Y-93390119D01*
X128833333Y-93485357D01*
X128833333Y-93628214D01*
X128785714Y-93723452D01*
X128738095Y-93771071D01*
X128642857Y-93818690D01*
X128261904Y-93818690D01*
X129785714Y-94294880D02*
X129214285Y-94294880D01*
X129500000Y-94294880D02*
X129500000Y-93294880D01*
X129404761Y-93437738D01*
X129309523Y-93532976D01*
X129214285Y-93580595D01*
%TO.C,Q1*%
X124904761Y-103547619D02*
X124809523Y-103500000D01*
X124714285Y-103404761D01*
X124571428Y-103261904D01*
X124476190Y-103214285D01*
X124380952Y-103214285D01*
X124428571Y-103452380D02*
X124333333Y-103404761D01*
X124238095Y-103309523D01*
X124190476Y-103119047D01*
X124190476Y-102785714D01*
X124238095Y-102595238D01*
X124333333Y-102500000D01*
X124428571Y-102452380D01*
X124619047Y-102452380D01*
X124714285Y-102500000D01*
X124809523Y-102595238D01*
X124857142Y-102785714D01*
X124857142Y-103119047D01*
X124809523Y-103309523D01*
X124714285Y-103404761D01*
X124619047Y-103452380D01*
X124428571Y-103452380D01*
X125809523Y-103452380D02*
X125238095Y-103452380D01*
X125523809Y-103452380D02*
X125523809Y-102452380D01*
X125428571Y-102595238D01*
X125333333Y-102690476D01*
X125238095Y-102738095D01*
%TO.C,J5*%
X141646666Y-80072380D02*
X141646666Y-80786666D01*
X141599047Y-80929523D01*
X141503809Y-81024761D01*
X141360952Y-81072380D01*
X141265714Y-81072380D01*
X142599047Y-80072380D02*
X142122857Y-80072380D01*
X142075238Y-80548571D01*
X142122857Y-80500952D01*
X142218095Y-80453333D01*
X142456190Y-80453333D01*
X142551428Y-80500952D01*
X142599047Y-80548571D01*
X142646666Y-80643809D01*
X142646666Y-80881904D01*
X142599047Y-80977142D01*
X142551428Y-81024761D01*
X142456190Y-81072380D01*
X142218095Y-81072380D01*
X142122857Y-81024761D01*
X142075238Y-80977142D01*
%TO.C,J4*%
X171166666Y-69452380D02*
X171166666Y-70166666D01*
X171119047Y-70309523D01*
X171023809Y-70404761D01*
X170880952Y-70452380D01*
X170785714Y-70452380D01*
X172071428Y-69785714D02*
X172071428Y-70452380D01*
X171833333Y-69404761D02*
X171595238Y-70119047D01*
X172214285Y-70119047D01*
%TO.C,J3*%
X161166666Y-100572380D02*
X161166666Y-101286666D01*
X161119047Y-101429523D01*
X161023809Y-101524761D01*
X160880952Y-101572380D01*
X160785714Y-101572380D01*
X161547619Y-100572380D02*
X162166666Y-100572380D01*
X161833333Y-100953333D01*
X161976190Y-100953333D01*
X162071428Y-101000952D01*
X162119047Y-101048571D01*
X162166666Y-101143809D01*
X162166666Y-101381904D01*
X162119047Y-101477142D01*
X162071428Y-101524761D01*
X161976190Y-101572380D01*
X161690476Y-101572380D01*
X161595238Y-101524761D01*
X161547619Y-101477142D01*
%TO.C,J2*%
X111484166Y-92472380D02*
X111484166Y-93186666D01*
X111436547Y-93329523D01*
X111341309Y-93424761D01*
X111198452Y-93472380D01*
X111103214Y-93472380D01*
X111912738Y-92567619D02*
X111960357Y-92520000D01*
X112055595Y-92472380D01*
X112293690Y-92472380D01*
X112388928Y-92520000D01*
X112436547Y-92567619D01*
X112484166Y-92662857D01*
X112484166Y-92758095D01*
X112436547Y-92900952D01*
X111865119Y-93472380D01*
X112484166Y-93472380D01*
%TO.C,J1*%
X120902380Y-99333333D02*
X121616666Y-99333333D01*
X121759523Y-99380952D01*
X121854761Y-99476190D01*
X121902380Y-99619047D01*
X121902380Y-99714285D01*
X121902380Y-98333333D02*
X121902380Y-98904761D01*
X121902380Y-98619047D02*
X120902380Y-98619047D01*
X121045238Y-98714285D01*
X121140476Y-98809523D01*
X121188095Y-98904761D01*
D11*
%TO.C,IC1*%
X154574523Y-98239761D02*
X153304523Y-98239761D01*
X154453571Y-96909285D02*
X154514047Y-96969761D01*
X154574523Y-97151190D01*
X154574523Y-97272142D01*
X154514047Y-97453571D01*
X154393095Y-97574523D01*
X154272142Y-97635000D01*
X154030238Y-97695476D01*
X153848809Y-97695476D01*
X153606904Y-97635000D01*
X153485952Y-97574523D01*
X153365000Y-97453571D01*
X153304523Y-97272142D01*
X153304523Y-97151190D01*
X153365000Y-96969761D01*
X153425476Y-96909285D01*
X154574523Y-95699761D02*
X154574523Y-96425476D01*
X154574523Y-96062619D02*
X153304523Y-96062619D01*
X153485952Y-96183571D01*
X153606904Y-96304523D01*
X153667380Y-96425476D01*
D10*
%TO.C,D6*%
X123261904Y-109272380D02*
X123261904Y-108272380D01*
X123500000Y-108272380D01*
X123642857Y-108320000D01*
X123738095Y-108415238D01*
X123785714Y-108510476D01*
X123833333Y-108700952D01*
X123833333Y-108843809D01*
X123785714Y-109034285D01*
X123738095Y-109129523D01*
X123642857Y-109224761D01*
X123500000Y-109272380D01*
X123261904Y-109272380D01*
X124690476Y-108272380D02*
X124500000Y-108272380D01*
X124404761Y-108320000D01*
X124357142Y-108367619D01*
X124261904Y-108510476D01*
X124214285Y-108700952D01*
X124214285Y-109081904D01*
X124261904Y-109177142D01*
X124309523Y-109224761D01*
X124404761Y-109272380D01*
X124595238Y-109272380D01*
X124690476Y-109224761D01*
X124738095Y-109177142D01*
X124785714Y-109081904D01*
X124785714Y-108843809D01*
X124738095Y-108748571D01*
X124690476Y-108700952D01*
X124595238Y-108653333D01*
X124404761Y-108653333D01*
X124309523Y-108700952D01*
X124261904Y-108748571D01*
X124214285Y-108843809D01*
%TO.C,D5*%
X153486904Y-87452380D02*
X153486904Y-86452380D01*
X153725000Y-86452380D01*
X153867857Y-86500000D01*
X153963095Y-86595238D01*
X154010714Y-86690476D01*
X154058333Y-86880952D01*
X154058333Y-87023809D01*
X154010714Y-87214285D01*
X153963095Y-87309523D01*
X153867857Y-87404761D01*
X153725000Y-87452380D01*
X153486904Y-87452380D01*
X154963095Y-86452380D02*
X154486904Y-86452380D01*
X154439285Y-86928571D01*
X154486904Y-86880952D01*
X154582142Y-86833333D01*
X154820238Y-86833333D01*
X154915476Y-86880952D01*
X154963095Y-86928571D01*
X155010714Y-87023809D01*
X155010714Y-87261904D01*
X154963095Y-87357142D01*
X154915476Y-87404761D01*
X154820238Y-87452380D01*
X154582142Y-87452380D01*
X154486904Y-87404761D01*
X154439285Y-87357142D01*
%TO.C,D4*%
X144486904Y-84452380D02*
X144486904Y-83452380D01*
X144725000Y-83452380D01*
X144867857Y-83500000D01*
X144963095Y-83595238D01*
X145010714Y-83690476D01*
X145058333Y-83880952D01*
X145058333Y-84023809D01*
X145010714Y-84214285D01*
X144963095Y-84309523D01*
X144867857Y-84404761D01*
X144725000Y-84452380D01*
X144486904Y-84452380D01*
X145915476Y-83785714D02*
X145915476Y-84452380D01*
X145677380Y-83404761D02*
X145439285Y-84119047D01*
X146058333Y-84119047D01*
%TO.C,D3*%
X139632380Y-105738095D02*
X138632380Y-105738095D01*
X138632380Y-105500000D01*
X138680000Y-105357142D01*
X138775238Y-105261904D01*
X138870476Y-105214285D01*
X139060952Y-105166666D01*
X139203809Y-105166666D01*
X139394285Y-105214285D01*
X139489523Y-105261904D01*
X139584761Y-105357142D01*
X139632380Y-105500000D01*
X139632380Y-105738095D01*
X138632380Y-104833333D02*
X138632380Y-104214285D01*
X139013333Y-104547619D01*
X139013333Y-104404761D01*
X139060952Y-104309523D01*
X139108571Y-104261904D01*
X139203809Y-104214285D01*
X139441904Y-104214285D01*
X139537142Y-104261904D01*
X139584761Y-104309523D01*
X139632380Y-104404761D01*
X139632380Y-104690476D01*
X139584761Y-104785714D01*
X139537142Y-104833333D01*
%TO.C,D2*%
X131261904Y-108452380D02*
X131261904Y-107452380D01*
X131500000Y-107452380D01*
X131642857Y-107500000D01*
X131738095Y-107595238D01*
X131785714Y-107690476D01*
X131833333Y-107880952D01*
X131833333Y-108023809D01*
X131785714Y-108214285D01*
X131738095Y-108309523D01*
X131642857Y-108404761D01*
X131500000Y-108452380D01*
X131261904Y-108452380D01*
X132214285Y-107547619D02*
X132261904Y-107500000D01*
X132357142Y-107452380D01*
X132595238Y-107452380D01*
X132690476Y-107500000D01*
X132738095Y-107547619D01*
X132785714Y-107642857D01*
X132785714Y-107738095D01*
X132738095Y-107880952D01*
X132166666Y-108452380D01*
X132785714Y-108452380D01*
%TO.C,D1*%
X120632380Y-91538095D02*
X119632380Y-91538095D01*
X119632380Y-91300000D01*
X119680000Y-91157142D01*
X119775238Y-91061904D01*
X119870476Y-91014285D01*
X120060952Y-90966666D01*
X120203809Y-90966666D01*
X120394285Y-91014285D01*
X120489523Y-91061904D01*
X120584761Y-91157142D01*
X120632380Y-91300000D01*
X120632380Y-91538095D01*
X120632380Y-90014285D02*
X120632380Y-90585714D01*
X120632380Y-90300000D02*
X119632380Y-90300000D01*
X119775238Y-90395238D01*
X119870476Y-90490476D01*
X119918095Y-90585714D01*
%TO.C,C7*%
X145058333Y-88927142D02*
X145010714Y-88974761D01*
X144867857Y-89022380D01*
X144772619Y-89022380D01*
X144629761Y-88974761D01*
X144534523Y-88879523D01*
X144486904Y-88784285D01*
X144439285Y-88593809D01*
X144439285Y-88450952D01*
X144486904Y-88260476D01*
X144534523Y-88165238D01*
X144629761Y-88070000D01*
X144772619Y-88022380D01*
X144867857Y-88022380D01*
X145010714Y-88070000D01*
X145058333Y-88117619D01*
X145391666Y-88022380D02*
X146058333Y-88022380D01*
X145629761Y-89022380D01*
%TO.C,C6*%
X157833333Y-89357142D02*
X157785714Y-89404761D01*
X157642857Y-89452380D01*
X157547619Y-89452380D01*
X157404761Y-89404761D01*
X157309523Y-89309523D01*
X157261904Y-89214285D01*
X157214285Y-89023809D01*
X157214285Y-88880952D01*
X157261904Y-88690476D01*
X157309523Y-88595238D01*
X157404761Y-88500000D01*
X157547619Y-88452380D01*
X157642857Y-88452380D01*
X157785714Y-88500000D01*
X157833333Y-88547619D01*
X158690476Y-88452380D02*
X158500000Y-88452380D01*
X158404761Y-88500000D01*
X158357142Y-88547619D01*
X158261904Y-88690476D01*
X158214285Y-88880952D01*
X158214285Y-89261904D01*
X158261904Y-89357142D01*
X158309523Y-89404761D01*
X158404761Y-89452380D01*
X158595238Y-89452380D01*
X158690476Y-89404761D01*
X158738095Y-89357142D01*
X158785714Y-89261904D01*
X158785714Y-89023809D01*
X158738095Y-88928571D01*
X158690476Y-88880952D01*
X158595238Y-88833333D01*
X158404761Y-88833333D01*
X158309523Y-88880952D01*
X158261904Y-88928571D01*
X158214285Y-89023809D01*
%TO.C,C5*%
X148469585Y-87657142D02*
X148421966Y-87704761D01*
X148279109Y-87752380D01*
X148183871Y-87752380D01*
X148041013Y-87704761D01*
X147945775Y-87609523D01*
X147898156Y-87514285D01*
X147850537Y-87323809D01*
X147850537Y-87180952D01*
X147898156Y-86990476D01*
X147945775Y-86895238D01*
X148041013Y-86800000D01*
X148183871Y-86752380D01*
X148279109Y-86752380D01*
X148421966Y-86800000D01*
X148469585Y-86847619D01*
X149374347Y-86752380D02*
X148898156Y-86752380D01*
X148850537Y-87228571D01*
X148898156Y-87180952D01*
X148993394Y-87133333D01*
X149231490Y-87133333D01*
X149326728Y-87180952D01*
X149374347Y-87228571D01*
X149421966Y-87323809D01*
X149421966Y-87561904D01*
X149374347Y-87657142D01*
X149326728Y-87704761D01*
X149231490Y-87752380D01*
X148993394Y-87752380D01*
X148898156Y-87704761D01*
X148850537Y-87657142D01*
%TO.C,C4*%
X121833333Y-82857142D02*
X121785714Y-82904761D01*
X121642857Y-82952380D01*
X121547619Y-82952380D01*
X121404761Y-82904761D01*
X121309523Y-82809523D01*
X121261904Y-82714285D01*
X121214285Y-82523809D01*
X121214285Y-82380952D01*
X121261904Y-82190476D01*
X121309523Y-82095238D01*
X121404761Y-82000000D01*
X121547619Y-81952380D01*
X121642857Y-81952380D01*
X121785714Y-82000000D01*
X121833333Y-82047619D01*
X122690476Y-82285714D02*
X122690476Y-82952380D01*
X122452380Y-81904761D02*
X122214285Y-82619047D01*
X122833333Y-82619047D01*
%TO.C,C3*%
X133666666Y-77842857D02*
X133714285Y-77795238D01*
X133857142Y-77747619D01*
X133952380Y-77747619D01*
X134095238Y-77795238D01*
X134190476Y-77890476D01*
X134238095Y-77985714D01*
X134285714Y-78176190D01*
X134285714Y-78319047D01*
X134238095Y-78509523D01*
X134190476Y-78604761D01*
X134095238Y-78700000D01*
X133952380Y-78747619D01*
X133857142Y-78747619D01*
X133714285Y-78700000D01*
X133666666Y-78652380D01*
X133333333Y-78747619D02*
X132714285Y-78747619D01*
X133047619Y-78366666D01*
X132904761Y-78366666D01*
X132809523Y-78319047D01*
X132761904Y-78271428D01*
X132714285Y-78176190D01*
X132714285Y-77938095D01*
X132761904Y-77842857D01*
X132809523Y-77795238D01*
X132904761Y-77747619D01*
X133190476Y-77747619D01*
X133285714Y-77795238D01*
X133333333Y-77842857D01*
%TO.C,C1*%
X148833333Y-104007142D02*
X148785714Y-104054761D01*
X148642857Y-104102380D01*
X148547619Y-104102380D01*
X148404761Y-104054761D01*
X148309523Y-103959523D01*
X148261904Y-103864285D01*
X148214285Y-103673809D01*
X148214285Y-103530952D01*
X148261904Y-103340476D01*
X148309523Y-103245238D01*
X148404761Y-103150000D01*
X148547619Y-103102380D01*
X148642857Y-103102380D01*
X148785714Y-103150000D01*
X148833333Y-103197619D01*
X149785714Y-104102380D02*
X149214285Y-104102380D01*
X149500000Y-104102380D02*
X149500000Y-103102380D01*
X149404761Y-103245238D01*
X149309523Y-103340476D01*
X149214285Y-103388095D01*
D12*
%TO.C,U2*%
X130900000Y-94590000D02*
X136910000Y-94590000D01*
X133150000Y-101410000D02*
X136910000Y-101410000D01*
X136910000Y-101410000D02*
X136910000Y-100150000D01*
X136910000Y-94590000D02*
X136910000Y-95850000D01*
%TO.C,U1*%
X127000000Y-87060000D02*
X125050000Y-87060000D01*
X127000000Y-76940000D02*
X128950000Y-76940000D01*
X127000000Y-87060000D02*
X128950000Y-87060000D01*
X127000000Y-76940000D02*
X123550000Y-76940000D01*
%TO.C,R8*%
X119762742Y-107935000D02*
X120237258Y-107935000D01*
X119762742Y-106890000D02*
X120237258Y-106890000D01*
%TO.C,R7*%
X144800000Y-92870000D02*
X144325484Y-92870000D01*
X144800000Y-91825000D02*
X144325484Y-91825000D01*
%TO.C,R6*%
X150522500Y-89237258D02*
X150522500Y-88762742D01*
X149477500Y-89237258D02*
X149477500Y-88762742D01*
%TO.C,R5*%
X139772936Y-108265000D02*
X140227064Y-108265000D01*
X139772936Y-109735000D02*
X140227064Y-109735000D01*
%TO.C,R4*%
X128237258Y-103477500D02*
X127762742Y-103477500D01*
X128237258Y-104522500D02*
X127762742Y-104522500D01*
%TO.C,R3*%
X131587500Y-103207258D02*
X131587500Y-103681774D01*
X132632500Y-103207258D02*
X132632500Y-103681774D01*
%TO.C,R2*%
X125674516Y-91955000D02*
X125200000Y-91955000D01*
X125674516Y-93000000D02*
X125200000Y-93000000D01*
%TO.C,R1*%
X129237258Y-91890000D02*
X128762742Y-91890000D01*
X129237258Y-92935000D02*
X128762742Y-92935000D01*
%TO.C,Q1*%
X128000000Y-102560000D02*
X127350000Y-102560000D01*
X128000000Y-99440000D02*
X127350000Y-99440000D01*
X128000000Y-102560000D02*
X129675000Y-102560000D01*
X128000000Y-99440000D02*
X128650000Y-99440000D01*
%TO.C,J5*%
X147690000Y-77288575D02*
X139060000Y-77288575D01*
X147690000Y-77760955D02*
X139060000Y-77760955D01*
X147690000Y-76698100D02*
X139060000Y-76698100D01*
X147690000Y-78115240D02*
X139060000Y-78115240D01*
X147690000Y-78705715D02*
X139060000Y-78705715D01*
X147690000Y-77170480D02*
X139060000Y-77170480D01*
X147690000Y-76580000D02*
X139060000Y-76580000D01*
X139060000Y-74950000D02*
X138650000Y-74950000D01*
X139060000Y-69870000D02*
X138650000Y-69870000D01*
X147690000Y-78941905D02*
X139060000Y-78941905D01*
X147690000Y-78351430D02*
X139060000Y-78351430D01*
X139060000Y-78210000D02*
X138710000Y-78210000D01*
X139060000Y-79180000D02*
X139060000Y-68900000D01*
X147690000Y-79180000D02*
X147690000Y-68900000D01*
X147690000Y-79060000D02*
X139060000Y-79060000D01*
X147690000Y-78469525D02*
X139060000Y-78469525D01*
X147690000Y-74040000D02*
X139060000Y-74040000D01*
X139060000Y-70590000D02*
X138650000Y-70590000D01*
X147690000Y-79180000D02*
X139060000Y-79180000D01*
X147690000Y-77879050D02*
X139060000Y-77879050D01*
X147690000Y-76816195D02*
X139060000Y-76816195D01*
X137600000Y-79180000D02*
X136490000Y-79180000D01*
X147690000Y-78587620D02*
X139060000Y-78587620D01*
X147690000Y-77524765D02*
X139060000Y-77524765D01*
X139060000Y-75670000D02*
X138650000Y-75670000D01*
X139060000Y-72410000D02*
X138650000Y-72410000D01*
X147690000Y-78233335D02*
X139060000Y-78233335D01*
X147690000Y-77052385D02*
X139060000Y-77052385D01*
X147690000Y-78823810D02*
X139060000Y-78823810D01*
X147690000Y-71500000D02*
X139060000Y-71500000D01*
X139060000Y-73130000D02*
X138650000Y-73130000D01*
X147690000Y-76934290D02*
X139060000Y-76934290D01*
X147690000Y-77642860D02*
X139060000Y-77642860D01*
X147690000Y-77997145D02*
X139060000Y-77997145D01*
X139060000Y-77490000D02*
X138710000Y-77490000D01*
X147690000Y-77406670D02*
X139060000Y-77406670D01*
X136490000Y-79180000D02*
X136490000Y-77850000D01*
X147690000Y-68900000D02*
X139060000Y-68900000D01*
%TO.C,J4*%
X174000000Y-71350000D02*
X174000000Y-86050000D01*
X174000000Y-86050000D02*
X174800000Y-86050000D01*
X174800000Y-71350000D02*
X174000000Y-71350000D01*
X175100000Y-70950000D02*
X173700000Y-70950000D01*
X173700000Y-70950000D02*
X173700000Y-86350000D01*
X173700000Y-86350000D02*
X175100000Y-86350000D01*
X175100000Y-86350000D02*
X175100000Y-70950000D01*
G36*
X172452076Y-71303460D02*
G01*
X172152076Y-70803460D01*
X172752076Y-70803460D01*
X172452076Y-71303460D01*
G37*
X172452076Y-71303460D02*
X172152076Y-70803460D01*
X172752076Y-70803460D01*
X172452076Y-71303460D01*
%TO.C,J3*%
X163150000Y-112300000D02*
X163150000Y-90100000D01*
X178850000Y-112300000D02*
X163150000Y-112300000D01*
X163150000Y-90100000D02*
X178850000Y-90100000D01*
X165400000Y-112550000D02*
X162900000Y-112550000D01*
X162900000Y-112550000D02*
X162900000Y-110050000D01*
X178850000Y-112300000D02*
X178850000Y-90100000D01*
%TO.C,J2*%
X103457500Y-90160000D02*
X103457500Y-77840000D01*
X115917500Y-90160000D02*
X120177500Y-90160000D01*
X120897500Y-84750000D02*
X120397500Y-85250000D01*
X111817500Y-90160000D02*
X103457500Y-90160000D01*
X103457500Y-77840000D02*
X111817500Y-77840000D01*
X120177500Y-77840000D02*
X115917500Y-77840000D01*
X120177500Y-90160000D02*
X120177500Y-77840000D01*
X120397500Y-85250000D02*
X120897500Y-85750000D01*
X120897500Y-85750000D02*
X120897500Y-84750000D01*
%TO.C,J1*%
X113750000Y-103600000D02*
X105150000Y-103600000D01*
X105150000Y-94400000D02*
X119650000Y-94400000D01*
X119650000Y-101600000D02*
X119650000Y-103600000D01*
X119650000Y-103600000D02*
X118350000Y-103600000D01*
X119950000Y-95800000D02*
X119950000Y-94100000D01*
X105150000Y-103600000D02*
X105150000Y-94400000D01*
X119650000Y-94400000D02*
X119650000Y-96400000D01*
X119950000Y-94100000D02*
X118650000Y-94100000D01*
D13*
%TO.C,IC1*%
X160400000Y-93600000D02*
X160400000Y-100400000D01*
X147600000Y-100400000D02*
X147600000Y-93600000D01*
X147585000Y-102675000D02*
X147585000Y-100750000D01*
X147600000Y-93600000D02*
X160400000Y-93600000D01*
X160400000Y-100400000D02*
X147600000Y-100400000D01*
D12*
%TO.C,D6*%
X126285000Y-108135000D02*
X126285000Y-105865000D01*
X122400000Y-108135000D02*
X126285000Y-108135000D01*
X126285000Y-105865000D02*
X122400000Y-105865000D01*
%TO.C,D5*%
X155500000Y-89850000D02*
X155500000Y-88150000D01*
X155500000Y-88150000D02*
X152950000Y-88150000D01*
X155500000Y-89850000D02*
X152950000Y-89850000D01*
%TO.C,D4*%
X146500000Y-86850000D02*
X143950000Y-86850000D01*
X146500000Y-85150000D02*
X143950000Y-85150000D01*
X146500000Y-86850000D02*
X146500000Y-85150000D01*
%TO.C,D3*%
X139865000Y-107285000D02*
X142135000Y-107285000D01*
X139865000Y-103400000D02*
X139865000Y-107285000D01*
X142135000Y-107285000D02*
X142135000Y-103400000D01*
%TO.C,D2*%
X130800000Y-106300000D02*
X130800000Y-105700000D01*
X129700000Y-105275000D02*
X129700000Y-105500000D01*
X129700000Y-106725000D02*
X132000000Y-106725000D01*
X131200000Y-106400000D02*
X131100000Y-106300000D01*
X131100000Y-106000000D02*
X130800000Y-106300000D01*
X132000000Y-105275000D02*
X129700000Y-105275000D01*
X130800000Y-105700000D02*
X131100000Y-106000000D01*
X129700000Y-106500000D02*
X129700000Y-106725000D01*
X131400000Y-106000000D02*
X131100000Y-106000000D01*
X132000000Y-105500000D02*
X132000000Y-105275000D01*
X132000000Y-106725000D02*
X132000000Y-106500000D01*
X131100000Y-106300000D02*
X131100000Y-105700000D01*
X131100000Y-105700000D02*
X131000000Y-105600000D01*
X130800000Y-106000000D02*
X130300000Y-106000000D01*
%TO.C,D1*%
X120865000Y-93085000D02*
X123135000Y-93085000D01*
X120865000Y-89200000D02*
X120865000Y-93085000D01*
X123135000Y-93085000D02*
X123135000Y-89200000D01*
%TO.C,C7*%
X144859420Y-90510000D02*
X145140580Y-90510000D01*
X144859420Y-89490000D02*
X145140580Y-89490000D01*
%TO.C,C6*%
X160735000Y-89261252D02*
X160735000Y-88738748D01*
X159265000Y-89261252D02*
X159265000Y-88738748D01*
%TO.C,C5*%
X148897504Y-84885000D02*
X148375000Y-84885000D01*
X148897504Y-86355000D02*
X148375000Y-86355000D01*
%TO.C,C4*%
X121600000Y-80400000D02*
X122400000Y-80400000D01*
X122000000Y-80100000D02*
X122000000Y-79900000D01*
X121600000Y-80100000D02*
X122400000Y-80100000D01*
X122000000Y-80600000D02*
X122000000Y-80400000D01*
%TO.C,C3*%
X132400000Y-77400000D02*
X132400000Y-76600000D01*
X132100000Y-77000000D02*
X131900000Y-77000000D01*
X132100000Y-77400000D02*
X132100000Y-76600000D01*
X132600000Y-77000000D02*
X132400000Y-77000000D01*
%TO.C,C1*%
X145590000Y-110345563D02*
X145590000Y-109060000D01*
X145590000Y-105654437D02*
X146654437Y-104590000D01*
X146654437Y-111410000D02*
X152410000Y-111410000D01*
X152410000Y-111410000D02*
X152410000Y-109060000D01*
X146654437Y-104590000D02*
X152410000Y-104590000D01*
X145590000Y-105654437D02*
X145590000Y-106940000D01*
X144956250Y-105758750D02*
X144956250Y-106546250D01*
X152410000Y-104590000D02*
X152410000Y-106940000D01*
X144562500Y-106152500D02*
X145350000Y-106152500D01*
X145590000Y-110345563D02*
X146654437Y-111410000D01*
%TD*%
%LPC*%
D14*
%TO.C,REF\u002A\u002A*%
X161500000Y-72000000D03*
%TD*%
%TO.C,REF\u002A\u002A*%
X114000000Y-109000000D03*
%TD*%
%TO.C,REF\u002A\u002A*%
X114000000Y-72000000D03*
%TD*%
D15*
%TO.C,U2*%
X131850000Y-95700000D03*
D16*
X138150000Y-98000000D03*
D15*
X131850000Y-98000000D03*
X131850000Y-100300000D03*
%TD*%
D17*
%TO.C,U1*%
X124525000Y-77555000D03*
X124525000Y-78825000D03*
X124525000Y-80095000D03*
X124525000Y-81365000D03*
X124525000Y-82635000D03*
X124525000Y-83905000D03*
X124525000Y-85175000D03*
X124525000Y-86445000D03*
X129475000Y-86445000D03*
X129475000Y-85175000D03*
X129475000Y-83905000D03*
X129475000Y-82635000D03*
X129475000Y-81365000D03*
X129475000Y-80095000D03*
X129475000Y-78825000D03*
X129475000Y-77555000D03*
%TD*%
D18*
%TO.C,R8*%
X119175000Y-107412500D03*
X120825000Y-107412500D03*
%TD*%
D19*
%TO.C,R7*%
X143737742Y-92347500D03*
X145387742Y-92347500D03*
%TD*%
D20*
%TO.C,R6*%
X150000000Y-89825000D03*
X150000000Y-88175000D03*
%TD*%
D21*
%TO.C,R5*%
X139087500Y-109000000D03*
X140912500Y-109000000D03*
%TD*%
D19*
%TO.C,R4*%
X128825000Y-104000000D03*
X127175000Y-104000000D03*
%TD*%
D22*
%TO.C,R3*%
X132110000Y-102619516D03*
X132110000Y-104269516D03*
%TD*%
D19*
%TO.C,R2*%
X126262258Y-92477500D03*
X124612258Y-92477500D03*
%TD*%
%TO.C,R1*%
X129825000Y-92412500D03*
X128175000Y-92412500D03*
%TD*%
D23*
%TO.C,Q1*%
X128937500Y-101950000D03*
X128937500Y-100050000D03*
X127062500Y-101000000D03*
%TD*%
D24*
%TO.C,J5*%
X137600000Y-77850000D03*
D25*
X137600000Y-75310000D03*
X137600000Y-72770000D03*
X137600000Y-70230000D03*
%TD*%
D26*
%TO.C,J4*%
X174400000Y-69750000D03*
X174400000Y-87550000D03*
D27*
X172525000Y-72150000D03*
X176275000Y-73150000D03*
X172525000Y-74150000D03*
X176275000Y-75150000D03*
X172525000Y-76150000D03*
X176275000Y-77150000D03*
X172525000Y-78150000D03*
X176275000Y-79150000D03*
X172525000Y-80150000D03*
X176275000Y-81150000D03*
X172525000Y-82150000D03*
X176275000Y-83150000D03*
X172525000Y-84150000D03*
X176275000Y-85150000D03*
%TD*%
D28*
%TO.C,J3*%
X171000000Y-106200000D03*
D29*
X171000000Y-96200000D03*
%TD*%
D24*
%TO.C,J2*%
X118577500Y-85250000D03*
D30*
X118577500Y-82750000D03*
X116577500Y-82750000D03*
X116577500Y-85250000D03*
D31*
X113867500Y-90020000D03*
X113867500Y-77980000D03*
%TD*%
D32*
%TO.C,J1*%
X118950000Y-99000000D03*
D33*
X112650000Y-99000000D03*
D34*
X116050000Y-103800000D03*
%TD*%
D35*
%TO.C,IC1*%
X148285000Y-101712000D03*
X149555000Y-101712000D03*
X150825000Y-101712000D03*
X152095000Y-101712000D03*
X153365000Y-101712000D03*
X154635000Y-101712000D03*
X155905000Y-101712000D03*
X157175000Y-101712000D03*
X158445000Y-101712000D03*
X159715000Y-101712000D03*
X159715000Y-92288000D03*
X158445000Y-92288000D03*
X157175000Y-92288000D03*
X155905000Y-92288000D03*
X154635000Y-92288000D03*
X153365000Y-92288000D03*
X152095000Y-92288000D03*
X150825000Y-92288000D03*
X149555000Y-92288000D03*
X148285000Y-92288000D03*
%TD*%
D36*
%TO.C,D6*%
X125400000Y-107000000D03*
X122600000Y-107000000D03*
%TD*%
D37*
%TO.C,D5*%
X155050000Y-89000000D03*
X152950000Y-89000000D03*
%TD*%
%TO.C,D4*%
X143950000Y-86000000D03*
X146050000Y-86000000D03*
%TD*%
D38*
%TO.C,D3*%
X141000000Y-106400000D03*
X141000000Y-103600000D03*
%TD*%
D39*
%TO.C,D2*%
X132000000Y-106000000D03*
X129650000Y-106000000D03*
%TD*%
D38*
%TO.C,D1*%
X122000000Y-92200000D03*
X122000000Y-89400000D03*
%TD*%
D40*
%TO.C,C7*%
X144225000Y-90000000D03*
X145775000Y-90000000D03*
%TD*%
D41*
%TO.C,C6*%
X160000000Y-89950000D03*
X160000000Y-88050000D03*
%TD*%
D42*
%TO.C,C5*%
X149586252Y-85620000D03*
X147686252Y-85620000D03*
%TD*%
D43*
%TO.C,C4*%
X122000000Y-81000000D03*
X122000000Y-79500000D03*
%TD*%
D44*
%TO.C,C3*%
X133000000Y-77000000D03*
X131500000Y-77000000D03*
%TD*%
D45*
%TO.C,C1*%
X151700000Y-108000000D03*
X146300000Y-108000000D03*
%TD*%
M02*
