M48
; DRILL file {KiCad (6.0.10)} date Thu Feb 16 23:49:09 2023
; FORMAT={-:-/ absolute / metric / decimal}
; #@! TF.CreationDate,2023-02-16T23:49:09+01:00
; #@! TF.GenerationSoftware,Kicad,Pcbnew,(6.0.10)
; #@! TF.FileFunction,Plated,1,2,PTH
FMAT,2
METRIC
; #@! TA.AperFunction,Plated,PTH,ViaDrill
T1C0.400
; #@! TA.AperFunction,Plated,PTH,ComponentDrill
T2C0.920
; #@! TA.AperFunction,Plated,PTH,ComponentDrill
T3C1.000
; #@! TA.AperFunction,Plated,PTH,ComponentDrill
T4C2.200
; #@! TA.AperFunction,Plated,PTH,ComponentDrill
T5C2.330
%
G90
G05
T1
X121.0Y-78.5
X121.0Y-97.0
X121.0Y-98.0
X121.0Y-99.0
X121.0Y-100.0
X121.0Y-101.0
X122.0Y-97.0
X122.0Y-98.0
X122.0Y-99.0
X122.0Y-100.0
X122.0Y-101.0
X123.0Y-76.5
X123.0Y-97.0
X123.0Y-98.0
X123.0Y-99.0
X123.0Y-100.0
X123.0Y-101.0
X124.0Y-97.0
X124.0Y-98.0
X124.0Y-99.0
X124.0Y-100.0
X124.0Y-101.0
X126.5Y-81.5
X126.988Y-77.988
X137.5Y-90.0
X141.0Y-88.5
X142.5Y-86.5
X144.0Y-98.0
X145.0Y-106.5
X146.5Y-81.5
X146.5Y-94.0
X147.0Y-83.0
X148.0Y-75.5
X148.5Y-70.5
X148.5Y-79.0
X148.5Y-95.0
X148.5Y-96.0
X148.5Y-97.0
X149.0Y-98.0
X149.5Y-95.0
X149.5Y-96.0
X149.5Y-97.0
X149.5Y-103.5
X150.0Y-98.0
X150.0Y-99.5
X150.5Y-95.0
X150.5Y-96.0
X150.5Y-97.0
X151.5Y-90.5
X154.0Y-74.5
X154.0Y-81.5
X155.5Y-80.5
X156.0Y-83.0
X157.0Y-90.5
X158.5Y-103.5
X159.5Y-99.5
X160.0Y-86.5
X161.5Y-92.5
X164.5Y-79.0
X165.0Y-75.5
X165.0Y-84.0
X167.0Y-83.0
X172.0Y-83.0
X176.0Y-80.5
T2
X116.578Y-82.75
X116.578Y-85.25
X118.578Y-82.75
X118.578Y-85.25
T3
X137.6Y-70.23
X137.6Y-72.77
X137.6Y-75.31
X137.6Y-77.85
T4
X171.0Y-96.2
X171.0Y-106.2
T5
X113.867Y-77.98
X113.867Y-90.02
T3
X112.65Y-97.9G85X112.65Y-100.1
G05
X117.15Y-103.8G85X114.95Y-103.8
G05
X118.95Y-97.7G85X118.95Y-100.3
G05
T0
M30
