G04 #@! TF.GenerationSoftware,KiCad,Pcbnew,(6.0.10)*
G04 #@! TF.CreationDate,2023-02-17T01:50:34+01:00*
G04 #@! TF.ProjectId,Axe_lin_aire,4178655f-6c69-46ee-9961-6972652e6b69,rev?*
G04 #@! TF.SameCoordinates,Original*
G04 #@! TF.FileFunction,Soldermask,Top*
G04 #@! TF.FilePolarity,Negative*
%FSLAX46Y46*%
G04 Gerber Fmt 4.6, Leading zero omitted, Abs format (unit mm)*
G04 Created by KiCad (PCBNEW (6.0.10)) date 2023-02-17 01:50:34*
%MOMM*%
%LPD*%
G01*
G04 APERTURE LIST*
G04 Aperture macros list*
%AMRoundRect*
0 Rectangle with rounded corners*
0 $1 Rounding radius*
0 $2 $3 $4 $5 $6 $7 $8 $9 X,Y pos of 4 corners*
0 Add a 4 corners polygon primitive as box body*
4,1,4,$2,$3,$4,$5,$6,$7,$8,$9,$2,$3,0*
0 Add four circle primitives for the rounded corners*
1,1,$1+$1,$2,$3*
1,1,$1+$1,$4,$5*
1,1,$1+$1,$6,$7*
1,1,$1+$1,$8,$9*
0 Add four rect primitives between the rounded corners*
20,1,$1+$1,$2,$3,$4,$5,0*
20,1,$1+$1,$4,$5,$6,$7,0*
20,1,$1+$1,$6,$7,$8,$9,0*
20,1,$1+$1,$8,$9,$2,$3,0*%
%AMFreePoly0*
4,1,22,0.500000,-0.750000,0.000000,-0.750000,0.000000,-0.745033,-0.079941,-0.743568,-0.215256,-0.701293,-0.333266,-0.622738,-0.424486,-0.514219,-0.481581,-0.384460,-0.499164,-0.250000,-0.500000,-0.250000,-0.500000,0.250000,-0.499164,0.250000,-0.499963,0.256109,-0.478152,0.396186,-0.417904,0.524511,-0.324060,0.630769,-0.204165,0.706417,-0.067858,0.745374,0.000000,0.744959,0.000000,0.750000,
0.500000,0.750000,0.500000,-0.750000,0.500000,-0.750000,$1*%
%AMFreePoly1*
4,1,20,0.000000,0.744959,0.073905,0.744508,0.209726,0.703889,0.328688,0.626782,0.421226,0.519385,0.479903,0.390333,0.500000,0.250000,0.500000,-0.250000,0.499851,-0.262216,0.476331,-0.402017,0.414519,-0.529596,0.319384,-0.634700,0.198574,-0.708877,0.061801,-0.746166,0.000000,-0.745033,0.000000,-0.750000,-0.500000,-0.750000,-0.500000,0.750000,0.000000,0.750000,0.000000,0.744959,
0.000000,0.744959,$1*%
%AMFreePoly2*
4,1,53,-0.099833,0.852494,-0.099048,0.852106,-0.098232,0.851768,-0.098198,0.851685,-0.098118,0.851646,-0.097838,0.850816,-0.097500,0.850000,-0.097500,0.350000,0.950000,0.350000,0.950000,-0.350000,-0.946033,-0.350000,-0.948424,-0.351941,-0.948767,-0.352043,-0.949015,-0.352297,-0.949646,-0.352305,-0.950258,-0.352487,-0.950573,-0.352317,-0.950929,-0.352321,-0.951382,-0.351879,-0.951941,-0.351576,
-0.952043,-0.351233,-0.952298,-0.350984,-0.987367,-0.269161,-0.987370,-0.268922,-0.987508,-0.268726,-1.026602,-0.095087,-1.026556,-0.094819,-1.026663,-0.094568,-1.028802,0.083403,-1.028700,0.083657,-1.028753,0.083923,-0.993844,0.258450,-0.993693,0.258676,-0.993689,0.258949,-0.923255,0.422405,-0.923060,0.422595,-0.922999,0.422861,-0.820121,0.568100,-0.819891,0.568245,-0.819776,0.568493,
-0.688950,0.689169,-0.688695,0.689263,-0.688531,0.689482,-0.535473,0.780321,-0.535203,0.780360,-0.534998,0.780539,-0.366398,0.837571,-0.366126,0.837553,-0.365888,0.837686,-0.189116,0.858417,-0.188884,0.858351,-0.188657,0.858428,-0.099833,0.852494,-0.099833,0.852494,$1*%
%AMFreePoly3*
4,1,53,0.188884,0.858352,0.189115,0.858417,0.365888,0.837686,0.366126,0.837553,0.366398,0.837571,0.534998,0.780539,0.535203,0.780360,0.535473,0.780321,0.688531,0.689482,0.688694,0.689264,0.688950,0.689170,0.819776,0.568493,0.819891,0.568245,0.820121,0.568100,0.922999,0.422861,0.923060,0.422595,0.923255,0.422405,0.993689,0.258950,0.993693,0.258676,0.993844,0.258450,
1.028753,0.083923,1.028700,0.083657,1.028802,0.083403,1.026663,-0.094568,1.026556,-0.094819,1.026602,-0.095087,0.987508,-0.268725,0.987370,-0.268921,0.987367,-0.269161,0.952298,-0.350985,0.952043,-0.351234,0.951941,-0.351576,0.951384,-0.351877,0.950929,-0.352322,0.950571,-0.352318,0.950258,-0.352487,0.949650,-0.352306,0.949015,-0.352298,0.948766,-0.352043,0.948424,-0.351941,
0.946033,-0.350000,-0.950000,-0.350000,-0.950000,0.350000,0.097500,0.350000,0.097500,0.850000,0.097838,0.850816,0.098118,0.851646,0.098198,0.851685,0.098232,0.851768,0.099048,0.852106,0.099833,0.852494,0.188657,0.858428,0.188884,0.858352,0.188884,0.858352,$1*%
%AMFreePoly4*
4,1,22,0.550000,-0.750000,0.000000,-0.750000,0.000000,-0.745033,-0.079941,-0.743568,-0.215256,-0.701293,-0.333266,-0.622738,-0.424486,-0.514219,-0.481581,-0.384460,-0.499164,-0.250000,-0.500000,-0.250000,-0.500000,0.250000,-0.499164,0.250000,-0.499963,0.256109,-0.478152,0.396186,-0.417904,0.524511,-0.324060,0.630769,-0.204165,0.706417,-0.067858,0.745374,0.000000,0.744959,0.000000,0.750000,
0.550000,0.750000,0.550000,-0.750000,0.550000,-0.750000,$1*%
%AMFreePoly5*
4,1,20,0.000000,0.744959,0.073905,0.744508,0.209726,0.703889,0.328688,0.626782,0.421226,0.519385,0.479903,0.390333,0.500000,0.250000,0.500000,-0.250000,0.499851,-0.262216,0.476331,-0.402017,0.414519,-0.529596,0.319384,-0.634700,0.198574,-0.708877,0.061801,-0.746166,0.000000,-0.745033,0.000000,-0.750000,-0.550000,-0.750000,-0.550000,0.750000,0.000000,0.750000,0.000000,0.744959,
0.000000,0.744959,$1*%
G04 Aperture macros list end*
%ADD10R,1.250000X0.500000*%
%ADD11C,3.000000*%
%ADD12R,0.800000X0.300000*%
%ADD13RoundRect,0.200000X-0.275000X0.200000X-0.275000X-0.200000X0.275000X-0.200000X0.275000X0.200000X0*%
%ADD14FreePoly0,180.000000*%
%ADD15FreePoly1,180.000000*%
%ADD16RoundRect,0.200000X-0.200000X-0.275000X0.200000X-0.275000X0.200000X0.275000X-0.200000X0.275000X0*%
%ADD17RoundRect,0.200000X0.275000X-0.200000X0.275000X0.200000X-0.275000X0.200000X-0.275000X-0.200000X0*%
%ADD18R,1.400000X2.750000*%
%ADD19R,1.600000X2.000000*%
%ADD20R,1.750000X0.500000*%
%ADD21R,0.475000X0.250000*%
%ADD22R,0.250000X0.475000*%
%ADD23RoundRect,0.250000X-0.262500X-0.450000X0.262500X-0.450000X0.262500X0.450000X-0.262500X0.450000X0*%
%ADD24O,1.800000X1.800000*%
%ADD25O,1.500000X1.500000*%
%ADD26R,1.700000X3.500000*%
%ADD27O,1.700000X1.700000*%
%ADD28R,1.700000X1.700000*%
%ADD29RoundRect,0.250000X0.450000X-0.262500X0.450000X0.262500X-0.450000X0.262500X-0.450000X-0.262500X0*%
%ADD30FreePoly2,90.000000*%
%ADD31R,1.000000X1.900000*%
%ADD32FreePoly3,270.000000*%
%ADD33FreePoly3,90.000000*%
%ADD34R,0.700000X1.900000*%
%ADD35FreePoly2,270.000000*%
%ADD36RoundRect,0.250000X-0.625000X0.375000X-0.625000X-0.375000X0.625000X-0.375000X0.625000X0.375000X0*%
%ADD37R,0.700000X1.200000*%
%ADD38R,1.000000X0.800000*%
%ADD39R,1.300000X1.900000*%
%ADD40R,1.000000X1.200000*%
%ADD41R,1.000000X2.800000*%
%ADD42C,2.000000*%
%ADD43R,1.050000X1.700000*%
%ADD44R,0.400000X0.800000*%
%ADD45RoundRect,0.150000X0.150000X-0.587500X0.150000X0.587500X-0.150000X0.587500X-0.150000X-0.587500X0*%
%ADD46FreePoly4,270.000000*%
%ADD47R,1.500000X1.000000*%
%ADD48FreePoly5,270.000000*%
%ADD49RoundRect,0.250000X-1.500000X-0.550000X1.500000X-0.550000X1.500000X0.550000X-1.500000X0.550000X0*%
%ADD50RoundRect,0.150000X-0.150000X0.587500X-0.150000X-0.587500X0.150000X-0.587500X0.150000X0.587500X0*%
%ADD51R,0.500000X1.250000*%
%ADD52R,1.000000X0.750000*%
G04 APERTURE END LIST*
D10*
G04 #@! TO.C,C2*
X116500000Y-105750000D03*
X116500000Y-107250000D03*
G04 #@! TD*
G04 #@! TO.C,C1*
X114000000Y-105900000D03*
X114000000Y-107400000D03*
G04 #@! TD*
D11*
G04 #@! TO.C,REF\u002A\u002A*
X102500000Y-60500000D03*
G04 #@! TD*
D12*
G04 #@! TO.C,U4*
X155450000Y-106000000D03*
X155450000Y-106500000D03*
X155450000Y-107000000D03*
X155450000Y-107500000D03*
X158550000Y-107500000D03*
X158550000Y-107000000D03*
X158550000Y-106500000D03*
X158550000Y-106000000D03*
G04 #@! TD*
D13*
G04 #@! TO.C,R11*
X171000000Y-97675000D03*
X171000000Y-99325000D03*
G04 #@! TD*
D14*
G04 #@! TO.C,JP2*
X109150000Y-103500000D03*
D15*
X107850000Y-103500000D03*
G04 #@! TD*
D16*
G04 #@! TO.C,R6*
X112175000Y-101000000D03*
X113825000Y-101000000D03*
G04 #@! TD*
D17*
G04 #@! TO.C,R2*
X159562742Y-59712500D03*
X159562742Y-58062500D03*
G04 #@! TD*
D18*
G04 #@! TO.C,SW1*
X127500000Y-71525000D03*
X127500000Y-65475000D03*
X131500000Y-71525000D03*
X131500000Y-65475000D03*
G04 #@! TD*
D19*
G04 #@! TO.C,J2*
X162000000Y-85600000D03*
X162000000Y-103400000D03*
D20*
X163875000Y-101000000D03*
X160125000Y-100000000D03*
X163875000Y-99000000D03*
X160125000Y-98000000D03*
X163875000Y-97000000D03*
X160125000Y-96000000D03*
X163875000Y-95000000D03*
X160125000Y-94000000D03*
X163875000Y-93000000D03*
X160125000Y-92000000D03*
X163875000Y-91000000D03*
X160125000Y-90000000D03*
X163875000Y-89000000D03*
X160125000Y-88000000D03*
G04 #@! TD*
D21*
G04 #@! TO.C,U2*
X113337500Y-103250000D03*
X113337500Y-103750000D03*
X113337500Y-104250000D03*
X113337500Y-104750000D03*
D22*
X114000000Y-104912500D03*
X114500000Y-104912500D03*
X115000000Y-104912500D03*
D21*
X115662500Y-104750000D03*
X115662500Y-104250000D03*
X115662500Y-103750000D03*
X115662500Y-103250000D03*
D22*
X115000000Y-103087500D03*
X114500000Y-103087500D03*
X114000000Y-103087500D03*
G04 #@! TD*
D23*
G04 #@! TO.C,R12*
X162675000Y-108250000D03*
X164500000Y-108250000D03*
G04 #@! TD*
D24*
G04 #@! TO.C,U1*
X102000000Y-90225000D03*
D25*
X105030000Y-89925000D03*
D24*
X102000000Y-84775000D03*
D25*
X105030000Y-85075000D03*
D26*
X101870000Y-97290000D03*
D27*
X101870000Y-96390000D03*
D26*
X104410000Y-97290000D03*
D27*
X104410000Y-96390000D03*
D26*
X106950000Y-97290000D03*
D28*
X106950000Y-96390000D03*
D27*
X109490000Y-96390000D03*
D26*
X109490000Y-97290000D03*
X112030000Y-97290000D03*
D27*
X112030000Y-96390000D03*
X114570000Y-96390000D03*
D26*
X114570000Y-97290000D03*
D27*
X117110000Y-96390000D03*
D26*
X117110000Y-97290000D03*
X119650000Y-97290000D03*
D28*
X119650000Y-96390000D03*
D27*
X122190000Y-96390000D03*
D26*
X122190000Y-97290000D03*
X124730000Y-97290000D03*
D27*
X124730000Y-96390000D03*
D26*
X127270000Y-97290000D03*
D27*
X127270000Y-96390000D03*
D26*
X129810000Y-97290000D03*
D27*
X129810000Y-96390000D03*
D28*
X132350000Y-96390000D03*
D26*
X132350000Y-97290000D03*
D27*
X134890000Y-96390000D03*
D26*
X134890000Y-97290000D03*
D27*
X137430000Y-96390000D03*
D26*
X137430000Y-97290000D03*
X139970000Y-97290000D03*
D27*
X139970000Y-96390000D03*
X142510000Y-96390000D03*
D26*
X142510000Y-97290000D03*
X145050000Y-97290000D03*
D28*
X145050000Y-96390000D03*
D26*
X147590000Y-97290000D03*
D27*
X147590000Y-96390000D03*
D26*
X150130000Y-97290000D03*
D27*
X150130000Y-96390000D03*
X150130000Y-78610000D03*
D26*
X150130000Y-77710000D03*
X147590000Y-77710000D03*
D27*
X147590000Y-78610000D03*
D28*
X145050000Y-78610000D03*
D26*
X145050000Y-77710000D03*
X142510000Y-77710000D03*
D27*
X142510000Y-78610000D03*
X139970000Y-78610000D03*
D26*
X139970000Y-77710000D03*
X137430000Y-77710000D03*
D27*
X137430000Y-78610000D03*
X134890000Y-78610000D03*
D26*
X134890000Y-77710000D03*
D28*
X132350000Y-78610000D03*
D26*
X132350000Y-77710000D03*
D27*
X129810000Y-78610000D03*
D26*
X129810000Y-77710000D03*
X127270000Y-77710000D03*
D27*
X127270000Y-78610000D03*
X124730000Y-78610000D03*
D26*
X124730000Y-77710000D03*
X122190000Y-77710000D03*
D27*
X122190000Y-78610000D03*
D28*
X119650000Y-78610000D03*
D26*
X119650000Y-77710000D03*
X117110000Y-77710000D03*
D27*
X117110000Y-78610000D03*
X114570000Y-78610000D03*
D26*
X114570000Y-77710000D03*
X112030000Y-77710000D03*
D27*
X112030000Y-78610000D03*
D26*
X109490000Y-77710000D03*
D27*
X109490000Y-78610000D03*
D26*
X106950000Y-77710000D03*
D28*
X106950000Y-78610000D03*
D27*
X104410000Y-78610000D03*
D26*
X104410000Y-77710000D03*
X101870000Y-77710000D03*
D27*
X101870000Y-78610000D03*
X131600000Y-86915900D03*
D28*
X131600000Y-84375900D03*
D27*
X131600000Y-81835900D03*
G04 #@! TD*
D17*
G04 #@! TO.C,R5*
X171000000Y-102325000D03*
X171000000Y-100675000D03*
G04 #@! TD*
D29*
G04 #@! TO.C,R9*
X154000000Y-64912500D03*
X154000000Y-63087500D03*
G04 #@! TD*
D30*
G04 #@! TO.C,U3*
X169900000Y-109200000D03*
D31*
X171300000Y-109200000D03*
D32*
X172700000Y-109200000D03*
D33*
X169900000Y-104300000D03*
D34*
X171300000Y-104300000D03*
D35*
X172700000Y-104300000D03*
G04 #@! TD*
D36*
G04 #@! TO.C,D3*
X154000000Y-67100000D03*
X154000000Y-69900000D03*
G04 #@! TD*
D37*
G04 #@! TO.C,J3*
X141725000Y-73725000D03*
X142825000Y-73725000D03*
X143925000Y-73725000D03*
X145025000Y-73725000D03*
X146125000Y-73725000D03*
X147225000Y-73725000D03*
X148325000Y-73725000D03*
X149425000Y-73725000D03*
X150375000Y-73725000D03*
D38*
X151325000Y-63225000D03*
D39*
X137825000Y-58625000D03*
D40*
X140175000Y-73725000D03*
D41*
X151325000Y-59075000D03*
D40*
X151325000Y-69425000D03*
G04 #@! TD*
D42*
G04 #@! TO.C,TP3*
X158750000Y-102500000D03*
G04 #@! TD*
D17*
G04 #@! TO.C,R10*
X172500000Y-99325000D03*
X172500000Y-97675000D03*
G04 #@! TD*
D43*
G04 #@! TO.C,D2*
X141455000Y-103500000D03*
X138545000Y-103500000D03*
G04 #@! TD*
D11*
G04 #@! TO.C,REF\u002A\u002A*
X146500000Y-107500000D03*
G04 #@! TD*
D16*
G04 #@! TO.C,R3*
X166175000Y-108587500D03*
X167825000Y-108587500D03*
G04 #@! TD*
D17*
G04 #@! TO.C,R1*
X109500000Y-107325000D03*
X109500000Y-105675000D03*
G04 #@! TD*
G04 #@! TO.C,R4*
X172500000Y-102325000D03*
X172500000Y-100675000D03*
G04 #@! TD*
D44*
G04 #@! TO.C,FB1*
X156500000Y-59500000D03*
X157700000Y-59500000D03*
G04 #@! TD*
D17*
G04 #@! TO.C,R8*
X135065000Y-103325000D03*
X135065000Y-101675000D03*
G04 #@! TD*
D45*
G04 #@! TO.C,Q1*
X102050000Y-71937500D03*
X103950000Y-71937500D03*
X103000000Y-70062500D03*
G04 #@! TD*
D42*
G04 #@! TO.C,TP2*
X155250000Y-102500000D03*
G04 #@! TD*
G04 #@! TO.C,TP1*
X122750000Y-105250000D03*
G04 #@! TD*
D46*
G04 #@! TO.C,JP1*
X119000000Y-104200000D03*
D47*
X119000000Y-105500000D03*
D48*
X119000000Y-106800000D03*
G04 #@! TD*
D11*
G04 #@! TO.C,REF\u002A\u002A*
X128500000Y-107500000D03*
G04 #@! TD*
D49*
G04 #@! TO.C,C4*
X166300000Y-61000000D03*
X171700000Y-61000000D03*
G04 #@! TD*
D50*
G04 #@! TO.C,Q2*
X159450000Y-63062500D03*
X157550000Y-63062500D03*
X158500000Y-64937500D03*
G04 #@! TD*
D42*
G04 #@! TO.C,TP4*
X108250000Y-100750000D03*
G04 #@! TD*
D19*
G04 #@! TO.C,J1*
X161500000Y-64100000D03*
X161500000Y-81900000D03*
D20*
X163375000Y-79500000D03*
X159625000Y-78500000D03*
X163375000Y-77500000D03*
X159625000Y-76500000D03*
X163375000Y-75500000D03*
X159625000Y-74500000D03*
X163375000Y-73500000D03*
X159625000Y-72500000D03*
X163375000Y-71500000D03*
X159625000Y-70500000D03*
X163375000Y-69500000D03*
X159625000Y-68500000D03*
X163375000Y-67500000D03*
X159625000Y-66500000D03*
G04 #@! TD*
D51*
G04 #@! TO.C,C5*
X153750000Y-59000000D03*
X155250000Y-59000000D03*
G04 #@! TD*
D16*
G04 #@! TO.C,R7*
X115175000Y-101000000D03*
X116825000Y-101000000D03*
G04 #@! TD*
D42*
G04 #@! TO.C,TP5*
X121250000Y-100750000D03*
G04 #@! TD*
D52*
G04 #@! TO.C,D1*
X157325000Y-61000000D03*
X159675000Y-61000000D03*
G04 #@! TD*
D49*
G04 #@! TO.C,C3*
X107300000Y-68500000D03*
X112700000Y-68500000D03*
G04 #@! TD*
M02*
