%TF.GenerationSoftware,KiCad,Pcbnew,(6.0.10)*%
%TF.CreationDate,2023-02-15T00:38:02+01:00*%
%TF.ProjectId,Axe_lin_aire,4178655f-6c69-46ee-9961-6972652e6b69,rev?*%
%TF.SameCoordinates,Original*%
%TF.FileFunction,Legend,Top*%
%TF.FilePolarity,Positive*%
%FSLAX46Y46*%
G04 Gerber Fmt 4.6, Leading zero omitted, Abs format (unit mm)*
G04 Created by KiCad (PCBNEW (6.0.10)) date 2023-02-15 00:38:02*
%MOMM*%
%LPD*%
G01*
G04 APERTURE LIST*
%ADD10C,0.150000*%
%ADD11C,0.254000*%
%ADD12C,0.125000*%
%ADD13C,0.120000*%
%ADD14C,0.200000*%
%ADD15C,0.220000*%
G04 APERTURE END LIST*
D10*
%TO.C,C2*%
X117342857Y-105083333D02*
X117295238Y-105035714D01*
X117247619Y-104892857D01*
X117247619Y-104797619D01*
X117295238Y-104654761D01*
X117390476Y-104559523D01*
X117485714Y-104511904D01*
X117676190Y-104464285D01*
X117819047Y-104464285D01*
X118009523Y-104511904D01*
X118104761Y-104559523D01*
X118200000Y-104654761D01*
X118247619Y-104797619D01*
X118247619Y-104892857D01*
X118200000Y-105035714D01*
X118152380Y-105083333D01*
X118152380Y-105464285D02*
X118200000Y-105511904D01*
X118247619Y-105607142D01*
X118247619Y-105845238D01*
X118200000Y-105940476D01*
X118152380Y-105988095D01*
X118057142Y-106035714D01*
X117961904Y-106035714D01*
X117819047Y-105988095D01*
X117247619Y-105416666D01*
X117247619Y-106035714D01*
%TO.C,C1*%
X114842857Y-105233333D02*
X114795238Y-105185714D01*
X114747619Y-105042857D01*
X114747619Y-104947619D01*
X114795238Y-104804761D01*
X114890476Y-104709523D01*
X114985714Y-104661904D01*
X115176190Y-104614285D01*
X115319047Y-104614285D01*
X115509523Y-104661904D01*
X115604761Y-104709523D01*
X115700000Y-104804761D01*
X115747619Y-104947619D01*
X115747619Y-105042857D01*
X115700000Y-105185714D01*
X115652380Y-105233333D01*
X114747619Y-106185714D02*
X114747619Y-105614285D01*
X114747619Y-105900000D02*
X115747619Y-105900000D01*
X115604761Y-105804761D01*
X115509523Y-105709523D01*
X115461904Y-105614285D01*
%TO.C,REF\u002A\u002A*%
X105666666Y-58952380D02*
X105333333Y-58476190D01*
X105095238Y-58952380D02*
X105095238Y-57952380D01*
X105476190Y-57952380D01*
X105571428Y-58000000D01*
X105619047Y-58047619D01*
X105666666Y-58142857D01*
X105666666Y-58285714D01*
X105619047Y-58380952D01*
X105571428Y-58428571D01*
X105476190Y-58476190D01*
X105095238Y-58476190D01*
X106095238Y-58428571D02*
X106428571Y-58428571D01*
X106571428Y-58952380D02*
X106095238Y-58952380D01*
X106095238Y-57952380D01*
X106571428Y-57952380D01*
X107333333Y-58428571D02*
X107000000Y-58428571D01*
X107000000Y-58952380D02*
X107000000Y-57952380D01*
X107476190Y-57952380D01*
X108000000Y-57952380D02*
X108000000Y-58190476D01*
X107761904Y-58095238D02*
X108000000Y-58190476D01*
X108238095Y-58095238D01*
X107857142Y-58380952D02*
X108000000Y-58190476D01*
X108142857Y-58380952D01*
X108761904Y-57952380D02*
X108761904Y-58190476D01*
X108523809Y-58095238D02*
X108761904Y-58190476D01*
X109000000Y-58095238D01*
X108619047Y-58380952D02*
X108761904Y-58190476D01*
X108904761Y-58380952D01*
%TO.C,U4*%
X156238095Y-104202380D02*
X156238095Y-105011904D01*
X156285714Y-105107142D01*
X156333333Y-105154761D01*
X156428571Y-105202380D01*
X156619047Y-105202380D01*
X156714285Y-105154761D01*
X156761904Y-105107142D01*
X156809523Y-105011904D01*
X156809523Y-104202380D01*
X157714285Y-104535714D02*
X157714285Y-105202380D01*
X157476190Y-104154761D02*
X157238095Y-104869047D01*
X157857142Y-104869047D01*
%TO.C,R11*%
X172882380Y-99142857D02*
X172406190Y-99476190D01*
X172882380Y-99714285D02*
X171882380Y-99714285D01*
X171882380Y-99333333D01*
X171930000Y-99238095D01*
X171977619Y-99190476D01*
X172072857Y-99142857D01*
X172215714Y-99142857D01*
X172310952Y-99190476D01*
X172358571Y-99238095D01*
X172406190Y-99333333D01*
X172406190Y-99714285D01*
X172882380Y-98190476D02*
X172882380Y-98761904D01*
X172882380Y-98476190D02*
X171882380Y-98476190D01*
X172025238Y-98571428D01*
X172120476Y-98666666D01*
X172168095Y-98761904D01*
X172882380Y-97238095D02*
X172882380Y-97809523D01*
X172882380Y-97523809D02*
X171882380Y-97523809D01*
X172025238Y-97619047D01*
X172120476Y-97714285D01*
X172168095Y-97809523D01*
%TO.C,JP2*%
X107666666Y-104752380D02*
X107666666Y-105466666D01*
X107619047Y-105609523D01*
X107523809Y-105704761D01*
X107380952Y-105752380D01*
X107285714Y-105752380D01*
X108142857Y-105752380D02*
X108142857Y-104752380D01*
X108523809Y-104752380D01*
X108619047Y-104800000D01*
X108666666Y-104847619D01*
X108714285Y-104942857D01*
X108714285Y-105085714D01*
X108666666Y-105180952D01*
X108619047Y-105228571D01*
X108523809Y-105276190D01*
X108142857Y-105276190D01*
X109095238Y-104847619D02*
X109142857Y-104800000D01*
X109238095Y-104752380D01*
X109476190Y-104752380D01*
X109571428Y-104800000D01*
X109619047Y-104847619D01*
X109666666Y-104942857D01*
X109666666Y-105038095D01*
X109619047Y-105180952D01*
X109047619Y-105752380D01*
X109666666Y-105752380D01*
%TO.C,R6*%
X112833333Y-100022380D02*
X112500000Y-99546190D01*
X112261904Y-100022380D02*
X112261904Y-99022380D01*
X112642857Y-99022380D01*
X112738095Y-99070000D01*
X112785714Y-99117619D01*
X112833333Y-99212857D01*
X112833333Y-99355714D01*
X112785714Y-99450952D01*
X112738095Y-99498571D01*
X112642857Y-99546190D01*
X112261904Y-99546190D01*
X113690476Y-99022380D02*
X113500000Y-99022380D01*
X113404761Y-99070000D01*
X113357142Y-99117619D01*
X113261904Y-99260476D01*
X113214285Y-99450952D01*
X113214285Y-99831904D01*
X113261904Y-99927142D01*
X113309523Y-99974761D01*
X113404761Y-100022380D01*
X113595238Y-100022380D01*
X113690476Y-99974761D01*
X113738095Y-99927142D01*
X113785714Y-99831904D01*
X113785714Y-99593809D01*
X113738095Y-99498571D01*
X113690476Y-99450952D01*
X113595238Y-99403333D01*
X113404761Y-99403333D01*
X113309523Y-99450952D01*
X113261904Y-99498571D01*
X113214285Y-99593809D01*
%TO.C,R2*%
X158585122Y-59054166D02*
X158108932Y-59387500D01*
X158585122Y-59625595D02*
X157585122Y-59625595D01*
X157585122Y-59244642D01*
X157632742Y-59149404D01*
X157680361Y-59101785D01*
X157775599Y-59054166D01*
X157918456Y-59054166D01*
X158013694Y-59101785D01*
X158061313Y-59149404D01*
X158108932Y-59244642D01*
X158108932Y-59625595D01*
X157680361Y-58673214D02*
X157632742Y-58625595D01*
X157585122Y-58530357D01*
X157585122Y-58292261D01*
X157632742Y-58197023D01*
X157680361Y-58149404D01*
X157775599Y-58101785D01*
X157870837Y-58101785D01*
X158013694Y-58149404D01*
X158585122Y-58720833D01*
X158585122Y-58101785D01*
%TO.C,SW1*%
X133104761Y-77433333D02*
X133152380Y-77290476D01*
X133152380Y-77052380D01*
X133104761Y-76957142D01*
X133057142Y-76909523D01*
X132961904Y-76861904D01*
X132866666Y-76861904D01*
X132771428Y-76909523D01*
X132723809Y-76957142D01*
X132676190Y-77052380D01*
X132628571Y-77242857D01*
X132580952Y-77338095D01*
X132533333Y-77385714D01*
X132438095Y-77433333D01*
X132342857Y-77433333D01*
X132247619Y-77385714D01*
X132200000Y-77338095D01*
X132152380Y-77242857D01*
X132152380Y-77004761D01*
X132200000Y-76861904D01*
X132152380Y-76528571D02*
X133152380Y-76290476D01*
X132438095Y-76100000D01*
X133152380Y-75909523D01*
X132152380Y-75671428D01*
X133152380Y-74766666D02*
X133152380Y-75338095D01*
X133152380Y-75052380D02*
X132152380Y-75052380D01*
X132295238Y-75147619D01*
X132390476Y-75242857D01*
X132438095Y-75338095D01*
%TO.C,J2*%
X164752380Y-105933333D02*
X165466666Y-105933333D01*
X165609523Y-105980952D01*
X165704761Y-106076190D01*
X165752380Y-106219047D01*
X165752380Y-106314285D01*
X164847619Y-105504761D02*
X164800000Y-105457142D01*
X164752380Y-105361904D01*
X164752380Y-105123809D01*
X164800000Y-105028571D01*
X164847619Y-104980952D01*
X164942857Y-104933333D01*
X165038095Y-104933333D01*
X165180952Y-104980952D01*
X165752380Y-105552380D01*
X165752380Y-104933333D01*
D11*
%TO.C,U2*%
X113242380Y-103298523D02*
X113242380Y-104326619D01*
X113302857Y-104447571D01*
X113363333Y-104508047D01*
X113484285Y-104568523D01*
X113726190Y-104568523D01*
X113847142Y-104508047D01*
X113907619Y-104447571D01*
X113968095Y-104326619D01*
X113968095Y-103298523D01*
X114512380Y-103419476D02*
X114572857Y-103359000D01*
X114693809Y-103298523D01*
X114996190Y-103298523D01*
X115117142Y-103359000D01*
X115177619Y-103419476D01*
X115238095Y-103540428D01*
X115238095Y-103661380D01*
X115177619Y-103842809D01*
X114451904Y-104568523D01*
X115238095Y-104568523D01*
D10*
%TO.C,R12*%
X162944642Y-107052380D02*
X162611309Y-106576190D01*
X162373214Y-107052380D02*
X162373214Y-106052380D01*
X162754166Y-106052380D01*
X162849404Y-106100000D01*
X162897023Y-106147619D01*
X162944642Y-106242857D01*
X162944642Y-106385714D01*
X162897023Y-106480952D01*
X162849404Y-106528571D01*
X162754166Y-106576190D01*
X162373214Y-106576190D01*
X163897023Y-107052380D02*
X163325595Y-107052380D01*
X163611309Y-107052380D02*
X163611309Y-106052380D01*
X163516071Y-106195238D01*
X163420833Y-106290476D01*
X163325595Y-106338095D01*
X164277976Y-106147619D02*
X164325595Y-106100000D01*
X164420833Y-106052380D01*
X164658928Y-106052380D01*
X164754166Y-106100000D01*
X164801785Y-106147619D01*
X164849404Y-106242857D01*
X164849404Y-106338095D01*
X164801785Y-106480952D01*
X164230357Y-107052380D01*
X164849404Y-107052380D01*
%TO.C,U1*%
X125452380Y-88261904D02*
X126261904Y-88261904D01*
X126357142Y-88214285D01*
X126404761Y-88166666D01*
X126452380Y-88071428D01*
X126452380Y-87880952D01*
X126404761Y-87785714D01*
X126357142Y-87738095D01*
X126261904Y-87690476D01*
X125452380Y-87690476D01*
X126452380Y-86690476D02*
X126452380Y-87261904D01*
X126452380Y-86976190D02*
X125452380Y-86976190D01*
X125595238Y-87071428D01*
X125690476Y-87166666D01*
X125738095Y-87261904D01*
X140360592Y-75402277D02*
X140387529Y-75483089D01*
X140468341Y-75563902D01*
X140576091Y-75617776D01*
X140683841Y-75617776D01*
X140764653Y-75590839D01*
X140899340Y-75510027D01*
X140980152Y-75429215D01*
X141060964Y-75294528D01*
X141087902Y-75213715D01*
X141087902Y-75105966D01*
X141034027Y-74998216D01*
X140980152Y-74944341D01*
X140872402Y-74890467D01*
X140818528Y-74890467D01*
X140629966Y-75079028D01*
X140737715Y-75186778D01*
X140629966Y-74594155D02*
X140064280Y-75159841D01*
X139848781Y-74944341D01*
X139821844Y-74863529D01*
X139821844Y-74809654D01*
X139848781Y-74728842D01*
X139929593Y-74648030D01*
X140010406Y-74621093D01*
X140064280Y-74621093D01*
X140145093Y-74648030D01*
X140360592Y-74863529D01*
X139767969Y-73732158D02*
X140091218Y-74055407D01*
X139929593Y-73893783D02*
X139363908Y-74459468D01*
X139498595Y-74432531D01*
X139606345Y-74432531D01*
X139687157Y-74459468D01*
X139498595Y-73462784D02*
X139390845Y-73355035D01*
X139310033Y-73328097D01*
X139256158Y-73328097D01*
X139121471Y-73355035D01*
X138986784Y-73435847D01*
X138771285Y-73651346D01*
X138744348Y-73732158D01*
X138744348Y-73786033D01*
X138771285Y-73866845D01*
X138879035Y-73974595D01*
X138959847Y-74001532D01*
X139013722Y-74001532D01*
X139094534Y-73974595D01*
X139229221Y-73839908D01*
X139256158Y-73759096D01*
X139256158Y-73705221D01*
X139229221Y-73624409D01*
X139121471Y-73516659D01*
X139040659Y-73489722D01*
X138986784Y-73489722D01*
X138905972Y-73516659D01*
X135280592Y-101510277D02*
X135307529Y-101591089D01*
X135388341Y-101671902D01*
X135496091Y-101725776D01*
X135603841Y-101725776D01*
X135684653Y-101698839D01*
X135819340Y-101618027D01*
X135900152Y-101537215D01*
X135980964Y-101402528D01*
X136007902Y-101321715D01*
X136007902Y-101213966D01*
X135954027Y-101106216D01*
X135900152Y-101052341D01*
X135792402Y-100998467D01*
X135738528Y-100998467D01*
X135549966Y-101187028D01*
X135657715Y-101294778D01*
X135549966Y-100702155D02*
X134984280Y-101267841D01*
X134768781Y-101052341D01*
X134741844Y-100971529D01*
X134741844Y-100917654D01*
X134768781Y-100836842D01*
X134849593Y-100756030D01*
X134930406Y-100729093D01*
X134984280Y-100729093D01*
X135065093Y-100756030D01*
X135280592Y-100971529D01*
X134687969Y-99840158D02*
X135011218Y-100163407D01*
X134849593Y-100001783D02*
X134283908Y-100567468D01*
X134418595Y-100540531D01*
X134526345Y-100540531D01*
X134607157Y-100567468D01*
X133772097Y-100055658D02*
X133718223Y-100001783D01*
X133691285Y-99920971D01*
X133691285Y-99867096D01*
X133718223Y-99786284D01*
X133799035Y-99651597D01*
X133933722Y-99516910D01*
X134068409Y-99436097D01*
X134149221Y-99409160D01*
X134203096Y-99409160D01*
X134283908Y-99436097D01*
X134337783Y-99489972D01*
X134364720Y-99570784D01*
X134364720Y-99624659D01*
X134337783Y-99705471D01*
X134256971Y-99840158D01*
X134122284Y-99974845D01*
X133987597Y-100055658D01*
X133906784Y-100082595D01*
X133852910Y-100082595D01*
X133772097Y-100055658D01*
X140683092Y-101656277D02*
X140710029Y-101737089D01*
X140790841Y-101817902D01*
X140898591Y-101871776D01*
X141006341Y-101871776D01*
X141087153Y-101844839D01*
X141221840Y-101764027D01*
X141302652Y-101683215D01*
X141383464Y-101548528D01*
X141410402Y-101467715D01*
X141410402Y-101359966D01*
X141356527Y-101252216D01*
X141302652Y-101198341D01*
X141194902Y-101144467D01*
X141141028Y-101144467D01*
X140952466Y-101333028D01*
X141060215Y-101440778D01*
X140952466Y-100848155D02*
X140386780Y-101413841D01*
X140171281Y-101198341D01*
X140144344Y-101117529D01*
X140144344Y-101063654D01*
X140171281Y-100982842D01*
X140252093Y-100902030D01*
X140332906Y-100875093D01*
X140386780Y-100875093D01*
X140467593Y-100902030D01*
X140683092Y-101117529D01*
X140090469Y-99986158D02*
X140413718Y-100309407D01*
X140252093Y-100147783D02*
X139686408Y-100713468D01*
X139821095Y-100686531D01*
X139928845Y-100686531D01*
X140009657Y-100713468D01*
X139363159Y-100282470D02*
X139309284Y-100282470D01*
X139228472Y-100255532D01*
X139093785Y-100120845D01*
X139066848Y-100040033D01*
X139066848Y-99986158D01*
X139093785Y-99905346D01*
X139147660Y-99851471D01*
X139255410Y-99797597D01*
X139901907Y-99797597D01*
X139551721Y-99447410D01*
X122311218Y-100986903D02*
X122338155Y-101067715D01*
X122418967Y-101148528D01*
X122526717Y-101202402D01*
X122634467Y-101202402D01*
X122715279Y-101175465D01*
X122849966Y-101094653D01*
X122930778Y-101013841D01*
X123011590Y-100879154D01*
X123038528Y-100798341D01*
X123038528Y-100690592D01*
X122984653Y-100582842D01*
X122930778Y-100528967D01*
X122823028Y-100475093D01*
X122769154Y-100475093D01*
X122580592Y-100663654D01*
X122688341Y-100771404D01*
X122580592Y-100178781D02*
X122014906Y-100744467D01*
X121799407Y-100528967D01*
X121772470Y-100448155D01*
X121772470Y-100394280D01*
X121799407Y-100313468D01*
X121880219Y-100232656D01*
X121961032Y-100205719D01*
X122014906Y-100205719D01*
X122095719Y-100232656D01*
X122311218Y-100448155D01*
X121206784Y-99936345D02*
X121314534Y-100044094D01*
X121395346Y-100071032D01*
X121449221Y-100071032D01*
X121583908Y-100044094D01*
X121718595Y-99963282D01*
X121934094Y-99747783D01*
X121961032Y-99666971D01*
X121961032Y-99613096D01*
X121934094Y-99532284D01*
X121826345Y-99424534D01*
X121745532Y-99397597D01*
X121691658Y-99397597D01*
X121610845Y-99424534D01*
X121476158Y-99559221D01*
X121449221Y-99640033D01*
X121449221Y-99693908D01*
X121476158Y-99774720D01*
X121583908Y-99882470D01*
X121664720Y-99909407D01*
X121718595Y-99909407D01*
X121799407Y-99882470D01*
X135290592Y-75402277D02*
X135317529Y-75483089D01*
X135398341Y-75563902D01*
X135506091Y-75617776D01*
X135613841Y-75617776D01*
X135694653Y-75590839D01*
X135829340Y-75510027D01*
X135910152Y-75429215D01*
X135990964Y-75294528D01*
X136017902Y-75213715D01*
X136017902Y-75105966D01*
X135964027Y-74998216D01*
X135910152Y-74944341D01*
X135802402Y-74890467D01*
X135748528Y-74890467D01*
X135559966Y-75079028D01*
X135667715Y-75186778D01*
X135559966Y-74594155D02*
X134994280Y-75159841D01*
X134778781Y-74944341D01*
X134751844Y-74863529D01*
X134751844Y-74809654D01*
X134778781Y-74728842D01*
X134859593Y-74648030D01*
X134940406Y-74621093D01*
X134994280Y-74621093D01*
X135075093Y-74648030D01*
X135290592Y-74863529D01*
X134509407Y-74567218D02*
X134455532Y-74567218D01*
X134374720Y-74540280D01*
X134240033Y-74405593D01*
X134213096Y-74324781D01*
X134213096Y-74270906D01*
X134240033Y-74190094D01*
X134293908Y-74136219D01*
X134401658Y-74082345D01*
X135048155Y-74082345D01*
X134697969Y-73732158D01*
X134159221Y-73193410D02*
X134482470Y-73516659D01*
X134320845Y-73355035D02*
X133755160Y-73920720D01*
X133889847Y-73893783D01*
X133997597Y-73893783D01*
X134078409Y-73920720D01*
X125120592Y-75402277D02*
X125147529Y-75483089D01*
X125228341Y-75563902D01*
X125336091Y-75617776D01*
X125443841Y-75617776D01*
X125524653Y-75590839D01*
X125659340Y-75510027D01*
X125740152Y-75429215D01*
X125820964Y-75294528D01*
X125847902Y-75213715D01*
X125847902Y-75105966D01*
X125794027Y-74998216D01*
X125740152Y-74944341D01*
X125632402Y-74890467D01*
X125578528Y-74890467D01*
X125389966Y-75079028D01*
X125497715Y-75186778D01*
X125389966Y-74594155D02*
X124824280Y-75159841D01*
X124608781Y-74944341D01*
X124581844Y-74863529D01*
X124581844Y-74809654D01*
X124608781Y-74728842D01*
X124689593Y-74648030D01*
X124770406Y-74621093D01*
X124824280Y-74621093D01*
X124905093Y-74648030D01*
X125120592Y-74863529D01*
X124339407Y-74567218D02*
X124285532Y-74567218D01*
X124204720Y-74540280D01*
X124070033Y-74405593D01*
X124043096Y-74324781D01*
X124043096Y-74270906D01*
X124070033Y-74190094D01*
X124123908Y-74136219D01*
X124231658Y-74082345D01*
X124878155Y-74082345D01*
X124527969Y-73732158D01*
X123477410Y-73812971D02*
X123585160Y-73920720D01*
X123665972Y-73947658D01*
X123719847Y-73947658D01*
X123854534Y-73920720D01*
X123989221Y-73839908D01*
X124204720Y-73624409D01*
X124231658Y-73543597D01*
X124231658Y-73489722D01*
X124204720Y-73408910D01*
X124096971Y-73301160D01*
X124016158Y-73274223D01*
X123962284Y-73274223D01*
X123881471Y-73301160D01*
X123746784Y-73435847D01*
X123719847Y-73516659D01*
X123719847Y-73570534D01*
X123746784Y-73651346D01*
X123854534Y-73759096D01*
X123935346Y-73786033D01*
X123989221Y-73786033D01*
X124070033Y-73759096D01*
X127391218Y-100986903D02*
X127418155Y-101067715D01*
X127498967Y-101148528D01*
X127606717Y-101202402D01*
X127714467Y-101202402D01*
X127795279Y-101175465D01*
X127929966Y-101094653D01*
X128010778Y-101013841D01*
X128091590Y-100879154D01*
X128118528Y-100798341D01*
X128118528Y-100690592D01*
X128064653Y-100582842D01*
X128010778Y-100528967D01*
X127903028Y-100475093D01*
X127849154Y-100475093D01*
X127660592Y-100663654D01*
X127768341Y-100771404D01*
X127660592Y-100178781D02*
X127094906Y-100744467D01*
X126879407Y-100528967D01*
X126852470Y-100448155D01*
X126852470Y-100394280D01*
X126879407Y-100313468D01*
X126960219Y-100232656D01*
X127041032Y-100205719D01*
X127094906Y-100205719D01*
X127175719Y-100232656D01*
X127391218Y-100448155D01*
X126690845Y-99855532D02*
X126717783Y-99936345D01*
X126717783Y-99990219D01*
X126690845Y-100071032D01*
X126663908Y-100097969D01*
X126583096Y-100124906D01*
X126529221Y-100124906D01*
X126448409Y-100097969D01*
X126340659Y-99990219D01*
X126313722Y-99909407D01*
X126313722Y-99855532D01*
X126340659Y-99774720D01*
X126367597Y-99747783D01*
X126448409Y-99720845D01*
X126502284Y-99720845D01*
X126583096Y-99747783D01*
X126690845Y-99855532D01*
X126771658Y-99882470D01*
X126825532Y-99882470D01*
X126906345Y-99855532D01*
X127014094Y-99747783D01*
X127041032Y-99666971D01*
X127041032Y-99613096D01*
X127014094Y-99532284D01*
X126906345Y-99424534D01*
X126825532Y-99397597D01*
X126771658Y-99397597D01*
X126690845Y-99424534D01*
X126583096Y-99532284D01*
X126556158Y-99613096D01*
X126556158Y-99666971D01*
X126583096Y-99747783D01*
X147980592Y-101556277D02*
X148007529Y-101637089D01*
X148088341Y-101717902D01*
X148196091Y-101771776D01*
X148303841Y-101771776D01*
X148384653Y-101744839D01*
X148519340Y-101664027D01*
X148600152Y-101583215D01*
X148680964Y-101448528D01*
X148707902Y-101367715D01*
X148707902Y-101259966D01*
X148654027Y-101152216D01*
X148600152Y-101098341D01*
X148492402Y-101044467D01*
X148438528Y-101044467D01*
X148249966Y-101233028D01*
X148357715Y-101340778D01*
X148249966Y-100748155D02*
X147684280Y-101313841D01*
X147468781Y-101098341D01*
X147441844Y-101017529D01*
X147441844Y-100963654D01*
X147468781Y-100882842D01*
X147549593Y-100802030D01*
X147630406Y-100775093D01*
X147684280Y-100775093D01*
X147765093Y-100802030D01*
X147980592Y-101017529D01*
X147387969Y-99886158D02*
X147711218Y-100209407D01*
X147549593Y-100047783D02*
X146983908Y-100613468D01*
X147118595Y-100586531D01*
X147226345Y-100586531D01*
X147307157Y-100613468D01*
X146525972Y-99778409D02*
X146903096Y-99401285D01*
X146445160Y-100128595D02*
X146983908Y-99859221D01*
X146633722Y-99509035D01*
X134323809Y-83695238D02*
X134361904Y-83580952D01*
X134361904Y-83390476D01*
X134323809Y-83314285D01*
X134285714Y-83276190D01*
X134209523Y-83238095D01*
X134133333Y-83238095D01*
X134057142Y-83276190D01*
X134019047Y-83314285D01*
X133980952Y-83390476D01*
X133942857Y-83542857D01*
X133904761Y-83619047D01*
X133866666Y-83657142D01*
X133790476Y-83695238D01*
X133714285Y-83695238D01*
X133638095Y-83657142D01*
X133600000Y-83619047D01*
X133561904Y-83542857D01*
X133561904Y-83352380D01*
X133600000Y-83238095D01*
X133561904Y-82971428D02*
X134361904Y-82780952D01*
X133790476Y-82628571D01*
X134361904Y-82476190D01*
X133561904Y-82285714D01*
X134361904Y-81980952D02*
X133561904Y-81980952D01*
X133561904Y-81790476D01*
X133600000Y-81676190D01*
X133676190Y-81600000D01*
X133752380Y-81561904D01*
X133904761Y-81523809D01*
X134019047Y-81523809D01*
X134171428Y-81561904D01*
X134247619Y-81600000D01*
X134323809Y-81676190D01*
X134361904Y-81790476D01*
X134361904Y-81980952D01*
X134361904Y-81180952D02*
X133561904Y-81180952D01*
X133561904Y-80647619D02*
X133561904Y-80495238D01*
X133600000Y-80419047D01*
X133676190Y-80342857D01*
X133828571Y-80304761D01*
X134095238Y-80304761D01*
X134247619Y-80342857D01*
X134323809Y-80419047D01*
X134361904Y-80495238D01*
X134361904Y-80647619D01*
X134323809Y-80723809D01*
X134247619Y-80800000D01*
X134095238Y-80838095D01*
X133828571Y-80838095D01*
X133676190Y-80800000D01*
X133600000Y-80723809D01*
X133561904Y-80647619D01*
X137820592Y-75402277D02*
X137847529Y-75483089D01*
X137928341Y-75563902D01*
X138036091Y-75617776D01*
X138143841Y-75617776D01*
X138224653Y-75590839D01*
X138359340Y-75510027D01*
X138440152Y-75429215D01*
X138520964Y-75294528D01*
X138547902Y-75213715D01*
X138547902Y-75105966D01*
X138494027Y-74998216D01*
X138440152Y-74944341D01*
X138332402Y-74890467D01*
X138278528Y-74890467D01*
X138089966Y-75079028D01*
X138197715Y-75186778D01*
X138089966Y-74594155D02*
X137524280Y-75159841D01*
X137308781Y-74944341D01*
X137281844Y-74863529D01*
X137281844Y-74809654D01*
X137308781Y-74728842D01*
X137389593Y-74648030D01*
X137470406Y-74621093D01*
X137524280Y-74621093D01*
X137605093Y-74648030D01*
X137820592Y-74863529D01*
X137039407Y-74567218D02*
X136985532Y-74567218D01*
X136904720Y-74540280D01*
X136770033Y-74405593D01*
X136743096Y-74324781D01*
X136743096Y-74270906D01*
X136770033Y-74190094D01*
X136823908Y-74136219D01*
X136931658Y-74082345D01*
X137578155Y-74082345D01*
X137227969Y-73732158D01*
X136312097Y-73947658D02*
X136258223Y-73893783D01*
X136231285Y-73812971D01*
X136231285Y-73759096D01*
X136258223Y-73678284D01*
X136339035Y-73543597D01*
X136473722Y-73408910D01*
X136608409Y-73328097D01*
X136689221Y-73301160D01*
X136743096Y-73301160D01*
X136823908Y-73328097D01*
X136877783Y-73381972D01*
X136904720Y-73462784D01*
X136904720Y-73516659D01*
X136877783Y-73597471D01*
X136796971Y-73732158D01*
X136662284Y-73866845D01*
X136527597Y-73947658D01*
X136446784Y-73974595D01*
X136392910Y-73974595D01*
X136312097Y-73947658D01*
X132498155Y-101013841D02*
X132525093Y-101094653D01*
X132605905Y-101175465D01*
X132713654Y-101229340D01*
X132821404Y-101229340D01*
X132902216Y-101202402D01*
X133036903Y-101121590D01*
X133117715Y-101040778D01*
X133198528Y-100906091D01*
X133225465Y-100825279D01*
X133225465Y-100717529D01*
X133171590Y-100609780D01*
X133117715Y-100555905D01*
X133009966Y-100502030D01*
X132956091Y-100502030D01*
X132767529Y-100690592D01*
X132875279Y-100798341D01*
X132767529Y-100205719D02*
X132201844Y-100771404D01*
X132444280Y-99882470D01*
X131878595Y-100448155D01*
X132174906Y-99613096D02*
X131609221Y-100178781D01*
X131474534Y-100044094D01*
X131420659Y-99936345D01*
X131420659Y-99828595D01*
X131447597Y-99747783D01*
X131528409Y-99613096D01*
X131609221Y-99532284D01*
X131743908Y-99451471D01*
X131824720Y-99424534D01*
X131932470Y-99424534D01*
X132040219Y-99478409D01*
X132174906Y-99613096D01*
X117231218Y-100986903D02*
X117258155Y-101067715D01*
X117338967Y-101148528D01*
X117446717Y-101202402D01*
X117554467Y-101202402D01*
X117635279Y-101175465D01*
X117769966Y-101094653D01*
X117850778Y-101013841D01*
X117931590Y-100879154D01*
X117958528Y-100798341D01*
X117958528Y-100690592D01*
X117904653Y-100582842D01*
X117850778Y-100528967D01*
X117743028Y-100475093D01*
X117689154Y-100475093D01*
X117500592Y-100663654D01*
X117608341Y-100771404D01*
X117500592Y-100178781D02*
X116934906Y-100744467D01*
X116719407Y-100528967D01*
X116692470Y-100448155D01*
X116692470Y-100394280D01*
X116719407Y-100313468D01*
X116800219Y-100232656D01*
X116881032Y-100205719D01*
X116934906Y-100205719D01*
X117015719Y-100232656D01*
X117231218Y-100448155D01*
X116099847Y-99909407D02*
X116369221Y-100178781D01*
X116665532Y-99936345D01*
X116611658Y-99936345D01*
X116530845Y-99909407D01*
X116396158Y-99774720D01*
X116369221Y-99693908D01*
X116369221Y-99640033D01*
X116396158Y-99559221D01*
X116530845Y-99424534D01*
X116611658Y-99397597D01*
X116665532Y-99397597D01*
X116746345Y-99424534D01*
X116881032Y-99559221D01*
X116907969Y-99640033D01*
X116907969Y-99693908D01*
X132498155Y-75413841D02*
X132525093Y-75494653D01*
X132605905Y-75575465D01*
X132713654Y-75629340D01*
X132821404Y-75629340D01*
X132902216Y-75602402D01*
X133036903Y-75521590D01*
X133117715Y-75440778D01*
X133198528Y-75306091D01*
X133225465Y-75225279D01*
X133225465Y-75117529D01*
X133171590Y-75009780D01*
X133117715Y-74955905D01*
X133009966Y-74902030D01*
X132956091Y-74902030D01*
X132767529Y-75090592D01*
X132875279Y-75198341D01*
X132767529Y-74605719D02*
X132201844Y-75171404D01*
X132444280Y-74282470D01*
X131878595Y-74848155D01*
X132174906Y-74013096D02*
X131609221Y-74578781D01*
X131474534Y-74444094D01*
X131420659Y-74336345D01*
X131420659Y-74228595D01*
X131447597Y-74147783D01*
X131528409Y-74013096D01*
X131609221Y-73932284D01*
X131743908Y-73851471D01*
X131824720Y-73824534D01*
X131932470Y-73824534D01*
X132040219Y-73878409D01*
X132174906Y-74013096D01*
X130200592Y-75402277D02*
X130227529Y-75483089D01*
X130308341Y-75563902D01*
X130416091Y-75617776D01*
X130523841Y-75617776D01*
X130604653Y-75590839D01*
X130739340Y-75510027D01*
X130820152Y-75429215D01*
X130900964Y-75294528D01*
X130927902Y-75213715D01*
X130927902Y-75105966D01*
X130874027Y-74998216D01*
X130820152Y-74944341D01*
X130712402Y-74890467D01*
X130658528Y-74890467D01*
X130469966Y-75079028D01*
X130577715Y-75186778D01*
X130469966Y-74594155D02*
X129904280Y-75159841D01*
X129688781Y-74944341D01*
X129661844Y-74863529D01*
X129661844Y-74809654D01*
X129688781Y-74728842D01*
X129769593Y-74648030D01*
X129850406Y-74621093D01*
X129904280Y-74621093D01*
X129985093Y-74648030D01*
X130200592Y-74863529D01*
X129419407Y-74567218D02*
X129365532Y-74567218D01*
X129284720Y-74540280D01*
X129150033Y-74405593D01*
X129123096Y-74324781D01*
X129123096Y-74270906D01*
X129150033Y-74190094D01*
X129203908Y-74136219D01*
X129311658Y-74082345D01*
X129958155Y-74082345D01*
X129607969Y-73732158D01*
X128880659Y-74028470D02*
X128826784Y-74028470D01*
X128745972Y-74001532D01*
X128611285Y-73866845D01*
X128584348Y-73786033D01*
X128584348Y-73732158D01*
X128611285Y-73651346D01*
X128665160Y-73597471D01*
X128772910Y-73543597D01*
X129419407Y-73543597D01*
X129069221Y-73193410D01*
X107098155Y-101013841D02*
X107125093Y-101094653D01*
X107205905Y-101175465D01*
X107313654Y-101229340D01*
X107421404Y-101229340D01*
X107502216Y-101202402D01*
X107636903Y-101121590D01*
X107717715Y-101040778D01*
X107798528Y-100906091D01*
X107825465Y-100825279D01*
X107825465Y-100717529D01*
X107771590Y-100609780D01*
X107717715Y-100555905D01*
X107609966Y-100502030D01*
X107556091Y-100502030D01*
X107367529Y-100690592D01*
X107475279Y-100798341D01*
X107367529Y-100205719D02*
X106801844Y-100771404D01*
X107044280Y-99882470D01*
X106478595Y-100448155D01*
X106774906Y-99613096D02*
X106209221Y-100178781D01*
X106074534Y-100044094D01*
X106020659Y-99936345D01*
X106020659Y-99828595D01*
X106047597Y-99747783D01*
X106128409Y-99613096D01*
X106209221Y-99532284D01*
X106343908Y-99451471D01*
X106424720Y-99424534D01*
X106532470Y-99424534D01*
X106640219Y-99478409D01*
X106774906Y-99613096D01*
X150520592Y-75402277D02*
X150547529Y-75483089D01*
X150628341Y-75563902D01*
X150736091Y-75617776D01*
X150843841Y-75617776D01*
X150924653Y-75590839D01*
X151059340Y-75510027D01*
X151140152Y-75429215D01*
X151220964Y-75294528D01*
X151247902Y-75213715D01*
X151247902Y-75105966D01*
X151194027Y-74998216D01*
X151140152Y-74944341D01*
X151032402Y-74890467D01*
X150978528Y-74890467D01*
X150789966Y-75079028D01*
X150897715Y-75186778D01*
X150789966Y-74594155D02*
X150224280Y-75159841D01*
X150008781Y-74944341D01*
X149981844Y-74863529D01*
X149981844Y-74809654D01*
X150008781Y-74728842D01*
X150089593Y-74648030D01*
X150170406Y-74621093D01*
X150224280Y-74621093D01*
X150305093Y-74648030D01*
X150520592Y-74863529D01*
X149927969Y-73732158D02*
X150251218Y-74055407D01*
X150089593Y-73893783D02*
X149523908Y-74459468D01*
X149658595Y-74432531D01*
X149766345Y-74432531D01*
X149847157Y-74459468D01*
X148877410Y-73812971D02*
X148985160Y-73920720D01*
X149065972Y-73947658D01*
X149119847Y-73947658D01*
X149254534Y-73920720D01*
X149389221Y-73839908D01*
X149604720Y-73624409D01*
X149631658Y-73543597D01*
X149631658Y-73489722D01*
X149604720Y-73408910D01*
X149496971Y-73301160D01*
X149416158Y-73274223D01*
X149362284Y-73274223D01*
X149281471Y-73301160D01*
X149146784Y-73435847D01*
X149119847Y-73516659D01*
X149119847Y-73570534D01*
X149146784Y-73651346D01*
X149254534Y-73759096D01*
X149335346Y-73786033D01*
X149389221Y-73786033D01*
X149470033Y-73759096D01*
X112490592Y-75610152D02*
X112140406Y-75259966D01*
X112544467Y-75233028D01*
X112463654Y-75152216D01*
X112436717Y-75071404D01*
X112436717Y-75017529D01*
X112463654Y-74936717D01*
X112598341Y-74802030D01*
X112679154Y-74775093D01*
X112733028Y-74775093D01*
X112813841Y-74802030D01*
X112975465Y-74963654D01*
X113002402Y-75044467D01*
X113002402Y-75098341D01*
X111978781Y-75098341D02*
X112355905Y-74344094D01*
X111601658Y-74721218D01*
X111466971Y-74586531D02*
X111116784Y-74236345D01*
X111520845Y-74209407D01*
X111440033Y-74128595D01*
X111413096Y-74047783D01*
X111413096Y-73993908D01*
X111440033Y-73913096D01*
X111574720Y-73778409D01*
X111655532Y-73751471D01*
X111709407Y-73751471D01*
X111790219Y-73778409D01*
X111951844Y-73940033D01*
X111978781Y-74020845D01*
X111978781Y-74074720D01*
X133823809Y-90309523D02*
X133861904Y-90195238D01*
X133861904Y-90004761D01*
X133823809Y-89928571D01*
X133785714Y-89890476D01*
X133709523Y-89852380D01*
X133633333Y-89852380D01*
X133557142Y-89890476D01*
X133519047Y-89928571D01*
X133480952Y-90004761D01*
X133442857Y-90157142D01*
X133404761Y-90233333D01*
X133366666Y-90271428D01*
X133290476Y-90309523D01*
X133214285Y-90309523D01*
X133138095Y-90271428D01*
X133100000Y-90233333D01*
X133061904Y-90157142D01*
X133061904Y-89966666D01*
X133100000Y-89852380D01*
X133061904Y-89585714D02*
X133861904Y-89395238D01*
X133290476Y-89242857D01*
X133861904Y-89090476D01*
X133061904Y-88900000D01*
X133785714Y-88138095D02*
X133823809Y-88176190D01*
X133861904Y-88290476D01*
X133861904Y-88366666D01*
X133823809Y-88480952D01*
X133747619Y-88557142D01*
X133671428Y-88595238D01*
X133519047Y-88633333D01*
X133404761Y-88633333D01*
X133252380Y-88595238D01*
X133176190Y-88557142D01*
X133100000Y-88480952D01*
X133061904Y-88366666D01*
X133061904Y-88290476D01*
X133100000Y-88176190D01*
X133138095Y-88138095D01*
X133861904Y-87414285D02*
X133861904Y-87795238D01*
X133061904Y-87795238D01*
X133861904Y-87147619D02*
X133061904Y-87147619D01*
X133861904Y-86690476D02*
X133404761Y-87033333D01*
X133061904Y-86690476D02*
X133519047Y-87147619D01*
X143223092Y-101510277D02*
X143250029Y-101591089D01*
X143330841Y-101671902D01*
X143438591Y-101725776D01*
X143546341Y-101725776D01*
X143627153Y-101698839D01*
X143761840Y-101618027D01*
X143842652Y-101537215D01*
X143923464Y-101402528D01*
X143950402Y-101321715D01*
X143950402Y-101213966D01*
X143896527Y-101106216D01*
X143842652Y-101052341D01*
X143734902Y-100998467D01*
X143681028Y-100998467D01*
X143492466Y-101187028D01*
X143600215Y-101294778D01*
X143492466Y-100702155D02*
X142926780Y-101267841D01*
X142711281Y-101052341D01*
X142684344Y-100971529D01*
X142684344Y-100917654D01*
X142711281Y-100836842D01*
X142792093Y-100756030D01*
X142872906Y-100729093D01*
X142926780Y-100729093D01*
X143007593Y-100756030D01*
X143223092Y-100971529D01*
X142630469Y-99840158D02*
X142953718Y-100163407D01*
X142792093Y-100001783D02*
X142226408Y-100567468D01*
X142361095Y-100540531D01*
X142468845Y-100540531D01*
X142549657Y-100567468D01*
X141876222Y-100217282D02*
X141526036Y-99867096D01*
X141930097Y-99840158D01*
X141849284Y-99759346D01*
X141822347Y-99678534D01*
X141822347Y-99624659D01*
X141849284Y-99543847D01*
X141983971Y-99409160D01*
X142064784Y-99382223D01*
X142118658Y-99382223D01*
X142199471Y-99409160D01*
X142361095Y-99570784D01*
X142388032Y-99651597D01*
X142388032Y-99705471D01*
X114917466Y-75712026D02*
X115294589Y-74957779D01*
X114540342Y-75334902D01*
X114594217Y-74257406D02*
X114513405Y-74715342D01*
X114917466Y-74580655D02*
X114351780Y-75146341D01*
X114136281Y-74930841D01*
X114109344Y-74850029D01*
X114109344Y-74796154D01*
X114136281Y-74715342D01*
X114217093Y-74634530D01*
X114297906Y-74607593D01*
X114351780Y-74607593D01*
X114432593Y-74634530D01*
X114648092Y-74850029D01*
X114055469Y-74311281D02*
X113866907Y-74122719D01*
X114082406Y-73745596D02*
X114351780Y-74014970D01*
X113786095Y-74580655D01*
X113516721Y-74311281D01*
X113355097Y-73610909D02*
X113543658Y-73799471D01*
X113839970Y-73503159D02*
X113274284Y-74068845D01*
X113004910Y-73799471D01*
X142900592Y-75402277D02*
X142927529Y-75483089D01*
X143008341Y-75563902D01*
X143116091Y-75617776D01*
X143223841Y-75617776D01*
X143304653Y-75590839D01*
X143439340Y-75510027D01*
X143520152Y-75429215D01*
X143600964Y-75294528D01*
X143627902Y-75213715D01*
X143627902Y-75105966D01*
X143574027Y-74998216D01*
X143520152Y-74944341D01*
X143412402Y-74890467D01*
X143358528Y-74890467D01*
X143169966Y-75079028D01*
X143277715Y-75186778D01*
X143169966Y-74594155D02*
X142604280Y-75159841D01*
X142388781Y-74944341D01*
X142361844Y-74863529D01*
X142361844Y-74809654D01*
X142388781Y-74728842D01*
X142469593Y-74648030D01*
X142550406Y-74621093D01*
X142604280Y-74621093D01*
X142685093Y-74648030D01*
X142900592Y-74863529D01*
X142307969Y-73732158D02*
X142631218Y-74055407D01*
X142469593Y-73893783D02*
X141903908Y-74459468D01*
X142038595Y-74432531D01*
X142146345Y-74432531D01*
X142227157Y-74459468D01*
X141661471Y-73732158D02*
X141688409Y-73812971D01*
X141688409Y-73866845D01*
X141661471Y-73947658D01*
X141634534Y-73974595D01*
X141553722Y-74001532D01*
X141499847Y-74001532D01*
X141419035Y-73974595D01*
X141311285Y-73866845D01*
X141284348Y-73786033D01*
X141284348Y-73732158D01*
X141311285Y-73651346D01*
X141338223Y-73624409D01*
X141419035Y-73597471D01*
X141472910Y-73597471D01*
X141553722Y-73624409D01*
X141661471Y-73732158D01*
X141742284Y-73759096D01*
X141796158Y-73759096D01*
X141876971Y-73732158D01*
X141984720Y-73624409D01*
X142011658Y-73543597D01*
X142011658Y-73489722D01*
X141984720Y-73408910D01*
X141876971Y-73301160D01*
X141796158Y-73274223D01*
X141742284Y-73274223D01*
X141661471Y-73301160D01*
X141553722Y-73408910D01*
X141526784Y-73489722D01*
X141526784Y-73543597D01*
X141553722Y-73624409D01*
X147980592Y-75402277D02*
X148007529Y-75483089D01*
X148088341Y-75563902D01*
X148196091Y-75617776D01*
X148303841Y-75617776D01*
X148384653Y-75590839D01*
X148519340Y-75510027D01*
X148600152Y-75429215D01*
X148680964Y-75294528D01*
X148707902Y-75213715D01*
X148707902Y-75105966D01*
X148654027Y-74998216D01*
X148600152Y-74944341D01*
X148492402Y-74890467D01*
X148438528Y-74890467D01*
X148249966Y-75079028D01*
X148357715Y-75186778D01*
X148249966Y-74594155D02*
X147684280Y-75159841D01*
X147468781Y-74944341D01*
X147441844Y-74863529D01*
X147441844Y-74809654D01*
X147468781Y-74728842D01*
X147549593Y-74648030D01*
X147630406Y-74621093D01*
X147684280Y-74621093D01*
X147765093Y-74648030D01*
X147980592Y-74863529D01*
X147387969Y-73732158D02*
X147711218Y-74055407D01*
X147549593Y-73893783D02*
X146983908Y-74459468D01*
X147118595Y-74432531D01*
X147226345Y-74432531D01*
X147307157Y-74459468D01*
X146633722Y-74109282D02*
X146256598Y-73732158D01*
X147064720Y-73408910D01*
X129931218Y-100986903D02*
X129958155Y-101067715D01*
X130038967Y-101148528D01*
X130146717Y-101202402D01*
X130254467Y-101202402D01*
X130335279Y-101175465D01*
X130469966Y-101094653D01*
X130550778Y-101013841D01*
X130631590Y-100879154D01*
X130658528Y-100798341D01*
X130658528Y-100690592D01*
X130604653Y-100582842D01*
X130550778Y-100528967D01*
X130443028Y-100475093D01*
X130389154Y-100475093D01*
X130200592Y-100663654D01*
X130308341Y-100771404D01*
X130200592Y-100178781D02*
X129634906Y-100744467D01*
X129419407Y-100528967D01*
X129392470Y-100448155D01*
X129392470Y-100394280D01*
X129419407Y-100313468D01*
X129500219Y-100232656D01*
X129581032Y-100205719D01*
X129634906Y-100205719D01*
X129715719Y-100232656D01*
X129931218Y-100448155D01*
X129607969Y-99586158D02*
X129500219Y-99478409D01*
X129419407Y-99451471D01*
X129365532Y-99451471D01*
X129230845Y-99478409D01*
X129096158Y-99559221D01*
X128880659Y-99774720D01*
X128853722Y-99855532D01*
X128853722Y-99909407D01*
X128880659Y-99990219D01*
X128988409Y-100097969D01*
X129069221Y-100124906D01*
X129123096Y-100124906D01*
X129203908Y-100097969D01*
X129338595Y-99963282D01*
X129365532Y-99882470D01*
X129365532Y-99828595D01*
X129338595Y-99747783D01*
X129230845Y-99640033D01*
X129150033Y-99613096D01*
X129096158Y-99613096D01*
X129015346Y-99640033D01*
X109611218Y-101086903D02*
X109638155Y-101167715D01*
X109718967Y-101248528D01*
X109826717Y-101302402D01*
X109934467Y-101302402D01*
X110015279Y-101275465D01*
X110149966Y-101194653D01*
X110230778Y-101113841D01*
X110311590Y-100979154D01*
X110338528Y-100898341D01*
X110338528Y-100790592D01*
X110284653Y-100682842D01*
X110230778Y-100628967D01*
X110123028Y-100575093D01*
X110069154Y-100575093D01*
X109880592Y-100763654D01*
X109988341Y-100871404D01*
X109880592Y-100278781D02*
X109314906Y-100844467D01*
X109099407Y-100628967D01*
X109072470Y-100548155D01*
X109072470Y-100494280D01*
X109099407Y-100413468D01*
X109180219Y-100332656D01*
X109261032Y-100305719D01*
X109314906Y-100305719D01*
X109395719Y-100332656D01*
X109611218Y-100548155D01*
X108830033Y-100251844D02*
X108776158Y-100251844D01*
X108695346Y-100224906D01*
X108560659Y-100090219D01*
X108533722Y-100009407D01*
X108533722Y-99955532D01*
X108560659Y-99874720D01*
X108614534Y-99820845D01*
X108722284Y-99766971D01*
X109368781Y-99766971D01*
X109018595Y-99416784D01*
X138143092Y-101656277D02*
X138170029Y-101737089D01*
X138250841Y-101817902D01*
X138358591Y-101871776D01*
X138466341Y-101871776D01*
X138547153Y-101844839D01*
X138681840Y-101764027D01*
X138762652Y-101683215D01*
X138843464Y-101548528D01*
X138870402Y-101467715D01*
X138870402Y-101359966D01*
X138816527Y-101252216D01*
X138762652Y-101198341D01*
X138654902Y-101144467D01*
X138601028Y-101144467D01*
X138412466Y-101333028D01*
X138520215Y-101440778D01*
X138412466Y-100848155D02*
X137846780Y-101413841D01*
X137631281Y-101198341D01*
X137604344Y-101117529D01*
X137604344Y-101063654D01*
X137631281Y-100982842D01*
X137712093Y-100902030D01*
X137792906Y-100875093D01*
X137846780Y-100875093D01*
X137927593Y-100902030D01*
X138143092Y-101117529D01*
X137550469Y-99986158D02*
X137873718Y-100309407D01*
X137712093Y-100147783D02*
X137146408Y-100713468D01*
X137281095Y-100686531D01*
X137388845Y-100686531D01*
X137469657Y-100713468D01*
X137011721Y-99447410D02*
X137334970Y-99770659D01*
X137173345Y-99609035D02*
X136607660Y-100174720D01*
X136742347Y-100147783D01*
X136850097Y-100147783D01*
X136930909Y-100174720D01*
X145198155Y-75413841D02*
X145225093Y-75494653D01*
X145305905Y-75575465D01*
X145413654Y-75629340D01*
X145521404Y-75629340D01*
X145602216Y-75602402D01*
X145736903Y-75521590D01*
X145817715Y-75440778D01*
X145898528Y-75306091D01*
X145925465Y-75225279D01*
X145925465Y-75117529D01*
X145871590Y-75009780D01*
X145817715Y-74955905D01*
X145709966Y-74902030D01*
X145656091Y-74902030D01*
X145467529Y-75090592D01*
X145575279Y-75198341D01*
X145467529Y-74605719D02*
X144901844Y-75171404D01*
X145144280Y-74282470D01*
X144578595Y-74848155D01*
X144874906Y-74013096D02*
X144309221Y-74578781D01*
X144174534Y-74444094D01*
X144120659Y-74336345D01*
X144120659Y-74228595D01*
X144147597Y-74147783D01*
X144228409Y-74013096D01*
X144309221Y-73932284D01*
X144443908Y-73851471D01*
X144524720Y-73824534D01*
X144632470Y-73824534D01*
X144740219Y-73878409D01*
X144874906Y-74013096D01*
X120740964Y-75348402D02*
X120471590Y-75079028D01*
X120956463Y-75240653D02*
X120202216Y-75617776D01*
X120579340Y-74863529D01*
X119555719Y-74917404D02*
X119582656Y-74998216D01*
X119663468Y-75079028D01*
X119771218Y-75132903D01*
X119878967Y-75132903D01*
X119959780Y-75105966D01*
X120094467Y-75025154D01*
X120175279Y-74944341D01*
X120256091Y-74809654D01*
X120283028Y-74728842D01*
X120283028Y-74621093D01*
X120229154Y-74513343D01*
X120175279Y-74459468D01*
X120067529Y-74405593D01*
X120013654Y-74405593D01*
X119825093Y-74594155D01*
X119932842Y-74701905D01*
X119825093Y-74109282D02*
X119259407Y-74674967D01*
X119501844Y-73786033D01*
X118936158Y-74351719D01*
X119232470Y-73516659D02*
X118666784Y-74082345D01*
X118532097Y-73947658D01*
X118478223Y-73839908D01*
X118478223Y-73732158D01*
X118505160Y-73651346D01*
X118585972Y-73516659D01*
X118666784Y-73435847D01*
X118801471Y-73355035D01*
X118882284Y-73328097D01*
X118990033Y-73328097D01*
X119097783Y-73381972D01*
X119232470Y-73516659D01*
X102527309Y-75546870D02*
X102904433Y-74792622D01*
X102150186Y-75169746D01*
X102042436Y-74523248D02*
X101988561Y-74415499D01*
X101988561Y-74361624D01*
X102015499Y-74280812D01*
X102096311Y-74200000D01*
X102177123Y-74173062D01*
X102230998Y-74173062D01*
X102311810Y-74200000D01*
X102527309Y-74415499D01*
X101961624Y-74981184D01*
X101773062Y-74792622D01*
X101746125Y-74711810D01*
X101746125Y-74657935D01*
X101773062Y-74577123D01*
X101826937Y-74523248D01*
X101907749Y-74496311D01*
X101961624Y-74496311D01*
X102042436Y-74523248D01*
X102230998Y-74711810D01*
X101395938Y-74415499D02*
X101853874Y-73957563D01*
X101880812Y-73876751D01*
X101880812Y-73822876D01*
X101853874Y-73742064D01*
X101746125Y-73634314D01*
X101665312Y-73607377D01*
X101611438Y-73607377D01*
X101530625Y-73634314D01*
X101072690Y-74092250D01*
X101369001Y-73311065D02*
X101315126Y-73203316D01*
X101180439Y-73068629D01*
X101099627Y-73041691D01*
X101045752Y-73041691D01*
X100964940Y-73068629D01*
X100911065Y-73122503D01*
X100884128Y-73203316D01*
X100884128Y-73257190D01*
X100911065Y-73338003D01*
X100991877Y-73472690D01*
X101018815Y-73553502D01*
X101018815Y-73607377D01*
X100991877Y-73688189D01*
X100938003Y-73742064D01*
X100857190Y-73769001D01*
X100803316Y-73769001D01*
X100722503Y-73742064D01*
X100587816Y-73607377D01*
X100533942Y-73499627D01*
X107098155Y-75413841D02*
X107125093Y-75494653D01*
X107205905Y-75575465D01*
X107313654Y-75629340D01*
X107421404Y-75629340D01*
X107502216Y-75602402D01*
X107636903Y-75521590D01*
X107717715Y-75440778D01*
X107798528Y-75306091D01*
X107825465Y-75225279D01*
X107825465Y-75117529D01*
X107771590Y-75009780D01*
X107717715Y-74955905D01*
X107609966Y-74902030D01*
X107556091Y-74902030D01*
X107367529Y-75090592D01*
X107475279Y-75198341D01*
X107367529Y-74605719D02*
X106801844Y-75171404D01*
X107044280Y-74282470D01*
X106478595Y-74848155D01*
X106774906Y-74013096D02*
X106209221Y-74578781D01*
X106074534Y-74444094D01*
X106020659Y-74336345D01*
X106020659Y-74228595D01*
X106047597Y-74147783D01*
X106128409Y-74013096D01*
X106209221Y-73932284D01*
X106343908Y-73851471D01*
X106424720Y-73824534D01*
X106532470Y-73824534D01*
X106640219Y-73878409D01*
X106774906Y-74013096D01*
X127943435Y-74661624D02*
X127862622Y-75119560D01*
X128266683Y-74984873D02*
X127700998Y-75550558D01*
X127485499Y-75335059D01*
X127458561Y-75254247D01*
X127458561Y-75200372D01*
X127485499Y-75119560D01*
X127566311Y-75038748D01*
X127647123Y-75011810D01*
X127700998Y-75011810D01*
X127781810Y-75038748D01*
X127997309Y-75254247D01*
X127135312Y-74984873D02*
X127593248Y-74526937D01*
X127620186Y-74446125D01*
X127620186Y-74392250D01*
X127593248Y-74311438D01*
X127485499Y-74203688D01*
X127404687Y-74176751D01*
X127350812Y-74176751D01*
X127270000Y-74203688D01*
X126812064Y-74661624D01*
X127108375Y-73826564D02*
X126542690Y-74392250D01*
X126785126Y-73503316D01*
X126219441Y-74069001D01*
X122590592Y-75402277D02*
X122617529Y-75483089D01*
X122698341Y-75563902D01*
X122806091Y-75617776D01*
X122913841Y-75617776D01*
X122994653Y-75590839D01*
X123129340Y-75510027D01*
X123210152Y-75429215D01*
X123290964Y-75294528D01*
X123317902Y-75213715D01*
X123317902Y-75105966D01*
X123264027Y-74998216D01*
X123210152Y-74944341D01*
X123102402Y-74890467D01*
X123048528Y-74890467D01*
X122859966Y-75079028D01*
X122967715Y-75186778D01*
X122859966Y-74594155D02*
X122294280Y-75159841D01*
X122078781Y-74944341D01*
X122051844Y-74863529D01*
X122051844Y-74809654D01*
X122078781Y-74728842D01*
X122159593Y-74648030D01*
X122240406Y-74621093D01*
X122294280Y-74621093D01*
X122375093Y-74648030D01*
X122590592Y-74863529D01*
X121809407Y-74567218D02*
X121755532Y-74567218D01*
X121674720Y-74540280D01*
X121540033Y-74405593D01*
X121513096Y-74324781D01*
X121513096Y-74270906D01*
X121540033Y-74190094D01*
X121593908Y-74136219D01*
X121701658Y-74082345D01*
X122348155Y-74082345D01*
X121997969Y-73732158D01*
X121243722Y-74109282D02*
X120866598Y-73732158D01*
X121674720Y-73408910D01*
X112151218Y-100986903D02*
X112178155Y-101067715D01*
X112258967Y-101148528D01*
X112366717Y-101202402D01*
X112474467Y-101202402D01*
X112555279Y-101175465D01*
X112689966Y-101094653D01*
X112770778Y-101013841D01*
X112851590Y-100879154D01*
X112878528Y-100798341D01*
X112878528Y-100690592D01*
X112824653Y-100582842D01*
X112770778Y-100528967D01*
X112663028Y-100475093D01*
X112609154Y-100475093D01*
X112420592Y-100663654D01*
X112528341Y-100771404D01*
X112420592Y-100178781D02*
X111854906Y-100744467D01*
X111639407Y-100528967D01*
X111612470Y-100448155D01*
X111612470Y-100394280D01*
X111639407Y-100313468D01*
X111720219Y-100232656D01*
X111801032Y-100205719D01*
X111854906Y-100205719D01*
X111935719Y-100232656D01*
X112151218Y-100448155D01*
X111343096Y-100232656D02*
X110992910Y-99882470D01*
X111396971Y-99855532D01*
X111316158Y-99774720D01*
X111289221Y-99693908D01*
X111289221Y-99640033D01*
X111316158Y-99559221D01*
X111450845Y-99424534D01*
X111531658Y-99397597D01*
X111585532Y-99397597D01*
X111666345Y-99424534D01*
X111827969Y-99586158D01*
X111854906Y-99666971D01*
X111854906Y-99720845D01*
X109958308Y-75577868D02*
X109608122Y-75227682D01*
X110012183Y-75200744D01*
X109931370Y-75119932D01*
X109904433Y-75039120D01*
X109904433Y-74985245D01*
X109931370Y-74904433D01*
X110066057Y-74769746D01*
X110146870Y-74742809D01*
X110200744Y-74742809D01*
X110281557Y-74769746D01*
X110443181Y-74931370D01*
X110470118Y-75012183D01*
X110470118Y-75066057D01*
X109446497Y-75066057D02*
X109823621Y-74311810D01*
X109069374Y-74688934D01*
X108934687Y-74554247D02*
X108584500Y-74204061D01*
X108988561Y-74177123D01*
X108907749Y-74096311D01*
X108880812Y-74015499D01*
X108880812Y-73961624D01*
X108907749Y-73880812D01*
X109042436Y-73746125D01*
X109123248Y-73719187D01*
X109177123Y-73719187D01*
X109257935Y-73746125D01*
X109419560Y-73907749D01*
X109446497Y-73988561D01*
X109446497Y-74042436D01*
X109096311Y-73476751D02*
X108665312Y-73045752D01*
X108180439Y-73261251D02*
X107991877Y-73072690D01*
X108207377Y-72695566D02*
X108476751Y-72964940D01*
X107911065Y-73530625D01*
X107641691Y-73261251D01*
X107964940Y-72453129D02*
X107399255Y-73018815D01*
X107641691Y-72129881D01*
X107076006Y-72695566D01*
X101991218Y-100986903D02*
X102018155Y-101067715D01*
X102098967Y-101148528D01*
X102206717Y-101202402D01*
X102314467Y-101202402D01*
X102395279Y-101175465D01*
X102529966Y-101094653D01*
X102610778Y-101013841D01*
X102691590Y-100879154D01*
X102718528Y-100798341D01*
X102718528Y-100690592D01*
X102664653Y-100582842D01*
X102610778Y-100528967D01*
X102503028Y-100475093D01*
X102449154Y-100475093D01*
X102260592Y-100663654D01*
X102368341Y-100771404D01*
X102260592Y-100178781D02*
X101694906Y-100744467D01*
X101479407Y-100528967D01*
X101452470Y-100448155D01*
X101452470Y-100394280D01*
X101479407Y-100313468D01*
X101560219Y-100232656D01*
X101641032Y-100205719D01*
X101694906Y-100205719D01*
X101775719Y-100232656D01*
X101991218Y-100448155D01*
X101021471Y-100071032D02*
X100967597Y-100017157D01*
X100940659Y-99936345D01*
X100940659Y-99882470D01*
X100967597Y-99801658D01*
X101048409Y-99666971D01*
X101183096Y-99532284D01*
X101317783Y-99451471D01*
X101398595Y-99424534D01*
X101452470Y-99424534D01*
X101533282Y-99451471D01*
X101587157Y-99505346D01*
X101614094Y-99586158D01*
X101614094Y-99640033D01*
X101587157Y-99720845D01*
X101506345Y-99855532D01*
X101371658Y-99990219D01*
X101236971Y-100071032D01*
X101156158Y-100097969D01*
X101102284Y-100097969D01*
X101021471Y-100071032D01*
X150520592Y-101510277D02*
X150547529Y-101591089D01*
X150628341Y-101671902D01*
X150736091Y-101725776D01*
X150843841Y-101725776D01*
X150924653Y-101698839D01*
X151059340Y-101618027D01*
X151140152Y-101537215D01*
X151220964Y-101402528D01*
X151247902Y-101321715D01*
X151247902Y-101213966D01*
X151194027Y-101106216D01*
X151140152Y-101052341D01*
X151032402Y-100998467D01*
X150978528Y-100998467D01*
X150789966Y-101187028D01*
X150897715Y-101294778D01*
X150789966Y-100702155D02*
X150224280Y-101267841D01*
X150008781Y-101052341D01*
X149981844Y-100971529D01*
X149981844Y-100917654D01*
X150008781Y-100836842D01*
X150089593Y-100756030D01*
X150170406Y-100729093D01*
X150224280Y-100729093D01*
X150305093Y-100756030D01*
X150520592Y-100971529D01*
X149927969Y-99840158D02*
X150251218Y-100163407D01*
X150089593Y-100001783D02*
X149523908Y-100567468D01*
X149658595Y-100540531D01*
X149766345Y-100540531D01*
X149847157Y-100567468D01*
X148850473Y-99894033D02*
X149119847Y-100163407D01*
X149416158Y-99920971D01*
X149362284Y-99920971D01*
X149281471Y-99894033D01*
X149146784Y-99759346D01*
X149119847Y-99678534D01*
X149119847Y-99624659D01*
X149146784Y-99543847D01*
X149281471Y-99409160D01*
X149362284Y-99382223D01*
X149416158Y-99382223D01*
X149496971Y-99409160D01*
X149631658Y-99543847D01*
X149658595Y-99624659D01*
X149658595Y-99678534D01*
X114691218Y-100986903D02*
X114718155Y-101067715D01*
X114798967Y-101148528D01*
X114906717Y-101202402D01*
X115014467Y-101202402D01*
X115095279Y-101175465D01*
X115229966Y-101094653D01*
X115310778Y-101013841D01*
X115391590Y-100879154D01*
X115418528Y-100798341D01*
X115418528Y-100690592D01*
X115364653Y-100582842D01*
X115310778Y-100528967D01*
X115203028Y-100475093D01*
X115149154Y-100475093D01*
X114960592Y-100663654D01*
X115068341Y-100771404D01*
X114960592Y-100178781D02*
X114394906Y-100744467D01*
X114179407Y-100528967D01*
X114152470Y-100448155D01*
X114152470Y-100394280D01*
X114179407Y-100313468D01*
X114260219Y-100232656D01*
X114341032Y-100205719D01*
X114394906Y-100205719D01*
X114475719Y-100232656D01*
X114691218Y-100448155D01*
X113775346Y-99747783D02*
X114152470Y-99370659D01*
X113694534Y-100097969D02*
X114233282Y-99828595D01*
X113883096Y-99478409D01*
X145198155Y-101013841D02*
X145225093Y-101094653D01*
X145305905Y-101175465D01*
X145413654Y-101229340D01*
X145521404Y-101229340D01*
X145602216Y-101202402D01*
X145736903Y-101121590D01*
X145817715Y-101040778D01*
X145898528Y-100906091D01*
X145925465Y-100825279D01*
X145925465Y-100717529D01*
X145871590Y-100609780D01*
X145817715Y-100555905D01*
X145709966Y-100502030D01*
X145656091Y-100502030D01*
X145467529Y-100690592D01*
X145575279Y-100798341D01*
X145467529Y-100205719D02*
X144901844Y-100771404D01*
X145144280Y-99882470D01*
X144578595Y-100448155D01*
X144874906Y-99613096D02*
X144309221Y-100178781D01*
X144174534Y-100044094D01*
X144120659Y-99936345D01*
X144120659Y-99828595D01*
X144147597Y-99747783D01*
X144228409Y-99613096D01*
X144309221Y-99532284D01*
X144443908Y-99451471D01*
X144524720Y-99424534D01*
X144632470Y-99424534D01*
X144740219Y-99478409D01*
X144874906Y-99613096D01*
X105069966Y-75579526D02*
X105447089Y-74825279D01*
X104692842Y-75202402D01*
X105069966Y-74502030D02*
X105016091Y-74394280D01*
X104881404Y-74259593D01*
X104800592Y-74232656D01*
X104746717Y-74232656D01*
X104665905Y-74259593D01*
X104612030Y-74313468D01*
X104585093Y-74394280D01*
X104585093Y-74448155D01*
X104612030Y-74528967D01*
X104692842Y-74663654D01*
X104719780Y-74744467D01*
X104719780Y-74798341D01*
X104692842Y-74879154D01*
X104638967Y-74933028D01*
X104558155Y-74959966D01*
X104504280Y-74959966D01*
X104423468Y-74933028D01*
X104288781Y-74798341D01*
X104234906Y-74690592D01*
X104154094Y-74071032D02*
X104423468Y-73801658D01*
X104046345Y-74555905D02*
X104154094Y-74071032D01*
X103669221Y-74178781D01*
X104046345Y-73478409D02*
X103992470Y-73370659D01*
X103857783Y-73235972D01*
X103776971Y-73209035D01*
X103723096Y-73209035D01*
X103642284Y-73235972D01*
X103588409Y-73289847D01*
X103561471Y-73370659D01*
X103561471Y-73424534D01*
X103588409Y-73505346D01*
X103669221Y-73640033D01*
X103696158Y-73720845D01*
X103696158Y-73774720D01*
X103669221Y-73855532D01*
X103615346Y-73909407D01*
X103534534Y-73936345D01*
X103480659Y-73936345D01*
X103399847Y-73909407D01*
X103265160Y-73774720D01*
X103211285Y-73666971D01*
X104521218Y-101086903D02*
X104548155Y-101167715D01*
X104628967Y-101248528D01*
X104736717Y-101302402D01*
X104844467Y-101302402D01*
X104925279Y-101275465D01*
X105059966Y-101194653D01*
X105140778Y-101113841D01*
X105221590Y-100979154D01*
X105248528Y-100898341D01*
X105248528Y-100790592D01*
X105194653Y-100682842D01*
X105140778Y-100628967D01*
X105033028Y-100575093D01*
X104979154Y-100575093D01*
X104790592Y-100763654D01*
X104898341Y-100871404D01*
X104790592Y-100278781D02*
X104224906Y-100844467D01*
X104009407Y-100628967D01*
X103982470Y-100548155D01*
X103982470Y-100494280D01*
X104009407Y-100413468D01*
X104090219Y-100332656D01*
X104171032Y-100305719D01*
X104224906Y-100305719D01*
X104305719Y-100332656D01*
X104521218Y-100548155D01*
X103928595Y-99416784D02*
X104251844Y-99740033D01*
X104090219Y-99578409D02*
X103524534Y-100144094D01*
X103659221Y-100117157D01*
X103766971Y-100117157D01*
X103847783Y-100144094D01*
X117246592Y-75402277D02*
X117273529Y-75483089D01*
X117354341Y-75563902D01*
X117462091Y-75617776D01*
X117569841Y-75617776D01*
X117650653Y-75590839D01*
X117785340Y-75510027D01*
X117866152Y-75429215D01*
X117946964Y-75294528D01*
X117973902Y-75213715D01*
X117973902Y-75105966D01*
X117920027Y-74998216D01*
X117866152Y-74944341D01*
X117758402Y-74890467D01*
X117704528Y-74890467D01*
X117515966Y-75079028D01*
X117623715Y-75186778D01*
X117515966Y-74594155D02*
X116950280Y-75159841D01*
X116734781Y-74944341D01*
X116707844Y-74863529D01*
X116707844Y-74809654D01*
X116734781Y-74728842D01*
X116815593Y-74648030D01*
X116896406Y-74621093D01*
X116950280Y-74621093D01*
X117031093Y-74648030D01*
X117246592Y-74863529D01*
X116465407Y-74567218D02*
X116411532Y-74567218D01*
X116330720Y-74540280D01*
X116196033Y-74405593D01*
X116169096Y-74324781D01*
X116169096Y-74270906D01*
X116196033Y-74190094D01*
X116249908Y-74136219D01*
X116357658Y-74082345D01*
X117004155Y-74082345D01*
X116653969Y-73732158D01*
X116007471Y-73732158D02*
X116034409Y-73812971D01*
X116034409Y-73866845D01*
X116007471Y-73947658D01*
X115980534Y-73974595D01*
X115899722Y-74001532D01*
X115845847Y-74001532D01*
X115765035Y-73974595D01*
X115657285Y-73866845D01*
X115630348Y-73786033D01*
X115630348Y-73732158D01*
X115657285Y-73651346D01*
X115684223Y-73624409D01*
X115765035Y-73597471D01*
X115818910Y-73597471D01*
X115899722Y-73624409D01*
X116007471Y-73732158D01*
X116088284Y-73759096D01*
X116142158Y-73759096D01*
X116222971Y-73732158D01*
X116330720Y-73624409D01*
X116357658Y-73543597D01*
X116357658Y-73489722D01*
X116330720Y-73408910D01*
X116222971Y-73301160D01*
X116142158Y-73274223D01*
X116088284Y-73274223D01*
X116007471Y-73301160D01*
X115899722Y-73408910D01*
X115872784Y-73489722D01*
X115872784Y-73543597D01*
X115899722Y-73624409D01*
X124821218Y-100886903D02*
X124848155Y-100967715D01*
X124928967Y-101048528D01*
X125036717Y-101102402D01*
X125144467Y-101102402D01*
X125225279Y-101075465D01*
X125359966Y-100994653D01*
X125440778Y-100913841D01*
X125521590Y-100779154D01*
X125548528Y-100698341D01*
X125548528Y-100590592D01*
X125494653Y-100482842D01*
X125440778Y-100428967D01*
X125333028Y-100375093D01*
X125279154Y-100375093D01*
X125090592Y-100563654D01*
X125198341Y-100671404D01*
X125090592Y-100078781D02*
X124524906Y-100644467D01*
X124309407Y-100428967D01*
X124282470Y-100348155D01*
X124282470Y-100294280D01*
X124309407Y-100213468D01*
X124390219Y-100132656D01*
X124471032Y-100105719D01*
X124524906Y-100105719D01*
X124605719Y-100132656D01*
X124821218Y-100348155D01*
X124013096Y-100132656D02*
X123635972Y-99755532D01*
X124444094Y-99432284D01*
X119798155Y-101013841D02*
X119825093Y-101094653D01*
X119905905Y-101175465D01*
X120013654Y-101229340D01*
X120121404Y-101229340D01*
X120202216Y-101202402D01*
X120336903Y-101121590D01*
X120417715Y-101040778D01*
X120498528Y-100906091D01*
X120525465Y-100825279D01*
X120525465Y-100717529D01*
X120471590Y-100609780D01*
X120417715Y-100555905D01*
X120309966Y-100502030D01*
X120256091Y-100502030D01*
X120067529Y-100690592D01*
X120175279Y-100798341D01*
X120067529Y-100205719D02*
X119501844Y-100771404D01*
X119744280Y-99882470D01*
X119178595Y-100448155D01*
X119474906Y-99613096D02*
X118909221Y-100178781D01*
X118774534Y-100044094D01*
X118720659Y-99936345D01*
X118720659Y-99828595D01*
X118747597Y-99747783D01*
X118828409Y-99613096D01*
X118909221Y-99532284D01*
X119043908Y-99451471D01*
X119124720Y-99424534D01*
X119232470Y-99424534D01*
X119340219Y-99478409D01*
X119474906Y-99613096D01*
%TO.C,R5*%
X170022380Y-101666666D02*
X169546190Y-102000000D01*
X170022380Y-102238095D02*
X169022380Y-102238095D01*
X169022380Y-101857142D01*
X169070000Y-101761904D01*
X169117619Y-101714285D01*
X169212857Y-101666666D01*
X169355714Y-101666666D01*
X169450952Y-101714285D01*
X169498571Y-101761904D01*
X169546190Y-101857142D01*
X169546190Y-102238095D01*
X169022380Y-100761904D02*
X169022380Y-101238095D01*
X169498571Y-101285714D01*
X169450952Y-101238095D01*
X169403333Y-101142857D01*
X169403333Y-100904761D01*
X169450952Y-100809523D01*
X169498571Y-100761904D01*
X169593809Y-100714285D01*
X169831904Y-100714285D01*
X169927142Y-100761904D01*
X169974761Y-100809523D01*
X170022380Y-100904761D01*
X170022380Y-101142857D01*
X169974761Y-101238095D01*
X169927142Y-101285714D01*
%TO.C,R9*%
X152802380Y-64166666D02*
X152326190Y-64500000D01*
X152802380Y-64738095D02*
X151802380Y-64738095D01*
X151802380Y-64357142D01*
X151850000Y-64261904D01*
X151897619Y-64214285D01*
X151992857Y-64166666D01*
X152135714Y-64166666D01*
X152230952Y-64214285D01*
X152278571Y-64261904D01*
X152326190Y-64357142D01*
X152326190Y-64738095D01*
X152802380Y-63690476D02*
X152802380Y-63500000D01*
X152754761Y-63404761D01*
X152707142Y-63357142D01*
X152564285Y-63261904D01*
X152373809Y-63214285D01*
X151992857Y-63214285D01*
X151897619Y-63261904D01*
X151850000Y-63309523D01*
X151802380Y-63404761D01*
X151802380Y-63595238D01*
X151850000Y-63690476D01*
X151897619Y-63738095D01*
X151992857Y-63785714D01*
X152230952Y-63785714D01*
X152326190Y-63738095D01*
X152373809Y-63690476D01*
X152421428Y-63595238D01*
X152421428Y-63404761D01*
X152373809Y-63309523D01*
X152326190Y-63261904D01*
X152230952Y-63214285D01*
%TO.C,U3*%
X167462380Y-107231904D02*
X168271904Y-107231904D01*
X168367142Y-107184285D01*
X168414761Y-107136666D01*
X168462380Y-107041428D01*
X168462380Y-106850952D01*
X168414761Y-106755714D01*
X168367142Y-106708095D01*
X168271904Y-106660476D01*
X167462380Y-106660476D01*
X167462380Y-106279523D02*
X167462380Y-105660476D01*
X167843333Y-105993809D01*
X167843333Y-105850952D01*
X167890952Y-105755714D01*
X167938571Y-105708095D01*
X168033809Y-105660476D01*
X168271904Y-105660476D01*
X168367142Y-105708095D01*
X168414761Y-105755714D01*
X168462380Y-105850952D01*
X168462380Y-106136666D01*
X168414761Y-106231904D01*
X168367142Y-106279523D01*
%TO.C,D3*%
X156272380Y-69238095D02*
X155272380Y-69238095D01*
X155272380Y-69000000D01*
X155320000Y-68857142D01*
X155415238Y-68761904D01*
X155510476Y-68714285D01*
X155700952Y-68666666D01*
X155843809Y-68666666D01*
X156034285Y-68714285D01*
X156129523Y-68761904D01*
X156224761Y-68857142D01*
X156272380Y-69000000D01*
X156272380Y-69238095D01*
X155272380Y-68333333D02*
X155272380Y-67714285D01*
X155653333Y-68047619D01*
X155653333Y-67904761D01*
X155700952Y-67809523D01*
X155748571Y-67761904D01*
X155843809Y-67714285D01*
X156081904Y-67714285D01*
X156177142Y-67761904D01*
X156224761Y-67809523D01*
X156272380Y-67904761D01*
X156272380Y-68190476D01*
X156224761Y-68285714D01*
X156177142Y-68333333D01*
%TO.C,J3*%
X144241666Y-74977380D02*
X144241666Y-75691666D01*
X144194047Y-75834523D01*
X144098809Y-75929761D01*
X143955952Y-75977380D01*
X143860714Y-75977380D01*
X144622619Y-74977380D02*
X145241666Y-74977380D01*
X144908333Y-75358333D01*
X145051190Y-75358333D01*
X145146428Y-75405952D01*
X145194047Y-75453571D01*
X145241666Y-75548809D01*
X145241666Y-75786904D01*
X145194047Y-75882142D01*
X145146428Y-75929761D01*
X145051190Y-75977380D01*
X144765476Y-75977380D01*
X144670238Y-75929761D01*
X144622619Y-75882142D01*
%TO.C,TP3*%
X157488095Y-99954380D02*
X158059523Y-99954380D01*
X157773809Y-100954380D02*
X157773809Y-99954380D01*
X158392857Y-100954380D02*
X158392857Y-99954380D01*
X158773809Y-99954380D01*
X158869047Y-100002000D01*
X158916666Y-100049619D01*
X158964285Y-100144857D01*
X158964285Y-100287714D01*
X158916666Y-100382952D01*
X158869047Y-100430571D01*
X158773809Y-100478190D01*
X158392857Y-100478190D01*
X159297619Y-99954380D02*
X159916666Y-99954380D01*
X159583333Y-100335333D01*
X159726190Y-100335333D01*
X159821428Y-100382952D01*
X159869047Y-100430571D01*
X159916666Y-100525809D01*
X159916666Y-100763904D01*
X159869047Y-100859142D01*
X159821428Y-100906761D01*
X159726190Y-100954380D01*
X159440476Y-100954380D01*
X159345238Y-100906761D01*
X159297619Y-100859142D01*
%TO.C,R10*%
X171522380Y-99142857D02*
X171046190Y-99476190D01*
X171522380Y-99714285D02*
X170522380Y-99714285D01*
X170522380Y-99333333D01*
X170570000Y-99238095D01*
X170617619Y-99190476D01*
X170712857Y-99142857D01*
X170855714Y-99142857D01*
X170950952Y-99190476D01*
X170998571Y-99238095D01*
X171046190Y-99333333D01*
X171046190Y-99714285D01*
X171522380Y-98190476D02*
X171522380Y-98761904D01*
X171522380Y-98476190D02*
X170522380Y-98476190D01*
X170665238Y-98571428D01*
X170760476Y-98666666D01*
X170808095Y-98761904D01*
X170522380Y-97571428D02*
X170522380Y-97476190D01*
X170570000Y-97380952D01*
X170617619Y-97333333D01*
X170712857Y-97285714D01*
X170903333Y-97238095D01*
X171141428Y-97238095D01*
X171331904Y-97285714D01*
X171427142Y-97333333D01*
X171474761Y-97380952D01*
X171522380Y-97476190D01*
X171522380Y-97571428D01*
X171474761Y-97666666D01*
X171427142Y-97714285D01*
X171331904Y-97761904D01*
X171141428Y-97809523D01*
X170903333Y-97809523D01*
X170712857Y-97761904D01*
X170617619Y-97714285D01*
X170570000Y-97666666D01*
X170522380Y-97571428D01*
%TO.C,D2*%
X140447619Y-106661904D02*
X141447619Y-106661904D01*
X141447619Y-106900000D01*
X141400000Y-107042857D01*
X141304761Y-107138095D01*
X141209523Y-107185714D01*
X141019047Y-107233333D01*
X140876190Y-107233333D01*
X140685714Y-107185714D01*
X140590476Y-107138095D01*
X140495238Y-107042857D01*
X140447619Y-106900000D01*
X140447619Y-106661904D01*
X141352380Y-107614285D02*
X141400000Y-107661904D01*
X141447619Y-107757142D01*
X141447619Y-107995238D01*
X141400000Y-108090476D01*
X141352380Y-108138095D01*
X141257142Y-108185714D01*
X141161904Y-108185714D01*
X141019047Y-108138095D01*
X140447619Y-107566666D01*
X140447619Y-108185714D01*
%TO.C,REF\u002A\u002A*%
X145166666Y-103952380D02*
X144833333Y-103476190D01*
X144595238Y-103952380D02*
X144595238Y-102952380D01*
X144976190Y-102952380D01*
X145071428Y-103000000D01*
X145119047Y-103047619D01*
X145166666Y-103142857D01*
X145166666Y-103285714D01*
X145119047Y-103380952D01*
X145071428Y-103428571D01*
X144976190Y-103476190D01*
X144595238Y-103476190D01*
X145595238Y-103428571D02*
X145928571Y-103428571D01*
X146071428Y-103952380D02*
X145595238Y-103952380D01*
X145595238Y-102952380D01*
X146071428Y-102952380D01*
X146833333Y-103428571D02*
X146500000Y-103428571D01*
X146500000Y-103952380D02*
X146500000Y-102952380D01*
X146976190Y-102952380D01*
X147500000Y-102952380D02*
X147500000Y-103190476D01*
X147261904Y-103095238D02*
X147500000Y-103190476D01*
X147738095Y-103095238D01*
X147357142Y-103380952D02*
X147500000Y-103190476D01*
X147642857Y-103380952D01*
X148261904Y-102952380D02*
X148261904Y-103190476D01*
X148023809Y-103095238D02*
X148261904Y-103190476D01*
X148500000Y-103095238D01*
X148119047Y-103380952D02*
X148261904Y-103190476D01*
X148404761Y-103380952D01*
%TO.C,R3*%
X166833333Y-107609880D02*
X166500000Y-107133690D01*
X166261904Y-107609880D02*
X166261904Y-106609880D01*
X166642857Y-106609880D01*
X166738095Y-106657500D01*
X166785714Y-106705119D01*
X166833333Y-106800357D01*
X166833333Y-106943214D01*
X166785714Y-107038452D01*
X166738095Y-107086071D01*
X166642857Y-107133690D01*
X166261904Y-107133690D01*
X167166666Y-106609880D02*
X167785714Y-106609880D01*
X167452380Y-106990833D01*
X167595238Y-106990833D01*
X167690476Y-107038452D01*
X167738095Y-107086071D01*
X167785714Y-107181309D01*
X167785714Y-107419404D01*
X167738095Y-107514642D01*
X167690476Y-107562261D01*
X167595238Y-107609880D01*
X167309523Y-107609880D01*
X167214285Y-107562261D01*
X167166666Y-107514642D01*
%TO.C,R1*%
X108522380Y-106666666D02*
X108046190Y-107000000D01*
X108522380Y-107238095D02*
X107522380Y-107238095D01*
X107522380Y-106857142D01*
X107570000Y-106761904D01*
X107617619Y-106714285D01*
X107712857Y-106666666D01*
X107855714Y-106666666D01*
X107950952Y-106714285D01*
X107998571Y-106761904D01*
X108046190Y-106857142D01*
X108046190Y-107238095D01*
X108522380Y-105714285D02*
X108522380Y-106285714D01*
X108522380Y-106000000D02*
X107522380Y-106000000D01*
X107665238Y-106095238D01*
X107760476Y-106190476D01*
X107808095Y-106285714D01*
%TO.C,R4*%
X171522380Y-101666666D02*
X171046190Y-102000000D01*
X171522380Y-102238095D02*
X170522380Y-102238095D01*
X170522380Y-101857142D01*
X170570000Y-101761904D01*
X170617619Y-101714285D01*
X170712857Y-101666666D01*
X170855714Y-101666666D01*
X170950952Y-101714285D01*
X170998571Y-101761904D01*
X171046190Y-101857142D01*
X171046190Y-102238095D01*
X170855714Y-100809523D02*
X171522380Y-100809523D01*
X170474761Y-101047619D02*
X171189047Y-101285714D01*
X171189047Y-100666666D01*
%TO.C,FB1*%
X154916666Y-57728571D02*
X154583333Y-57728571D01*
X154583333Y-58252380D02*
X154583333Y-57252380D01*
X155059523Y-57252380D01*
X155773809Y-57728571D02*
X155916666Y-57776190D01*
X155964285Y-57823809D01*
X156011904Y-57919047D01*
X156011904Y-58061904D01*
X155964285Y-58157142D01*
X155916666Y-58204761D01*
X155821428Y-58252380D01*
X155440476Y-58252380D01*
X155440476Y-57252380D01*
X155773809Y-57252380D01*
X155869047Y-57300000D01*
X155916666Y-57347619D01*
X155964285Y-57442857D01*
X155964285Y-57538095D01*
X155916666Y-57633333D01*
X155869047Y-57680952D01*
X155773809Y-57728571D01*
X155440476Y-57728571D01*
X156964285Y-58252380D02*
X156392857Y-58252380D01*
X156678571Y-58252380D02*
X156678571Y-57252380D01*
X156583333Y-57395238D01*
X156488095Y-57490476D01*
X156392857Y-57538095D01*
D12*
X157254761Y-59726190D02*
X157016666Y-59726190D01*
X157016666Y-59226190D01*
D10*
%TO.C,R8*%
X134087380Y-102666666D02*
X133611190Y-103000000D01*
X134087380Y-103238095D02*
X133087380Y-103238095D01*
X133087380Y-102857142D01*
X133135000Y-102761904D01*
X133182619Y-102714285D01*
X133277857Y-102666666D01*
X133420714Y-102666666D01*
X133515952Y-102714285D01*
X133563571Y-102761904D01*
X133611190Y-102857142D01*
X133611190Y-103238095D01*
X133515952Y-102095238D02*
X133468333Y-102190476D01*
X133420714Y-102238095D01*
X133325476Y-102285714D01*
X133277857Y-102285714D01*
X133182619Y-102238095D01*
X133135000Y-102190476D01*
X133087380Y-102095238D01*
X133087380Y-101904761D01*
X133135000Y-101809523D01*
X133182619Y-101761904D01*
X133277857Y-101714285D01*
X133325476Y-101714285D01*
X133420714Y-101761904D01*
X133468333Y-101809523D01*
X133515952Y-101904761D01*
X133515952Y-102095238D01*
X133563571Y-102190476D01*
X133611190Y-102238095D01*
X133706428Y-102285714D01*
X133896904Y-102285714D01*
X133992142Y-102238095D01*
X134039761Y-102190476D01*
X134087380Y-102095238D01*
X134087380Y-101904761D01*
X134039761Y-101809523D01*
X133992142Y-101761904D01*
X133896904Y-101714285D01*
X133706428Y-101714285D01*
X133611190Y-101761904D01*
X133563571Y-101809523D01*
X133515952Y-101904761D01*
%TO.C,Q1*%
X101147619Y-71095238D02*
X101100000Y-71190476D01*
X101004761Y-71285714D01*
X100861904Y-71428571D01*
X100814285Y-71523809D01*
X100814285Y-71619047D01*
X101052380Y-71571428D02*
X101004761Y-71666666D01*
X100909523Y-71761904D01*
X100719047Y-71809523D01*
X100385714Y-71809523D01*
X100195238Y-71761904D01*
X100100000Y-71666666D01*
X100052380Y-71571428D01*
X100052380Y-71380952D01*
X100100000Y-71285714D01*
X100195238Y-71190476D01*
X100385714Y-71142857D01*
X100719047Y-71142857D01*
X100909523Y-71190476D01*
X101004761Y-71285714D01*
X101052380Y-71380952D01*
X101052380Y-71571428D01*
X101052380Y-70190476D02*
X101052380Y-70761904D01*
X101052380Y-70476190D02*
X100052380Y-70476190D01*
X100195238Y-70571428D01*
X100290476Y-70666666D01*
X100338095Y-70761904D01*
%TO.C,TP2*%
X153988095Y-99954380D02*
X154559523Y-99954380D01*
X154273809Y-100954380D02*
X154273809Y-99954380D01*
X154892857Y-100954380D02*
X154892857Y-99954380D01*
X155273809Y-99954380D01*
X155369047Y-100002000D01*
X155416666Y-100049619D01*
X155464285Y-100144857D01*
X155464285Y-100287714D01*
X155416666Y-100382952D01*
X155369047Y-100430571D01*
X155273809Y-100478190D01*
X154892857Y-100478190D01*
X155845238Y-100049619D02*
X155892857Y-100002000D01*
X155988095Y-99954380D01*
X156226190Y-99954380D01*
X156321428Y-100002000D01*
X156369047Y-100049619D01*
X156416666Y-100144857D01*
X156416666Y-100240095D01*
X156369047Y-100382952D01*
X155797619Y-100954380D01*
X156416666Y-100954380D01*
%TO.C,TP1*%
X121488095Y-102704380D02*
X122059523Y-102704380D01*
X121773809Y-103704380D02*
X121773809Y-102704380D01*
X122392857Y-103704380D02*
X122392857Y-102704380D01*
X122773809Y-102704380D01*
X122869047Y-102752000D01*
X122916666Y-102799619D01*
X122964285Y-102894857D01*
X122964285Y-103037714D01*
X122916666Y-103132952D01*
X122869047Y-103180571D01*
X122773809Y-103228190D01*
X122392857Y-103228190D01*
X123916666Y-103704380D02*
X123345238Y-103704380D01*
X123630952Y-103704380D02*
X123630952Y-102704380D01*
X123535714Y-102847238D01*
X123440476Y-102942476D01*
X123345238Y-102990095D01*
%TO.C,JP1*%
X120252380Y-106333333D02*
X120966666Y-106333333D01*
X121109523Y-106380952D01*
X121204761Y-106476190D01*
X121252380Y-106619047D01*
X121252380Y-106714285D01*
X121252380Y-105857142D02*
X120252380Y-105857142D01*
X120252380Y-105476190D01*
X120300000Y-105380952D01*
X120347619Y-105333333D01*
X120442857Y-105285714D01*
X120585714Y-105285714D01*
X120680952Y-105333333D01*
X120728571Y-105380952D01*
X120776190Y-105476190D01*
X120776190Y-105857142D01*
X121252380Y-104333333D02*
X121252380Y-104904761D01*
X121252380Y-104619047D02*
X120252380Y-104619047D01*
X120395238Y-104714285D01*
X120490476Y-104809523D01*
X120538095Y-104904761D01*
%TO.C,REF\u002A\u002A*%
X127166666Y-103952380D02*
X126833333Y-103476190D01*
X126595238Y-103952380D02*
X126595238Y-102952380D01*
X126976190Y-102952380D01*
X127071428Y-103000000D01*
X127119047Y-103047619D01*
X127166666Y-103142857D01*
X127166666Y-103285714D01*
X127119047Y-103380952D01*
X127071428Y-103428571D01*
X126976190Y-103476190D01*
X126595238Y-103476190D01*
X127595238Y-103428571D02*
X127928571Y-103428571D01*
X128071428Y-103952380D02*
X127595238Y-103952380D01*
X127595238Y-102952380D01*
X128071428Y-102952380D01*
X128833333Y-103428571D02*
X128500000Y-103428571D01*
X128500000Y-103952380D02*
X128500000Y-102952380D01*
X128976190Y-102952380D01*
X129500000Y-102952380D02*
X129500000Y-103190476D01*
X129261904Y-103095238D02*
X129500000Y-103190476D01*
X129738095Y-103095238D01*
X129357142Y-103380952D02*
X129500000Y-103190476D01*
X129642857Y-103380952D01*
X130261904Y-102952380D02*
X130261904Y-103190476D01*
X130023809Y-103095238D02*
X130261904Y-103190476D01*
X130500000Y-103095238D01*
X130119047Y-103380952D02*
X130261904Y-103190476D01*
X130404761Y-103380952D01*
%TO.C,C4*%
X168833333Y-57007142D02*
X168785714Y-57054761D01*
X168642857Y-57102380D01*
X168547619Y-57102380D01*
X168404761Y-57054761D01*
X168309523Y-56959523D01*
X168261904Y-56864285D01*
X168214285Y-56673809D01*
X168214285Y-56530952D01*
X168261904Y-56340476D01*
X168309523Y-56245238D01*
X168404761Y-56150000D01*
X168547619Y-56102380D01*
X168642857Y-56102380D01*
X168785714Y-56150000D01*
X168833333Y-56197619D01*
X169690476Y-56435714D02*
X169690476Y-57102380D01*
X169452380Y-56054761D02*
X169214285Y-56769047D01*
X169833333Y-56769047D01*
%TO.C,Q2*%
X161447619Y-64095238D02*
X161400000Y-64190476D01*
X161304761Y-64285714D01*
X161161904Y-64428571D01*
X161114285Y-64523809D01*
X161114285Y-64619047D01*
X161352380Y-64571428D02*
X161304761Y-64666666D01*
X161209523Y-64761904D01*
X161019047Y-64809523D01*
X160685714Y-64809523D01*
X160495238Y-64761904D01*
X160400000Y-64666666D01*
X160352380Y-64571428D01*
X160352380Y-64380952D01*
X160400000Y-64285714D01*
X160495238Y-64190476D01*
X160685714Y-64142857D01*
X161019047Y-64142857D01*
X161209523Y-64190476D01*
X161304761Y-64285714D01*
X161352380Y-64380952D01*
X161352380Y-64571428D01*
X160447619Y-63761904D02*
X160400000Y-63714285D01*
X160352380Y-63619047D01*
X160352380Y-63380952D01*
X160400000Y-63285714D01*
X160447619Y-63238095D01*
X160542857Y-63190476D01*
X160638095Y-63190476D01*
X160780952Y-63238095D01*
X161352380Y-63809523D01*
X161352380Y-63190476D01*
%TO.C,TP4*%
X106988095Y-98204380D02*
X107559523Y-98204380D01*
X107273809Y-99204380D02*
X107273809Y-98204380D01*
X107892857Y-99204380D02*
X107892857Y-98204380D01*
X108273809Y-98204380D01*
X108369047Y-98252000D01*
X108416666Y-98299619D01*
X108464285Y-98394857D01*
X108464285Y-98537714D01*
X108416666Y-98632952D01*
X108369047Y-98680571D01*
X108273809Y-98728190D01*
X107892857Y-98728190D01*
X109321428Y-98537714D02*
X109321428Y-99204380D01*
X109083333Y-98156761D02*
X108845238Y-98871047D01*
X109464285Y-98871047D01*
%TO.C,J1*%
X164252380Y-84433333D02*
X164966666Y-84433333D01*
X165109523Y-84480952D01*
X165204761Y-84576190D01*
X165252380Y-84719047D01*
X165252380Y-84814285D01*
X165252380Y-83433333D02*
X165252380Y-84004761D01*
X165252380Y-83719047D02*
X164252380Y-83719047D01*
X164395238Y-83814285D01*
X164490476Y-83909523D01*
X164538095Y-84004761D01*
%TO.C,C5*%
X153083333Y-58157142D02*
X153035714Y-58204761D01*
X152892857Y-58252380D01*
X152797619Y-58252380D01*
X152654761Y-58204761D01*
X152559523Y-58109523D01*
X152511904Y-58014285D01*
X152464285Y-57823809D01*
X152464285Y-57680952D01*
X152511904Y-57490476D01*
X152559523Y-57395238D01*
X152654761Y-57300000D01*
X152797619Y-57252380D01*
X152892857Y-57252380D01*
X153035714Y-57300000D01*
X153083333Y-57347619D01*
X153988095Y-57252380D02*
X153511904Y-57252380D01*
X153464285Y-57728571D01*
X153511904Y-57680952D01*
X153607142Y-57633333D01*
X153845238Y-57633333D01*
X153940476Y-57680952D01*
X153988095Y-57728571D01*
X154035714Y-57823809D01*
X154035714Y-58061904D01*
X153988095Y-58157142D01*
X153940476Y-58204761D01*
X153845238Y-58252380D01*
X153607142Y-58252380D01*
X153511904Y-58204761D01*
X153464285Y-58157142D01*
%TO.C,R7*%
X115833333Y-100022380D02*
X115500000Y-99546190D01*
X115261904Y-100022380D02*
X115261904Y-99022380D01*
X115642857Y-99022380D01*
X115738095Y-99070000D01*
X115785714Y-99117619D01*
X115833333Y-99212857D01*
X115833333Y-99355714D01*
X115785714Y-99450952D01*
X115738095Y-99498571D01*
X115642857Y-99546190D01*
X115261904Y-99546190D01*
X116166666Y-99022380D02*
X116833333Y-99022380D01*
X116404761Y-100022380D01*
%TO.C,TP5*%
X119988095Y-98204380D02*
X120559523Y-98204380D01*
X120273809Y-99204380D02*
X120273809Y-98204380D01*
X120892857Y-99204380D02*
X120892857Y-98204380D01*
X121273809Y-98204380D01*
X121369047Y-98252000D01*
X121416666Y-98299619D01*
X121464285Y-98394857D01*
X121464285Y-98537714D01*
X121416666Y-98632952D01*
X121369047Y-98680571D01*
X121273809Y-98728190D01*
X120892857Y-98728190D01*
X122369047Y-98204380D02*
X121892857Y-98204380D01*
X121845238Y-98680571D01*
X121892857Y-98632952D01*
X121988095Y-98585333D01*
X122226190Y-98585333D01*
X122321428Y-98632952D01*
X122369047Y-98680571D01*
X122416666Y-98775809D01*
X122416666Y-99013904D01*
X122369047Y-99109142D01*
X122321428Y-99156761D01*
X122226190Y-99204380D01*
X121988095Y-99204380D01*
X121892857Y-99156761D01*
X121845238Y-99109142D01*
%TO.C,D1*%
X156186904Y-59852380D02*
X156186904Y-58852380D01*
X156425000Y-58852380D01*
X156567857Y-58900000D01*
X156663095Y-58995238D01*
X156710714Y-59090476D01*
X156758333Y-59280952D01*
X156758333Y-59423809D01*
X156710714Y-59614285D01*
X156663095Y-59709523D01*
X156567857Y-59804761D01*
X156425000Y-59852380D01*
X156186904Y-59852380D01*
X157710714Y-59852380D02*
X157139285Y-59852380D01*
X157425000Y-59852380D02*
X157425000Y-58852380D01*
X157329761Y-58995238D01*
X157234523Y-59090476D01*
X157139285Y-59138095D01*
%TO.C,C3*%
X109833333Y-64507142D02*
X109785714Y-64554761D01*
X109642857Y-64602380D01*
X109547619Y-64602380D01*
X109404761Y-64554761D01*
X109309523Y-64459523D01*
X109261904Y-64364285D01*
X109214285Y-64173809D01*
X109214285Y-64030952D01*
X109261904Y-63840476D01*
X109309523Y-63745238D01*
X109404761Y-63650000D01*
X109547619Y-63602380D01*
X109642857Y-63602380D01*
X109785714Y-63650000D01*
X109833333Y-63697619D01*
X110166666Y-63602380D02*
X110785714Y-63602380D01*
X110452380Y-63983333D01*
X110595238Y-63983333D01*
X110690476Y-64030952D01*
X110738095Y-64078571D01*
X110785714Y-64173809D01*
X110785714Y-64411904D01*
X110738095Y-64507142D01*
X110690476Y-64554761D01*
X110595238Y-64602380D01*
X110309523Y-64602380D01*
X110214285Y-64554761D01*
X110166666Y-64507142D01*
D13*
%TO.C,C2*%
X116500000Y-106650000D02*
X116500000Y-106850000D01*
X116900000Y-106350000D02*
X116100000Y-106350000D01*
X116500000Y-106150000D02*
X116500000Y-106350000D01*
X116900000Y-106650000D02*
X116100000Y-106650000D01*
%TO.C,C1*%
X114000000Y-106300000D02*
X114000000Y-106500000D01*
X114000000Y-106800000D02*
X114000000Y-107000000D01*
X114400000Y-106800000D02*
X113600000Y-106800000D01*
X114400000Y-106500000D02*
X113600000Y-106500000D01*
%TO.C,U4*%
X158100000Y-105650000D02*
X155100000Y-105650000D01*
X158100000Y-107850000D02*
X155900000Y-107850000D01*
%TO.C,R11*%
X171522500Y-98262742D02*
X171522500Y-98737258D01*
X170477500Y-98262742D02*
X170477500Y-98737258D01*
%TO.C,JP2*%
X109200000Y-104500000D02*
X107800000Y-104500000D01*
X109900000Y-103200000D02*
X109900000Y-103800000D01*
X107800000Y-102500000D02*
X109200000Y-102500000D01*
X107100000Y-103800000D02*
X107100000Y-103200000D01*
X109900000Y-103200000D02*
G75*
G03*
X109200000Y-102500000I-699999J1D01*
G01*
X107100000Y-103800000D02*
G75*
G03*
X107800000Y-104500000I700000J0D01*
G01*
X107800000Y-102500000D02*
G75*
G03*
X107100000Y-103200000I0J-700000D01*
G01*
X109200000Y-104500000D02*
G75*
G03*
X109900000Y-103800000I1J699999D01*
G01*
%TO.C,R6*%
X112762742Y-101522500D02*
X113237258Y-101522500D01*
X112762742Y-100477500D02*
X113237258Y-100477500D01*
%TO.C,R2*%
X160085242Y-59124758D02*
X160085242Y-58650242D01*
X159040242Y-59124758D02*
X159040242Y-58650242D01*
%TO.C,SW1*%
X127500000Y-69000000D02*
X128500000Y-69000000D01*
X131600000Y-70100000D02*
X131600000Y-67900000D01*
X128500000Y-69000000D02*
X130500000Y-68225000D01*
X131600000Y-69000000D02*
X130500000Y-69000000D01*
X127500000Y-70100000D02*
X127500000Y-67900000D01*
X126300000Y-73700000D02*
X132800000Y-73700000D01*
X132800000Y-73700000D02*
X132800000Y-64300000D01*
X132800000Y-64300000D02*
X126300000Y-64300000D01*
X126300000Y-64300000D02*
X126300000Y-73700000D01*
%TO.C,J2*%
X162400000Y-87100000D02*
X161600000Y-87100000D01*
X161600000Y-101800000D02*
X162400000Y-101800000D01*
X162400000Y-101800000D02*
X162400000Y-87100000D01*
X161300000Y-102200000D02*
X162700000Y-102200000D01*
X162700000Y-102200000D02*
X162700000Y-86800000D01*
X162700000Y-86800000D02*
X161300000Y-86800000D01*
X161300000Y-86800000D02*
X161300000Y-102200000D01*
G36*
X164247924Y-102346540D02*
G01*
X163647924Y-102346540D01*
X163947924Y-101846540D01*
X164247924Y-102346540D01*
G37*
X164247924Y-102346540D02*
X163647924Y-102346540D01*
X163947924Y-101846540D01*
X164247924Y-102346540D01*
D14*
%TO.C,U2*%
X112622000Y-103020000D02*
G75*
G03*
X112622000Y-103020000I-27000J0D01*
G01*
D13*
%TO.C,R12*%
X163360436Y-107515000D02*
X163814564Y-107515000D01*
X163360436Y-108985000D02*
X163814564Y-108985000D01*
%TO.C,U1*%
X125800000Y-98000000D02*
X126200000Y-98000000D01*
X115600000Y-77000000D02*
X116000000Y-77000000D01*
X125800000Y-77000000D02*
X126200000Y-77000000D01*
X146100000Y-77000000D02*
X146500000Y-77000000D01*
X136000000Y-77000000D02*
X136400000Y-77000000D01*
X105500000Y-77000000D02*
X105900000Y-77000000D01*
X100500000Y-98000000D02*
X100800000Y-98000000D01*
X118200000Y-77000000D02*
X118600000Y-77000000D01*
X123300000Y-77000000D02*
X123700000Y-77000000D01*
X108000000Y-77000000D02*
X108400000Y-77000000D01*
X103167000Y-98000000D02*
X103167000Y-94993000D01*
X136000000Y-98000000D02*
X136400000Y-98000000D01*
X141100000Y-98000000D02*
X141500000Y-98000000D01*
X151500000Y-91200000D02*
X151500000Y-98000000D01*
X110600000Y-77000000D02*
X111000000Y-77000000D01*
X151500000Y-77000000D02*
X151500000Y-83800000D01*
X118200000Y-98000000D02*
X118600000Y-98000000D01*
X146100000Y-98000000D02*
X146500000Y-98000000D01*
X138500000Y-98000000D02*
X138900000Y-98000000D01*
X138500000Y-77000000D02*
X138900000Y-77000000D01*
X105500000Y-98000000D02*
X105900000Y-98000000D01*
X148700000Y-98000000D02*
X149100000Y-98000000D01*
X110600000Y-98000000D02*
X111000000Y-98000000D01*
X100500000Y-77000000D02*
X100800000Y-77000000D01*
X130900000Y-77000000D02*
X131300000Y-77000000D01*
X108000000Y-98000000D02*
X108400000Y-98000000D01*
X151500000Y-86400000D02*
X151500000Y-86000000D01*
X113100000Y-77000000D02*
X113500000Y-77000000D01*
X102900000Y-98000000D02*
X103300000Y-98000000D01*
X133400000Y-77000000D02*
X133800000Y-77000000D01*
X123300000Y-98000000D02*
X123700000Y-98000000D01*
X103167000Y-94993000D02*
X100500000Y-94993000D01*
X100500000Y-98000000D02*
X100500000Y-77000000D01*
X115600000Y-98000000D02*
X116000000Y-98000000D01*
X148700000Y-77000000D02*
X149100000Y-77000000D01*
X130900000Y-98000000D02*
X131300000Y-98000000D01*
X128300000Y-98000000D02*
X128700000Y-98000000D01*
X133400000Y-98000000D02*
X133800000Y-98000000D01*
X113100000Y-98000000D02*
X113500000Y-98000000D01*
X120700000Y-98000000D02*
X121100000Y-98000000D01*
X143600000Y-98000000D02*
X144000000Y-98000000D01*
X128300000Y-77000000D02*
X128700000Y-77000000D01*
X102900000Y-77000000D02*
X103300000Y-77000000D01*
X151500000Y-89000000D02*
X151500000Y-88600000D01*
X141100000Y-77000000D02*
X141500000Y-77000000D01*
X120700000Y-77000000D02*
X121100000Y-77000000D01*
X143600000Y-77000000D02*
X144000000Y-77000000D01*
%TO.C,R5*%
X171522500Y-101737258D02*
X171522500Y-101262742D01*
X170477500Y-101737258D02*
X170477500Y-101262742D01*
%TO.C,R9*%
X154735000Y-64227064D02*
X154735000Y-63772936D01*
X153265000Y-64227064D02*
X153265000Y-63772936D01*
%TO.C,U3*%
X172600000Y-105950000D02*
X172400000Y-105950000D01*
X171500000Y-107850000D02*
X171500000Y-107250000D01*
X172600000Y-105950000D02*
X172600000Y-106150000D01*
X171100000Y-107750000D02*
X171100000Y-107350000D01*
X172700000Y-107550000D02*
X172700000Y-108050000D01*
X171600000Y-106050000D02*
X171800000Y-106050000D01*
X171500000Y-107550000D02*
X171100000Y-107750000D01*
X171800000Y-106350000D02*
X172600000Y-106350000D01*
X170800000Y-106350000D02*
X171200000Y-105950000D01*
X169800000Y-106050000D02*
X170400000Y-106050000D01*
X170400000Y-106050000D02*
X170800000Y-106350000D01*
X171200000Y-105950000D02*
X171200000Y-106150000D01*
X171300000Y-105800000D02*
X171300000Y-105450000D01*
X171500000Y-107550000D02*
X172700000Y-107550000D01*
X170100000Y-106050000D02*
X170100000Y-106550000D01*
X171100000Y-107350000D02*
X171500000Y-107550000D01*
X171800000Y-106050000D02*
X172200000Y-106350000D01*
X169900000Y-108050000D02*
X169900000Y-107550000D01*
X171500000Y-107250000D02*
X171500000Y-107550000D01*
X169900000Y-107550000D02*
X171100000Y-107550000D01*
X171600000Y-106250000D02*
X171600000Y-106050000D01*
X171600000Y-106550000D02*
X171600000Y-106250000D01*
X170100000Y-106550000D02*
X171600000Y-106550000D01*
X172700000Y-105800000D02*
X172700000Y-105450000D01*
X171200000Y-105950000D02*
X171000000Y-105950000D01*
X169800000Y-105450000D02*
X169800000Y-106050000D01*
X172600000Y-105950000D02*
X172700000Y-105800000D01*
X171300000Y-105800000D02*
X171200000Y-105950000D01*
X172200000Y-106350000D02*
X172600000Y-105950000D01*
X170400000Y-106350000D02*
X171200000Y-106350000D01*
D15*
X168980000Y-102720000D02*
G75*
G03*
X168980000Y-102720000I-110000J0D01*
G01*
D13*
%TO.C,D3*%
X155135000Y-70100000D02*
X155135000Y-66215000D01*
X155135000Y-66215000D02*
X152865000Y-66215000D01*
X152865000Y-66215000D02*
X152865000Y-70100000D01*
%TO.C,J3*%
X148585000Y-57615000D02*
X148375000Y-57815000D01*
X148375000Y-57965000D02*
X148375000Y-57815000D01*
X141495000Y-57615000D02*
X142005000Y-57965000D01*
X151475000Y-73885000D02*
X151475000Y-70275000D01*
X151475000Y-68575000D02*
X151475000Y-63875000D01*
X148375000Y-57965000D02*
X142005000Y-57965000D01*
X151475000Y-62575000D02*
X151475000Y-60775000D01*
X139425000Y-73885000D02*
X137505000Y-73885000D01*
X150445000Y-57615000D02*
X148585000Y-57615000D01*
X137505000Y-73885000D02*
X137505000Y-59875000D01*
X139185000Y-57615000D02*
X141495000Y-57615000D01*
X139185000Y-57615000D02*
X138985000Y-57815000D01*
X150445000Y-57615000D02*
X150645000Y-57815000D01*
X151025000Y-73885000D02*
X151475000Y-73885000D01*
X138985000Y-57815000D02*
X138725000Y-57815000D01*
%TO.C,TP3*%
X159950000Y-102500000D02*
G75*
G03*
X159950000Y-102500000I-1200000J0D01*
G01*
%TO.C,R10*%
X173022500Y-98737258D02*
X173022500Y-98262742D01*
X171977500Y-98737258D02*
X171977500Y-98262742D01*
%TO.C,D2*%
X140500000Y-103500000D02*
X140700000Y-103500000D01*
X141600000Y-104600000D02*
X138400000Y-104600000D01*
X139700000Y-104000000D02*
X139700000Y-103000000D01*
X140500000Y-103000000D02*
X140500000Y-104000000D01*
X139700000Y-103500000D02*
X139400000Y-103500000D01*
X140500000Y-103500000D02*
X139700000Y-104000000D01*
X139700000Y-103000000D02*
X140500000Y-103500000D01*
X141600000Y-102400000D02*
X138400000Y-102400000D01*
%TO.C,R3*%
X166762742Y-109110000D02*
X167237258Y-109110000D01*
X166762742Y-108065000D02*
X167237258Y-108065000D01*
%TO.C,R1*%
X110022500Y-106737258D02*
X110022500Y-106262742D01*
X108977500Y-106737258D02*
X108977500Y-106262742D01*
%TO.C,R4*%
X173022500Y-101737258D02*
X173022500Y-101262742D01*
X171977500Y-101737258D02*
X171977500Y-101262742D01*
%TO.C,FB1*%
X156700000Y-58975000D02*
X157475000Y-58975000D01*
X156700000Y-60025000D02*
X157475000Y-60025000D01*
%TO.C,R8*%
X135587500Y-102737258D02*
X135587500Y-102262742D01*
X134542500Y-102737258D02*
X134542500Y-102262742D01*
%TO.C,Q1*%
X101440000Y-71000000D02*
X101440000Y-70350000D01*
X101440000Y-71000000D02*
X101440000Y-72675000D01*
X104560000Y-71000000D02*
X104560000Y-71650000D01*
X104560000Y-71000000D02*
X104560000Y-70350000D01*
%TO.C,TP2*%
X156450000Y-102500000D02*
G75*
G03*
X156450000Y-102500000I-1200000J0D01*
G01*
%TO.C,TP1*%
X123950000Y-105250000D02*
G75*
G03*
X123950000Y-105250000I-1200000J0D01*
G01*
%TO.C,JP1*%
X117800000Y-104300000D02*
X117500000Y-104600000D01*
X118700000Y-103450000D02*
X119300000Y-103450000D01*
X117500000Y-104000000D02*
X117500000Y-104600000D01*
X117800000Y-104300000D02*
X117500000Y-104000000D01*
X118000000Y-106900000D02*
X118000000Y-104100000D01*
X119300000Y-107550000D02*
X118700000Y-107550000D01*
X120000000Y-104100000D02*
X120000000Y-106900000D01*
X118700000Y-103450000D02*
G75*
G03*
X118000000Y-104150000I-1J-699999D01*
G01*
X119300000Y-107550000D02*
G75*
G03*
X120000000Y-106850000I0J700000D01*
G01*
X118000000Y-106850000D02*
G75*
G03*
X118700000Y-107550000I700000J0D01*
G01*
X120000000Y-104150000D02*
G75*
G03*
X119300000Y-103450000I-699999J1D01*
G01*
%TO.C,C4*%
X165590000Y-58654437D02*
X165590000Y-59940000D01*
X164956250Y-58758750D02*
X164956250Y-59546250D01*
X165590000Y-58654437D02*
X166654437Y-57590000D01*
X172410000Y-64410000D02*
X172410000Y-62060000D01*
X165590000Y-63345563D02*
X165590000Y-62060000D01*
X166654437Y-57590000D02*
X172410000Y-57590000D01*
X166654437Y-64410000D02*
X172410000Y-64410000D01*
X164562500Y-59152500D02*
X165350000Y-59152500D01*
X165590000Y-63345563D02*
X166654437Y-64410000D01*
X172410000Y-57590000D02*
X172410000Y-59940000D01*
%TO.C,Q2*%
X156940000Y-64000000D02*
X156940000Y-63350000D01*
X160060000Y-64000000D02*
X160060000Y-62325000D01*
X160060000Y-64000000D02*
X160060000Y-64650000D01*
X156940000Y-64000000D02*
X156940000Y-64650000D01*
%TO.C,TP4*%
X109450000Y-100750000D02*
G75*
G03*
X109450000Y-100750000I-1200000J0D01*
G01*
%TO.C,J1*%
X161900000Y-65600000D02*
X161100000Y-65600000D01*
X161100000Y-80300000D02*
X161900000Y-80300000D01*
X161900000Y-80300000D02*
X161900000Y-65600000D01*
X160800000Y-80700000D02*
X162200000Y-80700000D01*
X162200000Y-80700000D02*
X162200000Y-65300000D01*
X162200000Y-65300000D02*
X160800000Y-65300000D01*
X160800000Y-65300000D02*
X160800000Y-80700000D01*
G36*
X163747924Y-80846540D02*
G01*
X163147924Y-80846540D01*
X163447924Y-80346540D01*
X163747924Y-80846540D01*
G37*
X163747924Y-80846540D02*
X163147924Y-80846540D01*
X163447924Y-80346540D01*
X163747924Y-80846540D01*
%TO.C,C5*%
X154650000Y-58600000D02*
X154650000Y-59400000D01*
X154350000Y-58600000D02*
X154350000Y-59400000D01*
X154150000Y-59000000D02*
X154350000Y-59000000D01*
X154650000Y-59000000D02*
X154850000Y-59000000D01*
%TO.C,R7*%
X115762742Y-101522500D02*
X116237258Y-101522500D01*
X115762742Y-100477500D02*
X116237258Y-100477500D01*
%TO.C,TP5*%
X122450000Y-100750000D02*
G75*
G03*
X122450000Y-100750000I-1200000J0D01*
G01*
%TO.C,D1*%
X159625000Y-61725000D02*
X159625000Y-61500000D01*
X158225000Y-61300000D02*
X158325000Y-61400000D01*
X158525000Y-60700000D02*
X158525000Y-61300000D01*
X157325000Y-61500000D02*
X157325000Y-61725000D01*
X157325000Y-61725000D02*
X159625000Y-61725000D01*
X158225000Y-61000000D02*
X158525000Y-60700000D01*
X159625000Y-60500000D02*
X159625000Y-60275000D01*
X157325000Y-60275000D02*
X157325000Y-60500000D01*
X159625000Y-60275000D02*
X157325000Y-60275000D01*
X158125000Y-60600000D02*
X158225000Y-60700000D01*
X158525000Y-61000000D02*
X159025000Y-61000000D01*
X158525000Y-61300000D02*
X158225000Y-61000000D01*
X157925000Y-61000000D02*
X158225000Y-61000000D01*
X158225000Y-60700000D02*
X158225000Y-61300000D01*
%TO.C,C3*%
X106590000Y-66154437D02*
X106590000Y-67440000D01*
X107654437Y-71910000D02*
X113410000Y-71910000D01*
X106590000Y-70845563D02*
X106590000Y-69560000D01*
X105956250Y-66258750D02*
X105956250Y-67046250D01*
X113410000Y-71910000D02*
X113410000Y-69560000D01*
X105562500Y-66652500D02*
X106350000Y-66652500D01*
X107654437Y-65090000D02*
X113410000Y-65090000D01*
X106590000Y-66154437D02*
X107654437Y-65090000D01*
X113410000Y-65090000D02*
X113410000Y-67440000D01*
X106590000Y-70845563D02*
X107654437Y-71910000D01*
%TD*%
M02*
