M48
; DRILL file {KiCad (6.0.10)} date Wed Feb 15 00:37:48 2023
; FORMAT={-:-/ absolute / metric / decimal}
; #@! TF.CreationDate,2023-02-15T00:37:48+01:00
; #@! TF.GenerationSoftware,Kicad,Pcbnew,(6.0.10)
; #@! TF.FileFunction,Plated,1,2,PTH
FMAT,2
METRIC
; #@! TA.AperFunction,Plated,PTH,ViaDrill
T1C0.400
; #@! TA.AperFunction,Plated,PTH,ComponentDrill
T2C1.020
%
G90
G05
T1
X103.0Y-68.0
X103.75Y-93.25
X105.5Y-92.5
X110.5Y-101.0
X111.25Y-108.5
X111.75Y-104.75
X112.25Y-80.75
X116.7Y-104.55
X117.0Y-94.0
X117.5Y-106.25
X118.5Y-101.0
X135.75Y-71.25
X139.75Y-75.25
X151.0Y-85.5
X151.5Y-81.0
X154.0Y-60.75
X154.25Y-71.5
X155.5Y-83.5
X155.5Y-90.25
X155.562Y-73.812
X156.0Y-71.0
X156.75Y-90.0
X157.0Y-82.75
X157.012Y-92.25
X157.012Y-93.75
X157.75Y-72.75
X159.75Y-87.0
X159.75Y-105.25
X160.0Y-106.275
X162.75Y-109.5
X163.25Y-74.5
X163.75Y-87.75
X167.75Y-104.25
T2
X101.87Y-78.61
X101.87Y-96.39
X104.41Y-78.61
X104.41Y-96.39
X106.95Y-78.61
X106.95Y-96.39
X109.49Y-78.61
X109.49Y-96.39
X112.03Y-78.61
X112.03Y-96.39
X114.57Y-78.61
X114.57Y-96.39
X117.11Y-78.61
X117.11Y-96.39
X119.65Y-78.61
X119.65Y-96.39
X122.19Y-78.61
X122.19Y-96.39
X124.73Y-78.61
X124.73Y-96.39
X127.27Y-78.61
X127.27Y-96.39
X129.81Y-78.61
X129.81Y-96.39
X131.6Y-81.836
X131.6Y-84.376
X131.6Y-86.916
X132.35Y-78.61
X132.35Y-96.39
X134.89Y-78.61
X134.89Y-96.39
X137.43Y-78.61
X137.43Y-96.39
X139.97Y-78.61
X139.97Y-96.39
X142.51Y-78.61
X142.51Y-96.39
X145.05Y-78.61
X145.05Y-96.39
X147.59Y-78.61
X147.59Y-96.39
X150.13Y-78.61
X150.13Y-96.39
T0
M30
